<svg xmlns="http://www.w3.org/2000/svg" viewBox="0 0 1600 900" role="img"><title>Slotsholmen island</title><desc>The seat of power on a small island: a parliament tower, a columned supreme court and ministry blocks ringed by canal water, with Dannebrog flags under a bright sky.</desc><defs><style>.o{stroke:#1b0a3c;stroke-linejoin:round;stroke-linecap:round}@keyframes spin{to{transform:rotate(360deg)}}@keyframes spinr{to{transform:rotate(-360deg)}}@keyframes tw{0%,100%{opacity:.3}50%{opacity:1}}@keyframes pu{0%,100%{transform:scale(1)}50%{transform:scale(1.07)}}@keyframes bob{0%,100%{transform:translateY(0)}50%{transform:translateY(-9px)}}@keyframes sw{0%,100%{transform:rotate(-2.5deg)}50%{transform:rotate(2.5deg)}}@keyframes dr{0%{transform:translateX(-50px)}100%{transform:translateX(70px)}}@keyframes fl{0%,100%{transform:skewY(-4deg) scaleX(1)}50%{transform:skewY(4deg) scaleX(.96)}}@keyframes fk{0%,100%{transform:scale(1,1)}50%{transform:scale(.94,1.1)}}@keyframes wv{to{transform:translateX(calc(var(--dx) * -1))}}@keyframes wvr{from{transform:translateX(calc(var(--dx) * -1))}to{transform:none}}@keyframes ri{0%{transform:translateY(0);opacity:0}15%{opacity:1}100%{transform:translateY(var(--dy));opacity:0}}@keyframes dp{0%{transform:translateY(-70px);opacity:0}25%,70%{opacity:1}100%{transform:translateY(40px);opacity:0}}@keyframes fa{0%{transform:translate(0,-60px);opacity:0}20%{opacity:1}100%{transform:translate(60px,520px);opacity:0}}@keyframes kb{0%{transform:scale(1)}100%{transform:scale(1.045)}}@keyframes zg{0%,100%{transform:translateX(-26px)}50%{transform:translateX(26px)}}@keyframes fy{0%{transform:translateX(-300px)}100%{transform:translateX(300px)}}@keyframes bm{0%,100%{opacity:.35}50%{opacity:.8}}.spin{animation:spin var(--t,60s) linear infinite}.spinr{animation:spinr var(--t,60s) linear infinite}.tw{animation:tw var(--t,3s) ease-in-out infinite}.pulse{animation:pu var(--t,5s) ease-in-out infinite}.bob{animation:bob var(--t,5s) ease-in-out infinite}.sway{animation:sw var(--t,6s) ease-in-out infinite}.drift{animation:dr var(--t,40s) ease-in-out infinite alternate}.flag{animation:fl var(--t,3.5s) ease-in-out infinite}.flick{animation:fk var(--t,2.4s) ease-in-out infinite}.wv{animation:wv var(--t,9s) linear infinite}.wvr{animation:wvr var(--t,11s) linear infinite}.rise{animation:ri var(--t,4s) ease-out infinite}.drop{animation:dp var(--t,4s) ease-in-out infinite}.fall{animation:fa var(--t,7s) linear infinite}.kb{animation:kb 24s ease-in-out infinite alternate;transform-origin:800px 450px}.zig{animation:zg var(--t,8s) ease-in-out infinite}.fly{animation:fy var(--t,14s) ease-in-out infinite alternate}.beam{animation:bm var(--t,6s) ease-in-out infinite}@media (prefers-reduced-motion:reduce){*{animation:none!important}}</style><linearGradient id="s1" gradientTransform="rotate(90 .5 .5)"><stop offset="0" stop-color="#2459FF"/><stop offset="0.65" stop-color="#13D6F2"/><stop offset="1" stop-color="#c8fbff"/></linearGradient><pattern id="h4" width="15" height="15" patternUnits="userSpaceOnUse" patternTransform="rotate(28)"><circle cx="7.5" cy="7.5" r="3.6" fill="#1b0a3c" fill-opacity="0.34"/></pattern><mask id="m_br" maskContentUnits="objectBoundingBox" x="0" y="0" width="1" height="1"><linearGradient id="g_br" x1="0" y1="0" x2="1" y2="1"><stop offset=".25" stop-color="#000"/><stop offset="1" stop-color="#fff"/></linearGradient><rect width="1" height="1" fill="url(#g_br)"/></mask><pattern id="h6" width="15" height="15" patternUnits="userSpaceOnUse" patternTransform="rotate(28)"><circle cx="7.5" cy="7.5" r="3.6" fill="#ffffff" fill-opacity="0.5"/></pattern><mask id="m_tl" maskContentUnits="objectBoundingBox" x="0" y="0" width="1" height="1"><linearGradient id="g_tl" x1="1" y1="1" x2="0" y2="0"><stop offset=".25" stop-color="#000"/><stop offset="1" stop-color="#fff"/></linearGradient><rect width="1" height="1" fill="url(#g_tl)"/></mask><pattern id="h7" width="22" height="22" patternUnits="userSpaceOnUse" patternTransform="rotate(28)"><circle cx="11.0" cy="11.0" r="5.720000000000001" fill="#fff" fill-opacity="0.35"/></pattern><mask id="m_t" maskContentUnits="objectBoundingBox" x="0" y="0" width="1" height="1"><linearGradient id="g_t" x1="0" y1="1" x2="0" y2="0"><stop offset=".25" stop-color="#000"/><stop offset="1" stop-color="#fff"/></linearGradient><rect width="1" height="1" fill="url(#g_t)"/></mask><mask id="m_b" maskContentUnits="objectBoundingBox" x="0" y="0" width="1" height="1"><linearGradient id="g_b" x1="0" y1="0" x2="0" y2="1"><stop offset=".25" stop-color="#000"/><stop offset="1" stop-color="#fff"/></linearGradient><rect width="1" height="1" fill="url(#g_b)"/></mask><pattern id="h18" width="17" height="17" patternUnits="userSpaceOnUse" patternTransform="rotate(28)"><circle cx="8.5" cy="8.5" r="4.1" fill="#1b0a3c" fill-opacity="0.34"/></pattern><pattern id="h24" width="20" height="20" patternUnits="userSpaceOnUse" patternTransform="rotate(28)"><circle cx="10" cy="10" r="4.8" fill="#1b0a3c" fill-opacity="0.34"/></pattern><pattern id="h26" width="20" height="20" patternUnits="userSpaceOnUse" patternTransform="rotate(28)"><circle cx="10" cy="10" r="4.8" fill="#ffffff" fill-opacity="0.5"/></pattern><radialGradient id="v55" cx=".5" cy=".5" r=".75"><stop offset=".55" stop-color="#1b0a3c" stop-opacity="0"/><stop offset="1" stop-color="#1b0a3c" stop-opacity="0.4"/></radialGradient></defs><g class="kb"><rect x="0" y="0" width="1600" height="900" fill="url(#s1)"/><g class="spin" style="--t:100s;animation-delay:-0s;transform-origin:1380px 150px"><path d="M1453 142L1502 150L1453 158ZM1451 171L1493 197L1444 185ZM1437 196L1467 237L1426 207ZM1415 214L1427 263L1401 221ZM1388 223L1380 272L1372 223ZM1359 221L1333 263L1345 214ZM1334 207L1293 237L1323 196ZM1316 185L1267 197L1309 171ZM1307 158L1258 150L1307 142ZM1309 129L1267 103L1316 115ZM1323 104L1293 63L1334 93ZM1345 86L1333 37L1359 79ZM1372 77L1380 28L1388 77ZM1401 79L1427 37L1415 86ZM1426 93L1467 63L1437 104ZM1444 115L1493 103L1451 129Z" fill="#FF7A1A" class="o" stroke-width="4"/></g><path id="p2" d="M1443 132Q1447 152 1445 168Q1444 184 1431 197Q1418 210 1399 216Q1381 223 1362 215Q1343 208 1330 195Q1317 182 1313 165Q1310 148 1313 131Q1317 114 1331 103Q1344 92 1361 86Q1377 81 1397 86Q1418 91 1428 102Q1439 113 1443 132Z" fill="#FFC619" class="o" stroke-width="5"/><clipPath id="c3"><use href="#p2"/></clipPath><rect clip-path="url(#c3)" x="1310" y="80" width="140" height="140" fill="url(#h4)" mask="url(#m_br)"/><clipPath id="c5"><use href="#p2"/></clipPath><rect clip-path="url(#c5)" x="1310" y="80" width="140" height="140" fill="url(#h6)" mask="url(#m_tl)"/><g class="spin" style="--t:160s;animation-delay:-0s;transform-origin:1380px 150px"><path d="M1380 150L3080 150L3059 416ZM1380 150L2997 675L2895 922ZM1380 150L2755 1149L2582 1352ZM1380 150L2379 1525L2152 1665ZM1380 150L1905 1767L1646 1829ZM1380 150L1380 1850L1114 1829ZM1380 150L855 1767L608 1665ZM1380 150L381 1525L178 1352ZM1380 150L4.7 1149L-135 922ZM1380 150L-237 675L-299 416ZM1380 150L-320 150L-299 -116ZM1380 150L-237 -375L-135 -622ZM1380 150L4.7 -849L178 -1052ZM1380 150L381 -1225L608 -1365ZM1380 150L855 -1467L1114 -1529ZM1380 150L1380 -1550L1646 -1529ZM1380 150L1905 -1467L2152 -1365ZM1380 150L2379 -1225L2582 -1052ZM1380 150L2755 -849L2895 -622ZM1380 150L2997 -375L3059 -116Z" fill="#ffffff" opacity="0.1"/></g><rect x="0" y="0" width="1600" height="900" fill="url(#h7)" mask="url(#m_t)"/><g class="drift" style="--t:55s;animation-delay:-0s;transform-origin:0px 0px"><g transform="translate(160 180) scale(1)"><path id="p8" d="M36 -10.2Q40 -1.9 38 9.6Q36 21 29 28Q21 35 11.5 37Q1.8 40 -9.9 37Q-22 34 -28 28Q-35 21 -38 11.3Q-42 1.4 -39 -10.2Q-35 -22 -27 -28Q-19.6 -33 -9.6 -36Q0.4 -39 10.1 -37Q19.8 -35 26 -27Q33 -18.6 36 -10.2Z" fill="#fff" class="o" stroke-width="5"/><clipPath id="c9"><use href="#p8"/></clipPath><rect clip-path="url(#c9)" x="-40" y="-40" width="80" height="80" fill="url(#h4)" mask="url(#m_b)"/><path id="p10" d="M94 -35Q97 -24 93 -9.8Q89 4.2 80 14.7Q72 25 58 28Q45 30 32 26Q19.9 21 11.1 12.2Q2.2 3.4 -1.3 -8.4Q-4.7 -20 -1.6 -35Q1.6 -50 10.2 -58Q18.8 -67 31 -71Q44 -74 57 -70Q70 -67 81 -57Q91 -47 94 -35Z" fill="#fff" class="o" stroke-width="5"/><clipPath id="c11"><use href="#p10"/></clipPath><rect clip-path="url(#c11)" x="-7" y="-74" width="104" height="104" fill="url(#h4)" mask="url(#m_b)"/><path id="p12" d="M142 -19Q145 -6.8 141 3.9Q138 14.6 130 21Q123 28 112 32Q101 36 89 33Q77 29 70 22Q63 14.7 60 4.2Q56 -6.3 59 -19.2Q62 -32 70 -39Q79 -46 90 -49Q101 -51 112 -50Q123 -48 131 -40Q139 -31 142 -19Z" fill="#fff" class="o" stroke-width="5"/><clipPath id="c13"><use href="#p12"/></clipPath><rect clip-path="url(#c13)" x="56" y="-52" width="88" height="88" fill="url(#h4)" mask="url(#m_b)"/><path d="M167 -1.4Q169 6.8 168 14.6Q167 22 161 28Q155 33 148 35Q140 37 133 35Q126 33 119 27Q113 21 112 13.9Q110 6.5 112 -0.6Q114 -7.6 119 -13.3Q124 -19 132 -22Q139 -25 146 -22Q154 -18.8 159 -14.2Q165 -9.6 167 -1.4Z" fill="#fff" class="o" stroke-width="5"/><path id="p14" d="M97 2.1Q101 11.3 99 22Q96 33 88 40Q80 47 71 50Q61 53 51 49Q42 46 34 38Q26 31 22 22Q18.2 12.9 21 1.5Q25 -9.8 32 -15.8Q40 -22 49 -25Q58 -29 70 -26Q81 -22 87 -14.7Q93 -7 97 2.1Z" fill="#fff" class="o" stroke-width="5"/><clipPath id="c15"><use href="#p14"/></clipPath><rect clip-path="url(#c15)" x="20" y="-28" width="80" height="80" fill="url(#h4)" mask="url(#m_b)"/><path d="M-10.8 9.7L151 11.4L149 39L-9.4 40Z" fill="#fff"/></g></g><g class="drift" style="--t:70s;animation-delay:-22s;transform-origin:0px 0px"><g transform="translate(760 110) scale(0.8)"><path d="M36 -9.4Q39 -0.6 38 9.1Q36 18.9 28 27Q20 35 9.9 37Q-0.6 40 -10 36Q-19.5 33 -27 26Q-34 18.2 -38 8.5Q-42 -1.3 -39 -10.8Q-35 -20 -28 -28Q-19.9 -36 -9.3 -38Q1.2 -40 11.3 -37Q21 -34 28 -26Q34 -18.3 36 -9.4Z" fill="#fff" class="o" stroke-width="5.8"/><path id="p16" d="M94 -36Q97 -23 94 -9.3Q90 4.2 81 12.8Q72 21 59 26Q47 30 33 26Q18.9 21 8.7 13.1Q-1.4 5.3 -4.4 -8.2Q-7.3 -22 -3.4 -35Q0.5 -49 8.6 -59Q16.7 -69 32 -71Q47 -74 60 -70Q73 -66 82 -57Q91 -49 94 -36Z" fill="#fff" class="o" stroke-width="5.8"/><clipPath id="c17"><use href="#p16"/></clipPath><rect clip-path="url(#c17)" x="-7" y="-74" width="104" height="104" fill="url(#h18)" mask="url(#m_b)"/><path d="M142 -19.4Q145 -7.9 142 2.9Q138 13.7 131 23Q123 32 112 35Q102 38 89 34Q76 30 69 22Q61 12.8 59 1.4Q56 -9.9 58 -19.5Q60 -29 70 -37Q79 -46 90 -48Q101 -50 111 -49Q121 -47 129 -39Q138 -31 142 -19.4Z" fill="#fff" class="o" stroke-width="5.8"/><path d="M168 -1.1Q171 6 168 14.2Q165 22 160 27Q154 32 148 35Q141 37 132 34Q124 31 120 26Q115 21 112 13.5Q109 6 112 -1.4Q114 -8.8 119 -14.4Q124 -20 131 -22Q139 -23 147 -22Q156 -21 160 -14.6Q165 -8.2 168 -1.1Z" fill="#fff" class="o" stroke-width="5.8"/><path d="M99 1.6Q101 10.7 98 21Q95 32 87 40Q78 48 68 50Q59 52 49 50Q39 47 32 41Q25 34 22 23Q18.1 11.8 22 1.1Q26 -9.6 33 -17Q41 -24 50 -27Q60 -30 69 -26Q79 -22 87 -14.8Q96 -7.6 99 1.6Z" fill="#fff" class="o" stroke-width="5.8"/><path d="M-11.3 10.9L149 11.1L149 40L-11.6 39Z" fill="#fff"/></g></g><g class="wv" style="--t:10s;--dx:240px;animation-delay:-0s"><path d="M-240 690Q-180 680 -120 690Q-60 700 0 690Q60 680 120 690Q180 700 240 690Q300 680 360 690Q420 700 480 690Q540 680 600 690Q660 700 720 690Q780 680 840 690Q900 700 960 690Q1020 680 1080 690Q1140 700 1200 690Q1260 680 1320 690Q1380 700 1440 690Q1500 680 1560 690Q1620 700 1680 690Q1740 680 1800 690Q1860 700 1920 690L1840 940L-240 940Z" fill="#2459FF" class="o" stroke-width="5"/></g><g class="wvr" style="--t:12.3s;--dx:240px;animation-delay:-1.7s"><path d="M-240 720Q-180 712 -120 720Q-60 728 0 720Q60 712 120 720Q180 728 240 720Q300 712 360 720Q420 728 480 720Q540 712 600 720Q660 728 720 720Q780 712 840 720Q900 728 960 720Q1020 712 1080 720Q1140 728 1200 720Q1260 712 1320 720Q1380 728 1440 720Q1500 712 1560 720Q1620 728 1680 720Q1740 712 1800 720Q1860 728 1920 720L1840 970L-240 970Z" fill="#13D6F2" class="o" stroke-width="5"/></g><path id="p19" d="M80 700L236 699L392 700L549 699L706 699L860 699L1017 699L1174 701L1329 699L1261 641L1101 641L942 641L785 639L626 640L468 641L309 640L151 640Z" fill="#5aca8a" class="o" stroke-width="5"/><clipPath id="c20"><use href="#p19"/></clipPath><rect clip-path="url(#c20)" x="80" y="640" width="1250" height="60" fill="url(#h4)" mask="url(#m_b)"/><clipPath id="c21"><use href="#p19"/></clipPath><rect clip-path="url(#c21)" x="80" y="640" width="1250" height="60" fill="url(#h6)" mask="url(#m_tl)"/><g transform="translate(250 640) scale(0.6 0.6)"><path d="M-292 -24L-143 -23L1.5 -23L146 -22L292 -24L291 0.3L145 -0.8L-1.2 -0.9L-146 1.1L-289 1.3Z" fill="#9A8FD8" class="o" stroke-width="6.8"/><path d="M-275 -48L-93 -49L90 -47L276 -49L272 -24L93 -25L-90 -23L-276 -22Z" fill="#aea5e0" class="o" stroke-width="6.8"/><path id="p22" d="M-262 -240L-87 -239L87 -238L260 -236L262 -49L88 -47L-87 -46L-259 -48Z" fill="#FFF0D0" class="o" stroke-width="6.8"/><clipPath id="c23"><use href="#p22"/></clipPath><rect clip-path="url(#c23)" x="-260" y="-238" width="520" height="190" fill="url(#h24)" mask="url(#m_br)"/><clipPath id="c25"><use href="#p22"/></clipPath><rect clip-path="url(#c25)" x="-260" y="-238" width="520" height="190" fill="url(#h26)" mask="url(#m_tl)"/><path d="M-235 -231L-209 -230L-207 -50L-234 -48Z" fill="#FFFFFF" class="o" stroke-width="6.8"/><path d="M-149 -228L-119 -231L-119 -50L-149 -46Z" fill="#FFFFFF" class="o" stroke-width="6.8"/><path d="M-59 -230L-30 -231L-32 -49L-60 -46Z" fill="#FFFFFF" class="o" stroke-width="6.8"/><path d="M32 -231L57 -228L58 -47L29 -50Z" fill="#FFFFFF" class="o" stroke-width="6.8"/><path d="M118 -232L149 -232L146 -50L118 -48Z" fill="#FFFFFF" class="o" stroke-width="6.8"/><path d="M207 -228L236 -231L235 -49L208 -49Z" fill="#FFFFFF" class="o" stroke-width="6.8"/><path d="M-273 -261L-92 -259L91 -260L275 -260L274 -232L90 -233L-90 -233L-274 -234Z" fill="#fff4de" class="o" stroke-width="6.8"/><path id="p27" d="M-281 -258L-142 -261L-1.3 -261L140 -259L278 -258L140 -308L0.1 -356L-139 -308Z" fill="#0FA3A3" class="o" stroke-width="6.8"/><clipPath id="c28"><use href="#p27"/></clipPath><rect clip-path="url(#c28)" x="-280" y="-358" width="560" height="98" fill="url(#h24)" mask="url(#m_br)"/><clipPath id="c29"><use href="#p27"/></clipPath><rect clip-path="url(#c29)" x="-280" y="-358" width="560" height="98" fill="url(#h26)" mask="url(#m_tl)"/><path d="M18.3 -303Q20 -297 18.6 -293Q17 -289 13.9 -285Q10.9 -282 5.7 -280Q0.5 -278 -4.5 -280Q-9.5 -281 -13.2 -285Q-17 -288 -19 -293Q-21 -298 -19.4 -303Q-17.7 -308 -13.4 -312Q-9 -315 -4.4 -317Q0.1 -319 5.6 -317Q11.1 -316 13.7 -312Q16.3 -309 18.3 -303Z" fill="#FFC619" class="o" stroke-width="6.8"/><g transform="translate(0 -358) scale(0.3 0.3)"><path d="M-6 -234L8.4 -228L11.3 5L-9.3 -0.3Z" fill="#FFC619" class="o" stroke-width="17.1"/><path d="M-69 -7.4L70 -15.9L74 5.3L-70 -1Z" fill="#FFC619" class="o" stroke-width="17.1"/><path d="M16.8 -244Q18.5 -239 17.1 -235Q15.7 -230 12.6 -228Q9.4 -225 5.2 -223Q1 -221 -4.2 -222Q-9.4 -224 -12 -228Q-14.6 -232 -16.4 -236Q-18.3 -239 -16.6 -245Q-14.9 -250 -12.5 -253Q-10 -255 -5 -256Q-0 -257 4.4 -256Q8.8 -255 12 -252Q15.1 -249 16.8 -244Z" fill="#FFC619" class="o" stroke-width="17.1"/><g class="sway" style="--t:8s;animation-delay:-0s;transform-origin:0px -244px"><path d="M-150 -251L-3.6 -248L146 -245L154 -237L1.8 -241L-153 -243Z" fill="#FFC619" class="o" stroke-width="17.1"/><path d="M-138 -244L-192 -132" fill="none" stroke="#1b0a3c" stroke-width="4" stroke-linecap="round" stroke-linejoin="round"/><path d="M-143 -246L-82 -127" fill="none" stroke="#1b0a3c" stroke-width="4" stroke-linecap="round" stroke-linejoin="round"/><path d="M-207 -134L-70 -131L-102 -101L-178 -99Z" fill="#13D6F2" class="o" stroke-width="17.1"/><path d="M140 -242L84 -128" fill="none" stroke="#1b0a3c" stroke-width="4" stroke-linecap="round" stroke-linejoin="round"/><path d="M141 -244L198 -133" fill="none" stroke="#1b0a3c" stroke-width="4" stroke-linecap="round" stroke-linejoin="round"/><path d="M66 -131L210 -128L175 -100L99 -94Z" fill="#F2118C" class="o" stroke-width="17.1"/></g></g></g><path id="p30" d="M980 439L1140 440L1299 439L1299 641L1139 641L980 641Z" fill="#D8432B" class="o" stroke-width="5"/><clipPath id="c31"><use href="#p30"/></clipPath><rect clip-path="url(#c31)" x="980" y="440" width="320" height="200" fill="url(#h4)" mask="url(#m_br)"/><clipPath id="c32"><use href="#p30"/></clipPath><rect clip-path="url(#c32)" x="980" y="440" width="320" height="200" fill="url(#h6)" mask="url(#m_tl)"/><path d="M999 470L1035 471L1035 513L1000 513Z" fill="#FFC619" class="o" stroke-width="3.5"/><path d="M1070 471L1105 471L1105 514L1071 513Z" fill="#FFC619" class="o" stroke-width="3.5"/><path d="M1141 471L1173 471L1174 514L1140 513Z" fill="#FFC619" class="o" stroke-width="3.5"/><path d="M1209 469L1243 470L1245 513L1211 513Z" fill="#FFC619" class="o" stroke-width="3.5"/><path d="M999 551L1034 549L1033 594L1000 594Z" fill="#FFC619" class="o" stroke-width="3.5"/><path d="M1071 550L1105 550L1105 593L1070 593Z" fill="#FFC619" class="o" stroke-width="3.5"/><path d="M1140 551L1175 549L1173 595L1139 594Z" fill="#FFC619" class="o" stroke-width="3.5"/><path d="M1209 550L1243 551L1243 594L1211 594Z" fill="#FFC619" class="o" stroke-width="3.5"/><path id="p33" d="M1190 521L1341 521L1341 639L1189 641Z" fill="#e46a26" class="o" stroke-width="5"/><clipPath id="c34"><use href="#p33"/></clipPath><rect clip-path="url(#c34)" x="1190" y="520" width="150" height="120" fill="url(#h4)" mask="url(#m_br)"/><path d="M1206 544L1234 545L1233 591L1204 591Z" fill="#13D6F2" class="o" stroke-width="3.5"/><path d="M1249 545L1278 546L1278 591L1249 591Z" fill="#13D6F2" class="o" stroke-width="3.5"/><path d="M1294 545L1322 544L1321 590L1293 591Z" fill="#13D6F2" class="o" stroke-width="3.5"/><g transform="translate(640 645) scale(1 1)"><path id="p35" d="M-290 -121L-144 -121L1.1 -120L145 -119L290 -121L289 1.5L145 -0.4L-0.5 -0.4L-146 -1.5L-289 -1Z" fill="#5F6FA8" class="o" stroke-width="5"/><clipPath id="c36"><use href="#p35"/></clipPath><rect clip-path="url(#c36)" x="-290" y="-120" width="580" height="120" fill="url(#h4)" mask="url(#m_br)"/><clipPath id="c37"><use href="#p35"/></clipPath><rect clip-path="url(#c37)" x="-290" y="-120" width="580" height="120" fill="url(#h6)" mask="url(#m_tl)"/><path d="M-252 -0.1L-252 -91L-250 -99L-244 -106L-234 -107L-224 -106L-219 -99L-216 -91L-217 -0.1Z" fill="#160840" class="o" stroke-width="3"/><path d="M-201 0.9L-200 -91L-198 -100L-192 -107L-181 -107L-174 -104L-166 -98L-164 -90L-163 0.7Z" fill="#160840" class="o" stroke-width="3"/><path d="M-147 0.6L-148 -90L-146 -100L-139 -106L-130 -107L-120 -104L-115 -98L-112 -90L-112 -1.3Z" fill="#160840" class="o" stroke-width="3"/><path d="M-97 -0.3L-96 -89L-94 -98L-86 -106L-77 -107L-69 -106L-61 -98L-60 -90L-59 1.3Z" fill="#160840" class="o" stroke-width="3"/><path d="M-43 -0.3L-45 -91L-41 -98L-36 -104L-27 -108L-17 -106L-9.8 -99L-9.4 -90L-7.2 0.1Z" fill="#160840" class="o" stroke-width="3"/><path d="M6.8 -0.2L7.8 -91L9.1 -98L16.8 -106L25 -107L35 -107L41 -100L45 -91L44 -1.4Z" fill="#160840" class="o" stroke-width="3"/><path d="M59 1.3L59 -89L64 -99L68 -106L77 -109L88 -105L93 -100L97 -90L96 -1Z" fill="#160840" class="o" stroke-width="3"/><path d="M112 -0.9L112 -90L115 -99L121 -106L130 -109L140 -105L146 -98L149 -89L148 -0.3Z" fill="#160840" class="o" stroke-width="3"/><path d="M165 1.2L164 -90L168 -100L172 -104L182 -107L190 -104L197 -99L199 -90L200 0.8Z" fill="#160840" class="o" stroke-width="3"/><path d="M216 1.2L216 -90L217 -100L226 -104L233 -107L243 -106L249 -99L253 -91L253 -1.4Z" fill="#160840" class="o" stroke-width="3"/><path id="p38" d="M-200 -231L-0.3 -230L200 -230L200 -117L1.1 -118L-199 -119Z" fill="#9A8FD8" class="o" stroke-width="5"/><clipPath id="c39"><use href="#p38"/></clipPath><rect clip-path="url(#c39)" x="-200" y="-230" width="400" height="112" fill="url(#h4)" mask="url(#m_br)"/><clipPath id="c40"><use href="#p38"/></clipPath><rect clip-path="url(#c40)" x="-200" y="-230" width="400" height="112" fill="url(#h6)" mask="url(#m_tl)"/><path d="M-171 -143L-171 -200L-167 -207L-164 -212L-156 -213L-151 -212L-145 -208L-144 -201L-145 -144Z" fill="#FFC619" class="o" stroke-width="3.5"/><path d="M-123 -144L-123 -202L-123 -207L-117 -212L-111 -215L-103 -211L-99 -208L-99 -200L-98 -144Z" fill="#FFC619" class="o" stroke-width="3.5"/><path d="M-77 -145L-77 -200L-77 -206L-73 -212L-65 -213L-60 -213L-54 -207L-51 -200L-51 -143Z" fill="#FFC619" class="o" stroke-width="3.5"/><path d="M-32 -144L-32 -200L-30 -206L-26 -212L-19.1 -214L-12.7 -211L-8 -206L-5.8 -202L-6.4 -145Z" fill="#FFC619" class="o" stroke-width="3.5"/><path d="M14.2 -144L15 -200L17 -206L22 -213L26 -215L33 -211L37 -206L40 -200L41 -144Z" fill="#FFC619" class="o" stroke-width="3.5"/><path d="M60 -143L59 -202L63 -208L65 -212L72 -215L81 -211L85 -207L87 -200L85 -144Z" fill="#FFC619" class="o" stroke-width="3.5"/><path d="M105 -143L105 -201L109 -207L114 -212L119 -214L127 -213L131 -206L131 -201L132 -143Z" fill="#FFC619" class="o" stroke-width="3.5"/><path d="M151 -145L152 -200L154 -208L160 -213L166 -213L171 -212L177 -207L177 -200L178 -144Z" fill="#FFC619" class="o" stroke-width="3.5"/><path id="p41" d="M-47 -470L47 -469L47 -231L-48 -230Z" fill="#9A8FD8" class="o" stroke-width="5"/><clipPath id="c42"><use href="#p41"/></clipPath><rect clip-path="url(#c42)" x="-48" y="-470" width="96" height="240" fill="url(#h4)" mask="url(#m_br)"/><clipPath id="c43"><use href="#p41"/></clipPath><rect clip-path="url(#c43)" x="-48" y="-470" width="96" height="240" fill="url(#h6)" mask="url(#m_tl)"/><path d="M-61 -489L61 -491L59 -464L-60 -463Z" fill="#5F6FA8" class="o" stroke-width="5"/><path d="M-14.2 -399L-15.5 -435L-10.8 -443L-7.1 -447L0.5 -451L6.6 -448L13.1 -442L13.5 -435L14.8 -400Z" fill="#FFC619" class="o" stroke-width="3.5"/><path id="p44" d="M-34 -490L34 -490L24 -580L-24 -579Z" fill="#0FA3A3" class="o" stroke-width="5"/><clipPath id="c45"><use href="#p44"/></clipPath><rect clip-path="url(#c45)" x="-34" y="-580" width="68" height="90" fill="url(#h4)" mask="url(#m_br)"/><clipPath id="c46"><use href="#p44"/></clipPath><rect clip-path="url(#c46)" x="-34" y="-580" width="68" height="90" fill="url(#h6)" mask="url(#m_tl)"/><path d="M-25 -581L24 -579L-0.8 -640Z" fill="#0FA3A3" class="o" stroke-width="5"/><path d="M0.5 -640L-0.7 -691" fill="none" stroke="#FFC619" stroke-width="8" stroke-linecap="round" stroke-linejoin="round"/><g transform="translate(0 -706) scale(0.3 0.3)"><path d="M-74 -1.4L-78 -89L-36 -49L-0.1 -105L38 -51L74 -93L77 1.7Z" fill="#FFC619" class="o" stroke-width="10.6"/><path d="M-78 -18.1L73 -17.2L73 0.6L-72 0.3Z" fill="#ddaa1e" class="o" stroke-width="10.6"/><circle cx="0" cy="-103" r="9" fill="#C8102E" class="o" stroke-width="8.5"/><circle cx="-75" cy="-90" r="7.5" fill="#C8102E" class="o" stroke-width="8.5"/><circle cx="75" cy="-90" r="7.5" fill="#C8102E" class="o" stroke-width="8.5"/></g></g><g class="flag" style="--t:3.4s;animation-delay:-0s;transform-origin:900px 210px"><g transform="translate(900 210) scale(1 1)"><path d="M-10.5 -13.1L0.6 -14.9L2.1 226L-10.2 226Z" fill="#FFF0D0" class="o" stroke-width="5"/><path d="M8.8 -25Q9.3 -22 8.6 -18.4Q8 -15.2 5.3 -12.7Q2.7 -10.1 -1 -8.7Q-4.6 -7.3 -8.1 -8.8Q-11.6 -10.3 -14.1 -12.2Q-16.6 -14.2 -17.5 -18Q-18.4 -22 -17.6 -26Q-16.8 -29 -14.1 -32Q-11.3 -34 -7.4 -35Q-3.5 -37 -0.5 -35Q2.5 -34 5.4 -32Q8.4 -29 8.8 -25Z" fill="#FFC619" class="o" stroke-width="5"/><path id="p47" d="M0.4 -0.6L21 2.3L44 3.2L63 2.6L86 -0.8L107 -4L127 -5.1L149 -1.6L171 3.6L170 132L149 129L126 123L106 125L86 126L64 130L43 130L23 131L1.2 128Z" fill="#FFFFFF" class="o" stroke-width="5"/><clipPath id="c48"><use href="#p47"/></clipPath><rect clip-path="url(#c48)" x="0" y="-4.3" width="170" height="136" fill="url(#h4)" mask="url(#m_br)"/><path d="M0.3 -0.7L8 1.8L12.4 0.8L21 0.1L26 1.4L33 2.5L42 1.7L47 1.6L54 2.4L54 56L47 59L41 58L35 59L28 56L21 56L14.8 57L7.8 57L0.5 55Z" fill="#C8102E"/><path id="p49" d="M72 0.3L84 -0.1L96 -3.5L110 -5.1L122 -4.6L135 -4.6L147 -2.6L159 0.7L171 4.2L171 58L158 56L147 52L133 51L121 50L108 50L97 52L85 54L74 56Z" fill="#C8102E"/><clipPath id="c50"><use href="#p49"/></clipPath><rect clip-path="url(#c50)" x="74" y="-4.6" width="96" height="63" fill="url(#h4)" mask="url(#m_br)"/><clipPath id="c51"><use href="#p49"/></clipPath><rect clip-path="url(#c51)" x="74" y="-4.6" width="96" height="63" fill="url(#h6)" mask="url(#m_tl)"/><path d="M0.8 72L7.7 75L15.1 74L22 76L29 77L34 77L41 78L48 77L54 77L56 131L47 133L41 133L35 131L27 129L19.2 130L14 131L6.9 129L0.7 130Z" fill="#C8102E"/><path id="p52" d="M74 74L86 71L99 72L108 68L121 69L133 69L145 73L157 76L169 78L171 132L159 129L145 126L134 125L121 123L111 123L99 125L84 128L75 128Z" fill="#C8102E"/><clipPath id="c53"><use href="#p52"/></clipPath><rect clip-path="url(#c53)" x="74" y="69" width="96" height="63" fill="url(#h4)" mask="url(#m_br)"/><clipPath id="c54"><use href="#p52"/></clipPath><rect clip-path="url(#c54)" x="74" y="69" width="96" height="63" fill="url(#h6)" mask="url(#m_tl)"/><path d="M-1.2 1.3L22 0.3L41 1.6L63 2.1L85 -0.7L106 -4.9L128 -5.2L150 -1.2L171 3L170 131L147 127L127 123L107 126L84 126L64 131L44 132L20 131L-1.4 128Z" fill="none" class="o" stroke-width="5"/></g></g><g class="wv" style="--t:8s;--dx:300px;animation-delay:-0s"><path d="M-300 745Q-225 731 -150 745Q-75 759 0 745Q75 731 150 745Q225 759 300 745Q375 731 450 745Q525 759 600 745Q675 731 750 745Q825 759 900 745Q975 731 1050 745Q1125 759 1200 745Q1275 731 1350 745Q1425 759 1500 745Q1575 731 1650 745Q1725 759 1800 745Q1875 731 1950 745Q2025 759 2100 745L1900 940L-300 940Z" fill="#13D6F2" class="o" stroke-width="5"/></g><g class="wvr" style="--t:10.3s;--dx:300px;animation-delay:-1.7s"><path d="M-300 779Q-225 767 -150 779Q-75 791 0 779Q75 767 150 779Q225 791 300 779Q375 767 450 779Q525 791 600 779Q675 767 750 779Q825 791 900 779Q975 767 1050 779Q1125 791 1200 779Q1275 767 1350 779Q1425 791 1500 779Q1575 767 1650 779Q1725 791 1800 779Q1875 767 1950 779Q2025 791 2100 779L1900 974L-300 974Z" fill="#2459FF" class="o" stroke-width="5"/></g><g class="wv" style="--t:12.6s;--dx:300px;animation-delay:-3.4s"><path d="M-300 813Q-225 803 -150 813Q-75 823 0 813Q75 803 150 813Q225 823 300 813Q375 803 450 813Q525 823 600 813Q675 803 750 813Q825 823 900 813Q975 803 1050 813Q1125 823 1200 813Q1275 803 1350 813Q1425 823 1500 813Q1575 803 1650 813Q1725 823 1800 813Q1875 803 1950 813Q2025 823 2100 813L1900 1008L-300 1008Z" fill="#1a3ccf" class="o" stroke-width="5"/></g><rect width="1600" height="900" fill="url(#v55)"/></g></svg>