<svg xmlns="http://www.w3.org/2000/svg" viewBox="0 0 1600 900" role="img"><title>The Skarpsalling vessel</title><desc>A large round-bellied Stone Age clay pot with incised bands stands on a stone slab in front of a dolmen and a campfire at dawn.</desc><defs><style>.o{stroke:#1b0a3c;stroke-linejoin:round;stroke-linecap:round}@keyframes spin{to{transform:rotate(360deg)}}@keyframes spinr{to{transform:rotate(-360deg)}}@keyframes tw{0%,100%{opacity:.3}50%{opacity:1}}@keyframes pu{0%,100%{transform:scale(1)}50%{transform:scale(1.07)}}@keyframes bob{0%,100%{transform:translateY(0)}50%{transform:translateY(-9px)}}@keyframes sw{0%,100%{transform:rotate(-2.5deg)}50%{transform:rotate(2.5deg)}}@keyframes dr{0%{transform:translateX(-50px)}100%{transform:translateX(70px)}}@keyframes fl{0%,100%{transform:skewY(-4deg) scaleX(1)}50%{transform:skewY(4deg) scaleX(.96)}}@keyframes fk{0%,100%{transform:scale(1,1)}50%{transform:scale(.94,1.1)}}@keyframes wv{to{transform:translateX(calc(var(--dx) * -1))}}@keyframes wvr{from{transform:translateX(calc(var(--dx) * -1))}to{transform:none}}@keyframes ri{0%{transform:translateY(0);opacity:0}15%{opacity:1}100%{transform:translateY(var(--dy));opacity:0}}@keyframes dp{0%{transform:translateY(-70px);opacity:0}25%,70%{opacity:1}100%{transform:translateY(40px);opacity:0}}@keyframes fa{0%{transform:translate(0,-60px);opacity:0}20%{opacity:1}100%{transform:translate(60px,520px);opacity:0}}@keyframes kb{0%{transform:scale(1)}100%{transform:scale(1.045)}}@keyframes zg{0%,100%{transform:translateX(-26px)}50%{transform:translateX(26px)}}@keyframes fy{0%{transform:translateX(-300px)}100%{transform:translateX(300px)}}@keyframes bm{0%,100%{opacity:.35}50%{opacity:.8}}.spin{animation:spin var(--t,60s) linear infinite}.spinr{animation:spinr var(--t,60s) linear infinite}.tw{animation:tw var(--t,3s) ease-in-out infinite}.pulse{animation:pu var(--t,5s) ease-in-out infinite}.bob{animation:bob var(--t,5s) ease-in-out infinite}.sway{animation:sw var(--t,6s) ease-in-out infinite}.drift{animation:dr var(--t,40s) ease-in-out infinite alternate}.flag{animation:fl var(--t,3.5s) ease-in-out infinite}.flick{animation:fk var(--t,2.4s) ease-in-out infinite}.wv{animation:wv var(--t,9s) linear infinite}.wvr{animation:wvr var(--t,11s) linear infinite}.rise{animation:ri var(--t,4s) ease-out infinite}.drop{animation:dp var(--t,4s) ease-in-out infinite}.fall{animation:fa var(--t,7s) linear infinite}.kb{animation:kb 24s ease-in-out infinite alternate;transform-origin:800px 450px}.zig{animation:zg var(--t,8s) ease-in-out infinite}.fly{animation:fy var(--t,14s) ease-in-out infinite alternate}.beam{animation:bm var(--t,6s) ease-in-out infinite}@media (prefers-reduced-motion:reduce){*{animation:none!important}}</style><linearGradient id="s1" gradientTransform="rotate(90 .5 .5)"><stop offset="0" stop-color="#4b1aa8"/><stop offset="0.5" stop-color="#F2118C"/><stop offset="1" stop-color="#FFC619"/></linearGradient><pattern id="h2" width="22" height="22" patternUnits="userSpaceOnUse" patternTransform="rotate(28)"><circle cx="11.0" cy="11.0" r="5.720000000000001" fill="#fff" fill-opacity="0.35"/></pattern><mask id="m_b" maskContentUnits="objectBoundingBox" x="0" y="0" width="1" height="1"><linearGradient id="g_b" x1="0" y1="0" x2="0" y2="1"><stop offset=".25" stop-color="#000"/><stop offset="1" stop-color="#fff"/></linearGradient><rect width="1" height="1" fill="url(#g_b)"/></mask><pattern id="h5" width="15" height="15" patternUnits="userSpaceOnUse" patternTransform="rotate(28)"><circle cx="7.5" cy="7.5" r="3.6" fill="#1b0a3c" fill-opacity="0.34"/></pattern><mask id="m_br" maskContentUnits="objectBoundingBox" x="0" y="0" width="1" height="1"><linearGradient id="g_br" x1="0" y1="0" x2="1" y2="1"><stop offset=".25" stop-color="#000"/><stop offset="1" stop-color="#fff"/></linearGradient><rect width="1" height="1" fill="url(#g_br)"/></mask><pattern id="h7" width="15" height="15" patternUnits="userSpaceOnUse" patternTransform="rotate(28)"><circle cx="7.5" cy="7.5" r="3.6" fill="#ffffff" fill-opacity="0.5"/></pattern><mask id="m_tl" maskContentUnits="objectBoundingBox" x="0" y="0" width="1" height="1"><linearGradient id="g_tl" x1="1" y1="1" x2="0" y2="0"><stop offset=".25" stop-color="#000"/><stop offset="1" stop-color="#fff"/></linearGradient><rect width="1" height="1" fill="url(#g_tl)"/></mask><pattern id="h10" width="16" height="16" patternUnits="userSpaceOnUse" patternTransform="rotate(28)"><circle cx="8" cy="8" r="3.8" fill="#1b0a3c" fill-opacity="0.34"/></pattern><mask id="m_tr" maskContentUnits="objectBoundingBox" x="0" y="0" width="1" height="1"><linearGradient id="g_tr" x1="0" y1="1" x2="1" y2="0"><stop offset=".25" stop-color="#000"/><stop offset="1" stop-color="#fff"/></linearGradient><rect width="1" height="1" fill="url(#g_tr)"/></mask><pattern id="h24" width="14" height="14" patternUnits="userSpaceOnUse" patternTransform="rotate(28)"><circle cx="7" cy="7" r="3.4" fill="#1b0a3c" fill-opacity="0.34"/></pattern><pattern id="h26" width="14" height="14" patternUnits="userSpaceOnUse" patternTransform="rotate(28)"><circle cx="7" cy="7" r="3.4" fill="#ffffff" fill-opacity="0.5"/></pattern><pattern id="h42" width="11" height="11" patternUnits="userSpaceOnUse" patternTransform="rotate(28)"><circle cx="5.5" cy="5.5" r="2.6" fill="#1b0a3c" fill-opacity="0.34"/></pattern><pattern id="h44" width="11" height="11" patternUnits="userSpaceOnUse" patternTransform="rotate(28)"><circle cx="5.5" cy="5.5" r="2.6" fill="#ffffff" fill-opacity="0.5"/></pattern><pattern id="h49" width="16" height="16" patternUnits="userSpaceOnUse" patternTransform="rotate(28)"><circle cx="8" cy="8" r="3.8" fill="#ffffff" fill-opacity="0.5"/></pattern><pattern id="h52" width="12" height="12" patternUnits="userSpaceOnUse" patternTransform="rotate(28)"><circle cx="6" cy="6" r="2.9" fill="#1b0a3c" fill-opacity="0.34"/></pattern><pattern id="h58" width="12" height="12" patternUnits="userSpaceOnUse" patternTransform="rotate(28)"><circle cx="6" cy="6" r="2.9" fill="#ffffff" fill-opacity="0.5"/></pattern><radialGradient id="v63" cx=".5" cy=".5" r=".75"><stop offset=".55" stop-color="#1b0a3c" stop-opacity="0"/><stop offset="1" stop-color="#1b0a3c" stop-opacity="0.5"/></radialGradient></defs><g class="kb"><rect x="0" y="0" width="1600" height="900" fill="url(#s1)"/><g class="tw" style="--t:3.2s;animation-delay:-0s"><circle cx="1393" cy="451" r="2.5" fill="#FFFFFF"/><circle cx="508" cy="249" r="2" fill="#FFC619"/><path d="M915 106L917 113L924 115L917 117L915 124L913 117L906 115L913 113Z" fill="#FF6FB5"/><path d="M470 114L472 121L480 123L472 125L470 132L468 125L461 123L468 121Z" fill="#13D6F2"/><circle cx="653" cy="254" r="2.7" fill="#FF6FB5"/><circle cx="384" cy="336" r="1.2" fill="#FFFFFF"/><path d="M1503 536L1505 544L1513 546L1505 548L1503 556L1501 548L1493 546L1501 544Z" fill="#FFC619"/><path d="M34 463L36 471L44 473L36 475L34 483L32 475L24 473L32 471Z" fill="#13D6F2"/><circle cx="413" cy="433" r="2.3" fill="#FF6FB5"/><path d="M1506 133L1508 139L1514 140L1508 142L1506 148L1505 142L1499 140L1505 139Z" fill="#FFC619"/><path d="M810 343L812 350L820 353L812 355L810 362L808 355L800 353L808 350Z" fill="#FFFFFF"/><path d="M933 462L934 468L941 470L934 472L933 478L931 472L924 470L931 468Z" fill="#FFC619"/><circle cx="401" cy="78" r="1.6" fill="#FFC619"/><circle cx="1189" cy="56" r="1.6" fill="#13D6F2"/><circle cx="758" cy="29" r="1.3" fill="#13D6F2"/><circle cx="1081" cy="387" r="2.5" fill="#FF6FB5"/><path d="M1407 403L1409 409L1415 411L1409 412L1407 419L1405 412L1399 411L1405 409Z" fill="#13D6F2"/><circle cx="117" cy="243" r="2.1" fill="#13D6F2"/><circle cx="1572" cy="15.6" r="2.5" fill="#13D6F2"/><circle cx="1010" cy="451" r="2.1" fill="#FF6FB5"/><path d="M13.5 232L15.9 241L24 243L15.9 245L13.5 254L11.1 245L2.6 243L11.1 241Z" fill="#FFFFFF"/><circle cx="950" cy="151" r="1.3" fill="#FFC619"/><circle cx="5.2" cy="369" r="1.4" fill="#FF6FB5"/><path d="M1247 272L1249 279L1256 281L1249 283L1247 290L1245 283L1239 281L1245 279Z" fill="#FFC619"/></g><g class="tw" style="--t:4.1s;animation-delay:-1.3s"><path d="M1062 403L1064 409L1070 411L1064 412L1062 418L1061 412L1055 411L1061 409Z" fill="#FF6FB5"/><circle cx="640" cy="104" r="1.2" fill="#FFC619"/><path d="M693 403L695 410L701 412L695 414L693 420L691 414L684 412L691 410Z" fill="#FFC619"/><path d="M1115 134L1117 142L1125 144L1117 146L1115 153L1113 146L1106 144L1113 142Z" fill="#FFFFFF"/><circle cx="481" cy="11.8" r="2.6" fill="#13D6F2"/><path d="M39 193L41 201L49 203L41 205L39 213L36 205L28 203L36 201Z" fill="#FF6FB5"/><path d="M400 528L402 536L410 538L402 540L400 549L397 540L389 538L397 536Z" fill="#FFFFFF"/><path d="M1466 296L1468 302L1473 304L1468 305L1466 311L1464 305L1458 304L1464 302Z" fill="#FF6FB5"/><circle cx="1420" cy="251" r="2.2" fill="#FFFFFF"/><circle cx="552" cy="429" r="1.8" fill="#FF6FB5"/><circle cx="263" cy="136" r="2.4" fill="#FF6FB5"/><path d="M341 169L343 175L350 177L343 179L341 186L339 179L333 177L339 175Z" fill="#FF6FB5"/><circle cx="760" cy="309" r="2.6" fill="#13D6F2"/><circle cx="200" cy="262" r="2.6" fill="#13D6F2"/><circle cx="1360" cy="91" r="1.5" fill="#FFC619"/><circle cx="890" cy="148" r="2.6" fill="#FFFFFF"/><circle cx="510" cy="9.4" r="2.4" fill="#13D6F2"/><path d="M276 103L278 111L286 113L278 115L276 123L274 115L266 113L274 111Z" fill="#FFFFFF"/><circle cx="1011" cy="511" r="1.7" fill="#FF6FB5"/><circle cx="1339" cy="425" r="2.7" fill="#FFC619"/><circle cx="1436" cy="424" r="2" fill="#FF6FB5"/><circle cx="404" cy="502" r="2.8" fill="#13D6F2"/><circle cx="1170" cy="518" r="1.6" fill="#FFFFFF"/></g><g class="tw" style="--t:5s;animation-delay:-2.6s"><circle cx="440" cy="148" r="1.4" fill="#13D6F2"/><path d="M786 507L788 516L797 518L788 521L786 529L783 521L775 518L783 516Z" fill="#13D6F2"/><circle cx="700" cy="225" r="1.6" fill="#FFFFFF"/><path d="M634 121L636 127L641 128L636 130L634 136L633 130L627 128L633 127Z" fill="#13D6F2"/><path d="M1019 354L1022 362L1030 364L1022 367L1019 375L1017 367L1008 364L1017 362Z" fill="#FFFFFF"/><path d="M110 122L112 128L118 130L112 132L110 138L108 132L102 130L108 128Z" fill="#FFFFFF"/><path d="M111 95L113 102L119 104L113 106L111 113L109 106L102 104L109 102Z" fill="#FF6FB5"/><path d="M19.3 341L21 348L28 350L21 352L19.3 358L17.5 352L11 350L17.5 348Z" fill="#FFC619"/><circle cx="120" cy="474" r="1.9" fill="#FFFFFF"/><path d="M1159 258L1161 264L1167 266L1161 268L1159 275L1157 268L1150 266L1157 264Z" fill="#FFC619"/><path d="M1203 356L1205 364L1212 366L1205 368L1203 375L1201 368L1194 366L1201 364Z" fill="#13D6F2"/><path d="M146 259L149 267L157 270L149 272L146 280L144 272L136 270L144 267Z" fill="#FFFFFF"/><circle cx="182" cy="120" r="1.7" fill="#FFC619"/><path d="M914 355L916 363L924 366L916 368L914 376L911 368L903 366L911 363Z" fill="#FF6FB5"/><circle cx="91" cy="171" r="2" fill="#FFC619"/><path d="M49 475L52 483L60 486L52 488L49 496L47 488L38 486L47 483Z" fill="#FFC619"/><circle cx="355" cy="417" r="2" fill="#FFFFFF"/><circle cx="171" cy="40" r="2" fill="#FFC619"/><circle cx="699" cy="290" r="1.9" fill="#13D6F2"/><path d="M1015 464L1017 472L1026 474L1017 477L1015 485L1012 477L1004 474L1012 472Z" fill="#FFFFFF"/><path d="M599 332L601 340L609 342L601 345L599 353L596 345L588 342L596 340Z" fill="#FF6FB5"/><path d="M872 143L874 148L880 150L874 152L872 158L871 152L865 150L871 148Z" fill="#FF6FB5"/><path d="M10.7 38L12.5 45L19.1 47L12.5 49L10.7 55L8.8 49L2.3 47L8.8 45Z" fill="#FFFFFF"/></g><g class="spin" style="--t:140s;animation-delay:-0s;transform-origin:560px 440px"><path d="M560 440L2260 440L2234 735ZM560 440L2157 1021L2032 1290ZM560 440L1862 1533L1653 1742ZM560 440L1410 1912L1141 2037ZM560 440L855 2114L560 2140ZM560 440L265 2114L-21 2037ZM560 440L-290 1912L-533 1742ZM560 440L-742 1533L-912 1290ZM560 440L-1037 1021L-1114 735ZM560 440L-1140 440L-1114 145ZM560 440L-1037 -141L-912 -410ZM560 440L-742 -653L-533 -862ZM560 440L-290 -1032L-21 -1157ZM560 440L265 -1234L560 -1260ZM560 440L855 -1234L1141 -1157ZM560 440L1410 -1032L1653 -862ZM560 440L1862 -653L2032 -410ZM560 440L2157 -141L2234 145Z" fill="#fff" opacity="0.2"/></g><rect x="0" y="0" width="1600" height="900" fill="url(#h2)" mask="url(#m_b)"/><g class="spin" style="--t:90s;animation-delay:-0s;transform-origin:1230px 400px"><path d="M1334 388L1405 400L1334 412ZM1331 429L1392 467L1322 451ZM1312 466L1354 524L1296 482ZM1281 492L1297 562L1259 501ZM1242 504L1230 575L1218 504ZM1201 501L1163 562L1179 492ZM1164 482L1106 524L1148 466ZM1138 451L1068 467L1129 429ZM1126 412L1055 400L1126 388ZM1129 371L1068 333L1138 349ZM1148 334L1106 276L1164 318ZM1179 308L1163 238L1201 299ZM1218 296L1230 225L1242 296ZM1259 299L1297 238L1281 308ZM1296 318L1354 276L1312 334ZM1322 349L1392 333L1331 371Z" fill="#FF7A1A" class="o" stroke-width="4"/></g><path id="p3" d="M1321 374Q1330 399 1323 423Q1316 448 1298 467Q1281 486 1255 492Q1229 498 1203 493Q1178 488 1161 468Q1145 447 1139 422Q1134 396 1137 373Q1140 350 1160 333Q1179 317 1204 309Q1229 301 1255 305Q1281 310 1297 330Q1313 350 1321 374Z" fill="#FFC619" class="o" stroke-width="5"/><clipPath id="c4"><use href="#p3"/></clipPath><rect clip-path="url(#c4)" x="1130" y="300" width="200" height="200" fill="url(#h5)" mask="url(#m_br)"/><clipPath id="c6"><use href="#p3"/></clipPath><rect clip-path="url(#c6)" x="1130" y="300" width="200" height="200" fill="url(#h7)" mask="url(#m_tl)"/><g class="drift" style="--t:55s;animation-delay:-0s;transform-origin:0px 0px"><g transform="translate(220 200) scale(0.9)"><path id="p8" d="M38 -11.6Q40 -1.5 38 8.8Q35 19.2 27 26Q18.3 34 8.7 36Q-0.8 39 -10.1 38Q-19.4 36 -27 27Q-35 18.2 -37 9.2Q-40 0.3 -38 -10.2Q-36 -21 -28 -28Q-20 -36 -10.7 -37Q-1.2 -38 9.5 -36Q20 -34 28 -28Q36 -22 38 -11.6Z" fill="#ffe6f6" class="o" stroke-width="5.3"/><clipPath id="c9"><use href="#p8"/></clipPath><rect clip-path="url(#c9)" x="-40" y="-40" width="80" height="80" fill="url(#h10)" mask="url(#m_b)"/><path id="p11" d="M95 -35Q99 -24 94 -9.2Q90 5.8 80 15.3Q71 25 59 27Q47 30 32 27Q17.7 25 8.2 15.6Q-1.2 6.1 -3.7 -7Q-6.1 -20 -3.2 -33Q-0.3 -46 9.5 -57Q19.3 -69 31 -72Q43 -76 58 -72Q73 -68 82 -57Q91 -46 95 -35Z" fill="#ffe6f6" class="o" stroke-width="5.3"/><clipPath id="c12"><use href="#p11"/></clipPath><rect clip-path="url(#c12)" x="-7" y="-74" width="104" height="104" fill="url(#h10)" mask="url(#m_b)"/><path id="p13" d="M142 -19.7Q145 -8.9 141 3.5Q137 15.8 129 24Q121 31 110 33Q100 35 88 34Q76 32 69 23Q62 13.5 59 3.1Q57 -7.3 58 -18.8Q60 -30 69 -38Q78 -46 89 -49Q100 -53 111 -49Q121 -44 130 -38Q139 -31 142 -19.7Z" fill="#ffe6f6" class="o" stroke-width="5.3"/><clipPath id="c14"><use href="#p13"/></clipPath><rect clip-path="url(#c14)" x="56" y="-52" width="88" height="88" fill="url(#h10)" mask="url(#m_b)"/><path d="M169 -1.7Q171 4.9 169 12.9Q167 21 161 27Q154 32 147 34Q140 36 132 35Q124 33 119 26Q114 19.9 112 13.2Q110 6.6 111 -1.8Q113 -10.3 120 -15.2Q126 -20 133 -23Q140 -25 148 -23Q155 -20 161 -14.4Q167 -8.3 169 -1.7Z" fill="#ffe6f6" class="o" stroke-width="5.3"/><path id="p15" d="M97 1.9Q100 10.5 98 21Q96 31 88 38Q79 45 69 48Q59 51 50 49Q42 48 33 39Q24 31 21 21Q18.4 11.5 22 2.6Q26 -6.2 32 -15.2Q38 -24 48 -25Q58 -26 69 -24Q80 -22 87 -14.2Q93 -6.8 97 1.9Z" fill="#ffe6f6" class="o" stroke-width="5.3"/><clipPath id="c16"><use href="#p15"/></clipPath><rect clip-path="url(#c16)" x="20" y="-28" width="80" height="80" fill="url(#h10)" mask="url(#m_b)"/><path d="M-9.5 9.7L148 11.1L149 39L-11.3 39Z" fill="#ffe6f6"/></g></g><g class="pulse" style="--t:7s;animation-delay:-0s;transform-origin:560px 440px"><path id="p17" d="M953 439L817 490L924 591L755 570L842 721L694 639L723 834L610 694L559 834L514 670L405 811L421 646L282 718L352 579L149 610L316 489L119 439L327 394L166 277L369 313L255 135L421 230L400 55L510 191L561 33L610 188L713 68L688 249L864 135L779 292L927 289L786 394Z" fill="#FFC619" class="o" stroke-width="5"/><clipPath id="c18"><use href="#p17"/></clipPath><rect clip-path="url(#c18)" x="119" y="33" width="833" height="802" fill="url(#h7)" mask="url(#m_tl)"/></g><path id="p19" d="M-40 941L-40 760L-41 578L61 616L159 637L259 637L361 602L459 589L561 664L659 618L760 615L860 586L961 656L1059 634L1159 594L1261 610L1359 629L1459 656L1559 577L1600 759L1640 940L1499 941L1360 941L1220 941L1081 939L940 939L799 940L660 939L520 939L381 941L239 939L100 940Z" fill="#2B1478" class="o" stroke-width="5"/><clipPath id="c20"><use href="#p19"/></clipPath><rect clip-path="url(#c20)" x="-40" y="576" width="1680" height="364" fill="url(#h5)" mask="url(#m_b)"/><clipPath id="c21"><use href="#p19"/></clipPath><rect clip-path="url(#c21)" x="-40" y="576" width="1680" height="364" fill="url(#h7)" mask="url(#m_tr)"/><g transform="translate(1000 640) scale(1.1 1.1)"><path id="p22" d="M-74 -0.1L-62 -119L-14.4 -170L44 -145L74 -35L76 0.3Z" fill="#9A8FD8" class="o" stroke-width="4.7"/><clipPath id="c23"><use href="#p22"/></clipPath><rect clip-path="url(#c23)" x="-75" y="-170" width="150" height="170" fill="url(#h24)" mask="url(#m_br)"/><clipPath id="c25"><use href="#p22"/></clipPath><rect clip-path="url(#c25)" x="-75" y="-170" width="150" height="170" fill="url(#h26)" mask="url(#m_tl)"/></g><g transform="translate(1260 640) scale(1.1 1.1)"><path id="p27" d="M-74 1.3L-64 -120L-15.7 -170L45 -146L74 -33L75 -0.1Z" fill="#5F6FA8" class="o" stroke-width="4.7"/><clipPath id="c28"><use href="#p27"/></clipPath><rect clip-path="url(#c28)" x="-75" y="-170" width="150" height="170" fill="url(#h24)" mask="url(#m_br)"/><clipPath id="c29"><use href="#p27"/></clipPath><rect clip-path="url(#c29)" x="-75" y="-170" width="150" height="170" fill="url(#h26)" mask="url(#m_tl)"/></g><path id="p30" d="M960 480L1101 472L1240 465L1381 456L1396 511L1253 517L1112 523L970 529Z" fill="#9A8FD8" class="o" stroke-width="5"/><clipPath id="c31"><use href="#p30"/></clipPath><rect clip-path="url(#c31)" x="960" y="456" width="436" height="74" fill="url(#h5)" mask="url(#m_br)"/><clipPath id="c32"><use href="#p30"/></clipPath><rect clip-path="url(#c32)" x="960" y="456" width="436" height="74" fill="url(#h7)" mask="url(#m_tl)"/><path id="p33" d="M-21 641L129 640L280 639L429 639L577 641L724 639L876 639L1023 640L1172 641L1322 639L1470 640L1620 639L1620 790L1619 940L1471 941L1322 940L1173 939L1023 940L875 941L724 941L576 940L426 939L278 940L128 940L-18.6 941L-19.9 789Z" fill="#14C48A" class="o" stroke-width="5"/><clipPath id="c34"><use href="#p33"/></clipPath><rect clip-path="url(#c34)" x="-20" y="640" width="1640" height="300" fill="url(#h5)" mask="url(#m_b)"/><path id="p35" d="M-20 719L130 721L277 719L427 720L578 721L724 720L875 721L1025 720L1173 721L1320 721L1470 719L1620 721L1620 940L1470 940L1322 939L1172 939L1024 939L875 940L726 940L577 941L428 941L278 939L128 940L-19.6 940Z" fill="#149e7b" class="o" stroke-width="5"/><clipPath id="c36"><use href="#p35"/></clipPath><rect clip-path="url(#c36)" x="-20" y="720" width="1640" height="220" fill="url(#h5)" mask="url(#m_b)"/><g class="pulse" style="--t:4s;animation-delay:-0s;transform-origin:560px 450px"><circle cx="201" cy="612" r="12.3" fill="#1b0a3c"/><circle cx="202" cy="611" r="7.6" fill="#FFFFFF"/><circle cx="222" cy="629" r="4" fill="#FFC619"/><circle cx="625" cy="779" r="9" fill="#1b0a3c"/><circle cx="626" cy="778" r="5.6" fill="#FFC619"/><circle cx="726" cy="216" r="8.2" fill="#1b0a3c"/><circle cx="727" cy="215" r="5.1" fill="#FFC619"/><circle cx="754" cy="216" r="2.2" fill="#FFC619"/><circle cx="615" cy="775" r="14.1" fill="#1b0a3c"/><circle cx="616" cy="774" r="8.7" fill="#FFFFFF"/><circle cx="836" cy="195" r="11.4" fill="#1b0a3c"/><circle cx="837" cy="193" r="7" fill="#FFC619"/><circle cx="813" cy="203" r="2.7" fill="#FFC619"/><circle cx="539" cy="189" r="9.9" fill="#1b0a3c"/><circle cx="540" cy="188" r="6.1" fill="#FFC619"/><circle cx="549" cy="112" r="11.6" fill="#1b0a3c"/><circle cx="550" cy="111" r="7.2" fill="#FFFFFF"/><circle cx="571" cy="123" r="3.2" fill="#FFC619"/><circle cx="824" cy="731" r="13.8" fill="#1b0a3c"/><circle cx="826" cy="729" r="8.6" fill="#FFC619"/><circle cx="449" cy="218" r="7.2" fill="#1b0a3c"/><circle cx="450" cy="217" r="4.5" fill="#FFC619"/><circle cx="478" cy="237" r="2.3" fill="#FFC619"/><circle cx="204" cy="478" r="5.5" fill="#1b0a3c"/><circle cx="204" cy="477" r="3.4" fill="#FFFFFF"/><circle cx="361" cy="633" r="12.3" fill="#1b0a3c"/><circle cx="362" cy="632" r="7.6" fill="#FFC619"/><circle cx="340" cy="636" r="3" fill="#FFC619"/></g><g class="pulse" style="--t:5.7s;animation-delay:-1.3s;transform-origin:560px 450px"><circle cx="841" cy="730" r="8.3" fill="#1b0a3c"/><circle cx="842" cy="729" r="5.2" fill="#FFC619"/><circle cx="892" cy="365" r="6.9" fill="#1b0a3c"/><circle cx="893" cy="364" r="4.3" fill="#FFFFFF"/><circle cx="311" cy="230" r="6.8" fill="#1b0a3c"/><circle cx="312" cy="229" r="4.2" fill="#FFC619"/><circle cx="913" cy="443" r="14.6" fill="#1b0a3c"/><circle cx="915" cy="441" r="9" fill="#FFC619"/><circle cx="789" cy="640" r="12.3" fill="#1b0a3c"/><circle cx="790" cy="638" r="7.7" fill="#FFFFFF"/><circle cx="369" cy="760" r="8.8" fill="#1b0a3c"/><circle cx="370" cy="759" r="5.5" fill="#FFC619"/><circle cx="831" cy="232" r="8" fill="#1b0a3c"/><circle cx="832" cy="231" r="4.9" fill="#FFC619"/><circle cx="743" cy="134" r="9" fill="#1b0a3c"/><circle cx="744" cy="133" r="5.6" fill="#FFFFFF"/><circle cx="852" cy="263" r="5.3" fill="#1b0a3c"/><circle cx="852" cy="262" r="3.3" fill="#FFC619"/><circle cx="318" cy="500" r="12.8" fill="#1b0a3c"/><circle cx="319" cy="498" r="8" fill="#FFC619"/><circle cx="771" cy="238" r="7.6" fill="#1b0a3c"/><circle cx="772" cy="237" r="4.7" fill="#FFFFFF"/></g><path id="p37" d="M299 691L472 690L648 689L820 689L819 746L645 746L473 745L299 745Z" fill="#9A8FD8" class="o" stroke-width="5"/><clipPath id="c38"><use href="#p37"/></clipPath><rect clip-path="url(#c38)" x="300" y="690" width="520" height="56" fill="url(#h5)" mask="url(#m_br)"/><clipPath id="c39"><use href="#p37"/></clipPath><rect clip-path="url(#c39)" x="300" y="690" width="520" height="56" fill="url(#h7)" mask="url(#m_tl)"/><g transform="translate(560 690) scale(1.6 1.6)"><path id="p40" d="M0.1 -251Q-70 -251 -60 -226Q-50 -201 -51 -186Q-51 -170 -80 -145Q-109 -120 -123 -96Q-136 -71 -118 -42Q-101 -12.9 -81 -6.3Q-61 0.2 0.1 0.5Q61 0.7 81 -6.7Q101 -14 118 -42Q135 -69 122 -94Q109 -119 80 -144Q51 -170 51 -185Q51 -200 60 -225Q70 -251 0.1 -251Z" fill="#FF7A1A" class="o" stroke-width="3.8"/><clipPath id="c41"><use href="#p40"/></clipPath><rect clip-path="url(#c41)" x="-135" y="-250" width="270" height="250" fill="url(#h42)" mask="url(#m_br)"/><clipPath id="c43"><use href="#p40"/></clipPath><rect clip-path="url(#c43)" x="-135" y="-250" width="270" height="250" fill="url(#h44)" mask="url(#m_tl)"/><path d="M-84 -263L84 -261L85 -245L-84 -247Z" fill="#d16421" class="o" stroke-width="3.8"/><path d="M-96 -184L-100 -194L-75 -178L-50 -193L-26 -176L-0.5 -193L25 -177L49 -193L74 -176L100 -194" fill="none" stroke="#FFF0D0" stroke-width="5" stroke-linecap="round" stroke-linejoin="round"/><path d="M-96 -140L-100 -148L-76 -132L-50 -148L-25 -132L0 -148L25 -132L49 -148L74 -133L99 -148" fill="none" stroke="#FFF0D0" stroke-width="5" stroke-linecap="round" stroke-linejoin="round"/><path d="M-96 -95L-100 -103L-74 -87L-51 -102L-26 -87L0.6 -103L25 -86L51 -102L75 -87L100 -102" fill="none" stroke="#FFF0D0" stroke-width="5" stroke-linecap="round" stroke-linejoin="round"/><path d="M-96 -50L-100 -58L-74 -43L-49 -59L-25 -42L0 -58L25 -43L51 -59L76 -42L101 -58" fill="none" stroke="#FFF0D0" stroke-width="5" stroke-linecap="round" stroke-linejoin="round"/></g><g transform="translate(1130 780) scale(0.9 0.9)"><g class="flick" style="--t:2.6s;animation-delay:-0s;transform-origin:0px -10px"><path id="p45" d="M-91 -32L-71 -151L-29 -111L-21 -240L19.5 -150L49 -211L81 -109L96 -29Z" fill="#C8102E" class="o" stroke-width="5.3"/><clipPath id="c46"><use href="#p45"/></clipPath><rect clip-path="url(#c46)" x="-90" y="-240" width="186" height="210" fill="url(#h10)" mask="url(#m_br)"/></g><g class="flick" style="--t:2.2s;animation-delay:-0.7s;transform-origin:0px -10px"><path id="p47" d="M-60 -29L-41 -111L-8.8 -101L-0.2 -199L29 -109L59 -79L65 -29Z" fill="#FF7A1A" class="o" stroke-width="5.3"/><clipPath id="c48"><use href="#p47"/></clipPath><rect clip-path="url(#c48)" x="-60" y="-200" width="124" height="170" fill="url(#h49)" mask="url(#m_tl)"/></g><g class="flick" style="--t:2s;animation-delay:-0.3s;transform-origin:0px -10px"><path d="M-31 -31L-14.5 -90L-1.1 -120L17.6 -80L28 -30Z" fill="#FFC619" class="o" stroke-width="5.3"/></g><path d="M-91 10.7L61 -40" fill="none" stroke="#1b0a3c" stroke-width="30" stroke-linecap="round" stroke-linejoin="round"/><path d="M-91 9.3L61 -41" fill="none" stroke="#8a5a2b" stroke-width="20" stroke-linecap="round" stroke-linejoin="round"/><path d="M89 9.3L-59 -40" fill="none" stroke="#1b0a3c" stroke-width="30" stroke-linecap="round" stroke-linejoin="round"/><path d="M89 9.5L-59 -40" fill="none" stroke="#a66a2e" stroke-width="20" stroke-linecap="round" stroke-linejoin="round"/><g class="rise" style="--t:6.8s;--dy:-198px;animation-delay:-3s"><circle cx="-42" cy="-100" r="5" fill="#FFFFFF"/></g><g class="rise" style="--t:4.9s;--dy:-195px;animation-delay:-1.3s"><circle cx="-37" cy="-100" r="3.9" fill="#FFC619"/></g><g class="rise" style="--t:5.9s;--dy:-213px;animation-delay:-4.6s"><circle cx="-4.9" cy="-100" r="3.1" fill="#FFFFFF"/></g><g class="rise" style="--t:4.2s;--dy:-191px;animation-delay:-4.6s"><circle cx="-35" cy="-100" r="3.7" fill="#FFC619"/></g><g class="rise" style="--t:5.2s;--dy:-153px;animation-delay:-1.7s"><circle cx="24" cy="-100" r="4.9" fill="#FFFFFF"/></g><g class="rise" style="--t:6s;--dy:-243px;animation-delay:-2.5s"><circle cx="46" cy="-100" r="3.2" fill="#FFC619"/></g><g class="rise" style="--t:5.2s;--dy:-164px;animation-delay:-1.5s"><circle cx="-43" cy="-100" r="3.4" fill="#FFFFFF"/></g><g class="rise" style="--t:5.7s;--dy:-231px;animation-delay:-4.7s"><circle cx="25" cy="-100" r="2.2" fill="#FFC619"/></g><g class="rise" style="--t:6.1s;--dy:-169px;animation-delay:-2.9s"><circle cx="-13.2" cy="-100" r="2.5" fill="#FFFFFF"/></g><g class="rise" style="--t:6.9s;--dy:-209px;animation-delay:-2.6s"><circle cx="-13.3" cy="-100" r="3" fill="#FFC619"/></g><g class="rise" style="--t:5.3s;--dy:-232px;animation-delay:-0.8s"><circle cx="-31" cy="-100" r="3.4" fill="#FFFFFF"/></g><g class="rise" style="--t:5.1s;--dy:-224px;animation-delay:-0.2s"><circle cx="-36" cy="-100" r="3.1" fill="#FFC619"/></g></g><g transform="translate(150 700) scale(1.4 1.4)"><path d="M-8.4 -21L7.2 -19L7.5 0.9L-8.9 -0.7Z" fill="#6b4a2b" class="o" stroke-width="4.1"/><path id="p50" d="M-51 -21L50 -19.1L0.3 -111Z" fill="#0FA3A3" class="o" stroke-width="4.1"/><clipPath id="c51"><use href="#p50"/></clipPath><rect clip-path="url(#c51)" x="-50" y="-110" width="100" height="90" fill="url(#h52)" mask="url(#m_br)"/><path id="p53" d="M-40 -80L39 -80L1 -161Z" fill="#0FA3A3" class="o" stroke-width="4.1"/><clipPath id="c54"><use href="#p53"/></clipPath><rect clip-path="url(#c54)" x="-40" y="-160" width="80" height="80" fill="url(#h52)" mask="url(#m_br)"/><path id="p55" d="M-29 -130L28 -130L0.1 -200Z" fill="#0FA3A3" class="o" stroke-width="4.1"/><clipPath id="c56"><use href="#p55"/></clipPath><rect clip-path="url(#c56)" x="-28" y="-200" width="56" height="70" fill="url(#h52)" mask="url(#m_br)"/><clipPath id="c57"><use href="#p55"/></clipPath><rect clip-path="url(#c57)" x="-28" y="-200" width="56" height="70" fill="url(#h58)" mask="url(#m_tl)"/></g><g transform="translate(250 700) scale(1 1)"><path d="M-7.9 -21L6.8 -19.4L6.7 -1.1L-8.1 0.5Z" fill="#6b4a2b" class="o" stroke-width="5"/><path id="p59" d="M-49 -19.3L51 -19.5L-0 -111Z" fill="#0FA3A3" class="o" stroke-width="5"/><clipPath id="c60"><use href="#p59"/></clipPath><rect clip-path="url(#c60)" x="-50" y="-110" width="100" height="90" fill="url(#h5)" mask="url(#m_br)"/><path id="p61" d="M-39 -79L41 -79L-1.2 -161Z" fill="#0FA3A3" class="o" stroke-width="5"/><clipPath id="c62"><use href="#p61"/></clipPath><rect clip-path="url(#c62)" x="-40" y="-160" width="80" height="80" fill="url(#h5)" mask="url(#m_br)"/><path d="M-29 -129L27 -130L0.5 -200Z" fill="#0FA3A3" class="o" stroke-width="5"/></g><rect width="1600" height="900" fill="url(#v63)"/></g></svg>