<svg xmlns="http://www.w3.org/2000/svg" viewBox="0 0 1600 900" role="img"><title>Silent film era</title><desc>A vintage film camera on a tripod faces a cinema screen glowing with a silhouetted woman with a dark bob and a dramatic raised hand, framed by film strips and spotlight beams in grey-violet tones.</desc><defs><style>.o{stroke:#1b0a3c;stroke-linejoin:round;stroke-linecap:round}@keyframes spin{to{transform:rotate(360deg)}}@keyframes spinr{to{transform:rotate(-360deg)}}@keyframes tw{0%,100%{opacity:.3}50%{opacity:1}}@keyframes pu{0%,100%{transform:scale(1)}50%{transform:scale(1.07)}}@keyframes bob{0%,100%{transform:translateY(0)}50%{transform:translateY(-9px)}}@keyframes sw{0%,100%{transform:rotate(-2.5deg)}50%{transform:rotate(2.5deg)}}@keyframes dr{0%{transform:translateX(-50px)}100%{transform:translateX(70px)}}@keyframes fl{0%,100%{transform:skewY(-4deg) scaleX(1)}50%{transform:skewY(4deg) scaleX(.96)}}@keyframes fk{0%,100%{transform:scale(1,1)}50%{transform:scale(.94,1.1)}}@keyframes wv{to{transform:translateX(calc(var(--dx) * -1))}}@keyframes wvr{from{transform:translateX(calc(var(--dx) * -1))}to{transform:none}}@keyframes ri{0%{transform:translateY(0);opacity:0}15%{opacity:1}100%{transform:translateY(var(--dy));opacity:0}}@keyframes dp{0%{transform:translateY(-70px);opacity:0}25%,70%{opacity:1}100%{transform:translateY(40px);opacity:0}}@keyframes fa{0%{transform:translate(0,-60px);opacity:0}20%{opacity:1}100%{transform:translate(60px,520px);opacity:0}}@keyframes kb{0%{transform:scale(1)}100%{transform:scale(1.045)}}@keyframes zg{0%,100%{transform:translateX(-26px)}50%{transform:translateX(26px)}}@keyframes fy{0%{transform:translateX(-300px)}100%{transform:translateX(300px)}}@keyframes bm{0%,100%{opacity:.35}50%{opacity:.8}}.spin{animation:spin var(--t,60s) linear infinite}.spinr{animation:spinr var(--t,60s) linear infinite}.tw{animation:tw var(--t,3s) ease-in-out infinite}.pulse{animation:pu var(--t,5s) ease-in-out infinite}.bob{animation:bob var(--t,5s) ease-in-out infinite}.sway{animation:sw var(--t,6s) ease-in-out infinite}.drift{animation:dr var(--t,40s) ease-in-out infinite alternate}.flag{animation:fl var(--t,3.5s) ease-in-out infinite}.flick{animation:fk var(--t,2.4s) ease-in-out infinite}.wv{animation:wv var(--t,9s) linear infinite}.wvr{animation:wvr var(--t,11s) linear infinite}.rise{animation:ri var(--t,4s) ease-out infinite}.drop{animation:dp var(--t,4s) ease-in-out infinite}.fall{animation:fa var(--t,7s) linear infinite}.kb{animation:kb 24s ease-in-out infinite alternate;transform-origin:800px 450px}.zig{animation:zg var(--t,8s) ease-in-out infinite}.fly{animation:fy var(--t,14s) ease-in-out infinite alternate}.beam{animation:bm var(--t,6s) ease-in-out infinite}@media (prefers-reduced-motion:reduce){*{animation:none!important}}</style><linearGradient id="s1" gradientTransform="rotate(90 .5 .5)"><stop offset="0" stop-color="#160840"/><stop offset="0.55" stop-color="#4a3a9a"/><stop offset="1" stop-color="#9A8FD8"/></linearGradient><pattern id="h2" width="22" height="22" patternUnits="userSpaceOnUse" patternTransform="rotate(28)"><circle cx="11.0" cy="11.0" r="5.720000000000001" fill="#fff" fill-opacity="0.35"/></pattern><mask id="m_b" maskContentUnits="objectBoundingBox" x="0" y="0" width="1" height="1"><linearGradient id="g_b" x1="0" y1="0" x2="0" y2="1"><stop offset=".25" stop-color="#000"/><stop offset="1" stop-color="#fff"/></linearGradient><rect width="1" height="1" fill="url(#g_b)"/></mask><pattern id="h5" width="15" height="15" patternUnits="userSpaceOnUse" patternTransform="rotate(28)"><circle cx="7.5" cy="7.5" r="3.6" fill="#1b0a3c" fill-opacity="0.34"/></pattern><mask id="m_br" maskContentUnits="objectBoundingBox" x="0" y="0" width="1" height="1"><linearGradient id="g_br" x1="0" y1="0" x2="1" y2="1"><stop offset=".25" stop-color="#000"/><stop offset="1" stop-color="#fff"/></linearGradient><rect width="1" height="1" fill="url(#g_br)"/></mask><pattern id="h7" width="15" height="15" patternUnits="userSpaceOnUse" patternTransform="rotate(28)"><circle cx="7.5" cy="7.5" r="3.6" fill="#ffffff" fill-opacity="0.5"/></pattern><mask id="m_tl" maskContentUnits="objectBoundingBox" x="0" y="0" width="1" height="1"><linearGradient id="g_tl" x1="1" y1="1" x2="0" y2="0"><stop offset=".25" stop-color="#000"/><stop offset="1" stop-color="#fff"/></linearGradient><rect width="1" height="1" fill="url(#g_tl)"/></mask><radialGradient id="gl10"><stop offset="0" stop-color="#FFFFFF" stop-opacity="0.3"/><stop offset="1" stop-color="#FFFFFF" stop-opacity="0"/></radialGradient><pattern id="h21" width="10" height="10" patternUnits="userSpaceOnUse" patternTransform="rotate(28)"><circle cx="5" cy="5" r="2.4" fill="#1b0a3c" fill-opacity="0.34"/></pattern><pattern id="h23" width="10" height="10" patternUnits="userSpaceOnUse" patternTransform="rotate(28)"><circle cx="5" cy="5" r="2.4" fill="#ffffff" fill-opacity="0.5"/></pattern><radialGradient id="v32" cx=".5" cy=".5" r=".75"><stop offset=".55" stop-color="#1b0a3c" stop-opacity="0"/><stop offset="1" stop-color="#1b0a3c" stop-opacity="0.55"/></radialGradient></defs><g class="kb"><rect x="0" y="0" width="1600" height="900" fill="url(#s1)"/><g class="tw" style="--t:3.2s;animation-delay:-0s"><circle cx="1193" cy="290" r="1.8" fill="#FF6FB5"/><circle cx="187" cy="297" r="2.2" fill="#FFC619"/><path d="M652 423L654 431L661 433L654 435L652 442L650 435L642 433L650 431Z" fill="#FFFFFF"/><path d="M1380 130L1382 137L1390 140L1382 142L1380 150L1378 142L1370 140L1378 137Z" fill="#FF6FB5"/><path d="M888 377L890 385L898 387L890 389L888 397L885 389L877 387L885 385Z" fill="#FFFFFF"/><circle cx="1426" cy="505" r="2.3" fill="#FFC619"/><path d="M1236 27L1238 33L1243 35L1238 36L1236 42L1234 36L1229 35L1234 33Z" fill="#FFFFFF"/><path d="M792 513L794 520L801 522L794 524L792 530L791 524L784 522L791 520Z" fill="#FFC619"/><path d="M1473 370L1476 378L1484 381L1476 383L1473 392L1471 383L1462 381L1471 378Z" fill="#FFFFFF"/><path d="M748 440L751 448L758 450L751 452L748 460L746 452L739 450L746 448Z" fill="#FFC619"/><circle cx="311" cy="291" r="2.2" fill="#FF6FB5"/><path d="M284 371L286 378L293 380L286 381L284 388L283 381L276 380L283 378Z" fill="#FFFFFF"/><path d="M375 6.2L378 14.1L386 16.4L378 18.6L375 27L373 18.6L365 16.4L373 14.1Z" fill="#FF6FB5"/><circle cx="443" cy="44" r="1.8" fill="#FFC619"/><path d="M1402 505L1404 511L1410 513L1404 514L1402 521L1400 514L1394 513L1400 511Z" fill="#FFC619"/><path d="M185 477L187 485L195 487L187 489L185 497L182 489L175 487L182 485Z" fill="#FFFFFF"/><path d="M1418 503L1420 511L1428 513L1420 515L1418 522L1416 515L1409 513L1416 511Z" fill="#FF6FB5"/><circle cx="1252" cy="411" r="1.4" fill="#13D6F2"/><circle cx="1579" cy="112" r="1.7" fill="#FFC619"/><circle cx="636" cy="457" r="2.1" fill="#FFFFFF"/><path d="M815 401L817 409L825 411L817 413L815 421L813 413L805 411L813 409Z" fill="#FFFFFF"/><circle cx="101" cy="505" r="2.7" fill="#FFC619"/><circle cx="289" cy="13.2" r="2.7" fill="#FF6FB5"/><circle cx="562" cy="296" r="2.1" fill="#FFFFFF"/></g><g class="tw" style="--t:4.1s;animation-delay:-1.3s"><path d="M852 103L854 109L860 111L854 113L852 119L850 113L844 111L850 109Z" fill="#FF6FB5"/><circle cx="1511" cy="211" r="2.6" fill="#FFC619"/><path d="M506 236L508 243L515 245L508 247L506 253L505 247L498 245L505 243Z" fill="#FF6FB5"/><circle cx="1498" cy="85" r="2.3" fill="#FF6FB5"/><circle cx="939" cy="453" r="1.8" fill="#13D6F2"/><circle cx="246" cy="76" r="1.9" fill="#FFFFFF"/><path d="M377 210L378 217L385 219L378 221L377 227L375 221L368 219L375 217Z" fill="#FFC619"/><circle cx="27" cy="45" r="2" fill="#13D6F2"/><path d="M232 84L235 92L243 94L235 97L232 105L230 97L222 94L230 92Z" fill="#FFFFFF"/><circle cx="1509" cy="323" r="1.4" fill="#FFC619"/><path d="M1532 111L1534 118L1542 120L1534 123L1532 130L1530 123L1523 120L1530 118Z" fill="#13D6F2"/><path d="M1518 131L1520 139L1529 142L1520 144L1518 153L1515 144L1507 142L1515 139Z" fill="#FFFFFF"/><circle cx="1040" cy="317" r="2.3" fill="#FF6FB5"/><circle cx="1368" cy="3.3" r="1.7" fill="#FF6FB5"/><path d="M219 503L221 509L227 511L221 513L219 519L217 513L211 511L217 509Z" fill="#13D6F2"/><circle cx="157" cy="523" r="1.8" fill="#13D6F2"/><circle cx="1499" cy="182" r="1.3" fill="#FFFFFF"/><circle cx="169" cy="437" r="2.3" fill="#FFC619"/><circle cx="394" cy="153" r="2" fill="#13D6F2"/><circle cx="629" cy="33" r="2.3" fill="#FFFFFF"/><circle cx="692" cy="447" r="1.7" fill="#FFFFFF"/><path d="M1232 186L1234 195L1243 197L1234 199L1232 208L1230 199L1221 197L1230 195Z" fill="#FFFFFF"/><path d="M119 455L121 463L130 465L121 467L119 476L117 467L108 465L117 463Z" fill="#FFC619"/></g><g class="tw" style="--t:5s;animation-delay:-2.6s"><path d="M1429 365L1431 372L1439 375L1431 377L1429 385L1427 377L1419 375L1427 372Z" fill="#FFFFFF"/><circle cx="8.1" cy="180" r="1.7" fill="#13D6F2"/><path d="M122 5.3L124 11.9L131 13.8L124 15.7L122 22L121 15.7L114 13.8L121 11.9Z" fill="#13D6F2"/><circle cx="1035" cy="66" r="1.7" fill="#13D6F2"/><circle cx="794" cy="300" r="1.8" fill="#FFFFFF"/><circle cx="1118" cy="302" r="2.4" fill="#FFFFFF"/><path d="M1515 436L1517 443L1523 445L1517 446L1515 453L1513 446L1507 445L1513 443Z" fill="#FF6FB5"/><circle cx="472" cy="53" r="2" fill="#13D6F2"/><circle cx="233" cy="497" r="2.3" fill="#FFFFFF"/><circle cx="1011" cy="452" r="2.7" fill="#FFFFFF"/><path d="M877 488L879 496L887 499L879 501L877 509L874 501L866 499L874 496Z" fill="#13D6F2"/><path d="M1324 420L1326 426L1332 428L1326 430L1324 436L1322 430L1316 428L1322 426Z" fill="#FFFFFF"/><circle cx="342" cy="92" r="2.6" fill="#13D6F2"/><circle cx="1095" cy="447" r="2.4" fill="#FF6FB5"/><circle cx="706" cy="398" r="1.7" fill="#13D6F2"/><path d="M974 516L976 524L984 526L976 529L974 537L972 529L964 526L972 524Z" fill="#FF6FB5"/><path d="M971 353L973 360L980 362L973 364L971 371L969 364L962 362L969 360Z" fill="#FFFFFF"/><circle cx="1024" cy="190" r="2.4" fill="#FFC619"/><path d="M170 283L172 292L181 294L172 296L170 305L168 296L159 294L168 292Z" fill="#FFC619"/><circle cx="1115" cy="22" r="1.4" fill="#13D6F2"/><path d="M5.8 367L8 375L15.8 377L8 379L5.8 387L3.6 379L-4.1 377L3.6 375Z" fill="#FF6FB5"/><circle cx="573" cy="16.1" r="1.2" fill="#FF6FB5"/><circle cx="24" cy="17.9" r="2.1" fill="#FFFFFF"/></g><g class="spin" style="--t:140s;animation-delay:-0s;transform-origin:900px 380px"><path d="M900 380L2600 380L2574 675ZM900 380L2497 961L2372 1230ZM900 380L2202 1473L1993 1682ZM900 380L1750 1852L1481 1977ZM900 380L1195 2054L900 2080ZM900 380L605 2054L319 1977ZM900 380L50 1852L-193 1682ZM900 380L-402 1473L-572 1230ZM900 380L-697 961L-774 675ZM900 380L-800 380L-774 85ZM900 380L-697 -201L-572 -470ZM900 380L-402 -713L-193 -922ZM900 380L50 -1092L319 -1217ZM900 380L605 -1294L900 -1320ZM900 380L1195 -1294L1481 -1217ZM900 380L1750 -1092L1993 -922ZM900 380L2202 -713L2372 -470ZM900 380L2497 -201L2574 85Z" fill="#fff" opacity="0.1"/></g><rect x="0" y="0" width="1600" height="900" fill="url(#h2)" mask="url(#m_b)"/><path id="p3" d="M560 130L708 129L857 129L1004 130L1153 129L1300 129L1301 276L1299 423L1299 571L1152 571L1004 570L857 570L709 569L559 571L560 424L561 277Z" fill="#FFF0D0" class="o" stroke-width="5"/><clipPath id="c4"><use href="#p3"/></clipPath><rect clip-path="url(#c4)" x="560" y="130" width="740" height="440" fill="url(#h5)" mask="url(#m_br)"/><clipPath id="c6"><use href="#p3"/></clipPath><rect clip-path="url(#c6)" x="560" y="130" width="740" height="440" fill="url(#h7)" mask="url(#m_tl)"/><path id="p8" d="M581 150L721 150L861 150L1000 151L1141 149L1279 150L1281 349L1281 549L1140 551L1001 549L860 549L719 550L579 550L581 350Z" fill="#9A8FD8" class="o" stroke-width="5"/><clipPath id="c9"><use href="#p8"/></clipPath><rect clip-path="url(#c9)" x="580" y="150" width="700" height="400" fill="url(#h7)" mask="url(#m_tl)"/><g class="pulse" style="--t:5s;animation-delay:-0s;transform-origin:930px 350px"><circle cx="930" cy="350" r="340" fill="url(#gl10)"/></g><path id="p11" d="M851 549L860 440L899 400L960 401L1010 440L1021 549Z" fill="#160840" class="o" stroke-width="5"/><clipPath id="c12"><use href="#p11"/></clipPath><rect clip-path="url(#c12)" x="850" y="400" width="170" height="150" fill="url(#h5)" mask="url(#m_br)"/><path d="M983 326Q988 338 984 352Q979 366 970 376Q960 387 948 390Q936 393 923 388Q909 383 899 373Q888 364 886 351Q884 339 887 326Q890 313 900 305Q911 297 923 294Q935 290 947 292Q959 293 969 303Q979 313 983 326Z" fill="#160840" class="o" stroke-width="5"/><path d="M869 331L880 269L936 255L990 271L999 331L999 371L971 349L901 351L871 370Z" fill="#160840" class="o" stroke-width="5"/><path d="M1000 460L1059 420L1080 330L1061 321L1041 410L990 439Z" fill="#160840" class="o" stroke-width="5"/><path d="M1081 315Q1082 318 1082 321Q1081 324 1079 326Q1076 328 1073 329Q1071 330 1067 329Q1063 328 1062 326Q1060 324 1059 321Q1058 318 1059 315Q1059 311 1061 309Q1063 307 1066 307Q1069 307 1073 307Q1076 307 1078 310Q1080 312 1081 315Z" fill="#160840" class="o" stroke-width="5"/><path id="p13" d="M60 639L227 679L392 719L559 760L561 839L393 800L228 760L60 721Z" fill="#160840" class="o" stroke-width="5"/><clipPath id="c14"><use href="#p13"/></clipPath><rect clip-path="url(#c14)" x="60" y="640" width="500" height="200" fill="url(#h5)" mask="url(#m_br)"/><path d="M67 657L109 659L109 703L69 702Z" fill="#FFF0D0" class="o" stroke-width="3"/><circle cx="80" cy="648" r="4" fill="#FFF0D0"/><circle cx="80" cy="712" r="4" fill="#FFF0D0"/><path d="M139 674L180 676L181 718L138 719Z" fill="#FFF0D0" class="o" stroke-width="3"/><circle cx="151" cy="665" r="4" fill="#FFF0D0"/><circle cx="151" cy="729" r="4" fill="#FFF0D0"/><path d="M210 693L251 693L251 738L211 735Z" fill="#FFF0D0" class="o" stroke-width="3"/><circle cx="223" cy="682" r="4" fill="#FFF0D0"/><circle cx="223" cy="746" r="4" fill="#FFF0D0"/><path d="M283 709L322 708L323 754L284 754Z" fill="#FFF0D0" class="o" stroke-width="3"/><circle cx="294" cy="699" r="4" fill="#FFF0D0"/><circle cx="294" cy="763" r="4" fill="#FFF0D0"/><path d="M354 725L393 725L395 770L354 771Z" fill="#FFF0D0" class="o" stroke-width="3"/><circle cx="366" cy="717" r="4" fill="#FFF0D0"/><circle cx="366" cy="781" r="4" fill="#FFF0D0"/><path d="M426 744L466 744L464 789L424 788Z" fill="#FFF0D0" class="o" stroke-width="3"/><circle cx="437" cy="734" r="4" fill="#FFF0D0"/><circle cx="437" cy="798" r="4" fill="#FFF0D0"/><path d="M495 760L537 761L537 804L498 805Z" fill="#FFF0D0" class="o" stroke-width="3"/><circle cx="509" cy="751" r="4" fill="#FFF0D0"/><circle cx="509" cy="815" r="4" fill="#FFF0D0"/><path d="M569 777L609 778L607 821L568 821Z" fill="#FFF0D0" class="o" stroke-width="3"/><circle cx="580" cy="768" r="4" fill="#FFF0D0"/><circle cx="580" cy="832" r="4" fill="#FFF0D0"/><path id="p15" d="M1050 701L1219 681L1389 661L1560 640L1561 721L1390 739L1221 760L1050 780Z" fill="#160840" class="o" stroke-width="5"/><clipPath id="c16"><use href="#p15"/></clipPath><rect clip-path="url(#c16)" x="1050" y="640" width="510" height="140" fill="url(#h5)" mask="url(#m_br)"/><path d="M1058 718L1099 718L1098 761L1058 763Z" fill="#FFF0D0" class="o" stroke-width="3"/><circle cx="1070" cy="708" r="4" fill="#FFF0D0"/><circle cx="1070" cy="772" r="4" fill="#FFF0D0"/><path d="M1131 711L1170 708L1172 752L1130 753Z" fill="#FFF0D0" class="o" stroke-width="3"/><circle cx="1143" cy="699" r="4" fill="#FFF0D0"/><circle cx="1143" cy="763" r="4" fill="#FFF0D0"/><path d="M1203 700L1245 700L1244 746L1203 745Z" fill="#FFF0D0" class="o" stroke-width="3"/><circle cx="1216" cy="691" r="4" fill="#FFF0D0"/><circle cx="1216" cy="755" r="4" fill="#FFF0D0"/><path d="M1277 693L1317 693L1317 736L1277 736Z" fill="#FFF0D0" class="o" stroke-width="3"/><circle cx="1289" cy="682" r="4" fill="#FFF0D0"/><circle cx="1289" cy="746" r="4" fill="#FFF0D0"/><path d="M1349 683L1389 683L1390 728L1349 728Z" fill="#FFF0D0" class="o" stroke-width="3"/><circle cx="1361" cy="674" r="4" fill="#FFF0D0"/><circle cx="1361" cy="738" r="4" fill="#FFF0D0"/><path d="M1423 676L1462 675L1463 719L1422 718Z" fill="#FFF0D0" class="o" stroke-width="3"/><circle cx="1434" cy="665" r="4" fill="#FFF0D0"/><circle cx="1434" cy="729" r="4" fill="#FFF0D0"/><path d="M1494 666L1536 666L1537 711L1495 712Z" fill="#FFF0D0" class="o" stroke-width="3"/><circle cx="1507" cy="657" r="4" fill="#FFF0D0"/><circle cx="1507" cy="721" r="4" fill="#FFF0D0"/><path d="M1568 657L1607 657L1607 703L1567 703Z" fill="#FFF0D0" class="o" stroke-width="3"/><circle cx="1580" cy="648" r="4" fill="#FFF0D0"/><circle cx="1580" cy="712" r="4" fill="#FFF0D0"/><path id="p17" d="M-18.6 789L128 791L279 791L426 789L575 790L725 789L874 791L1024 789L1173 789L1323 789L1472 790L1619 790L1619 940L1472 939L1321 939L1173 939L1025 939L873 939L725 941L575 941L428 939L277 940L128 939L-19.4 939Z" fill="#160840" class="o" stroke-width="5"/><clipPath id="c18"><use href="#p17"/></clipPath><rect clip-path="url(#c18)" x="-20" y="790" width="1640" height="150" fill="url(#h5)" mask="url(#m_b)"/><g transform="translate(300 640) scale(1.9 1.9)"><path id="p19" d="M-99 -121L89 -121L90 -9.1L-100 -9.7Z" fill="#160840" class="o" stroke-width="3.6"/><clipPath id="c20"><use href="#p19"/></clipPath><rect clip-path="url(#c20)" x="-100" y="-120" width="190" height="110" fill="url(#h21)" mask="url(#m_br)"/><clipPath id="c22"><use href="#p19"/></clipPath><rect clip-path="url(#c22)" x="-100" y="-120" width="190" height="110" fill="url(#h23)" mask="url(#m_tl)"/><path id="p24" d="M89 -101L160 -129L160 -30L90 -26Z" fill="#5F6FA8" class="o" stroke-width="3.6"/><clipPath id="c25"><use href="#p24"/></clipPath><rect clip-path="url(#c25)" x="90" y="-130" width="70" height="104" fill="url(#h21)" mask="url(#m_br)"/><path id="p26" d="M2.8 -182Q7.4 -168 3.3 -154Q-0.9 -140 -10.7 -132Q-20 -123 -35 -118Q-49 -112 -64 -117Q-78 -121 -89 -131Q-99 -142 -103 -156Q-106 -171 -103 -183Q-101 -196 -90 -208Q-79 -221 -64 -223Q-49 -225 -34 -222Q-20 -219 -11 -208Q-1.8 -196 2.8 -182Z" fill="#9A8FD8" class="o" stroke-width="3.6"/><clipPath id="c27"><use href="#p26"/></clipPath><rect clip-path="url(#c27)" x="-106" y="-226" width="112" height="112" fill="url(#h21)" mask="url(#m_br)"/><clipPath id="c28"><use href="#p26"/></clipPath><rect clip-path="url(#c28)" x="-106" y="-226" width="112" height="112" fill="url(#h23)" mask="url(#m_tl)"/><path id="p29" d="M74 -188Q77 -178 73 -165Q69 -152 62 -143Q55 -135 41 -132Q28 -130 18 -134Q7.8 -138 -0.3 -145Q-8.4 -152 -13.1 -165Q-17.8 -177 -14.4 -188Q-11 -200 -2.6 -207Q5.8 -214 18 -217Q30 -221 41 -219Q52 -217 62 -208Q71 -199 74 -188Z" fill="#9A8FD8" class="o" stroke-width="3.6"/><clipPath id="c30"><use href="#p29"/></clipPath><rect clip-path="url(#c30)" x="-16" y="-222" width="92" height="92" fill="url(#h21)" mask="url(#m_br)"/><clipPath id="c31"><use href="#p29"/></clipPath><rect clip-path="url(#c31)" x="-16" y="-222" width="92" height="92" fill="url(#h23)" mask="url(#m_tl)"/><path d="M-33 -175Q-31 -171 -33 -166Q-34 -162 -37 -158Q-41 -154 -45 -153Q-49 -153 -54 -154Q-59 -155 -63 -158Q-66 -161 -67 -165Q-69 -169 -67 -174Q-65 -179 -62 -182Q-58 -185 -54 -187Q-50 -188 -46 -187Q-41 -186 -38 -183Q-35 -180 -33 -175Z" fill="#1b0a3c"/><path d="M43 -179Q44 -177 43 -173Q42 -170 40 -167Q38 -165 34 -163Q30 -161 26 -163Q23 -164 20 -166Q17.4 -168 16.8 -172Q16.3 -176 17.2 -179Q18.1 -183 21 -185Q24 -188 27 -189Q29 -189 33 -188Q37 -188 40 -185Q42 -182 43 -179Z" fill="#1b0a3c"/><path d="M-30 -9.4L-59 70" fill="none" stroke="#1b0a3c" stroke-width="8" stroke-linecap="round" stroke-linejoin="round"/><path d="M30 -10.2L60 69" fill="none" stroke="#1b0a3c" stroke-width="8" stroke-linecap="round" stroke-linejoin="round"/><circle cx="-62" cy="-80" r="8" fill="#C8102E"/></g><g transform="translate(1400 40) rotate(14) scale(1 1)"><g class="beam" style="--t:7s;animation-delay:-0s;transform-origin:0px 0px"><path d="M0 0L-120 700L120 700Z" fill="#ffffff" opacity="0.2"/></g><path d="M-22 -12.7L21 -13.9L30 18L-30 18.6Z" fill="#160840" class="o" stroke-width="5"/><path d="M10.9 2.8Q11.5 6.2 10.8 9.5Q10.2 12.8 8 14.4Q5.8 16 3.2 17Q0.6 18 -3.1 17Q-6.7 15.9 -8.9 13.7Q-11.1 11.5 -11.7 8.7Q-12.2 5.9 -11.2 3.1Q-10.1 0.4 -8.2 -2.1Q-6.3 -4.6 -3.1 -5Q0 -5.4 2.7 -5Q5.3 -4.5 7.8 -2.6Q10.3 -0.7 10.9 2.8Z" fill="#FFC619"/></g><g transform="translate(120 40) rotate(-14) scale(1 1)"><g class="beam" style="--t:7s;animation-delay:-0s;transform-origin:0px 0px"><path d="M0 0L-120 700L120 700Z" fill="#ffffff" opacity="0.2"/></g><path d="M-21 -14L22 -15.1L29 17.8L-29 18.1Z" fill="#160840" class="o" stroke-width="5"/><path d="M11.7 3Q12.7 5.6 11.4 9.1Q10.1 12.6 8 14.3Q5.9 16.1 3.2 17.2Q0.6 18.3 -2.8 17.4Q-6.3 16.5 -8.2 13.9Q-10.1 11.4 -11.1 8.7Q-12.1 5.9 -11.3 3.1Q-10.5 0.3 -7.9 -2.2Q-5.4 -4.7 -2.7 -5Q0 -5.3 2.8 -4.6Q5.6 -3.9 8.1 -1.7Q10.6 0.4 11.7 3Z" fill="#FFC619"/></g><g class="pulse" style="--t:5s;animation-delay:-0s;transform-origin:1400px 220px"><path d="M1401 189L1408 209L1429 211L1413 224L1417 244L1399 234L1381 245L1387 223L1372 209L1392 209Z" fill="#FFC619" class="o" stroke-width="5"/></g><rect width="1600" height="900" fill="url(#v32)"/></g></svg>