<svg xmlns="http://www.w3.org/2000/svg" viewBox="0 0 1600 900" role="img"><title>The Wadden Sea at high and low tide</title><desc>A split view of the Wadden Sea: on the left the water is high and covers the flats, on the right the tide is out, leaving rippled mud with wading birds and snails.</desc><defs><style>.o{stroke:#1b0a3c;stroke-linejoin:round;stroke-linecap:round}@keyframes spin{to{transform:rotate(360deg)}}@keyframes spinr{to{transform:rotate(-360deg)}}@keyframes tw{0%,100%{opacity:.3}50%{opacity:1}}@keyframes pu{0%,100%{transform:scale(1)}50%{transform:scale(1.07)}}@keyframes bob{0%,100%{transform:translateY(0)}50%{transform:translateY(-9px)}}@keyframes sw{0%,100%{transform:rotate(-2.5deg)}50%{transform:rotate(2.5deg)}}@keyframes dr{0%{transform:translateX(-50px)}100%{transform:translateX(70px)}}@keyframes fl{0%,100%{transform:skewY(-4deg) scaleX(1)}50%{transform:skewY(4deg) scaleX(.96)}}@keyframes fk{0%,100%{transform:scale(1,1)}50%{transform:scale(.94,1.1)}}@keyframes wv{to{transform:translateX(calc(var(--dx) * -1))}}@keyframes wvr{from{transform:translateX(calc(var(--dx) * -1))}to{transform:none}}@keyframes ri{0%{transform:translateY(0);opacity:0}15%{opacity:1}100%{transform:translateY(var(--dy));opacity:0}}@keyframes dp{0%{transform:translateY(-70px);opacity:0}25%,70%{opacity:1}100%{transform:translateY(40px);opacity:0}}@keyframes fa{0%{transform:translate(0,-60px);opacity:0}20%{opacity:1}100%{transform:translate(60px,520px);opacity:0}}@keyframes kb{0%{transform:scale(1)}100%{transform:scale(1.045)}}@keyframes zg{0%,100%{transform:translateX(-26px)}50%{transform:translateX(26px)}}@keyframes fy{0%{transform:translateX(-300px)}100%{transform:translateX(300px)}}@keyframes bm{0%,100%{opacity:.35}50%{opacity:.8}}.spin{animation:spin var(--t,60s) linear infinite}.spinr{animation:spinr var(--t,60s) linear infinite}.tw{animation:tw var(--t,3s) ease-in-out infinite}.pulse{animation:pu var(--t,5s) ease-in-out infinite}.bob{animation:bob var(--t,5s) ease-in-out infinite}.sway{animation:sw var(--t,6s) ease-in-out infinite}.drift{animation:dr var(--t,40s) ease-in-out infinite alternate}.flag{animation:fl var(--t,3.5s) ease-in-out infinite}.flick{animation:fk var(--t,2.4s) ease-in-out infinite}.wv{animation:wv var(--t,9s) linear infinite}.wvr{animation:wvr var(--t,11s) linear infinite}.rise{animation:ri var(--t,4s) ease-out infinite}.drop{animation:dp var(--t,4s) ease-in-out infinite}.fall{animation:fa var(--t,7s) linear infinite}.kb{animation:kb 24s ease-in-out infinite alternate;transform-origin:800px 450px}.zig{animation:zg var(--t,8s) ease-in-out infinite}.fly{animation:fy var(--t,14s) ease-in-out infinite alternate}.beam{animation:bm var(--t,6s) ease-in-out infinite}@media (prefers-reduced-motion:reduce){*{animation:none!important}}</style><linearGradient id="s1" gradientTransform="rotate(90 .5 .5)"><stop offset="0" stop-color="#4b1aa8"/><stop offset="0.5" stop-color="#F2118C"/><stop offset="1" stop-color="#FFC619"/></linearGradient><pattern id="h2" width="22" height="22" patternUnits="userSpaceOnUse" patternTransform="rotate(28)"><circle cx="11.0" cy="11.0" r="5.720000000000001" fill="#fff" fill-opacity="0.35"/></pattern><mask id="m_b" maskContentUnits="objectBoundingBox" x="0" y="0" width="1" height="1"><linearGradient id="g_b" x1="0" y1="0" x2="0" y2="1"><stop offset=".25" stop-color="#000"/><stop offset="1" stop-color="#fff"/></linearGradient><rect width="1" height="1" fill="url(#g_b)"/></mask><pattern id="h5" width="15" height="15" patternUnits="userSpaceOnUse" patternTransform="rotate(28)"><circle cx="7.5" cy="7.5" r="3.6" fill="#1b0a3c" fill-opacity="0.34"/></pattern><mask id="m_br" maskContentUnits="objectBoundingBox" x="0" y="0" width="1" height="1"><linearGradient id="g_br" x1="0" y1="0" x2="1" y2="1"><stop offset=".25" stop-color="#000"/><stop offset="1" stop-color="#fff"/></linearGradient><rect width="1" height="1" fill="url(#g_br)"/></mask><pattern id="h7" width="15" height="15" patternUnits="userSpaceOnUse" patternTransform="rotate(28)"><circle cx="7.5" cy="7.5" r="3.6" fill="#ffffff" fill-opacity="0.5"/></pattern><mask id="m_tl" maskContentUnits="objectBoundingBox" x="0" y="0" width="1" height="1"><linearGradient id="g_tl" x1="1" y1="1" x2="0" y2="0"><stop offset=".25" stop-color="#000"/><stop offset="1" stop-color="#fff"/></linearGradient><rect width="1" height="1" fill="url(#g_tl)"/></mask><pattern id="h12" width="13" height="13" patternUnits="userSpaceOnUse" patternTransform="rotate(28)"><circle cx="6.5" cy="6.5" r="3.1" fill="#1b0a3c" fill-opacity="0.34"/></pattern><pattern id="h15" width="12" height="12" patternUnits="userSpaceOnUse" patternTransform="rotate(28)"><circle cx="6" cy="6" r="2.9" fill="#1b0a3c" fill-opacity="0.34"/></pattern><clipPath id="hl"><path d="M-10 -10L800 -10L760 150L840 300L740 450L820 620L760 940L-10 940Z"/></clipPath><radialGradient id="v18" cx=".5" cy=".5" r=".75"><stop offset=".55" stop-color="#1b0a3c" stop-opacity="0"/><stop offset="1" stop-color="#1b0a3c" stop-opacity="0.5"/></radialGradient></defs><g class="kb"><rect x="0" y="0" width="1600" height="900" fill="url(#s1)"/><g class="spin" style="--t:140s;animation-delay:-0s;transform-origin:800px 450px"><path d="M800 450L2500 450L2474 745ZM800 450L2397 1031L2272 1300ZM800 450L2102 1543L1893 1752ZM800 450L1650 1922L1381 2047ZM800 450L1095 2124L800 2150ZM800 450L505 2124L219 2047ZM800 450L-50 1922L-293 1752ZM800 450L-502 1543L-672 1300ZM800 450L-797 1031L-874 745ZM800 450L-900 450L-874 155ZM800 450L-797 -131L-672 -400ZM800 450L-502 -643L-293 -852ZM800 450L-50 -1022L219 -1147ZM800 450L505 -1224L800 -1250ZM800 450L1095 -1224L1381 -1147ZM800 450L1650 -1022L1893 -852ZM800 450L2102 -643L2272 -400ZM800 450L2397 -131L2474 155Z" fill="#fff" opacity="0.1"/></g><rect x="0" y="0" width="1600" height="900" fill="url(#h2)" mask="url(#m_b)"/><g class="spin" style="--t:90s;animation-delay:-0s;transform-origin:800px 330px"><path d="M873 322L922 330L873 338ZM871 351L913 377L864 365ZM857 376L887 417L846 387ZM835 394L847 443L821 401ZM808 403L800 452L792 403ZM779 401L753 443L765 394ZM754 387L713 417L743 376ZM736 365L687 377L729 351ZM727 338L678 330L727 322ZM729 309L687 283L736 295ZM743 284L713 243L754 273ZM765 266L753 217L779 259ZM792 257L800 208L808 257ZM821 259L847 217L835 266ZM846 273L887 243L857 284ZM864 295L913 283L871 309Z" fill="#FF7A1A" class="o" stroke-width="4"/></g><path id="p3" d="M867 312Q872 329 866 346Q861 363 848 378Q835 393 817 395Q799 398 783 395Q768 393 754 378Q740 364 734 348Q727 332 734 314Q741 296 752 283Q763 271 782 265Q802 260 818 264Q835 268 849 281Q863 295 867 312Z" fill="#FFC619" class="o" stroke-width="5"/><clipPath id="c4"><use href="#p3"/></clipPath><rect clip-path="url(#c4)" x="730" y="260" width="140" height="140" fill="url(#h5)" mask="url(#m_br)"/><clipPath id="c6"><use href="#p3"/></clipPath><rect clip-path="url(#c6)" x="730" y="260" width="140" height="140" fill="url(#h7)" mask="url(#m_tl)"/><path id="p8" d="M-21 481L128 479L277 480L426 480L576 479L726 481L875 479L1024 481L1172 481L1322 480L1472 481L1619 481L1620 632L1621 786L1620 940L1470 940L1321 941L1172 939L1024 940L874 940L726 941L576 941L426 940L279 940L130 940L-21 940L-19.3 787L-19.9 632Z" fill="#FFD98A" class="o" stroke-width="5"/><clipPath id="c9"><use href="#p8"/></clipPath><rect clip-path="url(#c9)" x="-20" y="480" width="1640" height="460" fill="url(#h5)" mask="url(#m_b)"/><g class="wv" style="--t:12s;--dx:240px;animation-delay:-0s"><path d="M-240 470Q-180 464 -120 470Q-60 476 0 470Q60 464 120 470Q180 476 240 470Q300 464 360 470Q420 476 480 470Q540 464 600 470Q660 476 720 470Q780 464 840 470Q900 476 960 470Q1020 464 1080 470Q1140 476 1200 470Q1260 464 1320 470Q1380 476 1440 470Q1500 464 1560 470Q1620 476 1680 470Q1740 464 1800 470Q1860 476 1920 470L1840 510L-240 510Z" fill="#13D6F2" class="o" stroke-width="5"/></g><path d="M840 560L900 548L950 565" fill="none" stroke="#bb9b73" stroke-width="6" stroke-linecap="round" stroke-linejoin="round"/><path d="M949 599L1009 588L1059 603" fill="none" stroke="#bb9b73" stroke-width="6" stroke-linecap="round" stroke-linejoin="round"/><path d="M1060 560L1120 548L1170 564" fill="none" stroke="#bb9b73" stroke-width="6" stroke-linecap="round" stroke-linejoin="round"/><path d="M1171 600L1231 588L1280 603" fill="none" stroke="#bb9b73" stroke-width="6" stroke-linecap="round" stroke-linejoin="round"/><path d="M1280 561L1340 547L1390 564" fill="none" stroke="#bb9b73" stroke-width="6" stroke-linecap="round" stroke-linejoin="round"/><path d="M1391 599L1450 587L1499 604" fill="none" stroke="#bb9b73" stroke-width="6" stroke-linecap="round" stroke-linejoin="round"/><path d="M1500 559L1559 549L1611 563" fill="none" stroke="#bb9b73" stroke-width="6" stroke-linecap="round" stroke-linejoin="round"/><g transform="translate(1050 640) scale(1.3 1.3)"><path d="M-6.1 -50L-8.3 -0.5" fill="none" stroke="#FF7A1A" stroke-width="6" stroke-linecap="round" stroke-linejoin="round"/><path d="M7.5 -50L9.7 -0.3" fill="none" stroke="#FF7A1A" stroke-width="6" stroke-linecap="round" stroke-linejoin="round"/><path id="p10" d="M32 -76Q34 -71 31 -65Q29 -58 23 -55Q17.6 -52 8.6 -50Q-0.4 -48 -8.2 -50Q-15.9 -52 -23 -55Q-29 -59 -31 -64Q-33 -70 -31 -76Q-30 -82 -23 -85Q-15.9 -89 -8.1 -90Q-0.4 -92 8.7 -91Q17.7 -89 24 -85Q30 -80 32 -76Z" fill="#FFFFFF" class="o" stroke-width="4.3"/><clipPath id="c11"><use href="#p10"/></clipPath><rect clip-path="url(#c11)" x="-34" y="-92" width="68" height="44" fill="url(#h12)" mask="url(#m_br)"/><path d="M43 -96Q44 -92 43 -89Q42 -85 40 -82Q38 -79 34 -79Q30 -78 26 -79Q22 -80 20 -82Q18.7 -85 17.5 -88Q16.4 -91 17 -95Q17.7 -99 20 -101Q23 -104 27 -105Q30 -105 33 -105Q37 -104 39 -101Q42 -99 43 -96Z" fill="#1b0a3c" class="o" stroke-width="4.3"/><path d="M41 -97L96 -89L43 -87Z" fill="#FF7A1A" class="o" stroke-width="4.3"/><path d="M-31 -78L-51 -70L-31 -60Z" fill="#1b0a3c" class="o" stroke-width="4.3"/></g><g transform="translate(1320 700) scale(-1.1 1.1)"><path d="M-6.7 -50L-7.1 0.9" fill="none" stroke="#FF7A1A" stroke-width="6" stroke-linecap="round" stroke-linejoin="round"/><path d="M7.6 -51L9.1 0.3" fill="none" stroke="#FF7A1A" stroke-width="6" stroke-linecap="round" stroke-linejoin="round"/><path d="M32 -76Q34 -69 32 -64Q30 -59 24 -55Q17.5 -50 8.5 -49Q-0.5 -47 -8.9 -49Q-17.2 -52 -23 -55Q-29 -59 -32 -64Q-35 -69 -32 -75Q-29 -81 -24 -85Q-18.1 -90 -8.9 -91Q0.4 -92 8.7 -90Q17 -88 23 -85Q30 -82 32 -76Z" fill="#FFFFFF" class="o" stroke-width="4.7"/><path d="M44 -96Q44 -92 43 -88Q42 -84 39 -82Q36 -80 33 -79Q31 -78 27 -79Q23 -80 20 -82Q17.1 -85 16.6 -88Q16.1 -91 16.8 -95Q17.6 -98 20 -101Q23 -104 26 -105Q30 -106 34 -105Q37 -104 40 -102Q43 -100 44 -96Z" fill="#1b0a3c" class="o" stroke-width="4.7"/><path d="M39 -96L97 -88L43 -85Z" fill="#FF7A1A" class="o" stroke-width="4.7"/><path d="M-31 -78L-51 -69L-29 -60Z" fill="#1b0a3c" class="o" stroke-width="4.7"/></g><g transform="translate(1180 790) scale(1.5 1.5)"><path d="M-6.1 -51L-8.1 0.1" fill="none" stroke="#FF7A1A" stroke-width="6" stroke-linecap="round" stroke-linejoin="round"/><path d="M8.2 -50L9.6 -0.3" fill="none" stroke="#FF7A1A" stroke-width="6" stroke-linecap="round" stroke-linejoin="round"/><path id="p13" d="M32 -76Q33 -70 31 -64Q30 -59 23 -55Q17.4 -51 8.9 -50Q0.3 -49 -8.9 -50Q-18.1 -51 -24 -54Q-30 -58 -32 -64Q-34 -70 -32 -76Q-30 -82 -23 -85Q-16 -89 -7.9 -91Q0.3 -92 8.9 -91Q17.6 -89 24 -86Q30 -82 32 -76Z" fill="#FFFFFF" class="o" stroke-width="4"/><clipPath id="c14"><use href="#p13"/></clipPath><rect clip-path="url(#c14)" x="-34" y="-92" width="68" height="44" fill="url(#h15)" mask="url(#m_br)"/><path d="M43 -95Q44 -91 43 -88Q43 -86 40 -83Q37 -80 33 -79Q30 -78 26 -79Q23 -80 20 -83Q17.6 -85 16.5 -89Q15.3 -92 16.2 -95Q17.1 -99 20 -101Q23 -104 26 -105Q30 -106 33 -105Q37 -104 39 -102Q41 -100 43 -95Z" fill="#1b0a3c" class="o" stroke-width="4"/><path d="M41 -96L96 -87L43 -86Z" fill="#FF7A1A" class="o" stroke-width="4"/><path d="M-29 -78L-51 -69L-29 -60Z" fill="#1b0a3c" class="o" stroke-width="4"/></g><g transform="translate(900 620) scale(1.2 1.2)"><path d="M12.5 -18.2Q13.2 -14.7 12.4 -11.1Q11.6 -7.4 9 -4.6Q6.3 -1.8 3.5 -1.2Q0.6 -0.6 -3 -0.8Q-6.6 -1.1 -9.2 -3.8Q-11.7 -6.4 -13.2 -10Q-14.6 -13.6 -13.2 -17Q-11.8 -20 -9.4 -23Q-6.9 -26 -3.6 -27Q-0.3 -28 3.5 -27Q7.3 -26 9.5 -24Q11.8 -22 12.5 -18.2Z" fill="#FFD98A" class="o" stroke-width="4.5"/><path d="M5.5 -15.5Q6 -13.9 5.7 -12.5Q5.4 -11.2 4.5 -10.2Q3.5 -9.2 1.9 -8.7Q0.3 -8.3 -1.1 -8.8Q-2.5 -9.3 -3.7 -10Q-4.9 -10.7 -5.7 -12.4Q-6.5 -14.2 -5.6 -15.4Q-4.8 -16.5 -3.8 -18Q-2.8 -19.4 -1.5 -19.6Q-0.3 -19.7 1.1 -19.4Q2.5 -19 3.8 -18.1Q5 -17.1 5.5 -15.5Z" fill="#FF7A1A"/><path d="M9.7 -3.7L40 -3.4L43 -12.3L13.6 -23Z" fill="#8A5A3C" class="o" stroke-width="4.5"/></g><g transform="translate(1250 600) scale(1.2 1.2)"><path d="M13 -17.2Q14.1 -13.2 13 -10.1Q11.8 -6.9 9.5 -4Q7.1 -1.2 3.4 -0.6Q-0.4 -0.1 -3.6 -1.1Q-6.9 -2.1 -9.8 -4.3Q-12.6 -6.4 -13.5 -10Q-14.4 -13.6 -12.9 -17.2Q-11.3 -21 -9.3 -24Q-7.2 -26 -3.8 -28Q-0.4 -29 3.7 -27Q7.7 -26 9.8 -23Q11.9 -21 13 -17.2Z" fill="#FFD98A" class="o" stroke-width="4.5"/><path d="M5.7 -15.4Q6.4 -13.5 6 -12.5Q5.7 -11.5 4.5 -10.1Q3.2 -8.6 1.7 -8.1Q0.2 -7.5 -1.4 -8.1Q-3.1 -8.6 -4.2 -10Q-5.3 -11.3 -5.9 -12.9Q-6.5 -14.5 -6 -15.9Q-5.5 -17.2 -4.5 -18Q-3.5 -18.9 -2 -19.3Q-0.5 -19.7 1.4 -19.4Q3.3 -19.2 4.1 -18.2Q5 -17.2 5.7 -15.4Z" fill="#FF7A1A"/><path d="M10.1 -3.2L40 -4L45 -11.6L14.8 -21Z" fill="#8A5A3C" class="o" stroke-width="4.5"/></g><g transform="translate(1450 760) scale(1.2 1.2)"><path d="M13.1 -18.3Q13.3 -14.8 12.6 -10.5Q11.9 -6.2 9.8 -3.8Q7.7 -1.4 4.1 -0.8Q0.5 -0.2 -3.1 -0.7Q-6.7 -1.2 -9.1 -3.9Q-11.6 -6.6 -12.5 -10.4Q-13.4 -14.2 -12.5 -17.8Q-11.5 -21 -9.1 -24Q-6.7 -26 -3.1 -27Q0.5 -27 3.5 -27Q6.4 -26 9.6 -24Q12.8 -22 13.1 -18.3Z" fill="#FFD98A" class="o" stroke-width="4.5"/><path d="M5.3 -15Q5.7 -13.6 5.4 -12.3Q5 -11.1 3.8 -9.9Q2.6 -8.8 1.4 -8.5Q0.2 -8.2 -1.2 -8.5Q-2.7 -8.9 -4.1 -10.2Q-5.6 -11.5 -5.9 -12.9Q-6.2 -14.3 -5.9 -15.6Q-5.7 -16.9 -4.3 -18.3Q-2.9 -19.7 -1.3 -19.7Q0.3 -19.7 1.4 -19.5Q2.5 -19.2 3.7 -17.8Q5 -16.5 5.3 -15Z" fill="#FF7A1A"/><path d="M11 -3.4L40 -4.4L43 -11L13.8 -22Z" fill="#8A5A3C" class="o" stroke-width="4.5"/></g><g transform="translate(980 760) scale(1.2 1.2)"><path d="M13 -17.4Q13.4 -13.8 12.5 -10.2Q11.7 -6.7 9.4 -4.5Q7.1 -2.3 3.3 -1.3Q-0.5 -0.2 -3.4 -1.3Q-6.4 -2.3 -9.5 -4.8Q-12.6 -7.4 -13.4 -10.9Q-14.3 -14.5 -13.3 -18.1Q-12.2 -22 -9.4 -24Q-6.5 -25 -3.3 -26Q-0.1 -27 3.3 -27Q6.7 -26 9.7 -24Q12.7 -21 13 -17.4Z" fill="#FFD98A" class="o" stroke-width="4.5"/><path d="M5.6 -15.6Q5.8 -13.9 5.5 -12.3Q5.3 -10.7 4.4 -9.9Q3.4 -9.2 1.7 -8.7Q-0 -8.3 -1.5 -8.6Q-2.9 -8.9 -4.3 -10.1Q-5.6 -11.3 -5.8 -12.6Q-6 -13.9 -5.8 -15.6Q-5.7 -17.2 -4.5 -18.2Q-3.3 -19.1 -1.5 -19.4Q0.3 -19.7 1.6 -19.5Q2.9 -19.3 4.2 -18.3Q5.4 -17.3 5.6 -15.6Z" fill="#FF7A1A"/><path d="M11 -3.7L39 -5.1L45 -13L13.6 -21Z" fill="#8A5A3C" class="o" stroke-width="4.5"/></g><g clip-path="url(#hl)"><path d="M-20 401L119 401L259 399L401 400L539 399L680 400L819 401L820 539L819 679L821 819L821 960L681 960L540 960L400 959L260 959L119 960L-20 959L-19.3 820L-21 679L-21 539Z" fill="#2459FF" class="o" stroke-width="5"/><g class="wv" style="--t:9s;--dx:300px;animation-delay:-0s"><path d="M-300 420Q-225 404 -150 420Q-75 436 0 420Q75 404 150 420Q225 436 300 420Q375 404 450 420Q525 436 600 420Q675 404 750 420Q825 436 900 420Q975 404 1050 420Q1125 436 1200 420Q1275 404 1350 420Q1425 436 1500 420Q1575 404 1650 420Q1725 436 1800 420Q1875 404 1950 420Q2025 436 2100 420L1900 940L-300 940Z" fill="#13D6F2" class="o" stroke-width="5"/></g><g class="wvr" style="--t:11.3s;--dx:300px;animation-delay:-1.7s"><path d="M-300 530Q-225 516 -150 530Q-75 544 0 530Q75 516 150 530Q225 544 300 530Q375 516 450 530Q525 544 600 530Q675 516 750 530Q825 544 900 530Q975 516 1050 530Q1125 544 1200 530Q1275 516 1350 530Q1425 544 1500 530Q1575 516 1650 530Q1725 544 1800 530Q1875 516 1950 530Q2025 544 2100 530L1900 1050L-300 1050Z" fill="#2459FF" class="o" stroke-width="5"/></g><g class="wv" style="--t:13.6s;--dx:300px;animation-delay:-3.4s"><path d="M-300 640Q-225 629 -150 640Q-75 651 0 640Q75 629 150 640Q225 651 300 640Q375 629 450 640Q525 651 600 640Q675 629 750 640Q825 651 900 640Q975 629 1050 640Q1125 651 1200 640Q1275 629 1350 640Q1425 651 1500 640Q1575 629 1650 640Q1725 651 1800 640Q1875 629 1950 640Q2025 651 2100 640L1900 1160L-300 1160Z" fill="#1a3ccf" class="o" stroke-width="5"/></g><g class="wvr" style="--t:15.9s;--dx:300px;animation-delay:-5.1s"><path d="M-300 750Q-225 741 -150 750Q-75 759 0 750Q75 741 150 750Q225 759 300 750Q375 741 450 750Q525 759 600 750Q675 741 750 750Q825 759 900 750Q975 741 1050 750Q1125 759 1200 750Q1275 741 1350 750Q1425 759 1500 750Q1575 741 1650 750Q1725 759 1800 750Q1875 741 1950 750Q2025 759 2100 750L1900 1270L-300 1270Z" fill="#13D6F2" class="o" stroke-width="5"/></g></g><path d="M800 149L769 300L830 450L780 621L811 779" fill="none" stroke="#FFFFFF" stroke-width="12" stroke-linecap="round" stroke-linejoin="round"/><g transform="translate(300 560) scale(1.3 1.3)"><path d="M-5.3 -49L-8.2 0.2" fill="none" stroke="#FF7A1A" stroke-width="6" stroke-linecap="round" stroke-linejoin="round"/><path d="M8.7 -50L9.7 0.3" fill="none" stroke="#FF7A1A" stroke-width="6" stroke-linecap="round" stroke-linejoin="round"/><path id="p16" d="M31 -76Q34 -70 32 -64Q29 -58 23 -55Q16 -51 8.3 -50Q0.6 -48 -8 -50Q-16.6 -52 -23 -55Q-29 -59 -31 -64Q-33 -70 -31 -75Q-29 -80 -23 -85Q-16.8 -89 -8.4 -91Q0.1 -92 9 -90Q17.8 -88 23 -85Q29 -81 31 -76Z" fill="#FFFFFF" class="o" stroke-width="4.3"/><clipPath id="c17"><use href="#p16"/></clipPath><rect clip-path="url(#c17)" x="-34" y="-92" width="68" height="44" fill="url(#h12)" mask="url(#m_br)"/><path d="M43 -95Q45 -91 43 -88Q42 -84 40 -82Q37 -79 34 -79Q30 -79 26 -80Q22 -81 20 -83Q17.8 -85 16.8 -89Q15.9 -92 17.3 -96Q18.7 -100 21 -102Q23 -104 26 -105Q30 -106 33 -106Q37 -105 39 -102Q41 -99 43 -95Z" fill="#1b0a3c" class="o" stroke-width="4.3"/><path d="M41 -96L95 -88L41 -87Z" fill="#FF7A1A" class="o" stroke-width="4.3"/><path d="M-31 -79L-52 -69L-30 -59Z" fill="#1b0a3c" class="o" stroke-width="4.3"/></g><g class="bob" style="--t:5s;animation-delay:-0s;transform-origin:500px 680px"><g transform="translate(500 680) scale(-1 1)"><path d="M-5.8 -49L-8.5 -0.5" fill="none" stroke="#FF7A1A" stroke-width="6" stroke-linecap="round" stroke-linejoin="round"/><path d="M7.6 -51L10 0" fill="none" stroke="#FF7A1A" stroke-width="6" stroke-linecap="round" stroke-linejoin="round"/><path d="M33 -76Q35 -71 32 -65Q28 -58 23 -55Q17.5 -51 9.1 -50Q0.6 -49 -7.9 -50Q-16.5 -51 -23 -54Q-29 -58 -32 -64Q-34 -71 -32 -76Q-29 -81 -23 -85Q-16.5 -88 -8.2 -90Q0.2 -93 8.1 -91Q16 -89 23 -85Q30 -82 33 -76Z" fill="#FFFFFF" class="o" stroke-width="5"/><path d="M44 -96Q45 -93 43 -89Q42 -85 40 -82Q37 -79 33 -78Q30 -77 26 -79Q23 -80 21 -83Q18.6 -86 17.7 -89Q16.7 -93 17.2 -96Q17.6 -99 20 -101Q23 -104 26 -105Q30 -106 34 -105Q37 -104 40 -102Q43 -99 44 -96Z" fill="#1b0a3c" class="o" stroke-width="5"/><path d="M39 -97L96 -89L42 -85Z" fill="#FF7A1A" class="o" stroke-width="5"/><path d="M-31 -78L-53 -70L-30 -60Z" fill="#1b0a3c" class="o" stroke-width="5"/></g></g><g class="rise" style="--t:7.1s;--dy:-179px;animation-delay:-0.9s"><circle cx="171" cy="600" r="2.9" fill="#FFFFFF"/></g><g class="rise" style="--t:6.9s;--dy:-138px;animation-delay:-1.6s"><circle cx="345" cy="600" r="4.3" fill="#FFFFFF"/></g><g class="rise" style="--t:7.8s;--dy:-117px;animation-delay:-0.3s"><circle cx="406" cy="600" r="2.1" fill="#FFFFFF"/></g><g class="rise" style="--t:8.1s;--dy:-128px;animation-delay:-1.8s"><circle cx="566" cy="600" r="3.4" fill="#FFFFFF"/></g><g class="rise" style="--t:7.1s;--dy:-157px;animation-delay:-4.1s"><circle cx="390" cy="600" r="4.8" fill="#FFFFFF"/></g><g class="rise" style="--t:4.9s;--dy:-122px;animation-delay:-3.6s"><circle cx="260" cy="600" r="4.9" fill="#FFFFFF"/></g><g class="rise" style="--t:5.1s;--dy:-190px;animation-delay:-3s"><circle cx="440" cy="600" r="3.8" fill="#FFFFFF"/></g><g class="rise" style="--t:8.2s;--dy:-156px;animation-delay:-5.5s"><circle cx="562" cy="600" r="4" fill="#FFFFFF"/></g><rect width="1600" height="900" fill="url(#v18)"/></g></svg>