<svg xmlns="http://www.w3.org/2000/svg" viewBox="0 0 1600 900" role="img"><title>Kronborg Castle at Elsinore</title><desc>A grand castle with green spired towers rises from the water at a narrow strait under a stormy twilight sky, with a skull on a pedestal as a nod to Hamlet and a sailing ship passing.</desc><defs><style>.o{stroke:#1b0a3c;stroke-linejoin:round;stroke-linecap:round}@keyframes spin{to{transform:rotate(360deg)}}@keyframes spinr{to{transform:rotate(-360deg)}}@keyframes tw{0%,100%{opacity:.3}50%{opacity:1}}@keyframes pu{0%,100%{transform:scale(1)}50%{transform:scale(1.07)}}@keyframes bob{0%,100%{transform:translateY(0)}50%{transform:translateY(-9px)}}@keyframes sw{0%,100%{transform:rotate(-2.5deg)}50%{transform:rotate(2.5deg)}}@keyframes dr{0%{transform:translateX(-50px)}100%{transform:translateX(70px)}}@keyframes fl{0%,100%{transform:skewY(-4deg) scaleX(1)}50%{transform:skewY(4deg) scaleX(.96)}}@keyframes fk{0%,100%{transform:scale(1,1)}50%{transform:scale(.94,1.1)}}@keyframes wv{to{transform:translateX(calc(var(--dx) * -1))}}@keyframes wvr{from{transform:translateX(calc(var(--dx) * -1))}to{transform:none}}@keyframes ri{0%{transform:translateY(0);opacity:0}15%{opacity:1}100%{transform:translateY(var(--dy));opacity:0}}@keyframes dp{0%{transform:translateY(-70px);opacity:0}25%,70%{opacity:1}100%{transform:translateY(40px);opacity:0}}@keyframes fa{0%{transform:translate(0,-60px);opacity:0}20%{opacity:1}100%{transform:translate(60px,520px);opacity:0}}@keyframes kb{0%{transform:scale(1)}100%{transform:scale(1.045)}}@keyframes zg{0%,100%{transform:translateX(-26px)}50%{transform:translateX(26px)}}@keyframes fy{0%{transform:translateX(-300px)}100%{transform:translateX(300px)}}@keyframes bm{0%,100%{opacity:.35}50%{opacity:.8}}.spin{animation:spin var(--t,60s) linear infinite}.spinr{animation:spinr var(--t,60s) linear infinite}.tw{animation:tw var(--t,3s) ease-in-out infinite}.pulse{animation:pu var(--t,5s) ease-in-out infinite}.bob{animation:bob var(--t,5s) ease-in-out infinite}.sway{animation:sw var(--t,6s) ease-in-out infinite}.drift{animation:dr var(--t,40s) ease-in-out infinite alternate}.flag{animation:fl var(--t,3.5s) ease-in-out infinite}.flick{animation:fk var(--t,2.4s) ease-in-out infinite}.wv{animation:wv var(--t,9s) linear infinite}.wvr{animation:wvr var(--t,11s) linear infinite}.rise{animation:ri var(--t,4s) ease-out infinite}.drop{animation:dp var(--t,4s) ease-in-out infinite}.fall{animation:fa var(--t,7s) linear infinite}.kb{animation:kb 24s ease-in-out infinite alternate;transform-origin:800px 450px}.zig{animation:zg var(--t,8s) ease-in-out infinite}.fly{animation:fy var(--t,14s) ease-in-out infinite alternate}.beam{animation:bm var(--t,6s) ease-in-out infinite}@media (prefers-reduced-motion:reduce){*{animation:none!important}}</style><linearGradient id="s1" gradientTransform="rotate(90 .5 .5)"><stop offset="0" stop-color="#160840"/><stop offset="0.55" stop-color="#4a3a9a"/><stop offset="1" stop-color="#9A8FD8"/></linearGradient><pattern id="h2" width="22" height="22" patternUnits="userSpaceOnUse" patternTransform="rotate(28)"><circle cx="11.0" cy="11.0" r="5.720000000000001" fill="#fff" fill-opacity="0.35"/></pattern><mask id="m_b" maskContentUnits="objectBoundingBox" x="0" y="0" width="1" height="1"><linearGradient id="g_b" x1="0" y1="0" x2="0" y2="1"><stop offset=".25" stop-color="#000"/><stop offset="1" stop-color="#fff"/></linearGradient><rect width="1" height="1" fill="url(#g_b)"/></mask><pattern id="h5" width="15" height="15" patternUnits="userSpaceOnUse" patternTransform="rotate(28)"><circle cx="7.5" cy="7.5" r="3.6" fill="#1b0a3c" fill-opacity="0.34"/></pattern><mask id="m_br" maskContentUnits="objectBoundingBox" x="0" y="0" width="1" height="1"><linearGradient id="g_br" x1="0" y1="0" x2="1" y2="1"><stop offset=".25" stop-color="#000"/><stop offset="1" stop-color="#fff"/></linearGradient><rect width="1" height="1" fill="url(#g_br)"/></mask><pattern id="h8" width="13" height="13" patternUnits="userSpaceOnUse" patternTransform="rotate(28)"><circle cx="6.5" cy="6.5" r="3.1" fill="#1b0a3c" fill-opacity="0.34"/></pattern><pattern id="h29" width="15" height="15" patternUnits="userSpaceOnUse" patternTransform="rotate(28)"><circle cx="7.5" cy="7.5" r="3.6" fill="#ffffff" fill-opacity="0.5"/></pattern><mask id="m_tl" maskContentUnits="objectBoundingBox" x="0" y="0" width="1" height="1"><linearGradient id="g_tl" x1="1" y1="1" x2="0" y2="0"><stop offset=".25" stop-color="#000"/><stop offset="1" stop-color="#fff"/></linearGradient><rect width="1" height="1" fill="url(#g_tl)"/></mask><pattern id="h33" width="13" height="13" patternUnits="userSpaceOnUse" patternTransform="rotate(28)"><circle cx="6.5" cy="6.5" r="3.1" fill="#ffffff" fill-opacity="0.5"/></pattern><pattern id="h57" width="12" height="12" patternUnits="userSpaceOnUse" patternTransform="rotate(28)"><circle cx="6" cy="6" r="2.9" fill="#1b0a3c" fill-opacity="0.34"/></pattern><pattern id="h59" width="12" height="12" patternUnits="userSpaceOnUse" patternTransform="rotate(28)"><circle cx="6" cy="6" r="2.9" fill="#ffffff" fill-opacity="0.5"/></pattern><radialGradient id="v60" cx=".5" cy=".5" r=".75"><stop offset=".55" stop-color="#1b0a3c" stop-opacity="0"/><stop offset="1" stop-color="#1b0a3c" stop-opacity="0.55"/></radialGradient></defs><g class="kb"><rect x="0" y="0" width="1600" height="900" fill="url(#s1)"/><g class="tw" style="--t:3.2s;animation-delay:-0s"><path d="M563 289L565 295L571 297L565 299L563 305L562 299L555 297L562 295Z" fill="#13D6F2"/><circle cx="1253" cy="346" r="1.9" fill="#FF6FB5"/><circle cx="1176" cy="223" r="1.9" fill="#FF6FB5"/><path d="M1281 390L1283 397L1290 399L1283 401L1281 408L1279 401L1273 399L1279 397Z" fill="#FF6FB5"/><path d="M820 319L821 325L828 327L821 328L820 335L818 328L812 327L818 325Z" fill="#FF6FB5"/><path d="M477 130L479 138L487 140L479 143L477 151L474 143L466 140L474 138Z" fill="#FF6FB5"/><circle cx="1569" cy="373" r="2.2" fill="#FFFFFF"/><circle cx="548" cy="196" r="1.6" fill="#FFC619"/><path d="M16.8 389L19.3 398L28 400L19.3 403L16.8 411L14.4 403L5.8 400L14.4 398Z" fill="#FFC619"/><circle cx="1476" cy="7.3" r="1.3" fill="#FF6FB5"/><circle cx="602" cy="302" r="2.8" fill="#13D6F2"/><path d="M230 346L232 352L238 354L232 356L230 362L228 356L222 354L228 352Z" fill="#13D6F2"/><circle cx="476" cy="118" r="1.8" fill="#FFC619"/><path d="M793 532L795 539L802 541L795 543L793 550L791 543L784 541L791 539Z" fill="#13D6F2"/><path d="M903 118L905 127L914 129L905 132L903 140L900 132L892 129L900 127Z" fill="#FFFFFF"/><circle cx="1154" cy="190" r="2.2" fill="#13D6F2"/><path d="M995 349L997 357L1005 360L997 362L995 370L992 362L984 360L992 357Z" fill="#FF6FB5"/><path d="M1567 185L1569 191L1575 192L1569 194L1567 200L1565 194L1559 192L1565 191Z" fill="#FFC619"/><circle cx="299" cy="52" r="1.8" fill="#FFC619"/><circle cx="216" cy="98" r="2.1" fill="#FF6FB5"/><circle cx="379" cy="267" r="1.5" fill="#FFC619"/><path d="M1285 429L1288 437L1296 439L1288 441L1285 449L1283 441L1275 439L1283 437Z" fill="#FF6FB5"/><circle cx="1545" cy="350" r="2.4" fill="#FF6FB5"/><circle cx="725" cy="95" r="1.3" fill="#FF6FB5"/></g><g class="tw" style="--t:4.1s;animation-delay:-1.3s"><path d="M655 338L657 346L665 348L657 350L655 358L652 350L644 348L652 346Z" fill="#13D6F2"/><circle cx="415" cy="464" r="1.5" fill="#13D6F2"/><circle cx="1317" cy="405" r="2.3" fill="#FFC619"/><circle cx="1095" cy="103" r="1.7" fill="#FFFFFF"/><circle cx="755" cy="99" r="2.1" fill="#FF6FB5"/><path d="M1595 179L1597 186L1604 188L1597 190L1595 197L1593 190L1587 188L1593 186Z" fill="#FF6FB5"/><circle cx="924" cy="478" r="2.1" fill="#FFFFFF"/><circle cx="389" cy="140" r="2" fill="#13D6F2"/><circle cx="883" cy="499" r="2.7" fill="#FF6FB5"/><circle cx="1505" cy="219" r="2.3" fill="#FFC619"/><path d="M1006 384L1008 391L1015 393L1008 395L1006 402L1004 395L996 393L1004 391Z" fill="#FFFFFF"/><circle cx="25" cy="102" r="2.6" fill="#13D6F2"/><path d="M869 171L872 179L880 182L872 184L869 192L867 184L859 182L867 179Z" fill="#FFC619"/><path d="M252 111L254 118L260 119L254 121L252 128L250 121L243 119L250 118Z" fill="#FFC619"/><path d="M103 129L104 135L110 137L104 138L103 144L101 138L95 137L101 135Z" fill="#FFFFFF"/><circle cx="960" cy="244" r="1.5" fill="#13D6F2"/><path d="M1164 285L1166 292L1172 294L1166 295L1164 302L1162 295L1156 294L1162 292Z" fill="#FF6FB5"/><circle cx="680" cy="242" r="2.5" fill="#13D6F2"/><circle cx="936" cy="70" r="1.4" fill="#FF6FB5"/><circle cx="855" cy="140" r="2.4" fill="#13D6F2"/><path d="M1257 280L1259 287L1266 289L1259 292L1257 299L1255 292L1248 289L1255 287Z" fill="#FFC619"/><circle cx="650" cy="148" r="2.2" fill="#FFC619"/><path d="M229 457L231 465L239 468L231 470L229 478L226 470L218 468L226 465Z" fill="#13D6F2"/></g><g class="tw" style="--t:5s;animation-delay:-2.6s"><circle cx="428" cy="156" r="2.7" fill="#FFFFFF"/><circle cx="1396" cy="424" r="2.3" fill="#13D6F2"/><path d="M818 533L820 539L826 541L820 543L818 549L816 543L810 541L816 539Z" fill="#FF6FB5"/><circle cx="594" cy="551" r="2.3" fill="#FFC619"/><circle cx="608" cy="495" r="1.3" fill="#FF6FB5"/><circle cx="1453" cy="557" r="1.8" fill="#FFFFFF"/><path d="M825 199L827 205L833 207L827 209L825 215L823 209L817 207L823 205Z" fill="#FFFFFF"/><path d="M1530 349L1532 356L1538 358L1532 360L1530 366L1528 360L1521 358L1528 356Z" fill="#FF6FB5"/><circle cx="286" cy="238" r="1.5" fill="#FFC619"/><circle cx="1332" cy="327" r="1.7" fill="#FF6FB5"/><path d="M142 188L143 194L149 195L143 197L142 203L140 197L134 195L140 194Z" fill="#13D6F2"/><path d="M860 263L862 269L868 271L862 272L860 278L858 272L852 271L858 269Z" fill="#FF6FB5"/><path d="M992 444L994 451L1000 453L994 455L992 462L990 455L983 453L990 451Z" fill="#13D6F2"/><circle cx="413" cy="33" r="2.6" fill="#FFFFFF"/><circle cx="1042" cy="375" r="2.1" fill="#FFC619"/><circle cx="885" cy="133" r="2.1" fill="#FFFFFF"/><path d="M1452 189L1454 197L1462 199L1454 202L1452 209L1450 202L1442 199L1450 197Z" fill="#FF6FB5"/><path d="M1534 463L1536 470L1543 472L1536 474L1534 482L1531 474L1524 472L1531 470Z" fill="#FFC619"/><path d="M484 270L487 278L494 280L487 282L484 290L482 282L474 280L482 278Z" fill="#FF6FB5"/><circle cx="544" cy="409" r="2.5" fill="#FFFFFF"/><path d="M1013 221L1015 228L1021 230L1015 231L1013 238L1011 231L1005 230L1011 228Z" fill="#13D6F2"/><path d="M1124 459L1126 466L1133 468L1126 470L1124 477L1122 470L1115 468L1122 466Z" fill="#FF6FB5"/><circle cx="1219" cy="58" r="2.4" fill="#FF6FB5"/></g><g class="spin" style="--t:140s;animation-delay:-0s;transform-origin:560px 380px"><path d="M560 380L2260 380L2234 675ZM560 380L2157 961L2032 1230ZM560 380L1862 1473L1653 1682ZM560 380L1410 1852L1141 1977ZM560 380L855 2054L560 2080ZM560 380L265 2054L-21 1977ZM560 380L-290 1852L-533 1682ZM560 380L-742 1473L-912 1230ZM560 380L-1037 961L-1114 675ZM560 380L-1140 380L-1114 85ZM560 380L-1037 -201L-912 -470ZM560 380L-742 -713L-533 -922ZM560 380L-290 -1092L-21 -1217ZM560 380L265 -1294L560 -1320ZM560 380L855 -1294L1141 -1217ZM560 380L1410 -1092L1653 -922ZM560 380L1862 -713L2032 -470ZM560 380L2157 -201L2234 85Z" fill="#fff" opacity="0.1"/></g><rect x="0" y="0" width="1600" height="900" fill="url(#h2)" mask="url(#m_b)"/><path id="p3" d="M1341 154Q1346 170 1341 188Q1336 205 1325 215Q1314 226 1297 231Q1279 237 1264 230Q1250 224 1238 214Q1226 204 1221 188Q1215 172 1219 156Q1224 139 1234 128Q1245 116 1264 112Q1283 107 1297 109Q1311 111 1324 124Q1337 137 1341 154Z" fill="#FFF0D0" class="o" stroke-width="5"/><clipPath id="c4"><use href="#p3"/></clipPath><rect clip-path="url(#c4)" x="1215" y="105" width="130" height="130" fill="url(#h5)" mask="url(#m_br)"/><path d="M1271 154Q1272 157 1271 160Q1271 163 1268 165Q1266 167 1264 167Q1261 168 1258 168Q1254 167 1252 165Q1250 163 1249 160Q1248 157 1249 154Q1250 151 1252 149Q1255 147 1258 146Q1261 145 1263 146Q1266 147 1269 149Q1271 152 1271 154Z" fill="#ddceba"/><path d="M1318 185Q1319 190 1318 194Q1317 197 1314 201Q1312 204 1308 205Q1304 206 1299 205Q1294 205 1291 202Q1288 199 1286 194Q1285 190 1287 186Q1289 182 1292 178Q1295 174 1298 173Q1302 172 1307 174Q1312 176 1314 178Q1317 180 1318 185Z" fill="#ddceba"/><g class="drift" style="--t:50s;animation-delay:-0s;transform-origin:0px 0px"><g transform="translate(160 180) scale(1.2)"><path id="p6" d="M37 -10.3Q39 -1.4 36 10.1Q33 22 27 29Q21 36 10.1 38Q-0.9 41 -10.2 38Q-19.5 35 -27 28Q-35 21 -37 11.2Q-39 1.7 -38 -9.2Q-36 -20 -28 -28Q-19.8 -36 -10 -37Q-0.3 -39 10.3 -37Q21 -35 27 -27Q34 -19.3 37 -10.3Z" fill="#d9d4ee" class="o" stroke-width="4.5"/><clipPath id="c7"><use href="#p6"/></clipPath><rect clip-path="url(#c7)" x="-40" y="-40" width="80" height="80" fill="url(#h8)" mask="url(#m_b)"/><path id="p9" d="M93 -37Q96 -24 92 -10.9Q88 2.4 79 11.9Q70 21 57 25Q43 29 30 27Q17 25 8.2 14.8Q-0.5 4.4 -3.1 -8.1Q-5.6 -21 -3.9 -35Q-2.1 -49 7.6 -57Q17.4 -66 32 -69Q46 -72 58 -70Q71 -68 80 -59Q90 -50 93 -37Z" fill="#d9d4ee" class="o" stroke-width="4.5"/><clipPath id="c10"><use href="#p9"/></clipPath><rect clip-path="url(#c10)" x="-7" y="-74" width="104" height="104" fill="url(#h8)" mask="url(#m_b)"/><path id="p11" d="M141 -18.9Q143 -6.5 140 3.3Q137 13 129 21Q121 29 111 33Q101 37 89 33Q78 29 69 23Q60 16 57 4Q54 -8.1 59 -20Q63 -32 72 -39Q80 -46 90 -49Q99 -51 111 -49Q123 -46 131 -39Q139 -31 141 -18.9Z" fill="#d9d4ee" class="o" stroke-width="4.5"/><clipPath id="c12"><use href="#p11"/></clipPath><rect clip-path="url(#c12)" x="56" y="-52" width="88" height="88" fill="url(#h8)" mask="url(#m_b)"/><path id="p13" d="M168 -1Q171 5.9 168 14.1Q166 22 160 27Q154 31 147 34Q140 36 133 33Q125 31 119 26Q113 22 112 13.5Q111 5 112 -2.2Q114 -9.4 120 -15Q125 -21 132 -22Q139 -23 147 -21Q154 -19.5 160 -13.7Q165 -7.9 168 -1Z" fill="#d9d4ee" class="o" stroke-width="4.5"/><clipPath id="c14"><use href="#p13"/></clipPath><rect clip-path="url(#c14)" x="110" y="-24" width="60" height="60" fill="url(#h8)" mask="url(#m_b)"/><path id="p15" d="M97 1.3Q99 10.4 97 22Q94 33 88 40Q81 46 71 49Q61 51 51 49Q41 48 32 40Q23 33 22 23Q19.6 12.3 22 3Q25 -6.3 33 -14.4Q41 -22 50 -26Q60 -29 70 -26Q80 -22 87 -15.1Q94 -7.8 97 1.3Z" fill="#d9d4ee" class="o" stroke-width="4.5"/><clipPath id="c16"><use href="#p15"/></clipPath><rect clip-path="url(#c16)" x="20" y="-28" width="80" height="80" fill="url(#h8)" mask="url(#m_b)"/><path id="p17" d="M-9.9 9.2L150 8.9L150 41L-9 39Z" fill="#d9d4ee"/><clipPath id="c18"><use href="#p17"/></clipPath><rect clip-path="url(#c18)" x="-10" y="10" width="160" height="30" fill="url(#h8)" mask="url(#m_b)"/></g></g><g class="drift" style="--t:60s;animation-delay:-18s;transform-origin:0px 0px"><g transform="translate(900 250) scale(1)"><path id="p19" d="M37 -9.8Q40 0.7 36 10.1Q33 19.6 27 26Q22 33 11 38Q0.5 42 -9.3 37Q-19 33 -27 26Q-35 19.4 -37 9.8Q-39 0.3 -37 -10.3Q-35 -21 -28 -28Q-19.9 -35 -9.8 -38Q0.3 -41 9.8 -38Q19.3 -35 27 -28Q35 -20 37 -9.8Z" fill="#d9d4ee" class="o" stroke-width="5"/><clipPath id="c20"><use href="#p19"/></clipPath><rect clip-path="url(#c20)" x="-40" y="-40" width="80" height="80" fill="url(#h5)" mask="url(#m_b)"/><path id="p21" d="M95 -34Q98 -23 95 -9.4Q92 4 80 14Q69 24 57 26Q46 29 33 26Q19.7 23 9.6 14Q-0.5 5.4 -4.7 -7.7Q-9 -21 -4.8 -35Q-0.7 -50 9.9 -58Q21 -66 33 -70Q45 -75 58 -72Q71 -68 81 -57Q91 -46 95 -34Z" fill="#d9d4ee" class="o" stroke-width="5"/><clipPath id="c22"><use href="#p21"/></clipPath><rect clip-path="url(#c22)" x="-7" y="-74" width="104" height="104" fill="url(#h5)" mask="url(#m_b)"/><path id="p23" d="M142 -18.4Q146 -7.9 142 3.5Q137 15 129 22Q121 30 111 33Q101 36 89 33Q77 30 69 23Q62 15.8 58 4.6Q55 -6.5 58 -18.6Q62 -31 70 -38Q78 -45 90 -48Q101 -52 112 -49Q123 -46 131 -38Q138 -29 142 -18.4Z" fill="#d9d4ee" class="o" stroke-width="5"/><clipPath id="c24"><use href="#p23"/></clipPath><rect clip-path="url(#c24)" x="56" y="-52" width="88" height="88" fill="url(#h5)" mask="url(#m_b)"/><path d="M167 -1.1Q169 6.2 167 13.5Q166 21 161 26Q156 32 149 34Q141 37 133 35Q126 33 120 27Q114 21 112 13.5Q110 6.1 112 -1Q115 -8 120 -14.4Q125 -21 133 -22Q141 -24 149 -21Q156 -18.8 161 -13.6Q165 -8.4 167 -1.1Z" fill="#d9d4ee" class="o" stroke-width="5"/><path id="p25" d="M97 1.9Q100 13.3 97 23Q94 33 87 39Q81 45 71 49Q62 53 50 49Q38 45 32 37Q25 30 22 21Q19.6 11.2 22 1.5Q24 -8.3 32 -16.2Q40 -24 49 -25Q58 -26 69 -24Q80 -21 88 -15.2Q95 -9.6 97 1.9Z" fill="#d9d4ee" class="o" stroke-width="5"/><clipPath id="c26"><use href="#p25"/></clipPath><rect clip-path="url(#c26)" x="20" y="-28" width="80" height="80" fill="url(#h5)" mask="url(#m_b)"/><path d="M-11.1 10.3L149 11.4L150 41L-9.3 39Z" fill="#d9d4ee"/></g></g><g class="pulse" style="--t:9s;animation-delay:-0s;transform-origin:560px 400px"><path id="p27" d="M964 400L870 471L929 579L790 581L824 732L701 692L646 781L559 715L479 761L427 676L331 689L286 618L181 582L231 474L138 400L274 333L170 213L287 184L326 104L410 88L478 39L559 93L646 26L696 119L817 77L830 185L896 240L850 333Z" fill="#2B1478" class="o" stroke-width="5"/><clipPath id="c28"><use href="#p27"/></clipPath><rect clip-path="url(#c28)" x="137" y="25" width="827" height="755" fill="url(#h29)" mask="url(#m_tl)"/></g><g transform="translate(560 640) scale(1.2 1.2)"><path id="p30" d="M-209 -120L-69 -120L70 -119L211 -120L211 1L69 -0.2L-71 -0.9L-209 -0.9Z" fill="#9A8FD8" class="o" stroke-width="4.5"/><clipPath id="c31"><use href="#p30"/></clipPath><rect clip-path="url(#c31)" x="-210" y="-120" width="420" height="120" fill="url(#h8)" mask="url(#m_br)"/><clipPath id="c32"><use href="#p30"/></clipPath><rect clip-path="url(#c32)" x="-210" y="-120" width="420" height="120" fill="url(#h33)" mask="url(#m_tl)"/><path id="p34" d="M-80 -231L80 -230L80 -119L-80 -120Z" fill="#9A8FD8" class="o" stroke-width="4.5"/><clipPath id="c35"><use href="#p34"/></clipPath><rect clip-path="url(#c35)" x="-80" y="-230" width="160" height="110" fill="url(#h8)" mask="url(#m_br)"/><clipPath id="c36"><use href="#p34"/></clipPath><rect clip-path="url(#c36)" x="-80" y="-230" width="160" height="110" fill="url(#h33)" mask="url(#m_tl)"/><path id="p37" d="M-89 -229L91 -229L0.4 -331Z" fill="#0FA3A3" class="o" stroke-width="4.5"/><clipPath id="c38"><use href="#p37"/></clipPath><rect clip-path="url(#c38)" x="-90" y="-330" width="180" height="100" fill="url(#h8)" mask="url(#m_br)"/><clipPath id="c39"><use href="#p37"/></clipPath><rect clip-path="url(#c39)" x="-90" y="-330" width="180" height="100" fill="url(#h33)" mask="url(#m_tl)"/><path id="p40" d="M-244 -270L-154 -270L-155 0.5L-246 0.4Z" fill="#9A8FD8" class="o" stroke-width="4.5"/><clipPath id="c41"><use href="#p40"/></clipPath><rect clip-path="url(#c41)" x="-245" y="-270" width="90" height="270" fill="url(#h8)" mask="url(#m_br)"/><clipPath id="c42"><use href="#p40"/></clipPath><rect clip-path="url(#c42)" x="-245" y="-270" width="90" height="270" fill="url(#h33)" mask="url(#m_tl)"/><path id="p43" d="M-254 -270L-145 -269L-199 -400Z" fill="#0FA3A3" class="o" stroke-width="4.5"/><clipPath id="c44"><use href="#p43"/></clipPath><rect clip-path="url(#c44)" x="-255" y="-400" width="110" height="130" fill="url(#h8)" mask="url(#m_br)"/><clipPath id="c45"><use href="#p43"/></clipPath><rect clip-path="url(#c45)" x="-255" y="-400" width="110" height="130" fill="url(#h33)" mask="url(#m_tl)"/><circle cx="-200" cy="-402" r="6" fill="#FFC619" class="o" stroke-width="3.6"/><path d="M-214 -187L-213 -215L-211 -224L-206 -229L-200 -230L-194 -228L-187 -223L-187 -216L-185 -186Z" fill="#FFC619" class="o" stroke-width="3.1"/><path d="M-215 -106L-213 -136L-211 -142L-207 -148L-201 -150L-194 -148L-188 -142L-186 -136L-185 -107Z" fill="#FFC619" class="o" stroke-width="3.1"/><path id="p46" d="M156 -270L245 -270L244 1L154 -0Z" fill="#9A8FD8" class="o" stroke-width="4.5"/><clipPath id="c47"><use href="#p46"/></clipPath><rect clip-path="url(#c47)" x="155" y="-270" width="90" height="270" fill="url(#h8)" mask="url(#m_br)"/><clipPath id="c48"><use href="#p46"/></clipPath><rect clip-path="url(#c48)" x="155" y="-270" width="90" height="270" fill="url(#h33)" mask="url(#m_tl)"/><path id="p49" d="M144 -269L256 -269L200 -399Z" fill="#0FA3A3" class="o" stroke-width="4.5"/><clipPath id="c50"><use href="#p49"/></clipPath><rect clip-path="url(#c50)" x="145" y="-400" width="110" height="130" fill="url(#h8)" mask="url(#m_br)"/><clipPath id="c51"><use href="#p49"/></clipPath><rect clip-path="url(#c51)" x="145" y="-400" width="110" height="130" fill="url(#h33)" mask="url(#m_tl)"/><circle cx="200" cy="-402" r="6" fill="#FFC619" class="o" stroke-width="3.6"/><path d="M185 -187L186 -217L187 -224L193 -228L200 -229L206 -229L212 -223L213 -215L215 -187Z" fill="#FFC619" class="o" stroke-width="3.1"/><path d="M186 -107L187 -137L188 -144L194 -148L201 -151L207 -149L212 -143L214 -136L214 -107Z" fill="#FFC619" class="o" stroke-width="3.1"/><path d="M-32 -0.4L-32 -79L-27 -94L-15.7 -106L0.2 -109L16 -106L27 -94L33 -77L31 0.7Z" fill="#160840" class="o" stroke-width="4.5"/><path d="M-69 -165L-71 -190L-70 -194L-66 -199L-58 -200L-53 -199L-49 -194L-47 -189L-47 -165Z" fill="#FFC619" class="o" stroke-width="3.1"/><path d="M41 -166L41 -188L41 -196L46 -199L52 -199L57 -199L62 -194L62 -188L62 -167Z" fill="#FFC619" class="o" stroke-width="3.1"/><path d="M-0.7 -330L0.4 -419" fill="none" stroke="#1b0a3c" stroke-width="6" stroke-linecap="round" stroke-linejoin="round"/></g><g class="pulse" style="--t:4s;animation-delay:-0s;transform-origin:560px 400px"><circle cx="711" cy="668" r="13.2" fill="#1b0a3c"/><circle cx="712" cy="666" r="8.2" fill="#FFFFFF"/><circle cx="687" cy="673" r="2.1" fill="#13D6F2"/><circle cx="627" cy="112" r="9.2" fill="#1b0a3c"/><circle cx="628" cy="111" r="5.7" fill="#13D6F2"/><circle cx="261" cy="266" r="13.6" fill="#1b0a3c"/><circle cx="262" cy="264" r="8.4" fill="#13D6F2"/><circle cx="266" cy="251" r="2.7" fill="#13D6F2"/><circle cx="434" cy="124" r="7.3" fill="#1b0a3c"/><circle cx="435" cy="123" r="4.6" fill="#FFFFFF"/><circle cx="551" cy="-60" r="9.2" fill="#1b0a3c"/><circle cx="552" cy="-61" r="5.7" fill="#13D6F2"/><circle cx="540" cy="-36" r="2.3" fill="#13D6F2"/><circle cx="843" cy="224" r="12.1" fill="#1b0a3c"/><circle cx="845" cy="223" r="7.5" fill="#13D6F2"/><circle cx="767" cy="728" r="7.4" fill="#1b0a3c"/><circle cx="768" cy="727" r="4.6" fill="#FFFFFF"/><circle cx="747" cy="746" r="2.6" fill="#13D6F2"/><circle cx="317" cy="39" r="6" fill="#1b0a3c"/><circle cx="318" cy="38" r="3.7" fill="#13D6F2"/><circle cx="790" cy="80" r="9.7" fill="#1b0a3c"/><circle cx="791" cy="79" r="6" fill="#13D6F2"/><circle cx="796" cy="94" r="2.8" fill="#13D6F2"/><circle cx="890" cy="327" r="9.7" fill="#1b0a3c"/><circle cx="892" cy="325" r="6" fill="#FFFFFF"/></g><g class="pulse" style="--t:5.7s;animation-delay:-1.3s;transform-origin:560px 400px"><circle cx="252" cy="215" r="12.9" fill="#1b0a3c"/><circle cx="253" cy="213" r="8" fill="#13D6F2"/><circle cx="456" cy="757" r="8" fill="#1b0a3c"/><circle cx="457" cy="756" r="5" fill="#FFFFFF"/><circle cx="343" cy="200" r="6.8" fill="#1b0a3c"/><circle cx="343" cy="200" r="4.2" fill="#13D6F2"/><circle cx="251" cy="369" r="14.5" fill="#1b0a3c"/><circle cx="253" cy="367" r="9" fill="#13D6F2"/><circle cx="841" cy="763" r="7.9" fill="#1b0a3c"/><circle cx="842" cy="762" r="4.9" fill="#FFFFFF"/><circle cx="169" cy="495" r="6" fill="#1b0a3c"/><circle cx="170" cy="495" r="3.7" fill="#13D6F2"/><circle cx="880" cy="651" r="9.6" fill="#1b0a3c"/><circle cx="881" cy="649" r="6" fill="#13D6F2"/><circle cx="774" cy="27" r="5.1" fill="#1b0a3c"/><circle cx="774" cy="27" r="3.1" fill="#FFFFFF"/><circle cx="783" cy="715" r="6.1" fill="#1b0a3c"/><circle cx="784" cy="714" r="3.8" fill="#13D6F2"/><circle cx="839" cy="738" r="5.9" fill="#1b0a3c"/><circle cx="840" cy="737" r="3.7" fill="#13D6F2"/></g><g transform="translate(560 700) scale(1 1)"><path id="p52" d="M-449 -0.3L-377 -83L-233 -102L-90 -121L90 -111L271 -102L449 -23L451 -0.9L301 1.1L151 0.7L-0.6 -1.2L-149 -0.8L-299 1.3Z" fill="#5F6FA8" class="o" stroke-width="5"/><clipPath id="c53"><use href="#p52"/></clipPath><rect clip-path="url(#c53)" x="-450" y="-120" width="900" height="120" fill="url(#h5)" mask="url(#m_br)"/><clipPath id="c54"><use href="#p52"/></clipPath><rect clip-path="url(#c54)" x="-450" y="-120" width="900" height="120" fill="url(#h29)" mask="url(#m_tl)"/></g><g class="wv" style="--t:9s;--dx:260px;animation-delay:-0s"><path d="M-260 690Q-195 680 -130 690Q-65 700 0 690Q65 680 130 690Q195 700 260 690Q325 680 390 690Q455 700 520 690Q585 680 650 690Q715 700 780 690Q845 680 910 690Q975 700 1040 690Q1105 680 1170 690Q1235 700 1300 690Q1365 680 1430 690Q1495 700 1560 690Q1625 680 1690 690Q1755 700 1820 690Q1885 680 1950 690Q2015 700 2080 690L1860 940L-260 940Z" fill="#2B1478" class="o" stroke-width="5"/></g><g class="wvr" style="--t:11.3s;--dx:260px;animation-delay:-1.7s"><path d="M-260 734Q-195 726 -130 734Q-65 742 0 734Q65 726 130 734Q195 742 260 734Q325 726 390 734Q455 742 520 734Q585 726 650 734Q715 742 780 734Q845 726 910 734Q975 742 1040 734Q1105 726 1170 734Q1235 742 1300 734Q1365 726 1430 734Q1495 742 1560 734Q1625 726 1690 734Q1755 742 1820 734Q1885 726 1950 734Q2015 742 2080 734L1860 984L-260 984Z" fill="#2459FF" class="o" stroke-width="5"/></g><g class="wv" style="--t:13.6s;--dx:260px;animation-delay:-3.4s"><path d="M-260 778Q-195 771 -130 778Q-65 785 0 778Q65 771 130 778Q195 785 260 778Q325 771 390 778Q455 785 520 778Q585 771 650 778Q715 785 780 778Q845 771 910 778Q975 785 1040 778Q1105 771 1170 778Q1235 785 1300 778Q1365 771 1430 778Q1495 785 1560 778Q1625 771 1690 778Q1755 785 1820 778Q1885 771 1950 778Q2015 785 2080 778L1860 1028L-260 1028Z" fill="#2B1478" class="o" stroke-width="5"/></g><g transform="translate(1290 760) scale(1.4 1.4)"><path id="p55" d="M52 -76Q55 -62 51 -47Q48 -32 37 -22Q26 -11.6 13.4 -6.6Q1.1 -1.5 -12.8 -6.8Q-27 -12 -37 -22Q-47 -32 -52 -46Q-57 -60 -54 -75Q-50 -91 -38 -100Q-26 -110 -12.8 -114Q0.5 -118 14.1 -113Q28 -108 38 -99Q49 -90 52 -76Z" fill="#FFF0D0" class="o" stroke-width="4.1"/><clipPath id="c56"><use href="#p55"/></clipPath><rect clip-path="url(#c56)" x="-56" y="-116" width="112" height="112" fill="url(#h57)" mask="url(#m_br)"/><clipPath id="c58"><use href="#p55"/></clipPath><rect clip-path="url(#c58)" x="-56" y="-116" width="112" height="112" fill="url(#h59)" mask="url(#m_tl)"/><path d="M-30 -33L31 -35L29 6.5L-31 6.3Z" fill="#FFF0D0" class="o" stroke-width="4.1"/><path d="M-6.8 -64Q-6.1 -60 -6.6 -56Q-7.1 -52 -9.9 -50Q-12.7 -48 -16.7 -47Q-21 -45 -24 -47Q-26 -48 -29 -51Q-32 -54 -33 -57Q-34 -60 -34 -63Q-33 -66 -30 -69Q-27 -72 -23 -73Q-19.3 -74 -15.8 -73Q-12.3 -71 -9.9 -69Q-7.5 -68 -6.8 -64Z" fill="#1b0a3c"/><path d="M33 -64Q34 -61 33 -57Q32 -53 30 -50Q28 -48 23 -47Q19.3 -46 16.2 -47Q13.2 -49 10.4 -51Q7.6 -53 7.1 -56Q6.7 -59 7.3 -63Q8 -66 10.6 -69Q13.3 -72 16.5 -73Q19.8 -75 23 -73Q26 -71 29 -70Q32 -68 33 -64Z" fill="#1b0a3c"/><path d="M-4.5 -37L4.3 -39L1.1 -28Z" fill="#1b0a3c" class="o" stroke-width="4.1"/><path d="M-13.7 -5.8L-14.7 6.6" fill="none" stroke="#1b0a3c" stroke-width="4" stroke-linecap="round" stroke-linejoin="round"/><path d="M0.7 -5.4L0.8 5.5" fill="none" stroke="#1b0a3c" stroke-width="4" stroke-linecap="round" stroke-linejoin="round"/><path d="M13.9 -6.5L14 6.7" fill="none" stroke="#1b0a3c" stroke-width="4" stroke-linecap="round" stroke-linejoin="round"/></g><g class="rise" style="--t:5.9s;--dy:-129px;animation-delay:-3.6s"><circle cx="1307" cy="700" r="3.8" fill="#FFFFFF"/></g><g class="rise" style="--t:6.4s;--dy:-126px;animation-delay:-4.2s"><circle cx="1236" cy="700" r="2" fill="#13D6F2"/></g><g class="rise" style="--t:4.4s;--dy:-190px;animation-delay:-1s"><circle cx="1328" cy="700" r="3" fill="#FFFFFF"/></g><g class="rise" style="--t:5.7s;--dy:-164px;animation-delay:-2.2s"><circle cx="1323" cy="700" r="3.7" fill="#13D6F2"/></g><g class="rise" style="--t:6.5s;--dy:-142px;animation-delay:-2.6s"><circle cx="1317" cy="700" r="4.5" fill="#FFFFFF"/></g><g class="rise" style="--t:4.5s;--dy:-172px;animation-delay:-0.9s"><circle cx="1250" cy="700" r="2.9" fill="#13D6F2"/></g><rect width="1600" height="900" fill="url(#v60)"/></g></svg>