<svg xmlns="http://www.w3.org/2000/svg" viewBox="0 0 1600 900" role="img"><title>Five Nordic flags</title><desc>Five waving flags on poles side by side, each with the same Nordic cross in different colours, beneath a bright sun burst.</desc><defs><style>.o{stroke:#1b0a3c;stroke-linejoin:round;stroke-linecap:round}@keyframes spin{to{transform:rotate(360deg)}}@keyframes spinr{to{transform:rotate(-360deg)}}@keyframes tw{0%,100%{opacity:.3}50%{opacity:1}}@keyframes pu{0%,100%{transform:scale(1)}50%{transform:scale(1.07)}}@keyframes bob{0%,100%{transform:translateY(0)}50%{transform:translateY(-9px)}}@keyframes sw{0%,100%{transform:rotate(-2.5deg)}50%{transform:rotate(2.5deg)}}@keyframes dr{0%{transform:translateX(-50px)}100%{transform:translateX(70px)}}@keyframes fl{0%,100%{transform:skewY(-4deg) scaleX(1)}50%{transform:skewY(4deg) scaleX(.96)}}@keyframes fk{0%,100%{transform:scale(1,1)}50%{transform:scale(.94,1.1)}}@keyframes wv{to{transform:translateX(calc(var(--dx) * -1))}}@keyframes wvr{from{transform:translateX(calc(var(--dx) * -1))}to{transform:none}}@keyframes ri{0%{transform:translateY(0);opacity:0}15%{opacity:1}100%{transform:translateY(var(--dy));opacity:0}}@keyframes dp{0%{transform:translateY(-70px);opacity:0}25%,70%{opacity:1}100%{transform:translateY(40px);opacity:0}}@keyframes fa{0%{transform:translate(0,-60px);opacity:0}20%{opacity:1}100%{transform:translate(60px,520px);opacity:0}}@keyframes kb{0%{transform:scale(1)}100%{transform:scale(1.045)}}@keyframes zg{0%,100%{transform:translateX(-26px)}50%{transform:translateX(26px)}}@keyframes fy{0%{transform:translateX(-300px)}100%{transform:translateX(300px)}}@keyframes bm{0%,100%{opacity:.35}50%{opacity:.8}}.spin{animation:spin var(--t,60s) linear infinite}.spinr{animation:spinr var(--t,60s) linear infinite}.tw{animation:tw var(--t,3s) ease-in-out infinite}.pulse{animation:pu var(--t,5s) ease-in-out infinite}.bob{animation:bob var(--t,5s) ease-in-out infinite}.sway{animation:sw var(--t,6s) ease-in-out infinite}.drift{animation:dr var(--t,40s) ease-in-out infinite alternate}.flag{animation:fl var(--t,3.5s) ease-in-out infinite}.flick{animation:fk var(--t,2.4s) ease-in-out infinite}.wv{animation:wv var(--t,9s) linear infinite}.wvr{animation:wvr var(--t,11s) linear infinite}.rise{animation:ri var(--t,4s) ease-out infinite}.drop{animation:dp var(--t,4s) ease-in-out infinite}.fall{animation:fa var(--t,7s) linear infinite}.kb{animation:kb 24s ease-in-out infinite alternate;transform-origin:800px 450px}.zig{animation:zg var(--t,8s) ease-in-out infinite}.fly{animation:fy var(--t,14s) ease-in-out infinite alternate}.beam{animation:bm var(--t,6s) ease-in-out infinite}@media (prefers-reduced-motion:reduce){*{animation:none!important}}</style><linearGradient id="s1" gradientTransform="rotate(90 .5 .5)"><stop offset="0" stop-color="#2459FF"/><stop offset="0.65" stop-color="#13D6F2"/><stop offset="1" stop-color="#c8fbff"/></linearGradient><pattern id="h2" width="22" height="22" patternUnits="userSpaceOnUse" patternTransform="rotate(28)"><circle cx="11.0" cy="11.0" r="5.720000000000001" fill="#fff" fill-opacity="0.35"/></pattern><mask id="m_b" maskContentUnits="objectBoundingBox" x="0" y="0" width="1" height="1"><linearGradient id="g_b" x1="0" y1="0" x2="0" y2="1"><stop offset=".25" stop-color="#000"/><stop offset="1" stop-color="#fff"/></linearGradient><rect width="1" height="1" fill="url(#g_b)"/></mask><pattern id="h5" width="15" height="15" patternUnits="userSpaceOnUse" patternTransform="rotate(28)"><circle cx="7.5" cy="7.5" r="3.6" fill="#1b0a3c" fill-opacity="0.34"/></pattern><mask id="m_br" maskContentUnits="objectBoundingBox" x="0" y="0" width="1" height="1"><linearGradient id="g_br" x1="0" y1="0" x2="1" y2="1"><stop offset=".25" stop-color="#000"/><stop offset="1" stop-color="#fff"/></linearGradient><rect width="1" height="1" fill="url(#g_br)"/></mask><pattern id="h7" width="15" height="15" patternUnits="userSpaceOnUse" patternTransform="rotate(28)"><circle cx="7.5" cy="7.5" r="3.6" fill="#ffffff" fill-opacity="0.5"/></pattern><mask id="m_tl" maskContentUnits="objectBoundingBox" x="0" y="0" width="1" height="1"><linearGradient id="g_tl" x1="1" y1="1" x2="0" y2="0"><stop offset=".25" stop-color="#000"/><stop offset="1" stop-color="#fff"/></linearGradient><rect width="1" height="1" fill="url(#g_tl)"/></mask><pattern id="h18" width="16" height="16" patternUnits="userSpaceOnUse" patternTransform="rotate(28)"><circle cx="8" cy="8" r="3.8" fill="#1b0a3c" fill-opacity="0.34"/></pattern><radialGradient id="v41" cx=".5" cy=".5" r=".75"><stop offset=".55" stop-color="#1b0a3c" stop-opacity="0"/><stop offset="1" stop-color="#1b0a3c" stop-opacity="0.45"/></radialGradient></defs><g class="kb"><rect x="0" y="0" width="1600" height="900" fill="url(#s1)"/><g class="tw" style="--t:3.2s;animation-delay:-0s"><path d="M759 452L761 460L768 462L761 464L759 472L756 464L749 462L756 460Z" fill="#FFFFFF"/><path d="M587 80L589 87L596 89L589 91L587 99L585 91L578 89L585 87Z" fill="#13D6F2"/><circle cx="743" cy="481" r="2.7" fill="#FF6FB5"/><path d="M61 274L63 282L72 284L63 287L61 295L59 287L50 284L59 282Z" fill="#FF6FB5"/><circle cx="548" cy="388" r="2.7" fill="#FFC619"/><path d="M267 354L269 360L275 362L269 364L267 370L265 364L259 362L265 360Z" fill="#FFFFFF"/><circle cx="1230" cy="114" r="1.6" fill="#FFFFFF"/><path d="M72 194L74 201L81 203L74 205L72 211L70 205L63 203L70 201Z" fill="#FFC619"/><path d="M73 341L75 348L82 349L75 351L73 358L71 351L64 349L71 348Z" fill="#FFFFFF"/><path d="M379 8.4L381 15.8L388 17.9L381 20L379 27L377 20L369 17.9L377 15.8Z" fill="#13D6F2"/><circle cx="1504" cy="81" r="1.9" fill="#13D6F2"/><circle cx="1538" cy="473" r="1.2" fill="#FFFFFF"/><circle cx="230" cy="87" r="2.6" fill="#FFC619"/><circle cx="69" cy="176" r="2.8" fill="#FFC619"/><path d="M627 193L629 199L636 201L629 203L627 210L625 203L619 201L625 199Z" fill="#13D6F2"/><circle cx="431" cy="10.3" r="2.6" fill="#FF6FB5"/><path d="M1268 161L1270 167L1277 169L1270 171L1268 178L1266 171L1259 169L1266 167Z" fill="#13D6F2"/><circle cx="938" cy="417" r="2.4" fill="#FFC619"/><circle cx="1084" cy="241" r="2.3" fill="#FFC619"/><path d="M1012 331L1014 338L1021 340L1014 342L1012 349L1010 342L1003 340L1010 338Z" fill="#FFFFFF"/><circle cx="853" cy="46" r="1.7" fill="#FFFFFF"/><path d="M894 236L896 243L903 245L896 247L894 255L891 247L884 245L891 243Z" fill="#FF6FB5"/><path d="M120 28L122 36L131 38L122 41L120 49L117 41L109 38L117 36Z" fill="#13D6F2"/><circle cx="1490" cy="355" r="2.5" fill="#FFFFFF"/></g><g class="tw" style="--t:4.1s;animation-delay:-1.3s"><circle cx="110" cy="427" r="1.7" fill="#FF6FB5"/><path d="M482 426L484 434L492 437L484 439L482 447L480 439L471 437L480 434Z" fill="#FF6FB5"/><circle cx="32" cy="419" r="2.4" fill="#13D6F2"/><path d="M65 326L67 333L75 335L67 337L65 345L63 337L56 335L63 333Z" fill="#FFFFFF"/><circle cx="926" cy="113" r="1.4" fill="#FF6FB5"/><circle cx="780" cy="514" r="2.2" fill="#13D6F2"/><path d="M895 388L897 395L904 397L897 399L895 406L893 399L885 397L893 395Z" fill="#13D6F2"/><circle cx="1253" cy="235" r="2.1" fill="#FFC619"/><path d="M684 369L686 376L693 378L686 380L684 386L682 380L676 378L682 376Z" fill="#13D6F2"/><circle cx="72" cy="130" r="1.5" fill="#FFFFFF"/><path d="M817 183L819 190L826 192L819 194L817 201L815 194L808 192L815 190Z" fill="#FF6FB5"/><path d="M272 237L274 244L281 246L274 248L272 254L270 248L263 246L270 244Z" fill="#13D6F2"/><circle cx="546" cy="316" r="2.1" fill="#FF6FB5"/><circle cx="1403" cy="482" r="2.4" fill="#FFC619"/><circle cx="1423" cy="22" r="1.2" fill="#FF6FB5"/><circle cx="697" cy="197" r="2.1" fill="#FFFFFF"/><circle cx="77" cy="386" r="2.3" fill="#FFC619"/><circle cx="490" cy="367" r="2.2" fill="#FF6FB5"/><circle cx="1084" cy="105" r="1.5" fill="#FFC619"/><path d="M1320 281L1322 287L1328 289L1322 291L1320 297L1318 291L1312 289L1318 287Z" fill="#13D6F2"/><circle cx="1114" cy="509" r="2.5" fill="#13D6F2"/><path d="M1481 399L1483 407L1491 409L1483 411L1481 419L1479 411L1471 409L1479 407Z" fill="#FFFFFF"/><path d="M1390 181L1392 187L1399 189L1392 191L1390 197L1388 191L1382 189L1388 187Z" fill="#13D6F2"/></g><g class="tw" style="--t:5s;animation-delay:-2.6s"><circle cx="1027" cy="230" r="1.8" fill="#13D6F2"/><circle cx="499" cy="459" r="2.5" fill="#13D6F2"/><circle cx="1531" cy="461" r="1.4" fill="#FFFFFF"/><path d="M262 543L265 552L273 555L265 557L262 566L260 557L251 555L260 552Z" fill="#13D6F2"/><path d="M970 99L972 105L978 107L972 109L970 115L968 109L962 107L968 105Z" fill="#FFC619"/><circle cx="1119" cy="180" r="2" fill="#13D6F2"/><circle cx="642" cy="426" r="2.1" fill="#FF6FB5"/><path d="M1171 236L1174 244L1182 246L1174 248L1171 256L1169 248L1161 246L1169 244Z" fill="#FF6FB5"/><path d="M975 295L977 302L984 304L977 306L975 313L973 306L966 304L973 302Z" fill="#13D6F2"/><circle cx="1383" cy="248" r="2" fill="#FFFFFF"/><circle cx="1112" cy="195" r="2.3" fill="#FFFFFF"/><circle cx="145" cy="310" r="2.7" fill="#FF6FB5"/><path d="M726 39L728 47L737 50L728 52L726 61L723 52L715 50L723 47Z" fill="#13D6F2"/><circle cx="58" cy="1.6" r="2.3" fill="#FFC619"/><circle cx="315" cy="412" r="1.3" fill="#13D6F2"/><circle cx="1179" cy="406" r="2.6" fill="#FF6FB5"/><circle cx="654" cy="536" r="2" fill="#FFC619"/><circle cx="1388" cy="396" r="2.1" fill="#13D6F2"/><path d="M183 357L186 366L194 368L186 370L183 378L181 370L173 368L181 366Z" fill="#FFC619"/><circle cx="23" cy="461" r="1.3" fill="#FF6FB5"/><circle cx="1448" cy="106" r="1.5" fill="#FFFFFF"/><path d="M1001 531L1003 540L1012 542L1003 544L1001 553L999 544L990 542L999 540Z" fill="#FFFFFF"/><path d="M49 487L51 495L60 498L51 500L49 509L46 500L38 498L46 495Z" fill="#13D6F2"/></g><g class="spin" style="--t:140s;animation-delay:-0s;transform-origin:700px 400px"><path d="M700 400L2400 400L2374 695ZM700 400L2297 981L2172 1250ZM700 400L2002 1493L1793 1702ZM700 400L1550 1872L1281 1997ZM700 400L995 2074L700 2100ZM700 400L405 2074L119 1997ZM700 400L-150 1872L-393 1702ZM700 400L-602 1493L-772 1250ZM700 400L-897 981L-974 695ZM700 400L-1000 400L-974 105ZM700 400L-897 -181L-772 -450ZM700 400L-602 -693L-393 -902ZM700 400L-150 -1072L119 -1197ZM700 400L405 -1274L700 -1300ZM700 400L995 -1274L1281 -1197ZM700 400L1550 -1072L1793 -902ZM700 400L2002 -693L2172 -450ZM700 400L2297 -181L2374 105Z" fill="#fff" opacity="0.2"/></g><rect x="0" y="0" width="1600" height="900" fill="url(#h2)" mask="url(#m_b)"/><g class="spin" style="--t:100s;animation-delay:-0s;transform-origin:1380px 150px"><path d="M1453 142L1502 150L1453 158ZM1451 171L1493 197L1444 185ZM1437 196L1467 237L1426 207ZM1415 214L1427 263L1401 221ZM1388 223L1380 272L1372 223ZM1359 221L1333 263L1345 214ZM1334 207L1293 237L1323 196ZM1316 185L1267 197L1309 171ZM1307 158L1258 150L1307 142ZM1309 129L1267 103L1316 115ZM1323 104L1293 63L1334 93ZM1345 86L1333 37L1359 79ZM1372 77L1380 28L1388 77ZM1401 79L1427 37L1415 86ZM1426 93L1467 63L1437 104ZM1444 115L1493 103L1451 129Z" fill="#FF7A1A" class="o" stroke-width="4"/></g><path id="p3" d="M1443 134Q1447 152 1443 168Q1439 185 1428 198Q1417 211 1397 217Q1377 223 1362 217Q1347 211 1332 197Q1317 182 1315 165Q1312 147 1316 130Q1319 113 1334 102Q1348 91 1365 84Q1381 77 1398 84Q1416 91 1427 104Q1438 117 1443 134Z" fill="#FFC619" class="o" stroke-width="5"/><clipPath id="c4"><use href="#p3"/></clipPath><rect clip-path="url(#c4)" x="1310" y="80" width="140" height="140" fill="url(#h5)" mask="url(#m_br)"/><clipPath id="c6"><use href="#p3"/></clipPath><rect clip-path="url(#c6)" x="1310" y="80" width="140" height="140" fill="url(#h7)" mask="url(#m_tl)"/><g class="drift" style="--t:55s;animation-delay:-0s;transform-origin:0px 0px"><g transform="translate(250 130) scale(1)"><path id="p8" d="M36 -9.5Q40 0.2 38 10.3Q36 20 28 28Q19.3 35 9.6 38Q-0.1 42 -10.1 38Q-20 34 -27 27Q-34 21 -37 9.6Q-40 -1.7 -37 -11.4Q-34 -21 -26 -28Q-18.5 -35 -9.5 -38Q-0.5 -40 9.6 -37Q19.7 -35 27 -27Q33 -19.2 36 -9.5Z" fill="#fff" class="o" stroke-width="5"/><clipPath id="c9"><use href="#p8"/></clipPath><rect clip-path="url(#c9)" x="-40" y="-40" width="80" height="80" fill="url(#h5)" mask="url(#m_b)"/><path id="p10" d="M92 -35Q97 -21 94 -9.2Q92 2.7 82 12.8Q73 23 59 27Q45 31 31 28Q17.2 25 8.5 15.8Q-0.1 6.3 -3.1 -6.9Q-6 -20 -3.9 -34Q-1.7 -49 8 -58Q17.7 -67 31 -71Q45 -75 57 -71Q70 -68 79 -58Q88 -49 92 -35Z" fill="#fff" class="o" stroke-width="5"/><clipPath id="c11"><use href="#p10"/></clipPath><rect clip-path="url(#c11)" x="-7" y="-74" width="104" height="104" fill="url(#h5)" mask="url(#m_b)"/><path id="p12" d="M141 -18.6Q146 -8.9 143 2.7Q140 14.3 130 22Q120 30 109 33Q98 36 89 33Q79 29 70 22Q60 14.7 58 3.4Q55 -7.8 58 -18.9Q61 -30 69 -38Q77 -46 88 -49Q98 -52 110 -48Q122 -45 129 -37Q136 -28 141 -18.6Z" fill="#fff" class="o" stroke-width="5"/><clipPath id="c13"><use href="#p12"/></clipPath><rect clip-path="url(#c13)" x="56" y="-52" width="88" height="88" fill="url(#h5)" mask="url(#m_b)"/><path d="M168 -0.8Q170 7 169 13.4Q167 19.8 162 25Q156 31 148 34Q140 37 133 34Q126 32 121 26Q115 19.7 112 12.3Q110 4.8 112 -2Q115 -8.7 120 -14.5Q125 -20 133 -22Q141 -23 148 -21Q154 -18.8 160 -13.6Q166 -8.5 168 -0.8Z" fill="#fff" class="o" stroke-width="5"/><path id="p14" d="M97 2.6Q100 13 97 23Q94 34 86 39Q78 45 70 48Q61 50 50 48Q38 46 32 40Q26 33 24 23Q21 12.9 23 1.7Q25 -9.5 33 -16.4Q41 -23 50 -27Q59 -30 70 -26Q81 -23 88 -15.2Q95 -7.8 97 2.6Z" fill="#fff" class="o" stroke-width="5"/><clipPath id="c15"><use href="#p14"/></clipPath><rect clip-path="url(#c15)" x="20" y="-28" width="80" height="80" fill="url(#h5)" mask="url(#m_b)"/><path d="M-9.1 9.5L149 8.7L150 40L-10.1 40Z" fill="#fff"/></g></g><g class="drift" style="--t:65s;animation-delay:-20s;transform-origin:0px 0px"><g transform="translate(1000 110) scale(0.9)"><path id="p16" d="M36 -10.9Q38 -1.4 36 9.2Q34 19.9 28 28Q21 37 9.8 37Q-1.6 38 -10.6 36Q-19.6 33 -28 26Q-36 18.4 -38 9.1Q-40 -0.2 -38 -10.7Q-36 -21 -28 -29Q-19.7 -36 -9.7 -37Q0.3 -39 10.5 -36Q21 -34 27 -27Q33 -20 36 -10.9Z" fill="#fff" class="o" stroke-width="5.3"/><clipPath id="c17"><use href="#p16"/></clipPath><rect clip-path="url(#c17)" x="-40" y="-40" width="80" height="80" fill="url(#h18)" mask="url(#m_b)"/><path id="p19" d="M94 -34Q98 -20 95 -7.8Q92 4.8 81 14Q69 23 58 26Q47 28 33 27Q18.5 25 8.7 14.7Q-1.1 4.1 -3.6 -8.3Q-6.1 -21 -2.5 -34Q1.1 -47 11 -57Q21 -66 33 -71Q44 -75 57 -70Q70 -65 80 -56Q91 -48 94 -34Z" fill="#fff" class="o" stroke-width="5.3"/><clipPath id="c20"><use href="#p19"/></clipPath><rect clip-path="url(#c20)" x="-7" y="-74" width="104" height="104" fill="url(#h18)" mask="url(#m_b)"/><path id="p21" d="M141 -19.9Q142 -9.4 140 1.5Q138 12.4 131 21Q124 29 111 32Q98 35 88 33Q78 30 70 23Q61 14.9 59 3.1Q57 -8.6 60 -19.2Q63 -30 71 -39Q80 -48 91 -49Q102 -50 112 -47Q122 -44 131 -37Q139 -31 141 -19.9Z" fill="#fff" class="o" stroke-width="5.3"/><clipPath id="c22"><use href="#p21"/></clipPath><rect clip-path="url(#c22)" x="56" y="-52" width="88" height="88" fill="url(#h18)" mask="url(#m_b)"/><path d="M167 -1.2Q170 5.3 169 12.6Q167 19.9 161 26Q154 33 147 35Q139 37 132 34Q125 31 119 26Q113 22 112 13.9Q111 6 112 -1.1Q113 -8.2 119 -14.7Q124 -21 133 -22Q141 -23 148 -21Q155 -19 160 -13.3Q165 -7.6 167 -1.2Z" fill="#fff" class="o" stroke-width="5.3"/><path id="p23" d="M96 1.5Q98 10.8 96 21Q93 30 87 38Q80 45 70 48Q61 51 50 49Q40 47 33 40Q25 32 22 22Q18.8 12.4 22 1.2Q26 -9.9 33 -16.1Q40 -22 50 -25Q59 -28 70 -25Q82 -22 88 -15Q94 -7.8 96 1.5Z" fill="#fff" class="o" stroke-width="5.3"/><clipPath id="c24"><use href="#p23"/></clipPath><rect clip-path="url(#c24)" x="20" y="-28" width="80" height="80" fill="url(#h18)" mask="url(#m_b)"/><path d="M-9.2 11.2L149 9.5L151 41L-10.3 40Z" fill="#fff"/></g></g><g class="pulse" style="--t:6s;animation-delay:-0s;transform-origin:640px 400px"><path id="p25" d="M1173 401L990 469L1091 588L945 604L1020 780L849 712L839 875L708 742L641 871L570 749L462 827L437 705L279 763L346 598L213 576L275 474L114 401L289 329L174 209L326 188L298 57L422 75L452 -52L569 48L640 -63L717 13.1L846 -95L861 72L997 44L917 216L1108 205L996 330Z" fill="#FFC619" class="o" stroke-width="5"/><clipPath id="c26"><use href="#p25"/></clipPath><rect clip-path="url(#c26)" x="113" y="-96" width="1059" height="973" fill="url(#h7)" mask="url(#m_tl)"/></g><g class="pulse" style="--t:4s;animation-delay:-0s;transform-origin:640px 400px"><circle cx="543" cy="882" r="6.6" fill="#1b0a3c"/><circle cx="543" cy="881" r="4.1" fill="#FFFFFF"/><circle cx="520" cy="862" r="2" fill="#FFFFFF"/><circle cx="1153" cy="476" r="11.8" fill="#1b0a3c"/><circle cx="1155" cy="475" r="7.3" fill="#FFFFFF"/><circle cx="723" cy="61" r="14" fill="#1b0a3c"/><circle cx="725" cy="59" r="8.7" fill="#FFFFFF"/><circle cx="708" cy="52" r="2.6" fill="#FFFFFF"/><circle cx="318" cy="843" r="12.9" fill="#1b0a3c"/><circle cx="320" cy="841" r="8" fill="#FFFFFF"/><circle cx="364" cy="148" r="9.9" fill="#1b0a3c"/><circle cx="365" cy="147" r="6.1" fill="#FFFFFF"/><circle cx="350" cy="121" r="3.4" fill="#FFFFFF"/><circle cx="272" cy="306" r="14" fill="#1b0a3c"/><circle cx="274" cy="305" r="8.7" fill="#FFFFFF"/><circle cx="198" cy="407" r="7.6" fill="#1b0a3c"/><circle cx="199" cy="406" r="4.7" fill="#FFFFFF"/><circle cx="188" cy="421" r="3" fill="#FFFFFF"/><circle cx="526" cy="785" r="9.2" fill="#1b0a3c"/><circle cx="527" cy="784" r="5.7" fill="#FFFFFF"/><circle cx="440" cy="79" r="7.5" fill="#1b0a3c"/><circle cx="441" cy="78" r="4.6" fill="#FFFFFF"/><circle cx="418" cy="83" r="2.7" fill="#FFFFFF"/><circle cx="435" cy="723" r="13.8" fill="#1b0a3c"/><circle cx="437" cy="722" r="8.6" fill="#FFFFFF"/><circle cx="1100" cy="428" r="10.2" fill="#1b0a3c"/><circle cx="1102" cy="427" r="6.3" fill="#FFFFFF"/><circle cx="1071" cy="423" r="3" fill="#FFFFFF"/><circle cx="788" cy="784" r="13.3" fill="#1b0a3c"/><circle cx="789" cy="783" r="8.2" fill="#FFFFFF"/><circle cx="241" cy="231" r="9.4" fill="#1b0a3c"/><circle cx="242" cy="230" r="5.8" fill="#FFFFFF"/><circle cx="255" cy="243" r="3.3" fill="#FFFFFF"/></g><g class="pulse" style="--t:5.7s;animation-delay:-1.3s;transform-origin:640px 400px"><circle cx="544" cy="825" r="13.8" fill="#1b0a3c"/><circle cx="545" cy="823" r="8.5" fill="#FFFFFF"/><circle cx="776" cy="26" r="8.4" fill="#1b0a3c"/><circle cx="777" cy="25" r="5.2" fill="#FFFFFF"/><circle cx="197" cy="342" r="8.6" fill="#1b0a3c"/><circle cx="198" cy="341" r="5.3" fill="#FFFFFF"/><circle cx="1025" cy="220" r="8.2" fill="#1b0a3c"/><circle cx="1026" cy="219" r="5.1" fill="#FFFFFF"/><circle cx="214" cy="162" r="6.4" fill="#1b0a3c"/><circle cx="215" cy="161" r="4" fill="#FFFFFF"/><circle cx="989" cy="484" r="12.8" fill="#1b0a3c"/><circle cx="990" cy="483" r="8" fill="#FFFFFF"/><circle cx="662" cy="52" r="9.8" fill="#1b0a3c"/><circle cx="663" cy="51" r="6" fill="#FFFFFF"/><circle cx="981" cy="368" r="5.4" fill="#1b0a3c"/><circle cx="982" cy="368" r="3.3" fill="#FFFFFF"/><circle cx="469" cy="-75" r="9.4" fill="#1b0a3c"/><circle cx="470" cy="-77" r="5.9" fill="#FFFFFF"/><circle cx="709" cy="745" r="13.4" fill="#1b0a3c"/><circle cx="711" cy="743" r="8.3" fill="#FFFFFF"/><circle cx="401" cy="42" r="8.3" fill="#1b0a3c"/><circle cx="402" cy="41" r="5.1" fill="#FFFFFF"/><circle cx="1064" cy="515" r="11.4" fill="#1b0a3c"/><circle cx="1066" cy="514" r="7.1" fill="#FFFFFF"/><circle cx="377" cy="859" r="13.3" fill="#1b0a3c"/><circle cx="379" cy="858" r="8.2" fill="#FFFFFF"/></g><path id="p27" d="M-20 731L128 729L278 729L427 729L575 730L724 731L876 731L1022 729L1171 730L1322 731L1471 731L1620 729L1621 939L1470 941L1322 940L1172 940L1024 940L873 940L727 941L576 940L428 940L280 941L130 941L-21 941Z" fill="#14C48A" class="o" stroke-width="5"/><clipPath id="c28"><use href="#p27"/></clipPath><rect clip-path="url(#c28)" x="-20" y="730" width="1640" height="210" fill="url(#h5)" mask="url(#m_b)"/><g transform="translate(190 220) scale(1 1)"><path d="M-9.3 -14.2L1.2 -13.5L0.3 151L1.6 318L0.8 487L-10.6 487L-9.5 319L-9.2 154Z" fill="#FFF0D0" class="o" stroke-width="5"/><path d="M9 -26Q9.7 -22 8.6 -18.4Q7.4 -14.2 5.4 -12.3Q3.4 -10.4 -0.2 -9.2Q-3.7 -8.1 -7.1 -9.4Q-10.4 -10.6 -12.9 -12.8Q-15.3 -15 -16.3 -18.3Q-17.3 -22 -16.8 -26Q-16.3 -29 -14 -32Q-11.7 -35 -7.4 -35Q-3.2 -36 0.1 -35Q3.3 -34 5.8 -32Q8.3 -29 9 -26Z" fill="#FFC619" class="o" stroke-width="5"/><path id="p29" d="M1.3 -0.7L27 1.7L53 2L80 1.8L106 -1L131 -3.1L156 -4.3L184 -2.9L211 4.3L210 162L183 158L158 153L133 153L105 158L77 162L52 161L25 160L-0.9 159Z" fill="#C8102E" class="o" stroke-width="5"/><clipPath id="c30"><use href="#p29"/></clipPath><rect clip-path="url(#c30)" x="0" y="-5" width="210" height="168" fill="url(#h5)" mask="url(#m_br)"/><path d="M68 2.6L71 3.1L73 2.6L76 1.7L80 3.1L82 2.5L85 0.4L89 -0.1L92 1.3L90 158L87 160L86 159L81 159L80 160L75 160L72 163L70 161L69 162Z" fill="#FFFFFF"/><path d="M-1.2 68L27 69L53 72L80 71L106 67L132 64L157 63L183 66L209 72L211 95L184 88L156 86L133 87L106 89L78 93L51 93L28 92L-1.4 92Z" fill="#FFFFFF"/><path d="M-0.1 1.1L27 1.5L53 2L80 1.6L104 -0.1L133 -4.5L159 -3.7L184 -2.8L209 4.2L211 163L185 158L157 154L131 154L106 158L79 161L53 162L25 162L-0.2 158Z" fill="none" class="o" stroke-width="5"/></g><g transform="translate(440 260) scale(1 1)"><path d="M-11.2 -13.3L0.7 -12.8L0.8 141L2.3 292L1.2 445L-10.5 445L-11.4 294L-11.5 140Z" fill="#FFF0D0" class="o" stroke-width="5"/><path d="M8.7 -25Q9.5 -22 9.1 -18.4Q8.7 -14.5 5.8 -12.2Q2.9 -9.9 -0.5 -9.2Q-3.9 -8.6 -7.1 -9.5Q-10.3 -10.4 -13.5 -12.8Q-16.7 -15.2 -17.7 -19Q-18.6 -23 -17.2 -26Q-15.9 -29 -13.7 -32Q-11.5 -34 -7.5 -35Q-3.5 -36 0 -35Q3.6 -34 5.8 -31Q8 -28 8.7 -25Z" fill="#FFC619" class="o" stroke-width="5"/><path id="p31" d="M1 2.8L27 1.1L53 0.7L80 -2.4L106 -3.7L130 -2.7L157 -0.9L185 4.7L211 7.5L209 164L182 163L157 158L131 156L106 156L79 157L53 161L27 160L1.1 161Z" fill="#1d5fd1" class="o" stroke-width="5"/><clipPath id="c32"><use href="#p31"/></clipPath><rect clip-path="url(#c32)" x="0" y="-4.1" width="210" height="170" fill="url(#h5)" mask="url(#m_br)"/><path d="M57 2.2L61 0.6L65 0.5L70 -1.7L73 0L77 -2L82 -1.1L86 -2.3L91 -1.8L91 157L88 158L83 158L79 156L74 159L68 158L66 158L60 161L56 159Z" fill="#FFC619"/><path id="p33" d="M-1.3 64L26 65L52 65L78 59L106 58L131 57L157 63L183 66L210 68L210 102L183 100L159 97L130 91L105 94L78 95L52 98L26 98L1 98Z" fill="#FFC619"/><clipPath id="c34"><use href="#p33"/></clipPath><rect clip-path="url(#c34)" x="0" y="58" width="210" height="45" fill="url(#h7)" mask="url(#m_tl)"/><path d="M0.5 0.5L27 3.5L51 2.2L80 -0.7L106 -3.3L130 -3.8L157 -0.2L184 4.2L210 6.9L209 165L184 164L157 157L132 154L104 156L79 158L54 160L26 160L1 161Z" fill="none" class="o" stroke-width="5"/></g><g transform="translate(690 220) scale(1 1)"><path d="M-10.2 -14.5L2.5 -13.1L0.6 153L-0.4 319L2.2 485L-11.1 485L-8.8 320L-9.2 152Z" fill="#FFF0D0" class="o" stroke-width="5"/><path d="M9.4 -25Q9.9 -23 8.8 -19Q7.7 -15.3 5 -12.8Q2.2 -10.4 -1.2 -8.9Q-4.5 -7.4 -7.7 -8.8Q-10.9 -10.1 -13.5 -12.4Q-16.2 -14.6 -16.7 -18.3Q-17.3 -22 -16.7 -26Q-16.2 -29 -13.7 -32Q-11.2 -34 -8 -35Q-4.8 -36 -1 -35Q2.7 -35 5.8 -31Q8.9 -28 9.4 -25Z" fill="#FFC619" class="o" stroke-width="5"/><path id="p35" d="M-0.7 2.2L25 0.5L53 -3.1L79 -3.6L105 -2.7L132 1L158 3.2L184 5.4L210 2L209 162L184 164L159 164L131 158L105 154L79 156L52 156L27 159L0.2 160Z" fill="#C8102E" class="o" stroke-width="5"/><clipPath id="c36"><use href="#p35"/></clipPath><rect clip-path="url(#c36)" x="0" y="-3.6" width="210" height="169" fill="url(#h5)" mask="url(#m_br)"/><path d="M44 -1.5L54 -2.1L59 -1.8L66 -3.5L75 -4L82 -5.1L88 -4.7L95 -2.7L102 -4.5L101 157L94 155L87 155L80 156L74 154L68 157L60 156L53 156L45 159Z" fill="#FFFFFF"/><path d="M0.8 54L26 53L53 49L80 46L106 48L132 50L159 55L183 58L210 54L209 110L183 115L156 112L131 107L105 106L79 103L52 106L26 110L-0.6 110Z" fill="#FFFFFF"/><path d="M58 -2.1L62 -1.6L67 -3.9L70 -2.9L74 -2.9L77 -4.6L84 -4.3L85 -3.9L92 -4.8L89 154L86 156L84 155L79 156L72 156L69 157L67 156L62 156L56 158Z" fill="#1b2f7a"/><path d="M-0 65L26 63L53 62L80 60L105 60L132 64L157 66L185 68L210 66L209 101L184 103L157 102L132 96L105 95L77 94L53 95L27 97L-0.8 99Z" fill="#1b2f7a"/><path d="M1.2 0.2L26 1.1L53 -2L77 -2.8L105 -3.8L131 1.2L157 4.4L184 4.6L209 2.1L211 162L183 164L158 164L131 159L106 155L78 157L51 158L26 160L0.2 160Z" fill="none" class="o" stroke-width="5"/></g><g transform="translate(940 260) scale(1 1)"><path d="M-9.6 -13.3L1.7 -13.9L1.9 139L0 292L1.8 447L-8.5 445L-10.5 292L-11 140Z" fill="#FFF0D0" class="o" stroke-width="5"/><path d="M9.2 -26Q10.2 -22 8.9 -18.3Q7.5 -14.6 5.6 -12.2Q3.7 -9.8 -0.5 -9.1Q-4.7 -8.4 -8.2 -9.2Q-11.7 -10 -13.8 -12.4Q-15.8 -14.8 -16.6 -18Q-17.3 -21 -16.7 -25Q-16.2 -29 -13.7 -32Q-11.2 -35 -7.2 -35Q-3.3 -36 0.1 -34Q3.4 -33 5.8 -31Q8.1 -29 9.2 -26Z" fill="#FFC619" class="o" stroke-width="5"/><path id="p37" d="M-0.8 0.9L27 -0.1L54 -2.3L80 -1.1L106 1.8L130 4.9L159 4.8L183 3.8L210 -2.4L209 156L183 161L157 163L130 162L105 159L78 157L52 155L25 158L0.8 158Z" fill="#FFFFFF" class="o" stroke-width="5"/><clipPath id="c38"><use href="#p37"/></clipPath><rect clip-path="url(#c38)" x="0" y="-3.1" width="210" height="167" fill="url(#h5)" mask="url(#m_br)"/><path d="M56 -3.4L63 -2.8L66 -2.3L72 -3.1L77 -2L82 -1.2L87 -1.4L92 0L97 -0.1L96 158L93 159L87 158L82 157L78 155L71 155L67 155L62 157L58 157Z" fill="#1d5fd1"/><path d="M0.2 63L26 61L54 60L80 60L105 62L131 67L157 69L185 65L209 58L209 100L184 105L157 108L130 106L105 103L78 99L52 99L25 102L0 102Z" fill="#1d5fd1"/><path d="M0.5 -0.8L26 -1.4L52 -3.4L78 -2.1L106 1.9L132 3.4L157 4.1L185 3L210 -3.7L211 155L184 161L159 165L132 164L106 160L79 155L52 156L27 157L0.8 158Z" fill="none" class="o" stroke-width="5"/></g><g transform="translate(1190 220) scale(1 1)"><path d="M-10.1 -13.8L1.8 -13.4L0.2 154L2.3 321L-0.1 486L-8.6 487L-11 320L-9.6 154Z" fill="#FFF0D0" class="o" stroke-width="5"/><path d="M9.1 -26Q10.8 -23 9.2 -19Q7.5 -15.3 5.4 -12.2Q3.3 -9.2 -0.4 -8.3Q-4.1 -7.4 -7.8 -9Q-11.5 -10.7 -13.5 -12.7Q-15.4 -14.7 -16.4 -18Q-17.4 -21 -16.7 -25Q-15.9 -29 -13.6 -31Q-11.3 -34 -7.9 -35Q-4.5 -36 -0.9 -35Q2.8 -35 5.1 -32Q7.3 -28 9.1 -26Z" fill="#FFC619" class="o" stroke-width="5"/><path id="p39" d="M1.3 -1.3L26 -1.7L53 -1.9L78 -0.2L106 5.1L131 5.1L157 0.6L184 -3.5L210 -6.1L209 151L184 154L158 161L130 163L106 162L80 161L51 157L26 156L1 158Z" fill="#1d5fd1" class="o" stroke-width="5"/><clipPath id="c40"><use href="#p39"/></clipPath><rect clip-path="url(#c40)" x="0" y="-6.8" width="210" height="170" fill="url(#h5)" mask="url(#m_br)"/><path d="M44 -2.4L53 -1.3L61 -2L67 -1.1L73 0.9L81 1.3L88 1.3L94 2.5L101 5.2L102 164L95 162L89 161L80 160L74 160L68 158L59 158L51 156L45 157Z" fill="#FFFFFF"/><path d="M0.2 50L26 48L53 51L78 53L106 54L131 56L156 54L184 47L211 43L211 102L185 106L157 109L130 113L105 110L78 109L54 105L25 106L1.1 107Z" fill="#FFFFFF"/><path d="M61 0.3L64 0.7L69 -1.3L72 0.4L74 1.1L76 1.3L79 2.3L83 2.5L84 1L86 162L82 160L80 160L75 160L73 161L71 158L67 160L66 159L64 158Z" fill="#C8102E"/><path d="M1.1 67L26 66L52 66L78 70L104 72L131 74L158 70L182 66L210 61L210 83L185 87L157 91L131 96L106 95L80 90L52 91L25 89L-0.5 90Z" fill="#C8102E"/><path d="M0.1 0.1L27 -3.3L51 -1.1L80 -0L104 3.4L133 3.9L157 1.4L183 -4.2L209 -6.2L210 153L184 155L158 161L133 163L104 163L78 159L53 158L26 158L0 159Z" fill="none" class="o" stroke-width="5"/></g><rect width="1600" height="900" fill="url(#v41)"/></g></svg>