<svg xmlns="http://www.w3.org/2000/svg" viewBox="0 0 1600 900" role="img"><title>Stopping a pulse of light</title><desc>In a laboratory a laser beam of light enters a glass cell on the bench and the light pulse is held motionless as a glowing ball inside, with flasks and orbiting atoms.</desc><defs><style>.o{stroke:#1b0a3c;stroke-linejoin:round;stroke-linecap:round}@keyframes spin{to{transform:rotate(360deg)}}@keyframes spinr{to{transform:rotate(-360deg)}}@keyframes tw{0%,100%{opacity:.3}50%{opacity:1}}@keyframes pu{0%,100%{transform:scale(1)}50%{transform:scale(1.07)}}@keyframes bob{0%,100%{transform:translateY(0)}50%{transform:translateY(-9px)}}@keyframes sw{0%,100%{transform:rotate(-2.5deg)}50%{transform:rotate(2.5deg)}}@keyframes dr{0%{transform:translateX(-50px)}100%{transform:translateX(70px)}}@keyframes fl{0%,100%{transform:skewY(-4deg) scaleX(1)}50%{transform:skewY(4deg) scaleX(.96)}}@keyframes fk{0%,100%{transform:scale(1,1)}50%{transform:scale(.94,1.1)}}@keyframes wv{to{transform:translateX(calc(var(--dx) * -1))}}@keyframes wvr{from{transform:translateX(calc(var(--dx) * -1))}to{transform:none}}@keyframes ri{0%{transform:translateY(0);opacity:0}15%{opacity:1}100%{transform:translateY(var(--dy));opacity:0}}@keyframes dp{0%{transform:translateY(-70px);opacity:0}25%,70%{opacity:1}100%{transform:translateY(40px);opacity:0}}@keyframes fa{0%{transform:translate(0,-60px);opacity:0}20%{opacity:1}100%{transform:translate(60px,520px);opacity:0}}@keyframes kb{0%{transform:scale(1)}100%{transform:scale(1.045)}}@keyframes zg{0%,100%{transform:translateX(-26px)}50%{transform:translateX(26px)}}@keyframes fy{0%{transform:translateX(-300px)}100%{transform:translateX(300px)}}@keyframes bm{0%,100%{opacity:.35}50%{opacity:.8}}.spin{animation:spin var(--t,60s) linear infinite}.spinr{animation:spinr var(--t,60s) linear infinite}.tw{animation:tw var(--t,3s) ease-in-out infinite}.pulse{animation:pu var(--t,5s) ease-in-out infinite}.bob{animation:bob var(--t,5s) ease-in-out infinite}.sway{animation:sw var(--t,6s) ease-in-out infinite}.drift{animation:dr var(--t,40s) ease-in-out infinite alternate}.flag{animation:fl var(--t,3.5s) ease-in-out infinite}.flick{animation:fk var(--t,2.4s) ease-in-out infinite}.wv{animation:wv var(--t,9s) linear infinite}.wvr{animation:wvr var(--t,11s) linear infinite}.rise{animation:ri var(--t,4s) ease-out infinite}.drop{animation:dp var(--t,4s) ease-in-out infinite}.fall{animation:fa var(--t,7s) linear infinite}.kb{animation:kb 24s ease-in-out infinite alternate;transform-origin:800px 450px}.zig{animation:zg var(--t,8s) ease-in-out infinite}.fly{animation:fy var(--t,14s) ease-in-out infinite alternate}.beam{animation:bm var(--t,6s) ease-in-out infinite}@media (prefers-reduced-motion:reduce){*{animation:none!important}}</style><linearGradient id="s1" gradientTransform="rotate(90 .5 .5)"><stop offset="0" stop-color="#160840"/><stop offset="0.45" stop-color="#3a1596"/><stop offset="0.8" stop-color="#a41ab5"/><stop offset="1" stop-color="#F2118C"/></linearGradient><pattern id="h2" width="22" height="22" patternUnits="userSpaceOnUse" patternTransform="rotate(28)"><circle cx="11.0" cy="11.0" r="5.720000000000001" fill="#fff" fill-opacity="0.35"/></pattern><mask id="m_b" maskContentUnits="objectBoundingBox" x="0" y="0" width="1" height="1"><linearGradient id="g_b" x1="0" y1="0" x2="0" y2="1"><stop offset=".25" stop-color="#000"/><stop offset="1" stop-color="#fff"/></linearGradient><rect width="1" height="1" fill="url(#g_b)"/></mask><pattern id="h5" width="15" height="15" patternUnits="userSpaceOnUse" patternTransform="rotate(28)"><circle cx="7.5" cy="7.5" r="3.6" fill="#ffffff" fill-opacity="0.5"/></pattern><mask id="m_tl" maskContentUnits="objectBoundingBox" x="0" y="0" width="1" height="1"><linearGradient id="g_tl" x1="1" y1="1" x2="0" y2="0"><stop offset=".25" stop-color="#000"/><stop offset="1" stop-color="#fff"/></linearGradient><rect width="1" height="1" fill="url(#g_tl)"/></mask><pattern id="h8" width="15" height="15" patternUnits="userSpaceOnUse" patternTransform="rotate(28)"><circle cx="7.5" cy="7.5" r="3.6" fill="#1b0a3c" fill-opacity="0.34"/></pattern><pattern id="h11" width="11" height="11" patternUnits="userSpaceOnUse" patternTransform="rotate(28)"><circle cx="5.5" cy="5.5" r="2.6" fill="#1b0a3c" fill-opacity="0.34"/></pattern><mask id="m_br" maskContentUnits="objectBoundingBox" x="0" y="0" width="1" height="1"><linearGradient id="g_br" x1="0" y1="0" x2="1" y2="1"><stop offset=".25" stop-color="#000"/><stop offset="1" stop-color="#fff"/></linearGradient><rect width="1" height="1" fill="url(#g_br)"/></mask><pattern id="h13" width="11" height="11" patternUnits="userSpaceOnUse" patternTransform="rotate(28)"><circle cx="5.5" cy="5.5" r="2.6" fill="#ffffff" fill-opacity="0.5"/></pattern><pattern id="h24" width="13" height="13" patternUnits="userSpaceOnUse" patternTransform="rotate(28)"><circle cx="6.5" cy="6.5" r="3.1" fill="#1b0a3c" fill-opacity="0.34"/></pattern><pattern id="h26" width="13" height="13" patternUnits="userSpaceOnUse" patternTransform="rotate(28)"><circle cx="6.5" cy="6.5" r="3.1" fill="#ffffff" fill-opacity="0.5"/></pattern><radialGradient id="v30" cx=".5" cy=".5" r=".75"><stop offset=".55" stop-color="#1b0a3c" stop-opacity="0"/><stop offset="1" stop-color="#1b0a3c" stop-opacity="0.5"/></radialGradient></defs><g class="kb"><rect x="0" y="0" width="1600" height="900" fill="url(#s1)"/><g class="tw" style="--t:3.2s;animation-delay:-0s"><circle cx="1456" cy="306" r="2.5" fill="#13D6F2"/><path d="M1145 332L1147 340L1155 342L1147 344L1145 352L1143 344L1135 342L1143 340Z" fill="#FF6FB5"/><path d="M267 267L269 274L276 276L269 278L267 285L265 278L258 276L265 274Z" fill="#FF6FB5"/><circle cx="1591" cy="385" r="1.2" fill="#13D6F2"/><circle cx="999" cy="432" r="1.3" fill="#FF6FB5"/><path d="M1061 137L1063 144L1071 146L1063 148L1061 156L1059 148L1051 146L1059 144Z" fill="#FFFFFF"/><path d="M306 22L308 30L317 33L308 35L306 43L304 35L295 33L304 30Z" fill="#FF6FB5"/><path d="M1132 232L1134 238L1140 240L1134 241L1132 247L1131 241L1125 240L1131 238Z" fill="#FFC619"/><circle cx="1441" cy="218" r="1.8" fill="#FF6FB5"/><circle cx="155" cy="179" r="1.5" fill="#FFFFFF"/><path d="M1549 36L1551 43L1558 45L1551 47L1549 54L1547 47L1540 45L1547 43Z" fill="#FFC619"/><circle cx="1592" cy="499" r="2.7" fill="#FF6FB5"/><circle cx="1195" cy="113" r="1.7" fill="#FFC619"/><path d="M154 111L156 118L162 120L156 121L154 128L152 121L146 120L152 118Z" fill="#FF6FB5"/><circle cx="1011" cy="391" r="1.5" fill="#FF6FB5"/><path d="M1526 542L1528 550L1536 552L1528 555L1526 563L1524 555L1515 552L1524 550Z" fill="#FFFFFF"/><path d="M1450 252L1452 259L1459 261L1452 263L1450 270L1448 263L1441 261L1448 259Z" fill="#FFFFFF"/><path d="M945 284L947 292L954 294L947 296L945 304L942 296L935 294L942 292Z" fill="#13D6F2"/><circle cx="665" cy="70" r="2.3" fill="#FFFFFF"/><circle cx="1093" cy="172" r="2.1" fill="#FFFFFF"/><path d="M1503 109L1505 117L1513 119L1505 121L1503 129L1501 121L1493 119L1501 117Z" fill="#FF6FB5"/><circle cx="171" cy="430" r="2.3" fill="#FFFFFF"/><circle cx="1137" cy="291" r="1.5" fill="#FF6FB5"/><path d="M1357 359L1359 367L1366 369L1359 371L1357 378L1355 371L1347 369L1355 367Z" fill="#13D6F2"/></g><g class="tw" style="--t:4.1s;animation-delay:-1.3s"><circle cx="989" cy="168" r="1.4" fill="#FF6FB5"/><path d="M228 422L230 428L236 430L230 431L228 437L227 431L221 430L227 428Z" fill="#FF6FB5"/><circle cx="574" cy="383" r="2.5" fill="#13D6F2"/><circle cx="1097" cy="518" r="2" fill="#FF6FB5"/><circle cx="870" cy="449" r="2" fill="#FF6FB5"/><circle cx="1194" cy="507" r="1.8" fill="#FFFFFF"/><circle cx="847" cy="54" r="1.7" fill="#13D6F2"/><path d="M1016 544L1018 551L1026 553L1018 556L1016 563L1014 556L1006 553L1014 551Z" fill="#FF6FB5"/><circle cx="157" cy="62" r="2.5" fill="#13D6F2"/><path d="M931 -8.3L933 -1.4L940 0.5L933 2.4L931 9.3L929 2.4L923 0.5L929 -1.4Z" fill="#FFFFFF"/><path d="M396 265L398 271L404 273L398 275L396 281L394 275L388 273L394 271Z" fill="#FF6FB5"/><path d="M1170 96L1172 103L1179 105L1172 107L1170 114L1168 107L1160 105L1168 103Z" fill="#FFFFFF"/><circle cx="1037" cy="72" r="2" fill="#FFC619"/><circle cx="512" cy="198" r="1.3" fill="#FFFFFF"/><circle cx="1464" cy="289" r="2.2" fill="#FFFFFF"/><circle cx="285" cy="348" r="1.7" fill="#FFC619"/><circle cx="673" cy="472" r="2.4" fill="#13D6F2"/><path d="M1352 283L1354 289L1360 290L1354 292L1352 298L1350 292L1344 290L1350 289Z" fill="#FF6FB5"/><path d="M1091 373L1093 381L1102 384L1093 386L1091 395L1088 386L1080 384L1088 381Z" fill="#FFC619"/><circle cx="854" cy="402" r="2.6" fill="#FF6FB5"/><circle cx="900" cy="31" r="2.6" fill="#13D6F2"/><path d="M679 360L680 366L686 367L680 369L679 375L677 369L671 367L677 366Z" fill="#13D6F2"/><path d="M997 540L999 548L1007 550L999 553L997 561L995 553L986 550L995 548Z" fill="#FFFFFF"/></g><g class="tw" style="--t:5s;animation-delay:-2.6s"><circle cx="1594" cy="82" r="2.5" fill="#FFFFFF"/><circle cx="515" cy="222" r="1.9" fill="#FF6FB5"/><circle cx="1020" cy="244" r="2" fill="#FFC619"/><path d="M1598 388L1599 394L1605 396L1599 398L1598 404L1596 398L1590 396L1596 394Z" fill="#FF6FB5"/><path d="M223 50L225 55L230 57L225 59L223 64L221 59L216 57L221 55Z" fill="#FFC619"/><path d="M1223 339L1224 345L1230 347L1224 349L1223 355L1221 349L1215 347L1221 345Z" fill="#FFFFFF"/><circle cx="217" cy="187" r="2.6" fill="#FF6FB5"/><path d="M754 524L757 532L765 534L757 537L754 545L752 537L744 534L752 532Z" fill="#FFC619"/><circle cx="1574" cy="223" r="1.3" fill="#FF6FB5"/><circle cx="215" cy="342" r="2.4" fill="#FFFFFF"/><circle cx="340" cy="226" r="2.6" fill="#FF6FB5"/><circle cx="980" cy="356" r="2.6" fill="#FFC619"/><circle cx="754" cy="10.4" r="1.5" fill="#FFFFFF"/><circle cx="187" cy="52" r="1.3" fill="#FFC619"/><circle cx="370" cy="17.9" r="2.6" fill="#FFC619"/><path d="M1556 427L1558 434L1565 436L1558 438L1556 445L1554 438L1547 436L1554 434Z" fill="#FF6FB5"/><path d="M239 84L241 92L249 94L241 97L239 105L237 97L228 94L237 92Z" fill="#FF6FB5"/><circle cx="1235" cy="463" r="1.2" fill="#13D6F2"/><path d="M1528 279L1530 286L1536 288L1530 289L1528 296L1526 289L1519 288L1526 286Z" fill="#FF6FB5"/><path d="M1063 155L1064 161L1071 162L1064 164L1063 170L1061 164L1055 162L1061 161Z" fill="#FF6FB5"/><path d="M1123 121L1124 128L1131 130L1124 131L1123 138L1121 131L1114 130L1121 128Z" fill="#13D6F2"/><circle cx="1417" cy="293" r="1.2" fill="#FFC619"/><path d="M856 302L858 308L864 309L858 311L856 317L854 311L848 309L854 308Z" fill="#13D6F2"/></g><g class="spin" style="--t:140s;animation-delay:-0s;transform-origin:700px 400px"><path d="M700 400L2400 400L2374 695ZM700 400L2297 981L2172 1250ZM700 400L2002 1493L1793 1702ZM700 400L1550 1872L1281 1997ZM700 400L995 2074L700 2100ZM700 400L405 2074L119 1997ZM700 400L-150 1872L-393 1702ZM700 400L-602 1493L-772 1250ZM700 400L-897 981L-974 695ZM700 400L-1000 400L-974 105ZM700 400L-897 -181L-772 -450ZM700 400L-602 -693L-393 -902ZM700 400L-150 -1072L119 -1197ZM700 400L405 -1274L700 -1300ZM700 400L995 -1274L1281 -1197ZM700 400L1550 -1072L1793 -902ZM700 400L2002 -693L2172 -450ZM700 400L2297 -181L2374 105Z" fill="#fff" opacity="0.1"/></g><rect x="0" y="0" width="1600" height="900" fill="url(#h2)" mask="url(#m_b)"/><g class="pulse" style="--t:10s;animation-delay:-0s;transform-origin:800px 420px"><path id="p3" d="M1143 419L1084 478L1087 539L1032 576L1045 664L952 649L920 709L848 667L800 765L748 676L682 705L668 619L565 655L578 568L489 549L558 468L489 419L536 368L512 299L569 265L570 190L648 193L681 133L750 166L800 88L853 156L921 130L945 203L1047 173L1010 279L1110 292L1058 370Z" fill="#2B1478" class="o" stroke-width="5"/><clipPath id="c4"><use href="#p3"/></clipPath><rect clip-path="url(#c4)" x="488" y="86" width="655" height="678" fill="url(#h5)" mask="url(#m_tl)"/></g><g class="pulse" style="--t:4s;animation-delay:-0s;transform-origin:800px 420px"><circle cx="958" cy="102" r="6.3" fill="#1b0a3c"/><circle cx="959" cy="102" r="3.9" fill="#FFFFFF"/><circle cx="942" cy="119" r="3.8" fill="#FFC619"/><circle cx="671" cy="155" r="14" fill="#1b0a3c"/><circle cx="672" cy="153" r="8.7" fill="#FFC619"/><circle cx="432" cy="601" r="13.4" fill="#1b0a3c"/><circle cx="434" cy="599" r="8.3" fill="#FFC619"/><circle cx="457" cy="607" r="2.6" fill="#FFC619"/><circle cx="624" cy="640" r="9.1" fill="#1b0a3c"/><circle cx="625" cy="639" r="5.7" fill="#FFFFFF"/><circle cx="537" cy="376" r="12.3" fill="#1b0a3c"/><circle cx="539" cy="375" r="7.6" fill="#FFC619"/><circle cx="515" cy="381" r="2.2" fill="#FFC619"/><circle cx="469" cy="309" r="9.9" fill="#1b0a3c"/><circle cx="470" cy="307" r="6.2" fill="#FFC619"/><circle cx="522" cy="169" r="6.2" fill="#1b0a3c"/><circle cx="522" cy="168" r="3.8" fill="#FFFFFF"/><circle cx="499" cy="160" r="3.1" fill="#FFC619"/><circle cx="488" cy="602" r="6" fill="#1b0a3c"/><circle cx="488" cy="601" r="3.7" fill="#FFC619"/><circle cx="1157" cy="516" r="7.9" fill="#1b0a3c"/><circle cx="1158" cy="515" r="4.9" fill="#FFC619"/><circle cx="1163" cy="495" r="2.5" fill="#FFC619"/><circle cx="505" cy="273" r="11.3" fill="#1b0a3c"/><circle cx="506" cy="272" r="7" fill="#FFFFFF"/><circle cx="716" cy="153" r="9.2" fill="#1b0a3c"/><circle cx="717" cy="152" r="5.7" fill="#FFC619"/><circle cx="739" cy="129" r="2.6" fill="#FFC619"/><circle cx="696" cy="784" r="5.2" fill="#1b0a3c"/><circle cx="697" cy="783" r="3.2" fill="#FFC619"/></g><g class="pulse" style="--t:5.7s;animation-delay:-1.3s;transform-origin:800px 420px"><circle cx="1058" cy="401" r="5.7" fill="#1b0a3c"/><circle cx="1059" cy="401" r="3.5" fill="#FFC619"/><circle cx="567" cy="175" r="11.6" fill="#1b0a3c"/><circle cx="568" cy="174" r="7.2" fill="#FFFFFF"/><circle cx="1050" cy="117" r="8.1" fill="#1b0a3c"/><circle cx="1051" cy="116" r="5" fill="#FFC619"/><circle cx="540" cy="198" r="9.4" fill="#1b0a3c"/><circle cx="541" cy="197" r="5.8" fill="#FFC619"/><circle cx="865" cy="829" r="10.7" fill="#1b0a3c"/><circle cx="866" cy="828" r="6.6" fill="#FFFFFF"/><circle cx="417" cy="540" r="9.6" fill="#1b0a3c"/><circle cx="418" cy="539" r="6" fill="#FFC619"/><circle cx="602" cy="178" r="13.1" fill="#1b0a3c"/><circle cx="603" cy="177" r="8.1" fill="#FFC619"/><circle cx="970" cy="36" r="13.6" fill="#1b0a3c"/><circle cx="971" cy="35" r="8.4" fill="#FFFFFF"/><circle cx="552" cy="93" r="11.4" fill="#1b0a3c"/><circle cx="553" cy="91" r="7.1" fill="#FFC619"/><circle cx="1142" cy="237" r="14.5" fill="#1b0a3c"/><circle cx="1144" cy="235" r="9" fill="#FFC619"/><circle cx="926" cy="690" r="14.5" fill="#1b0a3c"/><circle cx="928" cy="688" r="9" fill="#FFFFFF"/><circle cx="1025" cy="241" r="9.6" fill="#1b0a3c"/><circle cx="1026" cy="239" r="5.9" fill="#FFC619"/></g><path id="p6" d="M1.1 759L145 760L290 760L436 761L581 759L727 760L873 760L1020 759L1163 761L1308 760L1455 759L1599 760L1599 899L1453 900L1309 900L1162 901L1020 900L872 901L729 901L582 899L436 901L291 901L146 899L-0.7 900Z" fill="#2B1478" class="o" stroke-width="5"/><clipPath id="c7"><use href="#p6"/></clipPath><rect clip-path="url(#c7)" x="0" y="760" width="1600" height="140" fill="url(#h8)" mask="url(#m_b)"/><g transform="translate(800 740) scale(1.8 1.8)"><path id="p9" d="M-449 -40L-299 -40L-151 -39L0.9 -40L149 -39L300 -39L451 -41L450 0.3L300 0.2L151 -1L-1 -0L-150 0.9L-299 0.6L-450 -0Z" fill="#c0803f" class="o" stroke-width="3.7"/><clipPath id="c10"><use href="#p9"/></clipPath><rect clip-path="url(#c10)" x="-450" y="-40" width="900" height="40" fill="url(#h11)" mask="url(#m_br)"/><clipPath id="c12"><use href="#p9"/></clipPath><rect clip-path="url(#c12)" x="-450" y="-40" width="900" height="40" fill="url(#h13)" mask="url(#m_tl)"/><path d="M-409 1.1L-369 -0.5L-371 101L-410 101Z" fill="#8e5d3e" class="o" stroke-width="3.7"/><path d="M370 1.1L410 0.3L409 100L369 101Z" fill="#8e5d3e" class="o" stroke-width="3.7"/></g><path id="p14" d="M169 561L371 561L369 701L169 700Z" fill="#5F6FA8" class="o" stroke-width="5"/><clipPath id="c15"><use href="#p14"/></clipPath><rect clip-path="url(#c15)" x="170" y="560" width="200" height="140" fill="url(#h8)" mask="url(#m_br)"/><clipPath id="c16"><use href="#p14"/></clipPath><rect clip-path="url(#c16)" x="170" y="560" width="200" height="140" fill="url(#h5)" mask="url(#m_tl)"/><path d="M366 626Q367 630 365 634Q363 639 360 641Q357 644 353 645Q349 646 345 645Q341 643 339 641Q336 638 335 634Q333 629 334 625Q336 621 338 619Q341 617 345 615Q349 613 354 615Q358 617 361 620Q365 622 366 626Z" fill="#C8102E" class="o" stroke-width="5"/><path d="M369 631L536 630L701 631" fill="none" stroke="#FFC619" stroke-width="22" stroke-linecap="round" stroke-linejoin="round"/><path d="M371 631L535 629L701 630" fill="none" stroke="#FFFFFF" stroke-width="8" stroke-linecap="round" stroke-linejoin="round"/><g class="pulse" style="--t:3s;animation-delay:-0s;transform-origin:540px 630px"><path d="M380 631L541 630L700 630" fill="none" stroke="#FFC619" stroke-width="30" stroke-linecap="round" stroke-linejoin="round"/></g><path id="p17" d="M1010 471L1020 473L1028 481L1031 490L1031 710L1028 719L1020 727L1011 731L866 729L720 729L710 729L702 719L699 711L700 489L703 480L711 472L719 471L866 471Z" fill="#13D6F2" class="o" stroke-width="5" opacity="0.5"/><clipPath id="c18"><use href="#p17"/></clipPath><rect clip-path="url(#c18)" x="700" y="470" width="330" height="260" fill="url(#h8)" mask="url(#m_br)"/><clipPath id="c19"><use href="#p17"/></clipPath><rect clip-path="url(#c19)" x="700" y="470" width="330" height="260" fill="url(#h5)" mask="url(#m_tl)"/><g class="pulse" style="--t:3s;animation-delay:-0s;transform-origin:850px 600px"><path id="p20" d="M925 600L893 614L909 645L876 636L874 676L849 647L824 681L823 637L786 647L811 611L777 599L805 586L779 551L827 568L823 523L849 558L876 522L876 567L917 553L887 586Z" fill="#FFC619" class="o" stroke-width="5"/><clipPath id="c21"><use href="#p20"/></clipPath><rect clip-path="url(#c21)" x="776" y="522" width="149" height="160" fill="url(#h5)" mask="url(#m_tl)"/></g><path d="M883 591Q885 602 884 611Q882 620 875 626Q868 632 860 633Q851 634 841 632Q831 630 825 624Q819 618 816 609Q813 601 815 591Q818 581 826 575Q833 570 841 568Q850 565 859 566Q868 568 874 574Q880 581 883 591Z" fill="#FFFFFF" class="o" stroke-width="5"/><g class="pulse" style="--t:3s;animation-delay:-0s;transform-origin:780px 530px"><path d="M799 525Q800 531 799 536Q798 541 794 544Q791 547 785 548Q779 549 775 548Q771 546 766 543Q762 539 761 534Q761 529 762 525Q764 520 767 516Q771 513 776 512Q781 511 785 511Q789 512 794 516Q798 520 799 525Z" fill="none" class="o" stroke-width="5"/></g><circle cx="780" cy="530" r="6" fill="#F2118C" class="o" stroke-width="4"/><g class="pulse" style="--t:4s;animation-delay:-0s;transform-origin:940px 540px"><path d="M958 535Q959 539 958 545Q957 550 953 554Q950 558 945 559Q940 559 935 558Q931 558 927 554Q923 550 922 545Q920 541 922 535Q923 529 927 525Q930 522 935 521Q939 521 945 522Q950 522 953 526Q956 530 958 535Z" fill="none" class="o" stroke-width="5"/></g><circle cx="940" cy="540" r="6" fill="#F2118C" class="o" stroke-width="4"/><g class="pulse" style="--t:5s;animation-delay:-0s;transform-origin:800px 690px"><path d="M818 684Q820 690 819 695Q818 700 814 704Q810 707 804 708Q799 710 795 709Q791 707 786 704Q782 701 781 695Q781 690 782 685Q783 680 786 676Q789 672 795 670Q800 669 805 671Q810 672 813 676Q817 679 818 684Z" fill="none" class="o" stroke-width="5"/></g><circle cx="800" cy="690" r="6" fill="#F2118C" class="o" stroke-width="4"/><g class="pulse" style="--t:6s;animation-delay:-0s;transform-origin:960px 680px"><path d="M978 675Q979 680 979 685Q978 690 975 694Q971 698 965 699Q960 700 955 699Q949 698 946 694Q942 689 942 685Q941 681 941 675Q942 670 946 666Q951 663 955 662Q959 661 965 662Q971 663 974 667Q978 670 978 675Z" fill="none" class="o" stroke-width="5"/></g><circle cx="960" cy="680" r="6" fill="#F2118C" class="o" stroke-width="4"/><g transform="translate(1200 730) scale(1.2 1.2)"><path d="M-17.4 -150L17.9 -150L20 -90L61 0.8L-60 -0L-21 -90Z" fill="none" class="o" stroke-width="4.5" opacity="0.3"/><path d="M-18.9 -150L17 -150L20 -91L60 -1L-60 0.9L-19.7 -90Z" fill="#FFFFFF" class="o" stroke-width="4.5" opacity="0.3"/><path id="p22" d="M-39 -46L40 -45L59 0.7L-59 0.5Z" fill="#14C48A" class="o" stroke-width="4.5"/><clipPath id="c23"><use href="#p22"/></clipPath><rect clip-path="url(#c23)" x="-60" y="-45" width="120" height="45" fill="url(#h24)" mask="url(#m_br)"/><clipPath id="c25"><use href="#p22"/></clipPath><rect clip-path="url(#c25)" x="-60" y="-45" width="120" height="45" fill="url(#h26)" mask="url(#m_tl)"/></g><g transform="translate(1320 730) scale(1 1)"><path d="M-19 -149L18.8 -151L19.9 -89L60 0.7L-60 0.3L-18.7 -89Z" fill="none" class="o" stroke-width="5" opacity="0.3"/><path d="M-18 -149L18.1 -151L19.5 -90L59 0.6L-61 1.1L-20 -90Z" fill="#FFFFFF" class="o" stroke-width="5" opacity="0.3"/><path id="p27" d="M-39 -45L39 -45L59 -0.9L-61 -1.1Z" fill="#F2118C" class="o" stroke-width="5"/><clipPath id="c28"><use href="#p27"/></clipPath><rect clip-path="url(#c28)" x="-60" y="-45" width="120" height="45" fill="url(#h8)" mask="url(#m_br)"/><clipPath id="c29"><use href="#p27"/></clipPath><rect clip-path="url(#c29)" x="-60" y="-45" width="120" height="45" fill="url(#h5)" mask="url(#m_tl)"/></g><g transform="translate(1090 730) scale(0.8 0.8)"><path d="M-16.9 -151L17.9 -152L19.7 -89L61 -1.5L-59 -1.5L-21 -91Z" fill="none" class="o" stroke-width="5.8" opacity="0.3"/><path d="M-18.6 -151L18.9 -151L20 -92L61 0.1L-60 0.3L-22 -91Z" fill="#FFFFFF" class="o" stroke-width="5.8" opacity="0.3"/><path d="M-40 -43L40 -45L59 0.7L-59 1.5Z" fill="#FF7A1A" class="o" stroke-width="5.8"/></g><rect width="1600" height="900" fill="url(#v30)"/></g></svg>