<svg xmlns="http://www.w3.org/2000/svg" viewBox="0 0 1600 900" role="img"><title>Grundtvig, priest and hymn writer</title><desc>A heroic archetype of a long-haired old priest in a dark coat holding a book, standing before a church under a golden dawn, with hymn notes rising: a stand-in for N.F.S. Grundtvig.</desc><defs><style>.o{stroke:#1b0a3c;stroke-linejoin:round;stroke-linecap:round}@keyframes spin{to{transform:rotate(360deg)}}@keyframes spinr{to{transform:rotate(-360deg)}}@keyframes tw{0%,100%{opacity:.3}50%{opacity:1}}@keyframes pu{0%,100%{transform:scale(1)}50%{transform:scale(1.07)}}@keyframes bob{0%,100%{transform:translateY(0)}50%{transform:translateY(-9px)}}@keyframes sw{0%,100%{transform:rotate(-2.5deg)}50%{transform:rotate(2.5deg)}}@keyframes dr{0%{transform:translateX(-50px)}100%{transform:translateX(70px)}}@keyframes fl{0%,100%{transform:skewY(-4deg) scaleX(1)}50%{transform:skewY(4deg) scaleX(.96)}}@keyframes fk{0%,100%{transform:scale(1,1)}50%{transform:scale(.94,1.1)}}@keyframes wv{to{transform:translateX(calc(var(--dx) * -1))}}@keyframes wvr{from{transform:translateX(calc(var(--dx) * -1))}to{transform:none}}@keyframes ri{0%{transform:translateY(0);opacity:0}15%{opacity:1}100%{transform:translateY(var(--dy));opacity:0}}@keyframes dp{0%{transform:translateY(-70px);opacity:0}25%,70%{opacity:1}100%{transform:translateY(40px);opacity:0}}@keyframes fa{0%{transform:translate(0,-60px);opacity:0}20%{opacity:1}100%{transform:translate(60px,520px);opacity:0}}@keyframes kb{0%{transform:scale(1)}100%{transform:scale(1.045)}}@keyframes zg{0%,100%{transform:translateX(-26px)}50%{transform:translateX(26px)}}@keyframes fy{0%{transform:translateX(-300px)}100%{transform:translateX(300px)}}@keyframes bm{0%,100%{opacity:.35}50%{opacity:.8}}.spin{animation:spin var(--t,60s) linear infinite}.spinr{animation:spinr var(--t,60s) linear infinite}.tw{animation:tw var(--t,3s) ease-in-out infinite}.pulse{animation:pu var(--t,5s) ease-in-out infinite}.bob{animation:bob var(--t,5s) ease-in-out infinite}.sway{animation:sw var(--t,6s) ease-in-out infinite}.drift{animation:dr var(--t,40s) ease-in-out infinite alternate}.flag{animation:fl var(--t,3.5s) ease-in-out infinite}.flick{animation:fk var(--t,2.4s) ease-in-out infinite}.wv{animation:wv var(--t,9s) linear infinite}.wvr{animation:wvr var(--t,11s) linear infinite}.rise{animation:ri var(--t,4s) ease-out infinite}.drop{animation:dp var(--t,4s) ease-in-out infinite}.fall{animation:fa var(--t,7s) linear infinite}.kb{animation:kb 24s ease-in-out infinite alternate;transform-origin:800px 450px}.zig{animation:zg var(--t,8s) ease-in-out infinite}.fly{animation:fy var(--t,14s) ease-in-out infinite alternate}.beam{animation:bm var(--t,6s) ease-in-out infinite}@media (prefers-reduced-motion:reduce){*{animation:none!important}}</style><linearGradient id="s1" gradientTransform="rotate(90 .5 .5)"><stop offset="0" stop-color="#4b1aa8"/><stop offset="0.5" stop-color="#F2118C"/><stop offset="1" stop-color="#FFC619"/></linearGradient><pattern id="h2" width="22" height="22" patternUnits="userSpaceOnUse" patternTransform="rotate(28)"><circle cx="11.0" cy="11.0" r="5.720000000000001" fill="#fff" fill-opacity="0.35"/></pattern><mask id="m_b" maskContentUnits="objectBoundingBox" x="0" y="0" width="1" height="1"><linearGradient id="g_b" x1="0" y1="0" x2="0" y2="1"><stop offset=".25" stop-color="#000"/><stop offset="1" stop-color="#fff"/></linearGradient><rect width="1" height="1" fill="url(#g_b)"/></mask><pattern id="h5" width="15" height="15" patternUnits="userSpaceOnUse" patternTransform="rotate(28)"><circle cx="7.5" cy="7.5" r="3.6" fill="#1b0a3c" fill-opacity="0.34"/></pattern><mask id="m_br" maskContentUnits="objectBoundingBox" x="0" y="0" width="1" height="1"><linearGradient id="g_br" x1="0" y1="0" x2="1" y2="1"><stop offset=".25" stop-color="#000"/><stop offset="1" stop-color="#fff"/></linearGradient><rect width="1" height="1" fill="url(#g_br)"/></mask><pattern id="h7" width="15" height="15" patternUnits="userSpaceOnUse" patternTransform="rotate(28)"><circle cx="7.5" cy="7.5" r="3.6" fill="#ffffff" fill-opacity="0.5"/></pattern><mask id="m_tl" maskContentUnits="objectBoundingBox" x="0" y="0" width="1" height="1"><linearGradient id="g_tl" x1="1" y1="1" x2="0" y2="0"><stop offset=".25" stop-color="#000"/><stop offset="1" stop-color="#fff"/></linearGradient><rect width="1" height="1" fill="url(#g_tl)"/></mask><pattern id="h10" width="16" height="16" patternUnits="userSpaceOnUse" patternTransform="rotate(28)"><circle cx="8" cy="8" r="3.8" fill="#1b0a3c" fill-opacity="0.34"/></pattern><mask id="m_tr" maskContentUnits="objectBoundingBox" x="0" y="0" width="1" height="1"><linearGradient id="g_tr" x1="0" y1="1" x2="1" y2="0"><stop offset=".25" stop-color="#000"/><stop offset="1" stop-color="#fff"/></linearGradient><rect width="1" height="1" fill="url(#g_tr)"/></mask><pattern id="h32" width="17" height="17" patternUnits="userSpaceOnUse" patternTransform="rotate(28)"><circle cx="8.5" cy="8.5" r="4.1" fill="#1b0a3c" fill-opacity="0.34"/></pattern><pattern id="h34" width="17" height="17" patternUnits="userSpaceOnUse" patternTransform="rotate(28)"><circle cx="8.5" cy="8.5" r="4.1" fill="#ffffff" fill-opacity="0.5"/></pattern><pattern id="h48" width="9" height="9" patternUnits="userSpaceOnUse" patternTransform="rotate(28)"><circle cx="4.5" cy="4.5" r="2.2" fill="#1b0a3c" fill-opacity="0.34"/></pattern><pattern id="h50" width="9" height="9" patternUnits="userSpaceOnUse" patternTransform="rotate(28)"><circle cx="4.5" cy="4.5" r="2.2" fill="#ffffff" fill-opacity="0.5"/></pattern><radialGradient id="v55" cx=".5" cy=".5" r=".75"><stop offset=".55" stop-color="#1b0a3c" stop-opacity="0"/><stop offset="1" stop-color="#1b0a3c" stop-opacity="0.5"/></radialGradient></defs><g class="kb"><rect x="0" y="0" width="1600" height="900" fill="url(#s1)"/><g class="tw" style="--t:3.2s;animation-delay:-0s"><path d="M393 45L394 51L400 52L394 54L393 60L391 54L385 52L391 51Z" fill="#FFC619"/><circle cx="1004" cy="144" r="2.5" fill="#13D6F2"/><path d="M1111 358L1113 366L1121 368L1113 371L1111 379L1108 371L1100 368L1108 366Z" fill="#FFFFFF"/><path d="M1457 101L1459 109L1468 111L1459 114L1457 122L1455 114L1447 111L1455 109Z" fill="#FF6FB5"/><path d="M1535 387L1537 394L1544 396L1537 398L1535 405L1533 398L1526 396L1533 394Z" fill="#FF6FB5"/><circle cx="1233" cy="91" r="2.7" fill="#FF6FB5"/><circle cx="674" cy="96" r="2.6" fill="#FF6FB5"/><circle cx="618" cy="523" r="1.9" fill="#FFC619"/><circle cx="575" cy="532" r="2.5" fill="#FFC619"/><circle cx="1270" cy="328" r="2.6" fill="#13D6F2"/><path d="M448 248L450 255L457 257L450 260L448 267L446 260L439 257L446 255Z" fill="#FFFFFF"/><path d="M1538 28L1540 34L1546 36L1540 38L1538 44L1536 38L1530 36L1536 34Z" fill="#FFC619"/><circle cx="757" cy="421" r="1.7" fill="#FF6FB5"/><circle cx="746" cy="275" r="1.8" fill="#FFFFFF"/><path d="M366 484L368 491L376 493L368 495L366 502L364 495L357 493L364 491Z" fill="#FFC619"/><path d="M1085 301L1087 308L1093 309L1087 311L1085 317L1083 311L1077 309L1083 308Z" fill="#13D6F2"/><circle cx="704" cy="376" r="1.9" fill="#13D6F2"/><path d="M806 129L808 136L816 138L808 141L806 148L804 141L797 138L804 136Z" fill="#13D6F2"/><path d="M509 347L511 355L518 357L511 359L509 366L507 359L499 357L507 355Z" fill="#FFC619"/><circle cx="1354" cy="465" r="2.6" fill="#FFC619"/><path d="M1540 166L1542 174L1550 176L1542 178L1540 186L1537 178L1530 176L1537 174Z" fill="#FF6FB5"/><circle cx="530" cy="473" r="1.8" fill="#FFFFFF"/><path d="M229 434L231 441L238 442L231 444L229 451L227 444L221 442L227 441Z" fill="#FFC619"/><circle cx="161" cy="21" r="2.3" fill="#FFC619"/></g><g class="tw" style="--t:4.1s;animation-delay:-1.3s"><path d="M1226 465L1228 471L1234 473L1228 475L1226 481L1224 475L1218 473L1224 471Z" fill="#FFC619"/><path d="M1078 130L1080 137L1087 139L1080 141L1078 148L1076 141L1069 139L1076 137Z" fill="#FFFFFF"/><path d="M670 398L672 404L677 405L672 407L670 413L668 407L663 405L668 404Z" fill="#FFC619"/><circle cx="1288" cy="334" r="2.4" fill="#FF6FB5"/><path d="M85 530L87 537L93 539L87 541L85 547L83 541L76 539L83 537Z" fill="#13D6F2"/><circle cx="45" cy="98" r="2.1" fill="#FFFFFF"/><circle cx="390" cy="374" r="2.2" fill="#13D6F2"/><circle cx="1468" cy="199" r="2.5" fill="#FFFFFF"/><path d="M122 550L124 557L131 559L124 561L122 568L120 561L113 559L120 557Z" fill="#13D6F2"/><circle cx="1365" cy="469" r="2.2" fill="#FFC619"/><circle cx="607" cy="154" r="2" fill="#FF6FB5"/><path d="M630 410L632 417L639 419L632 421L630 428L628 421L621 419L628 417Z" fill="#FFC619"/><circle cx="1442" cy="168" r="2.7" fill="#FF6FB5"/><path d="M370 204L372 210L378 212L372 214L370 220L368 214L362 212L368 210Z" fill="#13D6F2"/><circle cx="766" cy="411" r="2.3" fill="#FFC619"/><path d="M1245 81L1247 88L1254 90L1247 92L1245 99L1243 92L1236 90L1243 88Z" fill="#FF6FB5"/><circle cx="101" cy="504" r="2" fill="#FFFFFF"/><circle cx="442" cy="67" r="1.9" fill="#FFC619"/><circle cx="1347" cy="200" r="2.3" fill="#FF6FB5"/><path d="M982 12.2L984 18.3L990 20L984 22L982 28L980 22L974 20L980 18.3Z" fill="#FFFFFF"/><circle cx="703" cy="513" r="1.4" fill="#FF6FB5"/><path d="M1466 340L1468 347L1474 349L1468 350L1466 357L1464 350L1458 349L1464 347Z" fill="#FFFFFF"/><circle cx="87" cy="167" r="2.7" fill="#FFC619"/></g><g class="tw" style="--t:5s;animation-delay:-2.6s"><path d="M1019 326L1021 334L1029 336L1021 339L1019 346L1017 339L1009 336L1017 334Z" fill="#FFFFFF"/><path d="M1498 51L1500 57L1506 59L1500 60L1498 67L1496 60L1490 59L1496 57Z" fill="#FFFFFF"/><circle cx="147" cy="165" r="1.7" fill="#FFC619"/><path d="M1582 505L1584 513L1592 515L1584 517L1582 526L1580 517L1572 515L1580 513Z" fill="#FFFFFF"/><path d="M1123 220L1125 226L1131 228L1125 230L1123 236L1121 230L1114 228L1121 226Z" fill="#13D6F2"/><path d="M1516 3.3L1518 10.2L1525 12.1L1518 14.1L1516 21L1514 14.1L1507 12.1L1514 10.2Z" fill="#FFFFFF"/><circle cx="1552" cy="272" r="1.6" fill="#FF6FB5"/><path d="M1310 308L1312 316L1319 318L1312 320L1310 327L1308 320L1301 318L1308 316Z" fill="#FFFFFF"/><path d="M205 479L207 486L213 488L207 489L205 496L203 489L197 488L203 486Z" fill="#FF6FB5"/><circle cx="54" cy="329" r="2" fill="#13D6F2"/><path d="M1038 236L1040 243L1047 245L1040 247L1038 254L1036 247L1029 245L1036 243Z" fill="#FFC619"/><circle cx="356" cy="286" r="1.9" fill="#FF6FB5"/><circle cx="1431" cy="331" r="2" fill="#FFC619"/><path d="M895 442L897 448L904 450L897 452L895 459L894 452L887 450L894 448Z" fill="#FF6FB5"/><path d="M232 391L234 397L240 399L234 401L232 406L230 401L224 399L230 397Z" fill="#FFC619"/><path d="M141 456L143 462L149 464L143 466L141 472L140 466L133 464L140 462Z" fill="#FF6FB5"/><circle cx="280" cy="502" r="1.3" fill="#FFC619"/><circle cx="798" cy="300" r="2.5" fill="#FFFFFF"/><circle cx="635" cy="98" r="2.6" fill="#FFFFFF"/><circle cx="1076" cy="40" r="1.2" fill="#13D6F2"/><circle cx="1397" cy="275" r="1.3" fill="#FFFFFF"/><circle cx="1408" cy="343" r="1.3" fill="#13D6F2"/><path d="M1035 172L1037 179L1043 181L1037 183L1035 190L1033 183L1026 181L1033 179Z" fill="#FF6FB5"/></g><g class="spin" style="--t:140s;animation-delay:-0s;transform-origin:560px 420px"><path d="M560 420L2260 420L2234 715ZM560 420L2157 1001L2032 1270ZM560 420L1862 1513L1653 1722ZM560 420L1410 1892L1141 2017ZM560 420L855 2094L560 2120ZM560 420L265 2094L-21 2017ZM560 420L-290 1892L-533 1722ZM560 420L-742 1513L-912 1270ZM560 420L-1037 1001L-1114 715ZM560 420L-1140 420L-1114 125ZM560 420L-1037 -161L-912 -430ZM560 420L-742 -673L-533 -882ZM560 420L-290 -1052L-21 -1177ZM560 420L265 -1254L560 -1280ZM560 420L855 -1254L1141 -1177ZM560 420L1410 -1052L1653 -882ZM560 420L1862 -673L2032 -430ZM560 420L2157 -161L2234 125Z" fill="#fff" opacity="0.2"/></g><rect x="0" y="0" width="1600" height="900" fill="url(#h2)" mask="url(#m_b)"/><g class="spin" style="--t:100s;animation-delay:-0s;transform-origin:1250px 300px"><path d="M1354 288L1425 300L1354 312ZM1351 329L1412 367L1342 351ZM1332 366L1374 424L1316 382ZM1301 392L1317 462L1279 401ZM1262 404L1250 475L1238 404ZM1221 401L1183 462L1199 392ZM1184 382L1126 424L1168 366ZM1158 351L1088 367L1149 329ZM1146 312L1075 300L1146 288ZM1149 271L1088 233L1158 249ZM1168 234L1126 176L1184 218ZM1199 208L1183 138L1221 199ZM1238 196L1250 125L1262 196ZM1279 199L1317 138L1301 208ZM1316 218L1374 176L1332 234ZM1342 249L1412 233L1351 271Z" fill="#FF7A1A" class="o" stroke-width="4"/></g><path id="p3" d="M1344 276Q1348 300 1343 326Q1337 353 1320 371Q1303 388 1275 395Q1246 402 1222 394Q1198 386 1182 367Q1167 347 1157 323Q1148 298 1155 274Q1162 250 1179 232Q1197 215 1225 205Q1253 196 1277 203Q1300 211 1320 231Q1340 252 1344 276Z" fill="#FFC619" class="o" stroke-width="5"/><clipPath id="c4"><use href="#p3"/></clipPath><rect clip-path="url(#c4)" x="1150" y="200" width="200" height="200" fill="url(#h5)" mask="url(#m_br)"/><clipPath id="c6"><use href="#p3"/></clipPath><rect clip-path="url(#c6)" x="1150" y="200" width="200" height="200" fill="url(#h7)" mask="url(#m_tl)"/><g class="drift" style="--t:55s;animation-delay:-0s;transform-origin:0px 0px"><g transform="translate(220 190) scale(0.9)"><path id="p8" d="M37 -8.7Q41 1.1 37 11.3Q34 21 28 28Q21 35 10.8 38Q0.4 41 -10.2 37Q-21 34 -27 27Q-34 19.1 -38 9.9Q-42 0.7 -39 -9.6Q-36 -19.9 -28 -26Q-19.8 -33 -10.3 -37Q-0.7 -41 10.5 -38Q22 -35 28 -27Q34 -18.6 37 -8.7Z" fill="#ffd0f0" class="o" stroke-width="5.3"/><clipPath id="c9"><use href="#p8"/></clipPath><rect clip-path="url(#c9)" x="-40" y="-40" width="80" height="80" fill="url(#h10)" mask="url(#m_b)"/><path id="p11" d="M94 -34Q98 -23 95 -9.8Q91 3.3 80 12Q69 21 58 25Q47 30 33 27Q20 23 10.6 13.4Q1.1 3.9 -3.2 -8.4Q-7.4 -21 -4.7 -34Q-2 -47 9.4 -58Q21 -69 33 -71Q45 -73 58 -70Q71 -66 80 -56Q89 -46 94 -34Z" fill="#ffd0f0" class="o" stroke-width="5.3"/><clipPath id="c12"><use href="#p11"/></clipPath><rect clip-path="url(#c12)" x="-7" y="-74" width="104" height="104" fill="url(#h10)" mask="url(#m_b)"/><path id="p13" d="M141 -19.8Q146 -8.1 142 3.2Q139 14.4 129 22Q120 29 111 33Q102 37 90 34Q79 31 71 22Q63 14.4 60 2.4Q56 -9.6 58 -19Q60 -28 68 -37Q76 -45 87 -48Q99 -50 110 -49Q121 -48 129 -40Q137 -32 141 -19.8Z" fill="#ffd0f0" class="o" stroke-width="5.3"/><clipPath id="c14"><use href="#p13"/></clipPath><rect clip-path="url(#c14)" x="56" y="-52" width="88" height="88" fill="url(#h10)" mask="url(#m_b)"/><path d="M167 -0.3Q170 7 168 13.5Q166 20 160 26Q155 33 147 34Q139 35 132 33Q124 31 119 26Q115 21 113 12.9Q110 5.1 113 -2.1Q115 -9.3 121 -14.5Q126 -19.8 134 -22Q141 -24 148 -22Q156 -21 160 -14.1Q165 -7.7 167 -0.3Z" fill="#ffd0f0" class="o" stroke-width="5.3"/><path id="p15" d="M99 2Q102 10.1 97 21Q93 32 86 40Q80 48 70 50Q60 51 50 48Q41 45 33 39Q26 33 22 22Q18.1 11.1 21 2.5Q24 -6.2 32 -13.6Q39 -21 50 -25Q60 -29 70 -26Q81 -24 88 -15Q96 -6.2 99 2Z" fill="#ffd0f0" class="o" stroke-width="5.3"/><clipPath id="c16"><use href="#p15"/></clipPath><rect clip-path="url(#c16)" x="20" y="-28" width="80" height="80" fill="url(#h10)" mask="url(#m_b)"/><path d="M-10.1 9L150 8.4L150 41L-9.7 41Z" fill="#ffd0f0"/></g></g><g class="drift" style="--t:70s;animation-delay:-20s;transform-origin:0px 0px"><g transform="translate(1000 120) scale(1)"><path id="p17" d="M37 -10.5Q40 -1 37 10.3Q33 22 26 27Q18.3 33 9.5 36Q0.7 39 -9.8 36Q-20 33 -28 26Q-36 18.2 -39 8.5Q-42 -1.1 -38 -11.4Q-34 -22 -28 -29Q-21 -36 -11.4 -37Q-1.7 -39 10.1 -36Q22 -34 28 -27Q34 -19.9 37 -10.5Z" fill="#ffd0f0" class="o" stroke-width="5"/><clipPath id="c18"><use href="#p17"/></clipPath><rect clip-path="url(#c18)" x="-40" y="-40" width="80" height="80" fill="url(#h5)" mask="url(#m_b)"/><path id="p19" d="M94 -36Q99 -24 94 -10.7Q89 2.1 81 12.2Q73 22 58 26Q43 29 31 25Q17.9 21 8.8 11.3Q-0.3 1.8 -3.2 -11Q-6 -24 -2.7 -35Q0.6 -47 10.7 -57Q21 -68 32 -71Q43 -73 56 -69Q69 -65 79 -57Q89 -49 94 -36Z" fill="#ffd0f0" class="o" stroke-width="5"/><clipPath id="c20"><use href="#p19"/></clipPath><rect clip-path="url(#c20)" x="-7" y="-74" width="104" height="104" fill="url(#h5)" mask="url(#m_b)"/><path id="p21" d="M140 -18.1Q143 -6.2 140 4.8Q136 15.9 130 22Q123 28 112 33Q101 37 89 34Q77 30 69 23Q62 15.5 60 4Q57 -7.4 59 -17.9Q60 -28 68 -37Q76 -45 89 -48Q102 -51 112 -48Q123 -45 130 -37Q136 -30 140 -18.1Z" fill="#ffd0f0" class="o" stroke-width="5"/><clipPath id="c22"><use href="#p21"/></clipPath><rect clip-path="url(#c22)" x="56" y="-52" width="88" height="88" fill="url(#h5)" mask="url(#m_b)"/><path d="M167 -2.7Q170 5.1 168 12.7Q166 20 161 26Q155 31 148 34Q140 36 133 34Q125 32 120 27Q114 21 112 13.4Q109 6 111 -2.1Q113 -10.3 119 -15.2Q124 -20 131 -22Q139 -24 146 -22Q154 -21 159 -15.5Q165 -10.4 167 -2.7Z" fill="#ffd0f0" class="o" stroke-width="5"/><path id="p23" d="M98 1.7Q100 12.8 97 23Q94 32 88 40Q82 48 71 49Q61 50 51 48Q42 45 34 38Q25 31 24 22Q22 12.7 23 2.6Q25 -7.5 33 -14.4Q40 -21 50 -25Q60 -29 70 -27Q80 -25 88 -17Q96 -9.5 98 1.7Z" fill="#ffd0f0" class="o" stroke-width="5"/><clipPath id="c24"><use href="#p23"/></clipPath><rect clip-path="url(#c24)" x="20" y="-28" width="80" height="80" fill="url(#h5)" mask="url(#m_b)"/><path d="M-9.6 10.5L150 8.5L151 39L-9.5 41Z" fill="#ffd0f0"/></g></g><g class="pulse" style="--t:6s;animation-delay:-0s;transform-origin:560px 400px"><path id="p25" d="M977 399L799 455L934 581L753 552L823 728L658 602L644 772L559 627L475 770L461 609L328 689L367 554L178 585L339 449L154 399L344 351L171 213L377 254L327 108L456 183L478 36L560 179L648 13.4L659 197L804 93L754 245L927 223L782 351Z" fill="#FFC619" class="o" stroke-width="5"/><clipPath id="c26"><use href="#p25"/></clipPath><rect clip-path="url(#c26)" x="155" y="13.7" width="823" height="758" fill="url(#h7)" mask="url(#m_tl)"/></g><g class="pulse" style="--t:4s;animation-delay:-0s;transform-origin:560px 420px"><circle cx="246" cy="505" r="14.8" fill="#1b0a3c"/><circle cx="248" cy="503" r="9.2" fill="#FFFFFF"/><circle cx="252" cy="477" r="3.9" fill="#13D6F2"/><circle cx="604" cy="135" r="13.9" fill="#1b0a3c"/><circle cx="606" cy="134" r="8.6" fill="#13D6F2"/><circle cx="312" cy="407" r="9" fill="#1b0a3c"/><circle cx="313" cy="406" r="5.6" fill="#13D6F2"/><circle cx="303" cy="379" r="3.5" fill="#13D6F2"/><circle cx="580" cy="58" r="14.6" fill="#1b0a3c"/><circle cx="582" cy="56" r="9" fill="#FFFFFF"/><circle cx="320" cy="586" r="13.2" fill="#1b0a3c"/><circle cx="322" cy="584" r="8.2" fill="#13D6F2"/><circle cx="340" cy="559" r="2.5" fill="#13D6F2"/><circle cx="782" cy="242" r="5.6" fill="#1b0a3c"/><circle cx="782" cy="241" r="3.4" fill="#13D6F2"/><circle cx="559" cy="745" r="6.4" fill="#1b0a3c"/><circle cx="560" cy="744" r="4" fill="#FFFFFF"/><circle cx="546" cy="733" r="2.8" fill="#13D6F2"/><circle cx="355" cy="202" r="8.6" fill="#1b0a3c"/><circle cx="356" cy="201" r="5.3" fill="#13D6F2"/><circle cx="760" cy="705" r="14.5" fill="#1b0a3c"/><circle cx="762" cy="703" r="9" fill="#13D6F2"/><circle cx="746" cy="681" r="3.1" fill="#13D6F2"/><circle cx="355" cy="63" r="13.8" fill="#1b0a3c"/><circle cx="356" cy="62" r="8.6" fill="#FFFFFF"/><circle cx="761" cy="650" r="5.7" fill="#1b0a3c"/><circle cx="762" cy="649" r="3.5" fill="#13D6F2"/><circle cx="755" cy="643" r="2.8" fill="#13D6F2"/></g><g class="pulse" style="--t:5.7s;animation-delay:-1.3s;transform-origin:560px 420px"><circle cx="245" cy="674" r="14.9" fill="#1b0a3c"/><circle cx="247" cy="673" r="9.3" fill="#13D6F2"/><circle cx="198" cy="385" r="14.4" fill="#1b0a3c"/><circle cx="200" cy="384" r="8.9" fill="#FFFFFF"/><circle cx="717" cy="96" r="5.6" fill="#1b0a3c"/><circle cx="717" cy="96" r="3.5" fill="#13D6F2"/><circle cx="797" cy="212" r="5.1" fill="#1b0a3c"/><circle cx="797" cy="212" r="3.2" fill="#13D6F2"/><circle cx="796" cy="498" r="12.7" fill="#1b0a3c"/><circle cx="797" cy="496" r="7.9" fill="#FFFFFF"/><circle cx="832" cy="712" r="11.9" fill="#1b0a3c"/><circle cx="833" cy="710" r="7.4" fill="#13D6F2"/><circle cx="531" cy="688" r="10.7" fill="#1b0a3c"/><circle cx="532" cy="686" r="6.6" fill="#13D6F2"/><circle cx="665" cy="720" r="6.3" fill="#1b0a3c"/><circle cx="666" cy="719" r="3.9" fill="#FFFFFF"/><circle cx="325" cy="549" r="9.1" fill="#1b0a3c"/><circle cx="326" cy="547" r="5.6" fill="#13D6F2"/><circle cx="594" cy="684" r="5.9" fill="#1b0a3c"/><circle cx="594" cy="683" r="3.7" fill="#13D6F2"/><circle cx="185" cy="406" r="11.1" fill="#1b0a3c"/><circle cx="186" cy="404" r="6.9" fill="#FFFFFF"/></g><path id="p27" d="M-39 940L-39 795L-40 650L61 694L159 723L260 720L360 679L460 662L559 752L659 698L759 695L861 660L960 741L1061 715L1159 670L1261 691L1361 711L1459 744L1559 648L1601 794L1641 941L1501 941L1359 941L1221 939L1080 939L940 940L801 939L660 941L521 941L381 939L240 941L101 939Z" fill="#7A22D6" class="o" stroke-width="5"/><clipPath id="c28"><use href="#p27"/></clipPath><rect clip-path="url(#c28)" x="-40" y="647" width="1680" height="293" fill="url(#h5)" mask="url(#m_b)"/><clipPath id="c29"><use href="#p27"/></clipPath><rect clip-path="url(#c29)" x="-40" y="647" width="1680" height="293" fill="url(#h7)" mask="url(#m_tr)"/><g transform="translate(1150 740) scale(0.8 0.8)"><path id="p30" d="M-172 -130L80 -129L81 -0.4L-169 0.8Z" fill="#FFF0D0" class="o" stroke-width="5.8"/><clipPath id="c31"><use href="#p30"/></clipPath><rect clip-path="url(#c31)" x="-170" y="-130" width="250" height="130" fill="url(#h32)" mask="url(#m_br)"/><clipPath id="c33"><use href="#p30"/></clipPath><rect clip-path="url(#c33)" x="-170" y="-130" width="250" height="130" fill="url(#h34)" mask="url(#m_tl)"/><path id="p35" d="M-186 -129L-44 -131L95 -130L60 -208L-149 -210Z" fill="#D8432B" class="o" stroke-width="5.8"/><clipPath id="c36"><use href="#p35"/></clipPath><rect clip-path="url(#c36)" x="-185" y="-210" width="280" height="80" fill="url(#h32)" mask="url(#m_br)"/><clipPath id="c37"><use href="#p35"/></clipPath><rect clip-path="url(#c37)" x="-185" y="-210" width="280" height="80" fill="url(#h34)" mask="url(#m_tl)"/><path id="p38" d="M70 -299L149 -299L149 -149L152 -1L71 1.1L71 -148Z" fill="#FFF0D0" class="o" stroke-width="5.8"/><clipPath id="c39"><use href="#p38"/></clipPath><rect clip-path="url(#c39)" x="70" y="-300" width="80" height="300" fill="url(#h32)" mask="url(#m_br)"/><clipPath id="c40"><use href="#p38"/></clipPath><rect clip-path="url(#c40)" x="70" y="-300" width="80" height="300" fill="url(#h34)" mask="url(#m_tl)"/><path id="p41" d="M60 -299L160 -299L109 -451Z" fill="#D8432B" class="o" stroke-width="5.8"/><clipPath id="c42"><use href="#p41"/></clipPath><rect clip-path="url(#c42)" x="60" y="-450" width="100" height="150" fill="url(#h32)" mask="url(#m_br)"/><clipPath id="c43"><use href="#p41"/></clipPath><rect clip-path="url(#c43)" x="60" y="-450" width="100" height="150" fill="url(#h34)" mask="url(#m_tl)"/><path d="M110 -451L110 -499" fill="none" stroke="#1b0a3c" stroke-width="8" stroke-linecap="round" stroke-linejoin="round"/><path d="M91 -481L127 -479" fill="none" stroke="#1b0a3c" stroke-width="8" stroke-linecap="round" stroke-linejoin="round"/><path d="M87 -201L87 -249L92 -257L100 -267L110 -269L122 -268L130 -259L132 -249L133 -199Z" fill="#13D6F2" class="o" stroke-width="5.8"/><path d="M-31 0.2L-30 -81L-29 -92L-22 -98L-11.8 -101L-0.6 -98L6.3 -91L9.3 -80L9.3 -0.6Z" fill="#FF7A1A" class="o" stroke-width="5.8"/><path d="M-151 -66L-149 -98L-150 -103L-144 -108L-137 -110L-134 -109L-128 -102L-124 -99L-126 -66Z" fill="#13D6F2" class="o" stroke-width="4"/><path d="M-100 -65L-99 -98L-99 -105L-95 -107L-88 -111L-81 -107L-79 -105L-76 -98L-75 -67Z" fill="#13D6F2" class="o" stroke-width="4"/><path d="M-50 -65L-51 -99L-47 -103L-43 -109L-37 -111L-32 -109L-26 -103L-27 -97L-25 -67Z" fill="#13D6F2" class="o" stroke-width="4"/><path d="M98 -150L97 -178L101 -186L105 -187L111 -191L116 -189L122 -185L122 -178L122 -151Z" fill="#FFC619" class="o" stroke-width="4"/><path d="M123 -234Q124 -230 123 -227Q122 -223 120 -221Q117 -218 114 -217Q110 -216 107 -217Q103 -218 101 -221Q98 -224 97 -227Q96 -230 98 -233Q99 -236 101 -239Q103 -243 106 -243Q110 -244 113 -243Q117 -242 119 -239Q122 -237 123 -234Z" fill="#FFC619" class="o" stroke-width="5.8"/></g><path id="p44" d="M-21 740L128 740L279 741L427 740L575 740L726 740L875 739L1022 739L1172 740L1322 739L1470 740L1621 741L1621 939L1472 940L1322 939L1172 939L1023 939L873 939L725 940L575 941L429 939L278 940L130 941L-20 941Z" fill="#14C48A" class="o" stroke-width="5"/><clipPath id="c45"><use href="#p44"/></clipPath><rect clip-path="url(#c45)" x="-20" y="740" width="1640" height="200" fill="url(#h5)" mask="url(#m_b)"/><g transform="translate(560 790) scale(2.5 2.5)"><path d="M-15.2 -60L-2.4 -59L-1.9 -0.5L-14.5 -0.8Z" fill="#2B1478" class="o" stroke-width="3.2"/><path d="M1.2 -60L15.4 -61L15 0.2L2.2 -0.3Z" fill="#2B1478" class="o" stroke-width="3.2"/><path d="M-18.6 -8.1L-1.3 -9.1L-1.6 0.2L-17.5 -0.1Z" fill="#1b0a3c"/><path d="M1.9 -8.1L18.7 -9.6L18.3 -0.6L1.3 1Z" fill="#1b0a3c"/><path d="M-23 -108L-34 -101L-14 -77L-6 -88Z" fill="#160840" class="o" stroke-width="3.2"/><path d="M24 -107L34 -100L14.4 -77L5.7 -88Z" fill="#160840" class="o" stroke-width="3.2"/><path id="p46" d="M-26 -114L24 -115L20 -51L-20 -52Z" fill="#160840" class="o" stroke-width="3.2"/><clipPath id="c47"><use href="#p46"/></clipPath><rect clip-path="url(#c47)" x="-25" y="-114" width="50" height="62" fill="url(#h48)" mask="url(#m_br)"/><clipPath id="c49"><use href="#p46"/></clipPath><rect clip-path="url(#c49)" x="-25" y="-114" width="50" height="62" fill="url(#h50)" mask="url(#m_tl)"/><path d="M-22 -61L21 -61L23 -51L-21 -51Z" fill="#18093e"/><path id="p51" d="M17.3 -139Q18.2 -134 16.7 -130Q15.1 -125 12.4 -122Q9.8 -119 4.4 -118Q-1 -116 -5.4 -118Q-9.8 -120 -12.8 -123Q-15.8 -126 -17.3 -130Q-18.8 -135 -16.9 -139Q-15 -144 -12 -148Q-9 -151 -4 -152Q0.9 -153 4.5 -151Q8.1 -150 12.2 -147Q16.4 -144 17.3 -139Z" fill="#F2B27D" class="o" stroke-width="3.2"/><clipPath id="c52"><use href="#p51"/></clipPath><rect clip-path="url(#c52)" x="-18" y="-153" width="36" height="36" fill="url(#h48)" mask="url(#m_br)"/><path d="M-19.1 -139L-14.7 -153L-0.8 -159L14.6 -153L18.7 -139L10.2 -144L-11.2 -146Z" fill="#FFFFFF" class="o" stroke-width="3.2"/><path id="p53" d="M-17.4 -91L18.8 -93L17.3 -67L-18.3 -66Z" fill="#13D6F2" class="o" stroke-width="3.2"/><clipPath id="c54"><use href="#p53"/></clipPath><rect clip-path="url(#c54)" x="-18" y="-92" width="36" height="26" fill="url(#h48)" mask="url(#m_br)"/><path d="M-14.4 -89L14 -88L14.9 -83L-13.5 -83Z" fill="#FFFFFF"/></g><g class="bob" style="--t:5s;animation-delay:-0s;transform-origin:870px 520px"><g transform="translate(870 520) scale(0.9 0.9)"><path d="M9 -109L7.9 -10" fill="none" stroke="#1b0a3c" stroke-width="11" stroke-linecap="round" stroke-linejoin="round"/><path d="M7.7 -111L8.2 -10.4" fill="none" stroke="#FFFFFF" stroke-width="5" stroke-linecap="round" stroke-linejoin="round"/><path d="M11 -9.9Q12.2 -6.4 11.1 -2.6Q10 1.2 6.2 4Q2.3 6.8 -3.2 7.6Q-8.7 8.3 -13.3 7.3Q-17.9 6.2 -22 3.7Q-26 1.2 -27 -2.4Q-28 -6.1 -27 -9.6Q-26 -13.1 -22 -15.9Q-18.1 -18.7 -12.7 -19.4Q-7.2 -20 -2.5 -18.9Q2.2 -17.8 6 -15.6Q9.8 -13.3 11 -9.9Z" fill="#FFFFFF" class="o" stroke-width="5.3"/><path d="M6.4 -109L46 -88L47 -65L9.1 -91Z" fill="#FFFFFF" class="o" stroke-width="5.3"/></g></g><g class="bob" style="--t:6s;animation-delay:-1s;transform-origin:930px 420px"><g transform="translate(930 420) scale(0.9 0.9)"><path d="M7 -109L7.4 -9" fill="none" stroke="#1b0a3c" stroke-width="11" stroke-linecap="round" stroke-linejoin="round"/><path d="M8 -110L8.7 -10.7" fill="none" stroke="#FFC619" stroke-width="5" stroke-linecap="round" stroke-linejoin="round"/><path d="M10.7 -9.3Q11.5 -5.7 10.3 -2.4Q9.1 0.9 5.7 3.5Q2.2 6.1 -3.1 7.4Q-8.4 8.7 -13.4 7.5Q-18.4 6.3 -22 3.5Q-26 0.8 -27 -2.5Q-27 -5.9 -26 -9Q-25 -12.2 -22 -15.1Q-18.6 -18 -13 -19Q-7.4 -20 -2.5 -19.3Q2.5 -18.5 6.2 -15.7Q10 -12.9 10.7 -9.3Z" fill="#FFC619" class="o" stroke-width="5.3"/><path d="M8.6 -111L45 -86L45 -67L7.6 -89Z" fill="#FFC619" class="o" stroke-width="5.3"/></g></g><g class="bob" style="--t:7s;animation-delay:-2s;transform-origin:800px 360px"><g transform="translate(800 360) scale(0.9 0.9)"><path d="M8.4 -111L7.5 -9.6" fill="none" stroke="#1b0a3c" stroke-width="11" stroke-linecap="round" stroke-linejoin="round"/><path d="M7.5 -111L8.4 -9.5" fill="none" stroke="#13D6F2" stroke-width="5" stroke-linecap="round" stroke-linejoin="round"/><path d="M10.4 -9.3Q11.9 -6.5 10.4 -2.8Q8.9 0.8 5.7 3.4Q2.6 6.1 -3 7Q-8.5 8 -13.5 7.1Q-18.5 6.1 -22 3.5Q-26 0.8 -27 -2.4Q-28 -5.6 -27 -9.4Q-26 -13.3 -22 -15.9Q-17.9 -18.4 -13.1 -19.4Q-8.3 -20 -3.1 -19.3Q2.1 -18.2 5.5 -15.2Q9 -12.2 10.4 -9.3Z" fill="#13D6F2" class="o" stroke-width="5.3"/><path d="M7.5 -110L45 -87L48 -67L8.3 -91Z" fill="#13D6F2" class="o" stroke-width="5.3"/></g></g><g class="bob" style="--t:8s;animation-delay:-3s;transform-origin:1000px 340px"><g transform="translate(1000 340) scale(0.9 0.9)"><path d="M8.1 -111L8 -10.3" fill="none" stroke="#1b0a3c" stroke-width="11" stroke-linecap="round" stroke-linejoin="round"/><path d="M8.5 -111L8.6 -10.5" fill="none" stroke="#FF6FB5" stroke-width="5" stroke-linecap="round" stroke-linejoin="round"/><path d="M10.2 -9.7Q11.5 -5.6 10.4 -2.5Q9.2 0.6 5.2 3.4Q1.2 6.3 -3.2 7.6Q-7.6 8.8 -13.1 7.3Q-18.6 5.9 -22 3.3Q-26 0.8 -26 -2.3Q-27 -5.4 -26 -9.4Q-26 -13.3 -22 -15.5Q-18.7 -17.6 -13.6 -19.1Q-8.4 -21 -3 -19.8Q2.4 -18.9 5.6 -16.3Q8.9 -13.8 10.2 -9.7Z" fill="#FF6FB5" class="o" stroke-width="5.3"/><path d="M6.7 -109L46 -87L46 -68L8.9 -90Z" fill="#FF6FB5" class="o" stroke-width="5.3"/></g></g><g class="rise" style="--t:4.9s;--dy:-285px;animation-delay:-2.2s"><circle cx="650" cy="400" r="3.8" fill="#FFFFFF"/></g><g class="rise" style="--t:3.3s;--dy:-279px;animation-delay:-1.8s"><circle cx="464" cy="400" r="4.9" fill="#FFC619"/></g><g class="rise" style="--t:4s;--dy:-173px;animation-delay:-2.1s"><circle cx="703" cy="400" r="2.2" fill="#FFFFFF"/></g><g class="rise" style="--t:5.5s;--dy:-285px;animation-delay:-1.4s"><circle cx="419" cy="400" r="2.8" fill="#FFC619"/></g><g class="rise" style="--t:4.9s;--dy:-238px;animation-delay:-1.2s"><circle cx="505" cy="400" r="2.6" fill="#FFFFFF"/></g><g class="rise" style="--t:4.5s;--dy:-196px;animation-delay:-1.5s"><circle cx="424" cy="400" r="3" fill="#FFC619"/></g><g class="rise" style="--t:5.5s;--dy:-229px;animation-delay:-3.6s"><circle cx="477" cy="400" r="4.7" fill="#FFFFFF"/></g><g class="rise" style="--t:5s;--dy:-185px;animation-delay:-0.5s"><circle cx="485" cy="400" r="4.4" fill="#FFC619"/></g><g class="rise" style="--t:5.1s;--dy:-255px;animation-delay:-0.1s"><circle cx="562" cy="400" r="2.7" fill="#FFFFFF"/></g><g class="rise" style="--t:4.8s;--dy:-221px;animation-delay:-1.1s"><circle cx="368" cy="400" r="4.6" fill="#FFC619"/></g><g class="rise" style="--t:3.7s;--dy:-256px;animation-delay:-0.5s"><circle cx="365" cy="400" r="2.2" fill="#FFFFFF"/></g><g class="rise" style="--t:5.5s;--dy:-175px;animation-delay:-1.7s"><circle cx="675" cy="400" r="2.5" fill="#FFC619"/></g><g class="rise" style="--t:4.5s;--dy:-227px;animation-delay:-2.8s"><circle cx="442" cy="400" r="3.8" fill="#FFFFFF"/></g><g class="rise" style="--t:3.5s;--dy:-189px;animation-delay:-2.2s"><circle cx="439" cy="400" r="4.1" fill="#FFC619"/></g><rect width="1600" height="900" fill="url(#v55)"/></g></svg>