<svg xmlns="http://www.w3.org/2000/svg" viewBox="0 0 1600 900" role="img"><title>Vocational training workshop</title><desc>Apprentices in hard hats build a brick wall in a vocational school workshop, with spinning gears, a toolbox and a school building in the back.</desc><defs><style>.o{stroke:#1b0a3c;stroke-linejoin:round;stroke-linecap:round}@keyframes spin{to{transform:rotate(360deg)}}@keyframes spinr{to{transform:rotate(-360deg)}}@keyframes tw{0%,100%{opacity:.3}50%{opacity:1}}@keyframes pu{0%,100%{transform:scale(1)}50%{transform:scale(1.07)}}@keyframes bob{0%,100%{transform:translateY(0)}50%{transform:translateY(-9px)}}@keyframes sw{0%,100%{transform:rotate(-2.5deg)}50%{transform:rotate(2.5deg)}}@keyframes dr{0%{transform:translateX(-50px)}100%{transform:translateX(70px)}}@keyframes fl{0%,100%{transform:skewY(-4deg) scaleX(1)}50%{transform:skewY(4deg) scaleX(.96)}}@keyframes fk{0%,100%{transform:scale(1,1)}50%{transform:scale(.94,1.1)}}@keyframes wv{to{transform:translateX(calc(var(--dx) * -1))}}@keyframes wvr{from{transform:translateX(calc(var(--dx) * -1))}to{transform:none}}@keyframes ri{0%{transform:translateY(0);opacity:0}15%{opacity:1}100%{transform:translateY(var(--dy));opacity:0}}@keyframes dp{0%{transform:translateY(-70px);opacity:0}25%,70%{opacity:1}100%{transform:translateY(40px);opacity:0}}@keyframes fa{0%{transform:translate(0,-60px);opacity:0}20%{opacity:1}100%{transform:translate(60px,520px);opacity:0}}@keyframes kb{0%{transform:scale(1)}100%{transform:scale(1.045)}}@keyframes zg{0%,100%{transform:translateX(-26px)}50%{transform:translateX(26px)}}@keyframes fy{0%{transform:translateX(-300px)}100%{transform:translateX(300px)}}@keyframes bm{0%,100%{opacity:.35}50%{opacity:.8}}.spin{animation:spin var(--t,60s) linear infinite}.spinr{animation:spinr var(--t,60s) linear infinite}.tw{animation:tw var(--t,3s) ease-in-out infinite}.pulse{animation:pu var(--t,5s) ease-in-out infinite}.bob{animation:bob var(--t,5s) ease-in-out infinite}.sway{animation:sw var(--t,6s) ease-in-out infinite}.drift{animation:dr var(--t,40s) ease-in-out infinite alternate}.flag{animation:fl var(--t,3.5s) ease-in-out infinite}.flick{animation:fk var(--t,2.4s) ease-in-out infinite}.wv{animation:wv var(--t,9s) linear infinite}.wvr{animation:wvr var(--t,11s) linear infinite}.rise{animation:ri var(--t,4s) ease-out infinite}.drop{animation:dp var(--t,4s) ease-in-out infinite}.fall{animation:fa var(--t,7s) linear infinite}.kb{animation:kb 24s ease-in-out infinite alternate;transform-origin:800px 450px}.zig{animation:zg var(--t,8s) ease-in-out infinite}.fly{animation:fy var(--t,14s) ease-in-out infinite alternate}.beam{animation:bm var(--t,6s) ease-in-out infinite}@media (prefers-reduced-motion:reduce){*{animation:none!important}}</style><linearGradient id="s1" gradientTransform="rotate(90 .5 .5)"><stop offset="0" stop-color="#6A1FC2"/><stop offset="0.5" stop-color="#F2118C"/><stop offset="0.8" stop-color="#FF7A1A"/><stop offset="1" stop-color="#FFC619"/></linearGradient><pattern id="h2" width="22" height="22" patternUnits="userSpaceOnUse" patternTransform="rotate(28)"><circle cx="11.0" cy="11.0" r="5.720000000000001" fill="#fff" fill-opacity="0.35"/></pattern><mask id="m_b" maskContentUnits="objectBoundingBox" x="0" y="0" width="1" height="1"><linearGradient id="g_b" x1="0" y1="0" x2="0" y2="1"><stop offset=".25" stop-color="#000"/><stop offset="1" stop-color="#fff"/></linearGradient><rect width="1" height="1" fill="url(#g_b)"/></mask><pattern id="h5" width="15" height="15" patternUnits="userSpaceOnUse" patternTransform="rotate(28)"><circle cx="7.5" cy="7.5" r="3.6" fill="#ffffff" fill-opacity="0.5"/></pattern><mask id="m_tl" maskContentUnits="objectBoundingBox" x="0" y="0" width="1" height="1"><linearGradient id="g_tl" x1="1" y1="1" x2="0" y2="0"><stop offset=".25" stop-color="#000"/><stop offset="1" stop-color="#fff"/></linearGradient><rect width="1" height="1" fill="url(#g_tl)"/></mask><pattern id="h8" width="17" height="17" patternUnits="userSpaceOnUse" patternTransform="rotate(28)"><circle cx="8.5" cy="8.5" r="4.1" fill="#1b0a3c" fill-opacity="0.34"/></pattern><mask id="m_br" maskContentUnits="objectBoundingBox" x="0" y="0" width="1" height="1"><linearGradient id="g_br" x1="0" y1="0" x2="1" y2="1"><stop offset=".25" stop-color="#000"/><stop offset="1" stop-color="#fff"/></linearGradient><rect width="1" height="1" fill="url(#g_br)"/></mask><pattern id="h10" width="17" height="17" patternUnits="userSpaceOnUse" patternTransform="rotate(28)"><circle cx="8.5" cy="8.5" r="4.1" fill="#ffffff" fill-opacity="0.5"/></pattern><pattern id="h16" width="15" height="15" patternUnits="userSpaceOnUse" patternTransform="rotate(28)"><circle cx="7.5" cy="7.5" r="3.6" fill="#1b0a3c" fill-opacity="0.34"/></pattern><pattern id="h19" width="11" height="11" patternUnits="userSpaceOnUse" patternTransform="rotate(28)"><circle cx="5.5" cy="5.5" r="2.6" fill="#1b0a3c" fill-opacity="0.34"/></pattern><pattern id="h21" width="11" height="11" patternUnits="userSpaceOnUse" patternTransform="rotate(28)"><circle cx="5.5" cy="5.5" r="2.6" fill="#ffffff" fill-opacity="0.5"/></pattern><pattern id="h30" width="20" height="20" patternUnits="userSpaceOnUse" patternTransform="rotate(28)"><circle cx="10" cy="10" r="4.8" fill="#1b0a3c" fill-opacity="0.34"/></pattern><pattern id="h32" width="20" height="20" patternUnits="userSpaceOnUse" patternTransform="rotate(28)"><circle cx="10" cy="10" r="4.8" fill="#ffffff" fill-opacity="0.5"/></pattern><pattern id="h35" width="19" height="19" patternUnits="userSpaceOnUse" patternTransform="rotate(28)"><circle cx="9.5" cy="9.5" r="4.6" fill="#1b0a3c" fill-opacity="0.34"/></pattern><pattern id="h37" width="19" height="19" patternUnits="userSpaceOnUse" patternTransform="rotate(28)"><circle cx="9.5" cy="9.5" r="4.6" fill="#ffffff" fill-opacity="0.5"/></pattern><radialGradient id="v41" cx=".5" cy=".5" r=".75"><stop offset=".55" stop-color="#1b0a3c" stop-opacity="0"/><stop offset="1" stop-color="#1b0a3c" stop-opacity="0.5"/></radialGradient></defs><g class="kb"><rect x="0" y="0" width="1600" height="900" fill="url(#s1)"/><g class="tw" style="--t:3.2s;animation-delay:-0s"><path d="M1471 382L1473 388L1479 389L1473 391L1471 397L1470 391L1464 389L1470 388Z" fill="#13D6F2"/><path d="M1554 500L1556 508L1564 510L1556 512L1554 519L1552 512L1545 510L1552 508Z" fill="#13D6F2"/><path d="M1536 466L1537 472L1543 474L1537 475L1536 481L1534 475L1528 474L1534 472Z" fill="#FFFFFF"/><circle cx="1202" cy="223" r="2" fill="#FF6FB5"/><circle cx="596" cy="2.6" r="1.3" fill="#FF6FB5"/><circle cx="404" cy="143" r="2.1" fill="#13D6F2"/><circle cx="520" cy="39" r="2.2" fill="#FFC619"/><circle cx="1272" cy="402" r="1.7" fill="#FF6FB5"/><path d="M1338 60L1341 69L1349 71L1341 74L1338 82L1336 74L1327 71L1336 69Z" fill="#FFC619"/><circle cx="238" cy="244" r="2.3" fill="#FF6FB5"/><circle cx="1125" cy="185" r="2.7" fill="#FF6FB5"/><circle cx="527" cy="49" r="2.3" fill="#13D6F2"/><path d="M1201 544L1203 551L1211 554L1203 556L1201 563L1199 556L1192 554L1199 551Z" fill="#FF6FB5"/><circle cx="14.4" cy="32" r="2.4" fill="#FFFFFF"/><path d="M973 551L975 557L981 559L975 560L973 566L972 560L966 559L972 557Z" fill="#FFFFFF"/><circle cx="710" cy="309" r="2.1" fill="#FF6FB5"/><circle cx="1099" cy="476" r="1.4" fill="#FFC619"/><path d="M754 541L755 547L762 549L755 551L754 557L752 551L746 549L752 547Z" fill="#FF6FB5"/><path d="M273 249L275 257L284 260L275 262L273 271L270 262L262 260L270 257Z" fill="#FFC619"/><path d="M659 33L661 40L668 42L661 44L659 51L657 44L650 42L657 40Z" fill="#13D6F2"/><circle cx="728" cy="110" r="1.4" fill="#FF6FB5"/><circle cx="848" cy="93" r="2.5" fill="#FF6FB5"/><path d="M762 420L763 426L770 428L763 430L762 436L760 430L754 428L760 426Z" fill="#FFC619"/><path d="M1507 529L1510 538L1518 540L1510 542L1507 551L1505 542L1496 540L1505 538Z" fill="#FF6FB5"/></g><g class="tw" style="--t:4.1s;animation-delay:-1.3s"><path d="M350 308L352 315L360 317L352 319L350 327L348 319L341 317L348 315Z" fill="#FF6FB5"/><path d="M1102 377L1105 386L1114 388L1105 391L1102 399L1100 391L1091 388L1100 386Z" fill="#FF6FB5"/><path d="M840 235L842 242L849 244L842 246L840 253L838 246L831 244L838 242Z" fill="#FFFFFF"/><circle cx="108" cy="49" r="1.6" fill="#FFC619"/><circle cx="963" cy="528" r="1.4" fill="#13D6F2"/><circle cx="1060" cy="269" r="1.5" fill="#FF6FB5"/><path d="M1461 415L1463 423L1471 425L1463 427L1461 436L1459 427L1451 425L1459 423Z" fill="#FFC619"/><path d="M1292 386L1294 392L1300 394L1294 396L1292 402L1290 396L1284 394L1290 392Z" fill="#13D6F2"/><path d="M40 113L42 120L49 121L42 123L40 130L38 123L31 121L38 120Z" fill="#FFFFFF"/><circle cx="965" cy="61" r="1.8" fill="#13D6F2"/><circle cx="763" cy="86" r="1.3" fill="#FFC619"/><circle cx="776" cy="546" r="2.6" fill="#FFC619"/><path d="M297 463L299 471L307 473L299 476L297 483L295 476L287 473L295 471Z" fill="#13D6F2"/><circle cx="1556" cy="411" r="2.1" fill="#FF6FB5"/><circle cx="221" cy="42" r="2" fill="#FFC619"/><circle cx="875" cy="0.3" r="2.4" fill="#FF6FB5"/><path d="M1102 331L1103 338L1110 339L1103 341L1102 347L1100 341L1094 339L1100 338Z" fill="#FF6FB5"/><circle cx="1398" cy="501" r="2.5" fill="#FF6FB5"/><path d="M914 284L916 292L924 294L916 296L914 304L912 296L904 294L912 292Z" fill="#FFC619"/><path d="M1491 120L1494 128L1502 131L1494 133L1491 142L1489 133L1480 131L1489 128Z" fill="#FFC619"/><circle cx="220" cy="94" r="2" fill="#FFC619"/><path d="M942 52L944 60L952 62L944 65L942 73L940 65L932 62L940 60Z" fill="#FF6FB5"/><path d="M1588 112L1590 119L1598 121L1590 123L1588 131L1586 123L1579 121L1586 119Z" fill="#FFC619"/></g><g class="tw" style="--t:5s;animation-delay:-2.6s"><path d="M1403 535L1405 543L1413 545L1405 547L1403 555L1401 547L1393 545L1401 543Z" fill="#FFFFFF"/><path d="M1335 196L1336 202L1342 203L1336 205L1335 211L1333 205L1327 203L1333 202Z" fill="#FF6FB5"/><path d="M1243 183L1245 190L1251 191L1245 193L1243 199L1241 193L1235 191L1241 190Z" fill="#FFC619"/><path d="M1326 454L1329 462L1337 464L1329 466L1326 474L1324 466L1316 464L1324 462Z" fill="#FFC619"/><circle cx="1584" cy="64" r="1.6" fill="#FFFFFF"/><path d="M999 427L1001 434L1009 436L1001 439L999 446L997 439L990 436L997 434Z" fill="#FFC619"/><circle cx="1231" cy="504" r="1.9" fill="#FF6FB5"/><path d="M71 226L73 234L80 236L73 238L71 245L69 238L61 236L69 234Z" fill="#FF6FB5"/><path d="M85 244L87 251L93 253L87 254L85 261L83 254L77 253L83 251Z" fill="#FFC619"/><circle cx="621" cy="32" r="2.6" fill="#FF6FB5"/><circle cx="1413" cy="275" r="2.7" fill="#FFFFFF"/><path d="M671 177L673 186L682 188L673 190L671 199L669 190L660 188L669 186Z" fill="#FFFFFF"/><circle cx="325" cy="326" r="2.3" fill="#13D6F2"/><circle cx="158" cy="343" r="2.2" fill="#FF6FB5"/><circle cx="625" cy="123" r="2.2" fill="#13D6F2"/><circle cx="981" cy="114" r="2.3" fill="#13D6F2"/><circle cx="940" cy="253" r="2.1" fill="#FF6FB5"/><circle cx="85" cy="327" r="1.3" fill="#FF6FB5"/><path d="M944 521L946 528L952 529L946 531L944 537L942 531L936 529L942 528Z" fill="#FF6FB5"/><circle cx="941" cy="72" r="2.1" fill="#FF6FB5"/><circle cx="1101" cy="262" r="2.7" fill="#FF6FB5"/><path d="M673 511L675 519L684 522L675 524L673 533L670 524L662 522L670 519Z" fill="#FFC619"/><path d="M104 263L105 269L112 271L105 273L104 279L102 273L95 271L102 269Z" fill="#FF6FB5"/></g><g class="spin" style="--t:140s;animation-delay:-0s;transform-origin:600px 420px"><path d="M600 420L2300 420L2274 715ZM600 420L2197 1001L2072 1270ZM600 420L1902 1513L1693 1722ZM600 420L1450 1892L1181 2017ZM600 420L895 2094L600 2120ZM600 420L305 2094L18.6 2017ZM600 420L-250 1892L-493 1722ZM600 420L-702 1513L-872 1270ZM600 420L-997 1001L-1074 715ZM600 420L-1100 420L-1074 125ZM600 420L-997 -161L-872 -430ZM600 420L-702 -673L-493 -882ZM600 420L-250 -1052L18.6 -1177ZM600 420L305 -1254L600 -1280ZM600 420L895 -1254L1181 -1177ZM600 420L1450 -1052L1693 -882ZM600 420L1902 -673L2072 -430ZM600 420L2197 -161L2274 125Z" fill="#fff" opacity="0.1"/></g><rect x="0" y="0" width="1600" height="900" fill="url(#h2)" mask="url(#m_b)"/><g class="pulse" style="--t:6s;animation-delay:-0s;transform-origin:600px 440px"><path id="p3" d="M976 441L856 498L986 626L791 590L841 744L709 669L682 803L601 694L513 819L486 678L334 776L409 595L241 614L374 492L172 440L387 392L261 277L410 289L364 145L508 246L509 37L599 206L695 24L707 216L847 130L779 296L941 276L829 387Z" fill="#FF7A1A" class="o" stroke-width="5"/><clipPath id="c4"><use href="#p3"/></clipPath><rect clip-path="url(#c4)" x="172" y="25" width="813" height="794" fill="url(#h5)" mask="url(#m_tl)"/></g><g class="pulse" style="--t:4s;animation-delay:-0s;transform-origin:600px 430px"><circle cx="220" cy="441" r="13.4" fill="#1b0a3c"/><circle cx="221" cy="440" r="8.3" fill="#FFFFFF"/><circle cx="206" cy="437" r="2.8" fill="#FFFFFF"/><circle cx="412" cy="748" r="11.4" fill="#1b0a3c"/><circle cx="413" cy="747" r="7" fill="#FFFFFF"/><circle cx="748" cy="768" r="12.9" fill="#1b0a3c"/><circle cx="750" cy="767" r="8" fill="#FFFFFF"/><circle cx="739" cy="772" r="2.3" fill="#FFFFFF"/><circle cx="940" cy="283" r="9.9" fill="#1b0a3c"/><circle cx="941" cy="282" r="6.1" fill="#FFFFFF"/><circle cx="873" cy="306" r="13" fill="#1b0a3c"/><circle cx="875" cy="304" r="8.1" fill="#FFFFFF"/><circle cx="896" cy="290" r="2.8" fill="#FFFFFF"/><circle cx="924" cy="160" r="13" fill="#1b0a3c"/><circle cx="926" cy="158" r="8.1" fill="#FFFFFF"/><circle cx="336" cy="152" r="8.2" fill="#1b0a3c"/><circle cx="337" cy="151" r="5.1" fill="#FFFFFF"/><circle cx="311" cy="143" r="2.4" fill="#FFFFFF"/><circle cx="842" cy="547" r="14" fill="#1b0a3c"/><circle cx="844" cy="545" r="8.7" fill="#FFFFFF"/><circle cx="242" cy="228" r="14.8" fill="#1b0a3c"/><circle cx="243" cy="226" r="9.2" fill="#FFFFFF"/><circle cx="215" cy="215" r="3.9" fill="#FFFFFF"/><circle cx="320" cy="741" r="14.9" fill="#1b0a3c"/><circle cx="322" cy="739" r="9.2" fill="#FFFFFF"/><circle cx="865" cy="259" r="12.4" fill="#1b0a3c"/><circle cx="867" cy="258" r="7.7" fill="#FFFFFF"/><circle cx="841" cy="256" r="3" fill="#FFFFFF"/></g><g class="pulse" style="--t:5.7s;animation-delay:-1.3s;transform-origin:600px 430px"><circle cx="413" cy="223" r="13.4" fill="#1b0a3c"/><circle cx="415" cy="221" r="8.3" fill="#FFFFFF"/><circle cx="885" cy="737" r="10.9" fill="#1b0a3c"/><circle cx="886" cy="735" r="6.8" fill="#FFFFFF"/><circle cx="705" cy="68" r="9.4" fill="#1b0a3c"/><circle cx="706" cy="67" r="5.8" fill="#FFFFFF"/><circle cx="930" cy="692" r="8.3" fill="#1b0a3c"/><circle cx="931" cy="691" r="5.2" fill="#FFFFFF"/><circle cx="347" cy="612" r="10.7" fill="#1b0a3c"/><circle cx="349" cy="611" r="6.7" fill="#FFFFFF"/><circle cx="727" cy="741" r="9.1" fill="#1b0a3c"/><circle cx="728" cy="740" r="5.7" fill="#FFFFFF"/><circle cx="316" cy="564" r="5.6" fill="#1b0a3c"/><circle cx="317" cy="563" r="3.5" fill="#FFFFFF"/><circle cx="498" cy="114" r="13.6" fill="#1b0a3c"/><circle cx="500" cy="112" r="8.4" fill="#FFFFFF"/><circle cx="820" cy="663" r="8.5" fill="#1b0a3c"/><circle cx="822" cy="662" r="5.2" fill="#FFFFFF"/><circle cx="849" cy="516" r="6.4" fill="#1b0a3c"/><circle cx="850" cy="516" r="4" fill="#FFFFFF"/><circle cx="866" cy="569" r="6.2" fill="#1b0a3c"/><circle cx="866" cy="568" r="3.8" fill="#FFFFFF"/></g><g transform="translate(1200 700) scale(0.8 0.8)"><path id="p6" d="M-199 -151L1.2 -149L201 -149L199 0.2L-0.2 -0.2L-202 0.7Z" fill="#FFC619" class="o" stroke-width="5.5"/><clipPath id="c7"><use href="#p6"/></clipPath><rect clip-path="url(#c7)" x="-200" y="-150" width="400" height="150" fill="url(#h8)" mask="url(#m_br)"/><clipPath id="c9"><use href="#p6"/></clipPath><rect clip-path="url(#c9)" x="-200" y="-150" width="400" height="150" fill="url(#h10)" mask="url(#m_tl)"/><path id="p11" d="M-213 -150L-71 -149L72 -151L214 -151L150 -220L0.4 -221L-152 -221Z" fill="#D8432B" class="o" stroke-width="5.5"/><clipPath id="c12"><use href="#p11"/></clipPath><rect clip-path="url(#c12)" x="-215" y="-220" width="430" height="70" fill="url(#h8)" mask="url(#m_br)"/><clipPath id="c13"><use href="#p11"/></clipPath><rect clip-path="url(#c13)" x="-215" y="-220" width="430" height="70" fill="url(#h10)" mask="url(#m_tl)"/><path d="M-172 -65L-170 -109L-168 -115L-161 -124L-152 -125L-145 -123L-139 -116L-135 -106L-134 -65Z" fill="#13D6F2" class="o" stroke-width="3.9"/><path d="M-109 -66L-109 -109L-105 -116L-100 -121L-92 -126L-82 -124L-76 -115L-73 -107L-76 -64Z" fill="#13D6F2" class="o" stroke-width="3.9"/><path d="M-46 -63L-47 -107L-43 -116L-39 -124L-31 -125L-19.8 -124L-14.6 -115L-13.3 -110L-12.9 -64Z" fill="#13D6F2" class="o" stroke-width="3.9"/><path d="M17.1 -66L17.1 -106L18.8 -118L24 -123L32 -125L41 -124L48 -115L50 -108L50 -63Z" fill="#13D6F2" class="o" stroke-width="3.9"/><path d="M77 -66L76 -107L80 -118L88 -123L94 -125L104 -123L109 -118L113 -107L111 -66Z" fill="#13D6F2" class="o" stroke-width="3.9"/><path d="M139 -66L139 -108L142 -118L150 -122L157 -125L167 -123L170 -116L173 -108L173 -66Z" fill="#13D6F2" class="o" stroke-width="3.9"/><path d="M-27 -1.1L-25 -63L-23 -76L-14.6 -87L-0.8 -90L11.4 -86L22 -77L25 -65L25 0.2Z" fill="#160840" class="o" stroke-width="5.5"/><path d="M22 -191Q23 -185 22 -178Q21 -171 16.8 -167Q12.4 -164 5.7 -161Q-1.1 -159 -6.2 -161Q-11.3 -162 -16 -167Q-21 -171 -22 -178Q-23 -184 -22 -190Q-20 -196 -16 -200Q-11.5 -204 -5.3 -206Q1 -208 5.9 -207Q10.9 -205 15.7 -201Q20 -197 22 -191Z" fill="#FFFFFF" class="o" stroke-width="5.5"/><path d="M-0.6 -184L-0 -200" fill="none" stroke="#1b0a3c" stroke-width="4" stroke-linecap="round" stroke-linejoin="round"/><path d="M0.1 -183L12.9 -179" fill="none" stroke="#1b0a3c" stroke-width="4" stroke-linecap="round" stroke-linejoin="round"/></g><path id="p14" d="M-21 719L130 721L277 719L429 719L578 720L724 721L873 719L1023 721L1174 720L1323 719L1470 721L1620 720L1620 939L1471 940L1323 939L1173 939L1024 939L875 941L726 941L578 939L428 939L278 941L129 939L-19.1 941Z" fill="#c9b38a" class="o" stroke-width="5"/><clipPath id="c15"><use href="#p14"/></clipPath><rect clip-path="url(#c15)" x="-20" y="720" width="1640" height="220" fill="url(#h16)" mask="url(#m_b)"/><g transform="translate(540 760) scale(1.5 1.5)"><path d="M-210 -190L-140 -189L-139 -153L-211 -151Z" fill="#bc3a2e" class="o" stroke-width="2.4"/><path d="M-140 -190L-71 -190L-71 -153L-140 -152Z" fill="#D8432B" class="o" stroke-width="2.4"/><path d="M-71 -190L-0.5 -189L-1 -151L-70 -152Z" fill="#D8432B" class="o" stroke-width="2.4"/><path d="M1.1 -190L71 -190L70 -152L0.5 -153Z" fill="#bc3a2e" class="o" stroke-width="2.4"/><path d="M70 -189L141 -189L139 -151L70 -152Z" fill="#D8432B" class="o" stroke-width="2.4"/><path d="M141 -189L211 -190L210 -151L139 -152Z" fill="#D8432B" class="o" stroke-width="2.4"/><path d="M-187 -151L-118 -152L-117 -115L-187 -115Z" fill="#D8432B" class="o" stroke-width="2.4"/><path d="M-152 -152L-83 -153L-83 -114L-152 -114Z" fill="#D8432B" class="o" stroke-width="2.4"/><path d="M-83 -153L-13.2 -151L-11.7 -113L-82 -114Z" fill="#bc3a2e" class="o" stroke-width="2.4"/><path d="M-12.5 -151L59 -153L57 -115L-11.8 -114Z" fill="#D8432B" class="o" stroke-width="2.4"/><path d="M58 -151L127 -152L127 -114L58 -115Z" fill="#D8432B" class="o" stroke-width="2.4"/><path d="M129 -151L188 -152L187 -115L126 -114Z" fill="#bc3a2e" class="o" stroke-width="2.4"/><path d="M-166 -115L-94 -114L-94 -75L-165 -76Z" fill="#D8432B" class="o" stroke-width="2.4"/><path d="M-95 -113L-24 -113L-25 -76L-94 -76Z" fill="#bc3a2e" class="o" stroke-width="2.4"/><path d="M-25 -115L45 -113L44 -77L-26 -76Z" fill="#D8432B" class="o" stroke-width="2.4"/><path d="M45 -114L114 -115L115 -77L45 -76Z" fill="#D8432B" class="o" stroke-width="2.4"/><path d="M115 -114L164 -114L165 -77L115 -75Z" fill="#bc3a2e" class="o" stroke-width="2.4"/><path d="M-143 -77L-72 -76L-73 -37L-142 -39Z" fill="#bc3a2e" class="o" stroke-width="2.4"/><path d="M-107 -75L-37 -76L-36 -38L-106 -37Z" fill="#D8432B" class="o" stroke-width="2.4"/><path d="M-38 -76L32 -76L32 -39L-38 -39Z" fill="#D8432B" class="o" stroke-width="2.4"/><path d="M32 -76L102 -76L103 -38L33 -39Z" fill="#bc3a2e" class="o" stroke-width="2.4"/><path d="M102 -76L142 -75L143 -38L103 -39Z" fill="#D8432B" class="o" stroke-width="2.4"/><path d="M-119 -39L-50 -38L-50 0.3L-121 -0.6Z" fill="#D8432B" class="o" stroke-width="2.4"/><path d="M-49 -39L19.4 -38L19.2 0.3L-51 1.1Z" fill="#bc3a2e" class="o" stroke-width="2.4"/><path d="M19.2 -38L91 -37L90 0.3L20 -0.1Z" fill="#D8432B" class="o" stroke-width="2.4"/><path d="M90 -39L119 -37L120 -0.9L90 0.6Z" fill="#D8432B" class="o" stroke-width="2.4"/></g><g transform="translate(200 800) scale(1.7 1.7)"><path d="M-15.3 -60L-1.7 -60L-1.5 -0.6L-16 -0.5Z" fill="#2B1478" class="o" stroke-width="3.8"/><path d="M1.4 -60L14.6 -59L13.9 0.7L1 0.2Z" fill="#2B1478" class="o" stroke-width="3.8"/><path d="M-17.4 -9.6L-1.2 -8.9L-1.2 -0.6L-18.2 0.6Z" fill="#1b0a3c"/><path d="M1.8 -8.5L17.9 -8.5L18.7 0.8L0.8 0.5Z" fill="#1b0a3c"/><path d="M-33 -110L-23 -111L-22 -58L-33 -58Z" fill="#2459FF" class="o" stroke-width="3.8"/><path d="M20 -110L60 -125L62 -114L22 -96Z" fill="#2459FF" class="o" stroke-width="3.8"/><path d="M73 -122Q74 -119 74 -117Q73 -116 72 -114Q70 -113 68 -113Q66 -113 64 -113Q62 -113 61 -115Q60 -116 59 -118Q57 -120 58 -122Q59 -125 61 -126Q62 -127 64 -127Q66 -128 68 -127Q70 -127 72 -126Q73 -124 73 -122Z" fill="#F2B27D" class="o" stroke-width="3.8"/><path id="p17" d="M-25 -114L24 -114L22 -53L-22 -53Z" fill="#2459FF" class="o" stroke-width="3.8"/><clipPath id="c18"><use href="#p17"/></clipPath><rect clip-path="url(#c18)" x="-25" y="-114" width="50" height="62" fill="url(#h19)" mask="url(#m_br)"/><clipPath id="c20"><use href="#p17"/></clipPath><rect clip-path="url(#c20)" x="-25" y="-114" width="50" height="62" fill="url(#h21)" mask="url(#m_tl)"/><path d="M-22 -59L22 -60L22 -52L-21 -51Z" fill="#20329e"/><path d="M17 -139Q17.4 -135 16.7 -130Q16 -125 12.6 -123Q9.1 -120 4.5 -119Q-0.2 -118 -4.6 -119Q-9.1 -120 -12.4 -123Q-15.8 -126 -16.5 -130Q-17.3 -135 -16.5 -139Q-15.7 -144 -12.4 -148Q-9 -151 -4.9 -152Q-0.8 -153 4.3 -152Q9.5 -151 13 -147Q16.6 -143 17 -139Z" fill="#F2B27D" class="o" stroke-width="3.8"/><path d="M-19.3 -142L-15.1 -160L16.5 -160L19.3 -142Z" fill="#FFC619" class="o" stroke-width="3.8"/><path d="M-24 -144L23 -144L24 -136L-23 -137Z" fill="#d1a020" class="o" stroke-width="3.8"/></g><g transform="translate(940 810) scale(-1.7 1.7)"><path d="M-15.1 -61L-2.5 -60L-1.9 1L-15.9 -0.3Z" fill="#2B1478" class="o" stroke-width="3.8"/><path d="M2.7 -60L15 -61L14.3 0.7L3 0.5Z" fill="#2B1478" class="o" stroke-width="3.8"/><path d="M-18.3 -9.6L-0.9 -8L-0.6 0.9L-17.2 -1.1Z" fill="#1b0a3c"/><path d="M0.8 -9.9L18.1 -8.6L19 0.8L0.7 0.2Z" fill="#1b0a3c"/><path d="M-34 -109L-22 -110L-22 -57L-34 -58Z" fill="#14C48A" class="o" stroke-width="3.8"/><path d="M-20 -58Q-19.8 -56 -21 -54Q-21 -52 -23 -51Q-24 -49 -26 -49Q-28 -48 -30 -48Q-32 -49 -33 -51Q-35 -52 -35 -54Q-36 -56 -36 -58Q-35 -60 -34 -62Q-32 -63 -30 -64Q-27 -64 -26 -64Q-24 -63 -23 -62Q-21 -60 -20 -58Z" fill="#F2B27D" class="o" stroke-width="3.8"/><path d="M19.1 -107L31 -112L49 -165L34 -167L14.9 -119Z" fill="#14C48A" class="o" stroke-width="3.8"/><path d="M50 -172Q50 -170 49 -168Q49 -166 48 -165Q46 -164 44 -163Q41 -161 40 -162Q38 -163 36 -164Q35 -166 34 -168Q34 -170 34 -172Q35 -174 37 -175Q38 -176 40 -177Q42 -178 44 -178Q46 -177 48 -176Q49 -174 50 -172Z" fill="#F2B27D" class="o" stroke-width="3.8"/><path id="p22" d="M-25 -114L26 -114L20 -52L-21 -51Z" fill="#14C48A" class="o" stroke-width="3.8"/><clipPath id="c23"><use href="#p22"/></clipPath><rect clip-path="url(#c23)" x="-25" y="-114" width="50" height="62" fill="url(#h19)" mask="url(#m_br)"/><clipPath id="c24"><use href="#p22"/></clipPath><rect clip-path="url(#c24)" x="-25" y="-114" width="50" height="62" fill="url(#h21)" mask="url(#m_tl)"/><path d="M-23 -60L23 -59L21 -52L-22 -51Z" fill="#186763"/><path d="M17.4 -139Q18.7 -134 17.5 -130Q16.2 -126 12.9 -123Q9.6 -120 4.5 -118Q-0.6 -117 -4.7 -118Q-8.8 -119 -12.2 -123Q-15.5 -127 -16.3 -131Q-17 -136 -16.2 -140Q-15.4 -144 -11.8 -147Q-8.2 -151 -4.4 -152Q-0.6 -153 3.9 -152Q8.5 -151 12.3 -148Q16.1 -144 17.4 -139Z" fill="#F2B27D" class="o" stroke-width="3.8"/><path d="M-19.4 -142L-16.7 -160L15.3 -160L21 -143Z" fill="#FF7A1A" class="o" stroke-width="3.8"/><path d="M-24 -143L23 -143L24 -136L-23 -136Z" fill="#d16421" class="o" stroke-width="3.8"/></g><g class="spin" style="--t:14s;animation-delay:-0s;transform-origin:1060px 260px"><g transform="translate(1060 260) scale(1 1)"><path transform="rotate(0)" d="M-10.2 -73L8.6 -75L8.7 -48L-11.1 -49Z" fill="#FFC619" class="o" stroke-width="5"/><path transform="rotate(45)" d="M-9.9 -75L11.5 -73L9.4 -48L-10.9 -47Z" fill="#FFC619" class="o" stroke-width="5"/><path transform="rotate(90)" d="M-10 -73L10.4 -74L10.8 -49L-9.2 -48Z" fill="#FFC619" class="o" stroke-width="5"/><path transform="rotate(135)" d="M-10.2 -74L10.6 -75L10.9 -48L-9.9 -49Z" fill="#FFC619" class="o" stroke-width="5"/><path transform="rotate(180)" d="M-9.9 -73L11.1 -74L10.2 -47L-9.1 -48Z" fill="#FFC619" class="o" stroke-width="5"/><path transform="rotate(225)" d="M-11.4 -73L9.7 -75L10.8 -49L-11.3 -47Z" fill="#FFC619" class="o" stroke-width="5"/><path transform="rotate(270)" d="M-10.9 -75L10 -73L10.2 -47L-10.5 -49Z" fill="#FFC619" class="o" stroke-width="5"/><path transform="rotate(315)" d="M-9.2 -73L10.4 -73L10.4 -48L-9.9 -47Z" fill="#FFC619" class="o" stroke-width="5"/><path id="p25" d="M58 -14.9Q62 1.8 57 16.3Q52 31 42 41Q32 51 15.4 55Q-1.6 58 -17.1 55Q-33 52 -41 42Q-50 32 -55 14.7Q-60 -2 -56 -16.4Q-52 -31 -41 -42Q-29 -53 -13.5 -57Q2.5 -60 17.2 -57Q32 -54 43 -43Q54 -32 58 -14.9Z" fill="#FFC619" class="o" stroke-width="5"/><clipPath id="c26"><use href="#p25"/></clipPath><rect clip-path="url(#c26)" x="-60" y="-60" width="120" height="120" fill="url(#h16)" mask="url(#m_br)"/><clipPath id="c27"><use href="#p25"/></clipPath><rect clip-path="url(#c27)" x="-60" y="-60" width="120" height="120" fill="url(#h5)" mask="url(#m_tl)"/><path d="M19.3 -6.1Q20 -1.1 19.6 5Q19 11 15.3 15.1Q11.6 19.1 6.3 20Q0.9 21 -4.9 19.6Q-10.6 18.3 -14.3 14Q-17.9 9.7 -19.7 4.3Q-21 -1.1 -19.7 -5.7Q-18 -10.3 -13.7 -14Q-9.4 -17.6 -5.1 -19.8Q-0.7 -22 5.1 -20Q11 -18.7 14.6 -14.9Q18.3 -11.2 19.3 -6.1Z" fill="#160840" class="o" stroke-width="5"/></g></g><g class="spinr" style="--t:9s;animation-delay:-0s;transform-origin:1190px 170px"><g transform="translate(1190 170) scale(0.6 0.6)"><path transform="rotate(0)" d="M-10.8 -76L11.4 -72L10.1 -50L-10.2 -48Z" fill="#13D6F2" class="o" stroke-width="7"/><path transform="rotate(45)" d="M-8.2 -75L10.7 -75L8.3 -47L-8.3 -47Z" fill="#13D6F2" class="o" stroke-width="7"/><path transform="rotate(90)" d="M-10.7 -74L11.7 -75L9.9 -48L-11.9 -50Z" fill="#13D6F2" class="o" stroke-width="7"/><path transform="rotate(135)" d="M-11.6 -73L11 -75L10.8 -46L-9.3 -48Z" fill="#13D6F2" class="o" stroke-width="7"/><path transform="rotate(180)" d="M-11.1 -74L11.9 -72L11.9 -49L-9.8 -48Z" fill="#13D6F2" class="o" stroke-width="7"/><path transform="rotate(225)" d="M-9.7 -74L10.7 -74L11 -48L-10.3 -50Z" fill="#13D6F2" class="o" stroke-width="7"/><path transform="rotate(270)" d="M-8.6 -72L10.6 -73L10.2 -49L-11.9 -50Z" fill="#13D6F2" class="o" stroke-width="7"/><path transform="rotate(315)" d="M-11.2 -73L10.9 -75L10.9 -49L-10.5 -47Z" fill="#13D6F2" class="o" stroke-width="7"/><path id="p28" d="M56 -14.4Q60 -0 56 14.9Q51 30 40 42Q30 54 14 56Q-1.5 58 -16.9 55Q-32 53 -42 41Q-51 30 -55 13.7Q-59 -2.5 -55 -15.4Q-50 -28 -40 -41Q-31 -54 -14.2 -58Q2.4 -62 15.9 -58Q29 -54 41 -41Q53 -29 56 -14.4Z" fill="#13D6F2" class="o" stroke-width="7"/><clipPath id="c29"><use href="#p28"/></clipPath><rect clip-path="url(#c29)" x="-60" y="-60" width="120" height="120" fill="url(#h30)" mask="url(#m_br)"/><clipPath id="c31"><use href="#p28"/></clipPath><rect clip-path="url(#c31)" x="-60" y="-60" width="120" height="120" fill="url(#h32)" mask="url(#m_tl)"/><path d="M19.9 -4.7Q22 1.1 20 6.1Q18.9 11.1 14.2 15Q9.5 18.9 4.9 19.6Q0.4 20 -5.2 19.4Q-10.9 18.3 -14.1 14.4Q-17.3 10.4 -19.2 5.2Q-21 0 -19.9 -5.1Q-18.7 -10.1 -14.8 -13.8Q-10.9 -17.5 -5.7 -19.2Q-0.6 -21 4.9 -19.6Q10.5 -18.3 14.4 -14.4Q18.3 -10.5 19.9 -4.7Z" fill="#160840" class="o" stroke-width="7"/></g></g><g class="spin" style="--t:12s;animation-delay:-0s;transform-origin:300px 220px"><g transform="translate(300 220) scale(0.7 0.7)"><path transform="rotate(0)" d="M-8.8 -74L11.4 -73L8.9 -49L-10.6 -50Z" fill="#F2118C" class="o" stroke-width="6.3"/><path transform="rotate(45)" d="M-10.6 -74L9.3 -74L10.5 -47L-11.4 -47Z" fill="#F2118C" class="o" stroke-width="6.3"/><path transform="rotate(90)" d="M-10.1 -73L9.8 -75L8.9 -48L-10.7 -48Z" fill="#F2118C" class="o" stroke-width="6.3"/><path transform="rotate(135)" d="M-9.7 -74L11.7 -73L9.4 -47L-10.7 -48Z" fill="#F2118C" class="o" stroke-width="6.3"/><path transform="rotate(180)" d="M-11.4 -73L10.3 -75L11.2 -49L-10.9 -50Z" fill="#F2118C" class="o" stroke-width="6.3"/><path transform="rotate(225)" d="M-9.7 -73L8.2 -75L9.5 -48L-10.6 -50Z" fill="#F2118C" class="o" stroke-width="6.3"/><path transform="rotate(270)" d="M-11.5 -74L10.3 -73L10 -47L-9.3 -49Z" fill="#F2118C" class="o" stroke-width="6.3"/><path transform="rotate(315)" d="M-10.5 -75L11 -73L10.2 -47L-10.1 -46Z" fill="#F2118C" class="o" stroke-width="6.3"/><path id="p33" d="M57 -16.2Q62 -0.7 57 14.7Q52 30 41 40Q29 50 13.5 56Q-2.4 61 -15.3 58Q-28 54 -40 42Q-51 30 -55 13.6Q-60 -2.6 -56 -16.4Q-51 -30 -40 -40Q-29 -50 -15.4 -55Q-2.1 -60 13.2 -56Q28 -52 40 -42Q52 -32 57 -16.2Z" fill="#F2118C" class="o" stroke-width="6.3"/><clipPath id="c34"><use href="#p33"/></clipPath><rect clip-path="url(#c34)" x="-60" y="-60" width="120" height="120" fill="url(#h35)" mask="url(#m_br)"/><clipPath id="c36"><use href="#p33"/></clipPath><rect clip-path="url(#c36)" x="-60" y="-60" width="120" height="120" fill="url(#h37)" mask="url(#m_tl)"/><path d="M20 -5.8Q21 -0.8 19.4 5.2Q17.7 11.2 14.2 14.7Q10.8 18.2 4.9 19.4Q-1 21 -5.5 19.9Q-10.1 19.2 -14.3 14.7Q-18.5 10.3 -19.3 5.1Q-20 -0 -18.9 -5.7Q-17.7 -11.3 -14.2 -14.3Q-10.8 -17.4 -5.7 -18.9Q-0.7 -20 5.4 -19.1Q11.4 -17.8 15.2 -14.3Q19 -10.8 20 -5.8Z" fill="#160840" class="o" stroke-width="6.3"/></g></g><path id="p38" d="M780 780L931 779L930 851L781 851Z" fill="#C8102E" class="o" stroke-width="5"/><clipPath id="c39"><use href="#p38"/></clipPath><rect clip-path="url(#c39)" x="780" y="780" width="150" height="70" fill="url(#h16)" mask="url(#m_br)"/><clipPath id="c40"><use href="#p38"/></clipPath><rect clip-path="url(#c40)" x="780" y="780" width="150" height="70" fill="url(#h5)" mask="url(#m_tl)"/><path d="M840 766L871 765L870 781L840 781Z" fill="#9A8FD8" class="o" stroke-width="5"/><rect width="1600" height="900" fill="url(#v41)"/></g></svg>