<svg xmlns="http://www.w3.org/2000/svg" viewBox="0 0 1600 900" role="img"><title>Queen Margrete in Roskilde Cathedral</title><desc>Inside a vaulted cathedral at night, a stone tomb topped with a golden crown glows in candlelight beneath tall pointed arches.</desc><defs><style>.o{stroke:#1b0a3c;stroke-linejoin:round;stroke-linecap:round}@keyframes spin{to{transform:rotate(360deg)}}@keyframes spinr{to{transform:rotate(-360deg)}}@keyframes tw{0%,100%{opacity:.3}50%{opacity:1}}@keyframes pu{0%,100%{transform:scale(1)}50%{transform:scale(1.07)}}@keyframes bob{0%,100%{transform:translateY(0)}50%{transform:translateY(-9px)}}@keyframes sw{0%,100%{transform:rotate(-2.5deg)}50%{transform:rotate(2.5deg)}}@keyframes dr{0%{transform:translateX(-50px)}100%{transform:translateX(70px)}}@keyframes fl{0%,100%{transform:skewY(-4deg) scaleX(1)}50%{transform:skewY(4deg) scaleX(.96)}}@keyframes fk{0%,100%{transform:scale(1,1)}50%{transform:scale(.94,1.1)}}@keyframes wv{to{transform:translateX(calc(var(--dx) * -1))}}@keyframes wvr{from{transform:translateX(calc(var(--dx) * -1))}to{transform:none}}@keyframes ri{0%{transform:translateY(0);opacity:0}15%{opacity:1}100%{transform:translateY(var(--dy));opacity:0}}@keyframes dp{0%{transform:translateY(-70px);opacity:0}25%,70%{opacity:1}100%{transform:translateY(40px);opacity:0}}@keyframes fa{0%{transform:translate(0,-60px);opacity:0}20%{opacity:1}100%{transform:translate(60px,520px);opacity:0}}@keyframes kb{0%{transform:scale(1)}100%{transform:scale(1.045)}}@keyframes zg{0%,100%{transform:translateX(-26px)}50%{transform:translateX(26px)}}@keyframes fy{0%{transform:translateX(-300px)}100%{transform:translateX(300px)}}@keyframes bm{0%,100%{opacity:.35}50%{opacity:.8}}.spin{animation:spin var(--t,60s) linear infinite}.spinr{animation:spinr var(--t,60s) linear infinite}.tw{animation:tw var(--t,3s) ease-in-out infinite}.pulse{animation:pu var(--t,5s) ease-in-out infinite}.bob{animation:bob var(--t,5s) ease-in-out infinite}.sway{animation:sw var(--t,6s) ease-in-out infinite}.drift{animation:dr var(--t,40s) ease-in-out infinite alternate}.flag{animation:fl var(--t,3.5s) ease-in-out infinite}.flick{animation:fk var(--t,2.4s) ease-in-out infinite}.wv{animation:wv var(--t,9s) linear infinite}.wvr{animation:wvr var(--t,11s) linear infinite}.rise{animation:ri var(--t,4s) ease-out infinite}.drop{animation:dp var(--t,4s) ease-in-out infinite}.fall{animation:fa var(--t,7s) linear infinite}.kb{animation:kb 24s ease-in-out infinite alternate;transform-origin:800px 450px}.zig{animation:zg var(--t,8s) ease-in-out infinite}.fly{animation:fy var(--t,14s) ease-in-out infinite alternate}.beam{animation:bm var(--t,6s) ease-in-out infinite}@media (prefers-reduced-motion:reduce){*{animation:none!important}}</style><linearGradient id="s1" gradientTransform="rotate(90 .5 .5)"><stop offset="0" stop-color="#0c0426"/><stop offset="0.6" stop-color="#2B1478"/><stop offset="1" stop-color="#4a22b8"/></linearGradient><pattern id="h2" width="22" height="22" patternUnits="userSpaceOnUse" patternTransform="rotate(28)"><circle cx="11.0" cy="11.0" r="5.720000000000001" fill="#fff" fill-opacity="0.35"/></pattern><mask id="m_b" maskContentUnits="objectBoundingBox" x="0" y="0" width="1" height="1"><linearGradient id="g_b" x1="0" y1="0" x2="0" y2="1"><stop offset=".25" stop-color="#000"/><stop offset="1" stop-color="#fff"/></linearGradient><rect width="1" height="1" fill="url(#g_b)"/></mask><pattern id="h5" width="15" height="15" patternUnits="userSpaceOnUse" patternTransform="rotate(28)"><circle cx="7.5" cy="7.5" r="3.6" fill="#1b0a3c" fill-opacity="0.34"/></pattern><mask id="m_br" maskContentUnits="objectBoundingBox" x="0" y="0" width="1" height="1"><linearGradient id="g_br" x1="0" y1="0" x2="1" y2="1"><stop offset=".25" stop-color="#000"/><stop offset="1" stop-color="#fff"/></linearGradient><rect width="1" height="1" fill="url(#g_br)"/></mask><pattern id="h7" width="15" height="15" patternUnits="userSpaceOnUse" patternTransform="rotate(28)"><circle cx="7.5" cy="7.5" r="3.6" fill="#ffffff" fill-opacity="0.5"/></pattern><mask id="m_tl" maskContentUnits="objectBoundingBox" x="0" y="0" width="1" height="1"><linearGradient id="g_tl" x1="1" y1="1" x2="0" y2="0"><stop offset=".25" stop-color="#000"/><stop offset="1" stop-color="#fff"/></linearGradient><rect width="1" height="1" fill="url(#g_tl)"/></mask><radialGradient id="gl51"><stop offset="0" stop-color="#FFC619" stop-opacity="0.5"/><stop offset="1" stop-color="#FFC619" stop-opacity="0"/></radialGradient><pattern id="h60" width="14" height="14" patternUnits="userSpaceOnUse" patternTransform="rotate(28)"><circle cx="7" cy="7" r="3.4" fill="#1b0a3c" fill-opacity="0.34"/></pattern><pattern id="h62" width="14" height="14" patternUnits="userSpaceOnUse" patternTransform="rotate(28)"><circle cx="7" cy="7" r="3.4" fill="#ffffff" fill-opacity="0.5"/></pattern><radialGradient id="v63" cx=".5" cy=".5" r=".75"><stop offset=".55" stop-color="#1b0a3c" stop-opacity="0"/><stop offset="1" stop-color="#1b0a3c" stop-opacity="0.6"/></radialGradient></defs><g class="kb"><rect x="0" y="0" width="1600" height="900" fill="url(#s1)"/><g class="spin" style="--t:140s;animation-delay:-0s;transform-origin:560px 560px"><path d="M560 560L2260 560L2234 855ZM560 560L2157 1141L2032 1410ZM560 560L1862 1653L1653 1862ZM560 560L1410 2032L1141 2157ZM560 560L855 2234L560 2260ZM560 560L265 2234L-21 2157ZM560 560L-290 2032L-533 1862ZM560 560L-742 1653L-912 1410ZM560 560L-1037 1141L-1114 855ZM560 560L-1140 560L-1114 265ZM560 560L-1037 -21L-912 -290ZM560 560L-742 -533L-533 -742ZM560 560L-290 -912L-21 -1037ZM560 560L265 -1114L560 -1140ZM560 560L855 -1114L1141 -1037ZM560 560L1410 -912L1653 -742ZM560 560L1862 -533L2032 -290ZM560 560L2157 -21L2234 265Z" fill="#fff" opacity="0.1"/></g><rect x="0" y="0" width="1600" height="900" fill="url(#h2)" mask="url(#m_b)"/><path d="M-0.9 -0.4L145 -1.4L292 -1.2L438 -0.9L583 0.6L728 -1L872 1.1L1018 0.3L1165 -0.7L1309 -1.4L1454 0.2L1599 -0.7L1600 151L1601 300L1600 451L1601 601L1599 750L1600 901L1455 899L1310 901L1163 900L1018 899L873 900L729 899L583 901L436 899L292 899L146 901L-0.9 901L-0.1 749L-1.2 600L-1.4 450L-0.4 300L-0.1 151Z" fill="#230f62" opacity="0.8"/><path id="p3" d="M60 721L59 550L61 377L61 204L99 109L186 80L272 109L310 204L309 377L309 547L311 719Z" fill="#454290" class="o" stroke-width="5"/><clipPath id="c4"><use href="#p3"/></clipPath><rect clip-path="url(#c4)" x="60" y="80" width="250" height="640" fill="url(#h5)" mask="url(#m_br)"/><clipPath id="c6"><use href="#p3"/></clipPath><rect clip-path="url(#c6)" x="60" y="80" width="250" height="640" fill="url(#h7)" mask="url(#m_tl)"/><path id="p8" d="M114 720L116 519L115 321L137 266L186 251L235 267L254 319L256 520L255 720Z" fill="#206baf" class="o" stroke-width="5"/><clipPath id="c9"><use href="#p8"/></clipPath><rect clip-path="url(#c9)" x="115" y="250" width="140" height="470" fill="url(#h5)" mask="url(#m_br)"/><clipPath id="c10"><use href="#p8"/></clipPath><rect clip-path="url(#c10)" x="115" y="250" width="140" height="470" fill="url(#h7)" mask="url(#m_tl)"/><path id="p11" d="M379 719L381 549L380 378L379 206L417 109L504 81L592 111L630 205L630 376L630 550L629 719Z" fill="#454290" class="o" stroke-width="5"/><clipPath id="c12"><use href="#p11"/></clipPath><rect clip-path="url(#c12)" x="380" y="80" width="250" height="640" fill="url(#h5)" mask="url(#m_br)"/><clipPath id="c13"><use href="#p11"/></clipPath><rect clip-path="url(#c13)" x="380" y="80" width="250" height="640" fill="url(#h7)" mask="url(#m_tl)"/><path id="p14" d="M434 719L435 521L434 320L457 267L506 251L553 267L576 321L576 521L575 721Z" fill="#206baf" class="o" stroke-width="5"/><clipPath id="c15"><use href="#p14"/></clipPath><rect clip-path="url(#c15)" x="435" y="250" width="140" height="470" fill="url(#h5)" mask="url(#m_br)"/><clipPath id="c16"><use href="#p14"/></clipPath><rect clip-path="url(#c16)" x="435" y="250" width="140" height="470" fill="url(#h7)" mask="url(#m_tl)"/><path id="p17" d="M700 721L701 550L699 378L699 206L737 109L825 81L911 110L949 205L949 378L951 549L949 720Z" fill="#454290" class="o" stroke-width="5"/><clipPath id="c18"><use href="#p17"/></clipPath><rect clip-path="url(#c18)" x="700" y="80" width="250" height="640" fill="url(#h5)" mask="url(#m_br)"/><clipPath id="c19"><use href="#p17"/></clipPath><rect clip-path="url(#c19)" x="700" y="80" width="250" height="640" fill="url(#h7)" mask="url(#m_tl)"/><path id="p20" d="M754 721L754 521L756 319L777 268L825 250L875 268L896 321L895 519L895 719Z" fill="#206baf" class="o" stroke-width="5"/><clipPath id="c21"><use href="#p20"/></clipPath><rect clip-path="url(#c21)" x="755" y="250" width="140" height="470" fill="url(#h5)" mask="url(#m_br)"/><clipPath id="c22"><use href="#p20"/></clipPath><rect clip-path="url(#c22)" x="755" y="250" width="140" height="470" fill="url(#h7)" mask="url(#m_tl)"/><path id="p23" d="M1020 719L1019 550L1021 376L1019 206L1058 111L1144 81L1232 111L1271 206L1271 378L1269 548L1270 721Z" fill="#454290" class="o" stroke-width="5"/><clipPath id="c24"><use href="#p23"/></clipPath><rect clip-path="url(#c24)" x="1020" y="80" width="250" height="640" fill="url(#h5)" mask="url(#m_br)"/><clipPath id="c25"><use href="#p23"/></clipPath><rect clip-path="url(#c25)" x="1020" y="80" width="250" height="640" fill="url(#h7)" mask="url(#m_tl)"/><path id="p26" d="M1076 721L1075 521L1074 321L1097 267L1144 249L1194 267L1214 320L1215 521L1214 720Z" fill="#206baf" class="o" stroke-width="5"/><clipPath id="c27"><use href="#p26"/></clipPath><rect clip-path="url(#c27)" x="1075" y="250" width="140" height="470" fill="url(#h5)" mask="url(#m_br)"/><clipPath id="c28"><use href="#p26"/></clipPath><rect clip-path="url(#c28)" x="1075" y="250" width="140" height="470" fill="url(#h7)" mask="url(#m_tl)"/><path id="p29" d="M1340 719L1341 549L1340 378L1341 204L1376 110L1466 79L1554 111L1589 206L1591 377L1591 547L1591 719Z" fill="#454290" class="o" stroke-width="5"/><clipPath id="c30"><use href="#p29"/></clipPath><rect clip-path="url(#c30)" x="1340" y="80" width="250" height="640" fill="url(#h5)" mask="url(#m_br)"/><clipPath id="c31"><use href="#p29"/></clipPath><rect clip-path="url(#c31)" x="1340" y="80" width="250" height="640" fill="url(#h7)" mask="url(#m_tl)"/><path id="p32" d="M1395 721L1396 519L1396 321L1416 265L1464 251L1514 265L1536 321L1534 520L1535 719Z" fill="#206baf" class="o" stroke-width="5"/><clipPath id="c33"><use href="#p32"/></clipPath><rect clip-path="url(#c33)" x="1395" y="250" width="140" height="470" fill="url(#h5)" mask="url(#m_br)"/><clipPath id="c34"><use href="#p32"/></clipPath><rect clip-path="url(#c34)" x="1395" y="250" width="140" height="470" fill="url(#h7)" mask="url(#m_tl)"/><path id="p35" d="M317 89L371 91L371 250L371 411L372 570L371 730L317 729L315 569L317 410L317 251Z" fill="#6858ad" class="o" stroke-width="5"/><clipPath id="c36"><use href="#p35"/></clipPath><rect clip-path="url(#c36)" x="316" y="90" width="56" height="640" fill="url(#h5)" mask="url(#m_br)"/><clipPath id="c37"><use href="#p35"/></clipPath><rect clip-path="url(#c37)" x="316" y="90" width="56" height="640" fill="url(#h7)" mask="url(#m_tl)"/><path id="p38" d="M636 89L691 91L691 251L691 410L693 571L691 729L635 731L636 570L636 409L635 249Z" fill="#6858ad" class="o" stroke-width="5"/><clipPath id="c39"><use href="#p38"/></clipPath><rect clip-path="url(#c39)" x="636" y="90" width="56" height="640" fill="url(#h5)" mask="url(#m_br)"/><clipPath id="c40"><use href="#p38"/></clipPath><rect clip-path="url(#c40)" x="636" y="90" width="56" height="640" fill="url(#h7)" mask="url(#m_tl)"/><path id="p41" d="M957 91L1013 91L1011 250L1012 409L1011 571L1012 730L956 730L955 570L956 410L955 250Z" fill="#6858ad" class="o" stroke-width="5"/><clipPath id="c42"><use href="#p41"/></clipPath><rect clip-path="url(#c42)" x="956" y="90" width="56" height="640" fill="url(#h5)" mask="url(#m_br)"/><clipPath id="c43"><use href="#p41"/></clipPath><rect clip-path="url(#c43)" x="956" y="90" width="56" height="640" fill="url(#h7)" mask="url(#m_tl)"/><path id="p44" d="M1276 90L1333 91L1331 251L1332 409L1331 569L1332 731L1276 729L1276 569L1276 409L1277 249Z" fill="#6858ad" class="o" stroke-width="5"/><clipPath id="c45"><use href="#p44"/></clipPath><rect clip-path="url(#c45)" x="1276" y="90" width="56" height="640" fill="url(#h5)" mask="url(#m_br)"/><clipPath id="c46"><use href="#p44"/></clipPath><rect clip-path="url(#c46)" x="1276" y="90" width="56" height="640" fill="url(#h7)" mask="url(#m_tl)"/><path id="p47" d="M-21 721L130 720L280 719L428 721L575 721L725 720L874 720L1023 720L1173 720L1322 721L1470 720L1621 719L1620 940L1472 939L1322 939L1172 941L1022 939L874 940L725 941L577 939L427 940L278 939L129 940L-20 941Z" fill="#6252a8" class="o" stroke-width="5"/><clipPath id="c48"><use href="#p47"/></clipPath><rect clip-path="url(#c48)" x="-20" y="720" width="1640" height="220" fill="url(#h5)" mask="url(#m_b)"/><g class="pulse" style="--t:7s;animation-delay:-0s;transform-origin:560px 560px"><path id="p49" d="M899 559L786 605L841 678L759 693L806 806L692 759L683 854L606 788L561 907L520 769L427 882L429 754L310 810L353 698L265 682L328 605L241 560L324 512L257 436L349 419L337 335L424 358L435 257L516 348L560 245L604 335L693 242L681 378L780 340L745 436L855 438L768 518Z" fill="#FFC619" class="o" stroke-width="5"/><clipPath id="c50"><use href="#p49"/></clipPath><rect clip-path="url(#c50)" x="241" y="242" width="659" height="664" fill="url(#h7)" mask="url(#m_tl)"/></g><g class="pulse" style="--t:6s;animation-delay:-0s;transform-origin:560px 560px"><circle cx="560" cy="560" r="400" fill="url(#gl51)"/></g><path id="p52" d="M261 740L410 740L561 740L711 741L861 741L831 599L651 601L471 600L290 599Z" fill="#9A8FD8" class="o" stroke-width="5"/><clipPath id="c53"><use href="#p52"/></clipPath><rect clip-path="url(#c53)" x="260" y="600" width="600" height="140" fill="url(#h5)" mask="url(#m_br)"/><clipPath id="c54"><use href="#p52"/></clipPath><rect clip-path="url(#c54)" x="260" y="600" width="600" height="140" fill="url(#h7)" mask="url(#m_tl)"/><path id="p55" d="M241 600L399 601L559 600L719 600L880 600L841 560L699 560L561 561L421 561L281 559Z" fill="#bdb6e6" class="o" stroke-width="5"/><clipPath id="c56"><use href="#p55"/></clipPath><rect clip-path="url(#c56)" x="240" y="560" width="640" height="40" fill="url(#h5)" mask="url(#m_br)"/><clipPath id="c57"><use href="#p55"/></clipPath><rect clip-path="url(#c57)" x="240" y="560" width="640" height="40" fill="url(#h7)" mask="url(#m_tl)"/><path d="M309 640L478 639L645 639L811 639L809 671L643 670L478 669L311 671Z" fill="#8074ba"/><path d="M401 691L561 689L719 691L720 708L561 709L400 707Z" fill="#8074ba"/><g transform="translate(560 556) scale(1.1 1.1)"><path id="p58" d="M-96 1.2L-96 -114L-48 -61L0.2 -132L47 -63L94 -114L96 1.2Z" fill="#FFC619" class="o" stroke-width="4.7"/><clipPath id="c59"><use href="#p58"/></clipPath><rect clip-path="url(#c59)" x="-95" y="-131" width="190" height="131" fill="url(#h60)" mask="url(#m_br)"/><clipPath id="c61"><use href="#p58"/></clipPath><rect clip-path="url(#c61)" x="-95" y="-131" width="190" height="131" fill="url(#h62)" mask="url(#m_tl)"/><path d="M-96 -26L96 -25L94 1.1L-95 0.5Z" fill="#ddaa1e" class="o" stroke-width="4.7"/><circle cx="0" cy="-131" r="11.4" fill="#C8102E" class="o" stroke-width="3.8"/><circle cx="-95" cy="-114" r="9.5" fill="#C8102E" class="o" stroke-width="3.8"/><circle cx="95" cy="-114" r="9.5" fill="#C8102E" class="o" stroke-width="3.8"/></g><g class="pulse" style="--t:4s;animation-delay:-0s;transform-origin:560px 470px"><circle cx="528" cy="742" r="6.7" fill="#1b0a3c"/><circle cx="528" cy="741" r="4.2" fill="#FFFFFF"/><circle cx="513" cy="729" r="2.6" fill="#FFC619"/><circle cx="356" cy="365" r="13" fill="#1b0a3c"/><circle cx="358" cy="364" r="8.1" fill="#FFC619"/><circle cx="359" cy="408" r="7.1" fill="#1b0a3c"/><circle cx="360" cy="407" r="4.4" fill="#FFC619"/><circle cx="385" cy="426" r="3.9" fill="#FFC619"/><circle cx="796" cy="297" r="9.8" fill="#1b0a3c"/><circle cx="797" cy="296" r="6.1" fill="#FFFFFF"/><circle cx="409" cy="247" r="14.5" fill="#1b0a3c"/><circle cx="411" cy="245" r="9" fill="#FFC619"/><circle cx="382" cy="223" r="2.2" fill="#FFC619"/><circle cx="515" cy="756" r="6" fill="#1b0a3c"/><circle cx="516" cy="755" r="3.7" fill="#FFC619"/><circle cx="866" cy="468" r="11.9" fill="#1b0a3c"/><circle cx="868" cy="466" r="7.4" fill="#FFFFFF"/><circle cx="866" cy="495" r="3.1" fill="#FFC619"/><circle cx="763" cy="393" r="9.3" fill="#1b0a3c"/><circle cx="764" cy="392" r="5.8" fill="#FFC619"/></g><g class="pulse" style="--t:5.7s;animation-delay:-1.3s;transform-origin:560px 470px"><circle cx="249" cy="485" r="14.4" fill="#1b0a3c"/><circle cx="250" cy="483" r="8.9" fill="#FFC619"/><circle cx="358" cy="546" r="12.7" fill="#1b0a3c"/><circle cx="360" cy="544" r="7.9" fill="#FFFFFF"/><circle cx="360" cy="578" r="5.7" fill="#1b0a3c"/><circle cx="361" cy="577" r="3.6" fill="#FFC619"/><circle cx="417" cy="753" r="12.3" fill="#1b0a3c"/><circle cx="418" cy="752" r="7.7" fill="#FFC619"/><circle cx="339" cy="427" r="14.4" fill="#1b0a3c"/><circle cx="341" cy="425" r="8.9" fill="#FFFFFF"/><circle cx="433" cy="297" r="5.2" fill="#1b0a3c"/><circle cx="433" cy="297" r="3.2" fill="#FFC619"/><circle cx="386" cy="628" r="5.9" fill="#1b0a3c"/><circle cx="386" cy="628" r="3.6" fill="#FFC619"/><circle cx="588" cy="200" r="10" fill="#1b0a3c"/><circle cx="589" cy="199" r="6.2" fill="#FFFFFF"/></g><path d="M166 639L195 639L194 740L165 741Z" fill="#FFF0D0" class="o" stroke-width="5"/><g class="flick" style="--t:2s;animation-delay:-0s;transform-origin:180px 628px"><path d="M181 580L197 627L163 629Z" fill="#FF7A1A" class="o" stroke-width="5"/></g><path d="M925 639L955 641L955 739L925 741Z" fill="#FFF0D0" class="o" stroke-width="5"/><g class="flick" style="--t:2.4s;animation-delay:-0s;transform-origin:940px 628px"><path d="M940 581L957 627L924 629Z" fill="#FF7A1A" class="o" stroke-width="5"/></g><path d="M1006 640L1035 640L1035 739L1007 740Z" fill="#FFF0D0" class="o" stroke-width="5"/><g class="flick" style="--t:2s;animation-delay:-0s;transform-origin:1020px 628px"><path d="M1020 579L1036 628L1005 629Z" fill="#FF7A1A" class="o" stroke-width="5"/></g><g class="rise" style="--t:6.9s;--dy:-187px;animation-delay:-4.2s"><circle cx="458" cy="520" r="4" fill="#FFFFFF"/></g><g class="rise" style="--t:4.6s;--dy:-239px;animation-delay:-0.5s"><circle cx="729" cy="520" r="4.6" fill="#FFC619"/></g><g class="rise" style="--t:6.2s;--dy:-243px;animation-delay:-3.6s"><circle cx="577" cy="520" r="2.3" fill="#FFFFFF"/></g><g class="rise" style="--t:5.4s;--dy:-211px;animation-delay:-4.7s"><circle cx="691" cy="520" r="2.5" fill="#FFC619"/></g><g class="rise" style="--t:5.6s;--dy:-224px;animation-delay:-4.4s"><circle cx="446" cy="520" r="3.5" fill="#FFFFFF"/></g><g class="rise" style="--t:4.9s;--dy:-210px;animation-delay:-3.9s"><circle cx="502" cy="520" r="2.6" fill="#FFC619"/></g><g class="rise" style="--t:4.7s;--dy:-205px;animation-delay:-1.3s"><circle cx="370" cy="520" r="2" fill="#FFFFFF"/></g><g class="rise" style="--t:5.3s;--dy:-232px;animation-delay:-3.2s"><circle cx="650" cy="520" r="4.6" fill="#FFC619"/></g><g class="rise" style="--t:4.8s;--dy:-159px;animation-delay:-4.7s"><circle cx="504" cy="520" r="3.9" fill="#FFFFFF"/></g><g class="rise" style="--t:5.7s;--dy:-168px;animation-delay:-3s"><circle cx="394" cy="520" r="3.6" fill="#FFC619"/></g><rect width="1600" height="900" fill="url(#v63)"/></g></svg>