<svg xmlns="http://www.w3.org/2000/svg" viewBox="0 0 1600 900" role="img"><title>The cooperative shop</title><desc>A village cooperative shop with a striped awning and shop windows, milk churns, sacks and crates outside, and villagers and a cow in front of it.</desc><defs><style>.o{stroke:#1b0a3c;stroke-linejoin:round;stroke-linecap:round}@keyframes spin{to{transform:rotate(360deg)}}@keyframes spinr{to{transform:rotate(-360deg)}}@keyframes tw{0%,100%{opacity:.3}50%{opacity:1}}@keyframes pu{0%,100%{transform:scale(1)}50%{transform:scale(1.07)}}@keyframes bob{0%,100%{transform:translateY(0)}50%{transform:translateY(-9px)}}@keyframes sw{0%,100%{transform:rotate(-2.5deg)}50%{transform:rotate(2.5deg)}}@keyframes dr{0%{transform:translateX(-50px)}100%{transform:translateX(70px)}}@keyframes fl{0%,100%{transform:skewY(-4deg) scaleX(1)}50%{transform:skewY(4deg) scaleX(.96)}}@keyframes fk{0%,100%{transform:scale(1,1)}50%{transform:scale(.94,1.1)}}@keyframes wv{to{transform:translateX(calc(var(--dx) * -1))}}@keyframes wvr{from{transform:translateX(calc(var(--dx) * -1))}to{transform:none}}@keyframes ri{0%{transform:translateY(0);opacity:0}15%{opacity:1}100%{transform:translateY(var(--dy));opacity:0}}@keyframes dp{0%{transform:translateY(-70px);opacity:0}25%,70%{opacity:1}100%{transform:translateY(40px);opacity:0}}@keyframes fa{0%{transform:translate(0,-60px);opacity:0}20%{opacity:1}100%{transform:translate(60px,520px);opacity:0}}@keyframes kb{0%{transform:scale(1)}100%{transform:scale(1.045)}}@keyframes zg{0%,100%{transform:translateX(-26px)}50%{transform:translateX(26px)}}@keyframes fy{0%{transform:translateX(-300px)}100%{transform:translateX(300px)}}@keyframes bm{0%,100%{opacity:.35}50%{opacity:.8}}.spin{animation:spin var(--t,60s) linear infinite}.spinr{animation:spinr var(--t,60s) linear infinite}.tw{animation:tw var(--t,3s) ease-in-out infinite}.pulse{animation:pu var(--t,5s) ease-in-out infinite}.bob{animation:bob var(--t,5s) ease-in-out infinite}.sway{animation:sw var(--t,6s) ease-in-out infinite}.drift{animation:dr var(--t,40s) ease-in-out infinite alternate}.flag{animation:fl var(--t,3.5s) ease-in-out infinite}.flick{animation:fk var(--t,2.4s) ease-in-out infinite}.wv{animation:wv var(--t,9s) linear infinite}.wvr{animation:wvr var(--t,11s) linear infinite}.rise{animation:ri var(--t,4s) ease-out infinite}.drop{animation:dp var(--t,4s) ease-in-out infinite}.fall{animation:fa var(--t,7s) linear infinite}.kb{animation:kb 24s ease-in-out infinite alternate;transform-origin:800px 450px}.zig{animation:zg var(--t,8s) ease-in-out infinite}.fly{animation:fy var(--t,14s) ease-in-out infinite alternate}.beam{animation:bm var(--t,6s) ease-in-out infinite}@media (prefers-reduced-motion:reduce){*{animation:none!important}}</style><linearGradient id="s1" gradientTransform="rotate(90 .5 .5)"><stop offset="0" stop-color="#2459FF"/><stop offset="0.65" stop-color="#13D6F2"/><stop offset="1" stop-color="#c8fbff"/></linearGradient><pattern id="h4" width="15" height="15" patternUnits="userSpaceOnUse" patternTransform="rotate(28)"><circle cx="7.5" cy="7.5" r="3.6" fill="#1b0a3c" fill-opacity="0.34"/></pattern><mask id="m_br" maskContentUnits="objectBoundingBox" x="0" y="0" width="1" height="1"><linearGradient id="g_br" x1="0" y1="0" x2="1" y2="1"><stop offset=".25" stop-color="#000"/><stop offset="1" stop-color="#fff"/></linearGradient><rect width="1" height="1" fill="url(#g_br)"/></mask><pattern id="h6" width="15" height="15" patternUnits="userSpaceOnUse" patternTransform="rotate(28)"><circle cx="7.5" cy="7.5" r="3.6" fill="#ffffff" fill-opacity="0.5"/></pattern><mask id="m_tl" maskContentUnits="objectBoundingBox" x="0" y="0" width="1" height="1"><linearGradient id="g_tl" x1="1" y1="1" x2="0" y2="0"><stop offset=".25" stop-color="#000"/><stop offset="1" stop-color="#fff"/></linearGradient><rect width="1" height="1" fill="url(#g_tl)"/></mask><pattern id="h7" width="22" height="22" patternUnits="userSpaceOnUse" patternTransform="rotate(28)"><circle cx="11.0" cy="11.0" r="5.720000000000001" fill="#fff" fill-opacity="0.35"/></pattern><mask id="m_t" maskContentUnits="objectBoundingBox" x="0" y="0" width="1" height="1"><linearGradient id="g_t" x1="0" y1="1" x2="0" y2="0"><stop offset=".25" stop-color="#000"/><stop offset="1" stop-color="#fff"/></linearGradient><rect width="1" height="1" fill="url(#g_t)"/></mask><mask id="m_b" maskContentUnits="objectBoundingBox" x="0" y="0" width="1" height="1"><linearGradient id="g_b" x1="0" y1="0" x2="0" y2="1"><stop offset=".25" stop-color="#000"/><stop offset="1" stop-color="#fff"/></linearGradient><rect width="1" height="1" fill="url(#g_b)"/></mask><pattern id="h18" width="17" height="17" patternUnits="userSpaceOnUse" patternTransform="rotate(28)"><circle cx="8.5" cy="8.5" r="4.1" fill="#1b0a3c" fill-opacity="0.34"/></pattern><mask id="m_tr" maskContentUnits="objectBoundingBox" x="0" y="0" width="1" height="1"><linearGradient id="g_tr" x1="0" y1="1" x2="1" y2="0"><stop offset=".25" stop-color="#000"/><stop offset="1" stop-color="#fff"/></linearGradient><rect width="1" height="1" fill="url(#g_tr)"/></mask><pattern id="h57" width="17" height="17" patternUnits="userSpaceOnUse" patternTransform="rotate(28)"><circle cx="8.5" cy="8.5" r="4.1" fill="#ffffff" fill-opacity="0.5"/></pattern><pattern id="h60" width="19" height="19" patternUnits="userSpaceOnUse" patternTransform="rotate(28)"><circle cx="9.5" cy="9.5" r="4.6" fill="#1b0a3c" fill-opacity="0.34"/></pattern><pattern id="h62" width="19" height="19" patternUnits="userSpaceOnUse" patternTransform="rotate(28)"><circle cx="9.5" cy="9.5" r="4.6" fill="#ffffff" fill-opacity="0.5"/></pattern><pattern id="h65" width="14" height="14" patternUnits="userSpaceOnUse" patternTransform="rotate(28)"><circle cx="7" cy="7" r="3.4" fill="#1b0a3c" fill-opacity="0.34"/></pattern><pattern id="h67" width="14" height="14" patternUnits="userSpaceOnUse" patternTransform="rotate(28)"><circle cx="7" cy="7" r="3.4" fill="#ffffff" fill-opacity="0.5"/></pattern><pattern id="h70" width="12" height="12" patternUnits="userSpaceOnUse" patternTransform="rotate(28)"><circle cx="6" cy="6" r="2.9" fill="#1b0a3c" fill-opacity="0.34"/></pattern><pattern id="h72" width="12" height="12" patternUnits="userSpaceOnUse" patternTransform="rotate(28)"><circle cx="6" cy="6" r="2.9" fill="#ffffff" fill-opacity="0.5"/></pattern><radialGradient id="v76" cx=".5" cy=".5" r=".75"><stop offset=".55" stop-color="#1b0a3c" stop-opacity="0"/><stop offset="1" stop-color="#1b0a3c" stop-opacity="0.4"/></radialGradient></defs><g class="kb"><rect x="0" y="0" width="1600" height="900" fill="url(#s1)"/><g class="spin" style="--t:100s;animation-delay:-0s;transform-origin:1320px 160px"><path d="M1403 151L1460 160L1403 169ZM1401 183L1449 214L1394 200ZM1386 213L1419 259L1373 226ZM1360 234L1374 289L1343 241ZM1329 243L1320 300L1311 243ZM1297 241L1266 289L1280 234ZM1267 226L1221 259L1254 213ZM1246 200L1191 214L1239 183ZM1237 169L1180 160L1237 151ZM1239 137L1191 106L1246 120ZM1254 107L1221 61L1267 94ZM1280 86L1266 31L1297 79ZM1311 77L1320 20L1329 77ZM1343 79L1374 31L1360 86ZM1373 94L1419 61L1386 107ZM1394 120L1449 106L1401 137Z" fill="#FF7A1A" class="o" stroke-width="4"/></g><path id="p2" d="M1393 140Q1397 163 1392 180Q1387 197 1374 212Q1361 227 1342 235Q1322 242 1302 235Q1282 228 1265 213Q1249 198 1245 178Q1241 159 1247 138Q1253 117 1265 104Q1277 90 1298 86Q1319 82 1338 86Q1357 89 1373 103Q1389 117 1393 140Z" fill="#FFC619" class="o" stroke-width="5"/><clipPath id="c3"><use href="#p2"/></clipPath><rect clip-path="url(#c3)" x="1240" y="80" width="160" height="160" fill="url(#h4)" mask="url(#m_br)"/><clipPath id="c5"><use href="#p2"/></clipPath><rect clip-path="url(#c5)" x="1240" y="80" width="160" height="160" fill="url(#h6)" mask="url(#m_tl)"/><g class="spin" style="--t:160s;animation-delay:-0s;transform-origin:1320px 160px"><path d="M1320 160L3020 160L2999 426ZM1320 160L2937 685L2835 932ZM1320 160L2695 1159L2522 1362ZM1320 160L2319 1535L2092 1675ZM1320 160L1845 1777L1586 1839ZM1320 160L1320 1860L1054 1839ZM1320 160L795 1777L548 1675ZM1320 160L321 1535L118 1362ZM1320 160L-55 1159L-195 932ZM1320 160L-297 685L-359 426ZM1320 160L-380 160L-359 -106ZM1320 160L-297 -365L-195 -612ZM1320 160L-55 -839L118 -1042ZM1320 160L321 -1215L548 -1355ZM1320 160L795 -1457L1054 -1519ZM1320 160L1320 -1540L1586 -1519ZM1320 160L1845 -1457L2092 -1355ZM1320 160L2319 -1215L2522 -1042ZM1320 160L2695 -839L2835 -612ZM1320 160L2937 -365L2999 -106Z" fill="#ffffff" opacity="0.1"/></g><rect x="0" y="0" width="1600" height="900" fill="url(#h7)" mask="url(#m_t)"/><g class="drift" style="--t:55s;animation-delay:-0s;transform-origin:0px 0px"><g transform="translate(260 150) scale(1)"><path id="p8" d="M36 -10Q38 -0.7 36 9.9Q33 20 26 27Q19.2 33 9 37Q-1.3 41 -11 38Q-21 35 -27 28Q-34 20 -37 9.8Q-39 -0.6 -36 -11.2Q-33 -22 -27 -28Q-20 -34 -10.9 -37Q-1.4 -40 9.9 -38Q21 -35 27 -27Q33 -19.3 36 -10Z" fill="#ffffff" class="o" stroke-width="5"/><clipPath id="c9"><use href="#p8"/></clipPath><rect clip-path="url(#c9)" x="-40" y="-40" width="80" height="80" fill="url(#h4)" mask="url(#m_b)"/><path id="p10" d="M94 -35Q96 -24 93 -10.1Q90 3.5 81 13.8Q72 24 57 27Q43 31 30 28Q17.2 25 7.8 14.4Q-1.7 3.8 -3.6 -9Q-5.5 -22 -2.3 -35Q0.8 -49 10.4 -59Q20 -69 33 -71Q46 -73 60 -70Q73 -67 83 -57Q92 -47 94 -35Z" fill="#ffffff" class="o" stroke-width="5"/><clipPath id="c11"><use href="#p10"/></clipPath><rect clip-path="url(#c11)" x="-7" y="-74" width="104" height="104" fill="url(#h4)" mask="url(#m_b)"/><path id="p12" d="M141 -17.2Q145 -6.3 141 4.7Q138 15.7 130 23Q121 30 110 34Q99 37 89 34Q78 30 70 21Q61 12 59 2Q58 -7.9 60 -19.2Q63 -30 71 -38Q79 -45 89 -48Q98 -51 109 -49Q120 -47 128 -38Q137 -28 141 -17.2Z" fill="#ffffff" class="o" stroke-width="5"/><clipPath id="c13"><use href="#p12"/></clipPath><rect clip-path="url(#c13)" x="56" y="-52" width="88" height="88" fill="url(#h4)" mask="url(#m_b)"/><path d="M169 -0.9Q170 6 168 13.9Q165 22 160 27Q156 33 148 34Q140 35 132 34Q124 33 119 27Q114 22 112 13.4Q111 4.8 113 -2.3Q114 -9.3 119 -14Q124 -18.8 132 -21Q139 -23 147 -21Q154 -19.8 161 -13.7Q167 -7.7 169 -0.9Z" fill="#ffffff" class="o" stroke-width="5"/><path id="p14" d="M99 2.7Q101 11.7 97 22Q93 31 86 39Q79 47 69 48Q58 50 49 48Q40 46 33 39Q27 33 24 22Q22 11.3 24 0.8Q25 -9.6 32 -16.4Q39 -23 50 -25Q60 -28 70 -25Q80 -22 88 -14.3Q96 -6.4 99 2.7Z" fill="#ffffff" class="o" stroke-width="5"/><clipPath id="c15"><use href="#p14"/></clipPath><rect clip-path="url(#c15)" x="20" y="-28" width="80" height="80" fill="url(#h4)" mask="url(#m_b)"/><path d="M-11.1 11.1L149 9.3L149 41L-10.1 41Z" fill="#ffffff"/></g></g><g class="drift" style="--t:70s;animation-delay:-22s;transform-origin:0px 0px"><g transform="translate(900 110) scale(0.8)"><path d="M37 -10.3Q40 -0.3 37 10.6Q35 21 27 27Q18.9 33 8.6 37Q-1.8 42 -10.2 39Q-18.6 35 -27 28Q-35 19.8 -38 9.1Q-41 -1.7 -38 -10.1Q-34 -18.5 -27 -27Q-21 -36 -10.8 -38Q-0.8 -40 10.5 -38Q22 -36 28 -28Q35 -20 37 -10.3Z" fill="#ffffff" class="o" stroke-width="5.8"/><path id="p16" d="M93 -36Q98 -23 94 -8.4Q91 6.2 81 15.4Q72 25 58 28Q44 30 32 27Q21 23 11 13.4Q1.5 3.5 -2.6 -8.7Q-6.7 -21 -3.2 -35Q0.3 -49 9 -58Q17.7 -68 30 -71Q43 -75 56 -71Q70 -67 79 -58Q88 -50 93 -36Z" fill="#ffffff" class="o" stroke-width="5.8"/><clipPath id="c17"><use href="#p16"/></clipPath><rect clip-path="url(#c17)" x="-7" y="-74" width="104" height="104" fill="url(#h18)" mask="url(#m_b)"/><path d="M141 -17.9Q145 -7.6 141 3.4Q136 14.4 129 22Q122 29 112 33Q101 37 90 34Q79 30 71 23Q62 15 59 4.4Q55 -6.3 58 -17.9Q60 -30 70 -37Q79 -45 89 -49Q99 -53 110 -48Q121 -44 129 -36Q137 -28 141 -17.9Z" fill="#ffffff" class="o" stroke-width="5.8"/><path d="M168 -1.3Q170 7.5 168 14.3Q165 21 160 27Q155 33 147 34Q139 36 131 34Q124 33 119 27Q114 21 112 14.1Q109 7.3 111 -0.7Q113 -8.7 120 -14Q126 -19.2 133 -21Q139 -23 147 -21Q155 -18.8 160 -14.4Q166 -10.1 168 -1.3Z" fill="#ffffff" class="o" stroke-width="5.8"/><path d="M97 1.2Q98 11 97 22Q95 33 87 40Q78 46 70 50Q61 53 52 49Q42 45 33 38Q24 31 23 21Q22 10.9 24 1.1Q26 -8.8 33 -15.7Q40 -23 50 -26Q60 -29 70 -26Q80 -22 87 -15.2Q95 -8.5 97 1.2Z" fill="#ffffff" class="o" stroke-width="5.8"/><path d="M-9.5 9.4L149 8.9L151 40L-8.6 40Z" fill="#ffffff"/></g></g><path id="p19" d="M-40 941L-40 742L-41 544L59 491L161 506L259 515L359 519L460 560L561 522L660 502L759 511L859 496L961 541L1061 551L1160 515L1261 520L1359 490L1459 503L1560 549L1600 746L1641 939L1501 940L1361 939L1219 939L1081 939L939 940L800 939L659 941L520 939L379 940L241 941L99 941Z" fill="#14caae" class="o" stroke-width="5"/><clipPath id="c20"><use href="#p19"/></clipPath><rect clip-path="url(#c20)" x="-40" y="490" width="1680" height="450" fill="url(#h4)" mask="url(#m_b)"/><clipPath id="c21"><use href="#p19"/></clipPath><rect clip-path="url(#c21)" x="-40" y="490" width="1680" height="450" fill="url(#h6)" mask="url(#m_tr)"/><path id="p22" d="M-20 660L129 660L279 660L427 660L577 659L726 661L876 661L1025 659L1172 661L1322 660L1471 661L1620 661L1620 801L1620 939L1471 941L1320 941L1172 941L1024 939L876 939L724 939L577 940L428 939L277 939L128 941L-21 941L-21 801Z" fill="#14C48A" class="o" stroke-width="5"/><clipPath id="c23"><use href="#p22"/></clipPath><rect clip-path="url(#c23)" x="-20" y="660" width="1640" height="280" fill="url(#h4)" mask="url(#m_b)"/><path id="p24" d="M-40 760L99 759L241 761L381 760L521 759L659 760L799 759L941 759L1079 759L1219 759L1360 761L1499 760L1641 761L1640 940L1499 939L1361 940L1221 939L1080 941L939 940L799 940L661 940L519 941L381 939L239 939L101 941L-39 939Z" fill="#FFD98A" class="o" stroke-width="5"/><clipPath id="c25"><use href="#p24"/></clipPath><rect clip-path="url(#c25)" x="-40" y="760" width="1680" height="180" fill="url(#h4)" mask="url(#m_b)"/><g class="pulse" style="--t:8s;animation-delay:-0s;transform-origin:520px 470px"><path id="p26" d="M900 471L792 532L826 616L708 621L758 771L630 698L604 842L521 720L444 801L415 686L304 743L297 649L219 615L273 527L152 471L265 411L176 303L298 295L285 174L412 245L442 126L520 202L595 145L624 256L742 193L706 321L842 314L786 411Z" fill="#FFC619" class="o" stroke-width="5"/><clipPath id="c27"><use href="#p26"/></clipPath><rect clip-path="url(#c27)" x="152" y="126" width="747" height="715" fill="url(#h6)" mask="url(#m_tl)"/></g><path id="p28" d="M241 341L390 340L540 341L690 341L840 341L841 539L839 740L689 741L539 739L391 740L239 740L240 540Z" fill="#FFF0D0" class="o" stroke-width="5"/><clipPath id="c29"><use href="#p28"/></clipPath><rect clip-path="url(#c29)" x="240" y="340" width="600" height="400" fill="url(#h4)" mask="url(#m_br)"/><clipPath id="c30"><use href="#p28"/></clipPath><rect clip-path="url(#c30)" x="240" y="340" width="600" height="400" fill="url(#h6)" mask="url(#m_tl)"/><path id="p31" d="M219 339L381 341L539 340L699 339L859 340L801 249L625 251L453 249L281 251Z" fill="#D8432B" class="o" stroke-width="5"/><clipPath id="c32"><use href="#p31"/></clipPath><rect clip-path="url(#c32)" x="220" y="250" width="640" height="90" fill="url(#h4)" mask="url(#m_br)"/><clipPath id="c33"><use href="#p31"/></clipPath><rect clip-path="url(#c33)" x="220" y="250" width="640" height="90" fill="url(#h6)" mask="url(#m_tl)"/><path id="p34" d="M360 200L541 199L721 201L721 259L540 261L361 260Z" fill="#C8102E" class="o" stroke-width="5"/><clipPath id="c35"><use href="#p34"/></clipPath><rect clip-path="url(#c35)" x="360" y="200" width="360" height="60" fill="url(#h4)" mask="url(#m_br)"/><clipPath id="c36"><use href="#p34"/></clipPath><rect clip-path="url(#c36)" x="360" y="200" width="360" height="60" fill="url(#h6)" mask="url(#m_tl)"/><path d="M539 206L547 222L563 223L550 235L554 249L540 241L526 249L531 232L517 222L535 223Z" fill="#FFC619" class="o" stroke-width="5"/><path d="M259 421L336 420L328 469L267 470Z" fill="#C8102E" class="o" stroke-width="4"/><path d="M336 419L413 419L405 471L344 471Z" fill="#FFFFFF" class="o" stroke-width="4"/><path d="M411 421L488 421L481 470L420 469Z" fill="#C8102E" class="o" stroke-width="4"/><path d="M489 419L563 421L556 470L495 471Z" fill="#FFFFFF" class="o" stroke-width="4"/><path d="M564 419L641 420L631 471L572 470Z" fill="#C8102E" class="o" stroke-width="4"/><path d="M641 420L716 421L709 470L648 469Z" fill="#FFFFFF" class="o" stroke-width="4"/><path d="M717 421L792 419L783 470L725 469Z" fill="#C8102E" class="o" stroke-width="4"/><path d="M791 419L868 420L860 471L801 470Z" fill="#FFFFFF" class="o" stroke-width="4"/><path id="p37" d="M279 500L499 499L501 670L280 670Z" fill="#13D6F2" class="o" stroke-width="5"/><clipPath id="c38"><use href="#p37"/></clipPath><rect clip-path="url(#c38)" x="280" y="500" width="220" height="170" fill="url(#h4)" mask="url(#m_br)"/><clipPath id="c39"><use href="#p37"/></clipPath><rect clip-path="url(#c39)" x="280" y="500" width="220" height="170" fill="url(#h6)" mask="url(#m_tl)"/><path id="p40" d="M579 500L800 499L800 669L579 669Z" fill="#13D6F2" class="o" stroke-width="5"/><clipPath id="c41"><use href="#p40"/></clipPath><rect clip-path="url(#c41)" x="580" y="500" width="220" height="170" fill="url(#h4)" mask="url(#m_br)"/><clipPath id="c42"><use href="#p40"/></clipPath><rect clip-path="url(#c42)" x="580" y="500" width="220" height="170" fill="url(#h6)" mask="url(#m_tl)"/><path id="p43" d="M499 740L500 600L505 580L520 567L540 559L560 564L574 579L580 601L580 740Z" fill="#FF7A1A" class="o" stroke-width="5"/><clipPath id="c44"><use href="#p43"/></clipPath><rect clip-path="url(#c44)" x="500" y="560" width="80" height="180" fill="url(#h4)" mask="url(#m_br)"/><path d="M309 619L359 619L359 670L309 669Z" fill="#FFC619" class="o" stroke-width="5"/><path d="M381 621L431 620L429 670L379 670Z" fill="#FFC619" class="o" stroke-width="5"/><path d="M450 621L499 620L500 669L449 669Z" fill="#FFC619" class="o" stroke-width="5"/><path d="M610 599L657 601L656 669L610 669Z" fill="#FFFFFF" class="o" stroke-width="5"/><path d="M610 601L657 601L657 615L609 616Z" fill="#C8102E" class="o" stroke-width="5"/><path d="M680 601L726 599L727 671L679 670Z" fill="#FFFFFF" class="o" stroke-width="5"/><path d="M681 601L725 601L727 616L680 615Z" fill="#C8102E" class="o" stroke-width="5"/><path d="M740 599L787 600L786 671L739 670Z" fill="#FFFFFF" class="o" stroke-width="5"/><path d="M739 600L786 601L785 615L741 616Z" fill="#C8102E" class="o" stroke-width="5"/><g class="pulse" style="--t:4s;animation-delay:-0s;transform-origin:540px 420px"><circle cx="354" cy="86" r="14.9" fill="#1b0a3c"/><circle cx="356" cy="85" r="9.2" fill="#FFFFFF"/><circle cx="344" cy="86" r="3.6" fill="#FFC619"/><circle cx="790" cy="276" r="9" fill="#1b0a3c"/><circle cx="791" cy="275" r="5.6" fill="#FFC619"/><circle cx="315" cy="655" r="12" fill="#1b0a3c"/><circle cx="317" cy="653" r="7.4" fill="#FFC619"/><circle cx="292" cy="672" r="2.7" fill="#FFC619"/><circle cx="752" cy="217" r="7.4" fill="#1b0a3c"/><circle cx="753" cy="216" r="4.6" fill="#FFFFFF"/><circle cx="891" cy="524" r="13.7" fill="#1b0a3c"/><circle cx="892" cy="522" r="8.5" fill="#FFC619"/><circle cx="877" cy="545" r="2.4" fill="#FFC619"/><circle cx="610" cy="805" r="9.9" fill="#1b0a3c"/><circle cx="611" cy="804" r="6.1" fill="#FFC619"/><circle cx="372" cy="158" r="13.9" fill="#1b0a3c"/><circle cx="373" cy="156" r="8.6" fill="#FFFFFF"/><circle cx="366" cy="185" r="3.3" fill="#FFC619"/></g><g class="pulse" style="--t:5.7s;animation-delay:-1.3s;transform-origin:540px 420px"><circle cx="771" cy="92" r="11.8" fill="#1b0a3c"/><circle cx="773" cy="90" r="7.3" fill="#FFC619"/><circle cx="326" cy="200" r="6.6" fill="#1b0a3c"/><circle cx="327" cy="199" r="4.1" fill="#FFFFFF"/><circle cx="557" cy="721" r="14.2" fill="#1b0a3c"/><circle cx="559" cy="719" r="8.8" fill="#FFC619"/><circle cx="126" cy="482" r="7.9" fill="#1b0a3c"/><circle cx="127" cy="481" r="4.9" fill="#FFC619"/><circle cx="223" cy="721" r="10.3" fill="#1b0a3c"/><circle cx="224" cy="720" r="6.4" fill="#FFFFFF"/><circle cx="937" cy="262" r="12.6" fill="#1b0a3c"/><circle cx="939" cy="261" r="7.8" fill="#FFC619"/><circle cx="441" cy="701" r="9.8" fill="#1b0a3c"/><circle cx="442" cy="700" r="6.1" fill="#FFC619"/></g><path id="p45" d="M873 800L926 801L920 699L880 699Z" fill="#9A8FD8" class="o" stroke-width="5"/><clipPath id="c46"><use href="#p45"/></clipPath><rect clip-path="url(#c46)" x="874" y="700" width="52" height="100" fill="url(#h4)" mask="url(#m_br)"/><clipPath id="c47"><use href="#p45"/></clipPath><rect clip-path="url(#c47)" x="874" y="700" width="52" height="100" fill="url(#h6)" mask="url(#m_tl)"/><path d="M887 681L914 679L913 704L885 703Z" fill="#9A8FD8" class="o" stroke-width="5"/><path id="p48" d="M935 801L986 801L980 700L941 701Z" fill="#9A8FD8" class="o" stroke-width="5"/><clipPath id="c49"><use href="#p48"/></clipPath><rect clip-path="url(#c49)" x="934" y="700" width="52" height="100" fill="url(#h4)" mask="url(#m_br)"/><clipPath id="c50"><use href="#p48"/></clipPath><rect clip-path="url(#c50)" x="934" y="700" width="52" height="100" fill="url(#h6)" mask="url(#m_tl)"/><path d="M946 679L974 680L973 704L945 703Z" fill="#9A8FD8" class="o" stroke-width="5"/><path id="p51" d="M995 799L1046 800L1039 700L1001 701Z" fill="#9A8FD8" class="o" stroke-width="5"/><clipPath id="c52"><use href="#p51"/></clipPath><rect clip-path="url(#c52)" x="994" y="700" width="52" height="100" fill="url(#h4)" mask="url(#m_br)"/><clipPath id="c53"><use href="#p51"/></clipPath><rect clip-path="url(#c53)" x="994" y="700" width="52" height="100" fill="url(#h6)" mask="url(#m_tl)"/><path d="M1007 679L1033 681L1035 703L1005 704Z" fill="#9A8FD8" class="o" stroke-width="5"/><g transform="translate(1120 800) scale(0.8 0.8)"><path id="p54" d="M0.5 0.5Q-69 -0.7 -79 -45Q-89 -90 -69 -119Q-49 -148 -39 -158Q-29 -169 0.5 -169Q30 -169 40 -159Q51 -148 70 -119Q89 -89 80 -44Q70 1.7 0.5 0.5Z" fill="#FFF0D0" class="o" stroke-width="5.8"/><clipPath id="c55"><use href="#p54"/></clipPath><rect clip-path="url(#c55)" x="-90" y="-170" width="180" height="170" fill="url(#h18)" mask="url(#m_br)"/><clipPath id="c56"><use href="#p54"/></clipPath><rect clip-path="url(#c56)" x="-90" y="-170" width="180" height="170" fill="url(#h57)" mask="url(#m_tl)"/><path d="M-39 -189L40 -189L40 -161L-39 -163Z" fill="#c6b6ab" class="o" stroke-width="5.8"/><g transform="translate(0 -80) scale(0.1 0.1)"><path d="M35 -9.9Q38 -0.6 37 10.2Q35 21 28 29Q20 36 10.2 37Q0.3 38 -10.5 36Q-21 35 -27 28Q-33 22 -36 11.6Q-39 1.5 -38 -10.2Q-36 -22 -29 -28Q-22 -35 -10.3 -37Q1.1 -38 11 -37Q21 -36 27 -28Q33 -19.1 35 -9.9Z" fill="#FFC619" class="o" stroke-width="40"/><path d="M26 -7.2Q28 -0.1 26 6.6Q24 13.2 19.3 19Q14.3 25 7.1 25Q-0.2 26 -6.5 25Q-12.8 25 -17.5 19.1Q-22 13.6 -25 7.5Q-28 1.3 -25 -6.5Q-23 -14.3 -18.5 -19.3Q-14 -24 -6.5 -26Q1.1 -27 7.1 -25Q13.2 -23 18.3 -18.6Q23 -14.2 26 -7.2Z" fill="none" class="o" stroke-width="24"/><path d="M-7.9 -8.5L15.3 4.8L7.3 -8.2L-2.8 -4.4L15.9 22L-5.9 17.3L-19.6 9.8L-9.7 11.8L-11.8 -4.6L3.8 -3.9Z" fill="#bb8e24"/></g><path d="M32 -95Q34 -85 32 -76Q30 -68 23 -61Q16.6 -55 9 -51Q1.3 -48 -8.7 -52Q-18.8 -55 -25 -61Q-32 -67 -34 -76Q-37 -86 -35 -94Q-33 -103 -25 -109Q-17.2 -116 -8.8 -118Q-0.5 -121 8.7 -119Q17.8 -117 24 -111Q30 -105 32 -95Z" fill="#FFC619" class="o" stroke-width="5.8"/><path d="M0.7 -104L4.9 -93L18.1 -90L7.7 -82L12.4 -68L0.2 -76L-10.4 -69L-7.6 -81L-19.5 -92L-6.5 -92Z" fill="#bb8e24"/></g><g transform="translate(1190 800) scale(0.7 0.7)"><path id="p58" d="M-0.9 0.5Q-71 1 -81 -44Q-92 -90 -71 -121Q-50 -152 -40 -161Q-30 -170 -0.5 -170Q30 -169 40 -159Q51 -149 70 -119Q90 -89 79 -44Q69 0 -0.9 0.5Z" fill="#FFD98A" class="o" stroke-width="6.3"/><clipPath id="c59"><use href="#p58"/></clipPath><rect clip-path="url(#c59)" x="-90" y="-170" width="180" height="170" fill="url(#h60)" mask="url(#m_br)"/><clipPath id="c61"><use href="#p58"/></clipPath><rect clip-path="url(#c61)" x="-90" y="-170" width="180" height="170" fill="url(#h62)" mask="url(#m_tl)"/><path d="M-40 -189L40 -190L40 -162L-38 -164Z" fill="#c6a576" class="o" stroke-width="6.3"/><g transform="translate(0 -80) scale(0.1 0.1)"><path d="M37 -8.9Q39 1.2 37 11.4Q36 22 29 29Q22 36 11.1 39Q0.5 42 -8.9 38Q-18.3 33 -27 26Q-36 18.6 -38 10.2Q-40 1.8 -38 -8.3Q-35 -18.5 -27 -27Q-20 -35 -10.8 -37Q-1.6 -40 8.6 -37Q18.8 -33 26 -26Q34 -19 37 -8.9Z" fill="#FFC619" class="o" stroke-width="45"/><path d="M25 -6.3Q26 0.9 24 7.6Q22 14.4 18.5 18.3Q14.5 22 6.7 25Q-1.1 28 -7 26Q-12.9 25 -17.6 19.8Q-22 14.7 -25 7.9Q-28 1.2 -26 -6.2Q-23 -13.6 -18 -18.9Q-12.6 -24 -5.7 -26Q1.2 -28 7.6 -26Q13.9 -24 19.3 -18.7Q25 -13.5 25 -6.3Z" fill="none" class="o" stroke-width="27"/><path d="M-2.4 -13.6L-2.3 -5.3L19.3 7.8L19.1 -11L0.3 9.5L5.6 9.3L-4.9 17.5L-12.1 -2.4L-5.8 -0.4L3.3 6.6Z" fill="#bb8e24"/></g><path d="M34 -93Q34 -84 32 -76Q30 -68 24 -61Q17.9 -54 9.3 -51Q0.8 -48 -9.2 -52Q-19.2 -55 -26 -62Q-33 -68 -34 -76Q-35 -84 -33 -94Q-31 -105 -24 -110Q-17.5 -115 -8.9 -117Q-0.3 -120 9.5 -118Q19.3 -117 26 -110Q33 -102 34 -93Z" fill="#FFC619" class="o" stroke-width="6.3"/><path d="M-0.3 -104L5.6 -94L20 -91L9.1 -82L10.3 -68L-1.8 -78L-12.4 -68L-9.2 -83L-18.4 -93L-5.3 -92Z" fill="#bb8e24"/></g><g transform="translate(1340 800) scale(1.1 1.1)"><path id="p63" d="M-70 -100L70 -100L69 -31L-69 -29Z" fill="#FFFFFF" class="o" stroke-width="4.7"/><clipPath id="c64"><use href="#p63"/></clipPath><rect clip-path="url(#c64)" x="-70" y="-100" width="140" height="70" fill="url(#h65)" mask="url(#m_br)"/><clipPath id="c66"><use href="#p63"/></clipPath><rect clip-path="url(#c66)" x="-70" y="-100" width="140" height="70" fill="url(#h67)" mask="url(#m_tl)"/><path d="M-69 -89L-39 -110L-18.6 -81Z" fill="#1b0a3c"/><path d="M37 -83Q37 -78 36 -74Q36 -70 32 -66Q28 -61 24 -60Q20 -59 15.7 -61Q11.2 -63 7.7 -66Q4.1 -70 2.9 -74Q1.8 -77 3.4 -82Q5 -88 8.3 -91Q11.7 -94 15.7 -95Q19.7 -95 24 -94Q29 -93 33 -90Q36 -87 37 -83Z" fill="#1b0a3c"/><path d="M-17.3 -54Q-16.4 -50 -17.5 -47Q-18.7 -44 -21 -41Q-23 -38 -26 -37Q-29 -35 -33 -37Q-37 -38 -39 -41Q-42 -43 -43 -47Q-43 -51 -43 -54Q-42 -56 -40 -59Q-37 -62 -34 -63Q-30 -64 -26 -63Q-23 -62 -21 -60Q-18.3 -58 -17.3 -54Z" fill="#1b0a3c"/><path d="M-61 -33L-48 -35L-48 4.9L-62 6.7Z" fill="#FFFFFF" class="o" stroke-width="4.7"/><path d="M-30 -33L-16 -34L-16.1 5.5L-29 5.5Z" fill="#FFFFFF" class="o" stroke-width="4.7"/><path d="M34 -34L48 -35L47 5.9L34 6.6Z" fill="#FFFFFF" class="o" stroke-width="4.7"/><path d="M55 -33L69 -35L70 7.4L56 6.9Z" fill="#FFFFFF" class="o" stroke-width="4.7"/><path d="M65 -111L109 -121L117 -76L97 -63L65 -70Z" fill="#FFFFFF" class="o" stroke-width="4.7"/><path d="M111 -74Q112 -71 111 -70Q111 -68 109 -66Q108 -65 106 -64Q103 -64 102 -65Q100 -66 98 -67Q97 -68 96 -70Q95 -71 96 -73Q97 -76 98 -77Q100 -79 102 -80Q104 -80 106 -79Q108 -79 109 -77Q111 -76 111 -74Z" fill="#FF6FB5"/><path d="M69 -115L61 -135L76 -123Z" fill="#FFC619" class="o" stroke-width="4.7"/><circle cx="94" cy="-100" r="4" fill="#1b0a3c"/></g><g transform="translate(200 860) scale(1.4 1.4)"><path d="M-14.9 -61L-1 -60L-2.5 0.5L-14.7 0.8Z" fill="#2B1478" class="o" stroke-width="4.1"/><path d="M2.4 -61L16 -60L14.1 -1.2L0.8 -1.1Z" fill="#2B1478" class="o" stroke-width="4.1"/><path d="M-19.2 -9.9L-0.4 -8.4L-0.3 0.3L-19 -0.2Z" fill="#1b0a3c"/><path d="M1.5 -8.3L19 -7.8L19.1 -0.5L1 1Z" fill="#1b0a3c"/><path d="M-33 -111L-22 -110L-23 -58L-33 -58Z" fill="#F2118C" class="o" stroke-width="4.1"/><path d="M-20 -58Q-19.7 -56 -20 -54Q-21 -52 -22 -50Q-24 -49 -26 -48Q-28 -47 -30 -48Q-32 -49 -34 -51Q-35 -52 -36 -54Q-37 -56 -36 -58Q-35 -60 -34 -62Q-32 -63 -30 -64Q-28 -64 -26 -63Q-24 -62 -22 -61Q-21 -60 -20 -58Z" fill="#F2B27D" class="o" stroke-width="4.1"/><path d="M21 -108L31 -113L47 -163L35 -169L16.9 -121Z" fill="#F2118C" class="o" stroke-width="4.1"/><path d="M49 -172Q50 -170 49 -168Q49 -166 47 -165Q46 -163 44 -163Q42 -162 40 -163Q38 -163 36 -165Q35 -166 35 -168Q34 -170 35 -172Q35 -174 37 -175Q38 -177 40 -177Q42 -178 44 -177Q46 -177 47 -175Q48 -174 49 -172Z" fill="#F2B27D" class="o" stroke-width="4.1"/><path id="p68" d="M-25 -114L25 -115L20 -53L-19.9 -53Z" fill="#F2118C" class="o" stroke-width="4.1"/><clipPath id="c69"><use href="#p68"/></clipPath><rect clip-path="url(#c69)" x="-25" y="-114" width="50" height="62" fill="url(#h70)" mask="url(#m_br)"/><clipPath id="c71"><use href="#p68"/></clipPath><rect clip-path="url(#c71)" x="-25" y="-114" width="50" height="62" fill="url(#h72)" mask="url(#m_tl)"/><path d="M-23 -59L22 -60L22 -52L-23 -51Z" fill="#860e64"/><path d="M17 -140Q18.4 -135 16.8 -130Q15.1 -125 12.1 -122Q9.1 -119 5 -118Q1 -118 -3.7 -119Q-8.3 -119 -12.3 -123Q-16.3 -127 -16.9 -131Q-17.5 -134 -16.3 -139Q-15.1 -144 -12.4 -148Q-9.8 -151 -4.9 -152Q0 -153 5 -152Q10 -152 12.8 -148Q15.6 -145 17 -140Z" fill="#F2B27D" class="o" stroke-width="4.1"/><path d="M-18.7 -138L-14.9 -155L-0.2 -159L16 -154L19.6 -138L10.8 -146L-12 -144Z" fill="#160840" class="o" stroke-width="4.1"/></g><g transform="translate(1000 880) scale(1.4 1.4)"><path d="M-13.8 -59L-1.5 -60L-2.1 -0.7L-14 -0.3Z" fill="#2B1478" class="o" stroke-width="4.1"/><path d="M1.3 -59L14.3 -59L16 -0.3L2.2 0.4Z" fill="#2B1478" class="o" stroke-width="4.1"/><path d="M-17.9 -9L-0.9 -9.8L-2 -0.4L-17.9 -0.7Z" fill="#1b0a3c"/><path d="M1.1 -8.1L18.5 -9.4L16.8 -0.2L2.2 1.2Z" fill="#1b0a3c"/><path d="M-24 -107L-33 -99L-14.5 -75L-5.4 -89Z" fill="#13D6F2" class="o" stroke-width="4.1"/><path d="M25 -109L34 -100L12.9 -76L5.3 -87Z" fill="#13D6F2" class="o" stroke-width="4.1"/><path id="p73" d="M-26 -114L25 -114L21 -52L-22 -52Z" fill="#13D6F2" class="o" stroke-width="4.1"/><clipPath id="c74"><use href="#p73"/></clipPath><rect clip-path="url(#c74)" x="-25" y="-114" width="50" height="62" fill="url(#h70)" mask="url(#m_br)"/><clipPath id="c75"><use href="#p73"/></clipPath><rect clip-path="url(#c75)" x="-25" y="-114" width="50" height="62" fill="url(#h72)" mask="url(#m_tl)"/><path d="M-22 -61L22 -60L22 -52L-22 -53Z" fill="#177097"/><path d="M16.7 -140Q18.2 -136 16.5 -131Q14.8 -125 12.3 -122Q9.7 -119 4.4 -118Q-1 -116 -4.9 -118Q-8.9 -120 -12.2 -123Q-15.5 -126 -17 -131Q-18.5 -136 -17.2 -140Q-15.9 -144 -12.2 -147Q-8.5 -150 -3.7 -151Q1 -152 5.1 -151Q9.1 -150 12.1 -147Q15.2 -144 16.7 -140Z" fill="#F2B27D" class="o" stroke-width="4.1"/><path d="M-19.5 -143L-15 -159L14.2 -159L20 -142Z" fill="#FFC619" class="o" stroke-width="4.1"/><path d="M-4.9 -147L25 -145L26 -139L-4.9 -140Z" fill="#d1a020" class="o" stroke-width="4.1"/><path d="M-17.6 -91L18.5 -93L18.1 -67L-16.9 -66Z" fill="#13D6F2" class="o" stroke-width="4.1"/><path d="M-13.2 -87L15.1 -87L14.6 -84L-13.2 -84Z" fill="#FFFFFF"/></g><rect width="1600" height="900" fill="url(#v76)"/></g></svg>