<svg xmlns="http://www.w3.org/2000/svg" viewBox="0 0 1600 900" role="img"><title>A meal at a care home</title><desc>Elderly residents with white hair sit at a long table laden with plates while a carer brings a steaming tray to serve the meal.</desc><defs><style>.o{stroke:#1b0a3c;stroke-linejoin:round;stroke-linecap:round}@keyframes spin{to{transform:rotate(360deg)}}@keyframes spinr{to{transform:rotate(-360deg)}}@keyframes tw{0%,100%{opacity:.3}50%{opacity:1}}@keyframes pu{0%,100%{transform:scale(1)}50%{transform:scale(1.07)}}@keyframes bob{0%,100%{transform:translateY(0)}50%{transform:translateY(-9px)}}@keyframes sw{0%,100%{transform:rotate(-2.5deg)}50%{transform:rotate(2.5deg)}}@keyframes dr{0%{transform:translateX(-50px)}100%{transform:translateX(70px)}}@keyframes fl{0%,100%{transform:skewY(-4deg) scaleX(1)}50%{transform:skewY(4deg) scaleX(.96)}}@keyframes fk{0%,100%{transform:scale(1,1)}50%{transform:scale(.94,1.1)}}@keyframes wv{to{transform:translateX(calc(var(--dx) * -1))}}@keyframes wvr{from{transform:translateX(calc(var(--dx) * -1))}to{transform:none}}@keyframes ri{0%{transform:translateY(0);opacity:0}15%{opacity:1}100%{transform:translateY(var(--dy));opacity:0}}@keyframes dp{0%{transform:translateY(-70px);opacity:0}25%,70%{opacity:1}100%{transform:translateY(40px);opacity:0}}@keyframes fa{0%{transform:translate(0,-60px);opacity:0}20%{opacity:1}100%{transform:translate(60px,520px);opacity:0}}@keyframes kb{0%{transform:scale(1)}100%{transform:scale(1.045)}}@keyframes zg{0%,100%{transform:translateX(-26px)}50%{transform:translateX(26px)}}@keyframes fy{0%{transform:translateX(-300px)}100%{transform:translateX(300px)}}@keyframes bm{0%,100%{opacity:.35}50%{opacity:.8}}.spin{animation:spin var(--t,60s) linear infinite}.spinr{animation:spinr var(--t,60s) linear infinite}.tw{animation:tw var(--t,3s) ease-in-out infinite}.pulse{animation:pu var(--t,5s) ease-in-out infinite}.bob{animation:bob var(--t,5s) ease-in-out infinite}.sway{animation:sw var(--t,6s) ease-in-out infinite}.drift{animation:dr var(--t,40s) ease-in-out infinite alternate}.flag{animation:fl var(--t,3.5s) ease-in-out infinite}.flick{animation:fk var(--t,2.4s) ease-in-out infinite}.wv{animation:wv var(--t,9s) linear infinite}.wvr{animation:wvr var(--t,11s) linear infinite}.rise{animation:ri var(--t,4s) ease-out infinite}.drop{animation:dp var(--t,4s) ease-in-out infinite}.fall{animation:fa var(--t,7s) linear infinite}.kb{animation:kb 24s ease-in-out infinite alternate;transform-origin:800px 450px}.zig{animation:zg var(--t,8s) ease-in-out infinite}.fly{animation:fy var(--t,14s) ease-in-out infinite alternate}.beam{animation:bm var(--t,6s) ease-in-out infinite}@media (prefers-reduced-motion:reduce){*{animation:none!important}}</style><linearGradient id="s1" gradientTransform="rotate(90 .5 .5)"><stop offset="0" stop-color="#6A1FC2"/><stop offset="0.5" stop-color="#F2118C"/><stop offset="0.8" stop-color="#FF7A1A"/><stop offset="1" stop-color="#FFC619"/></linearGradient><pattern id="h2" width="22" height="22" patternUnits="userSpaceOnUse" patternTransform="rotate(28)"><circle cx="11.0" cy="11.0" r="5.720000000000001" fill="#fff" fill-opacity="0.35"/></pattern><mask id="m_t" maskContentUnits="objectBoundingBox" x="0" y="0" width="1" height="1"><linearGradient id="g_t" x1="0" y1="1" x2="0" y2="0"><stop offset=".25" stop-color="#000"/><stop offset="1" stop-color="#fff"/></linearGradient><rect width="1" height="1" fill="url(#g_t)"/></mask><pattern id="h5" width="15" height="15" patternUnits="userSpaceOnUse" patternTransform="rotate(28)"><circle cx="7.5" cy="7.5" r="3.6" fill="#1b0a3c" fill-opacity="0.34"/></pattern><mask id="m_br" maskContentUnits="objectBoundingBox" x="0" y="0" width="1" height="1"><linearGradient id="g_br" x1="0" y1="0" x2="1" y2="1"><stop offset=".25" stop-color="#000"/><stop offset="1" stop-color="#fff"/></linearGradient><rect width="1" height="1" fill="url(#g_br)"/></mask><pattern id="h9" width="15" height="15" patternUnits="userSpaceOnUse" patternTransform="rotate(28)"><circle cx="7.5" cy="7.5" r="3.6" fill="#ffffff" fill-opacity="0.5"/></pattern><mask id="m_tl" maskContentUnits="objectBoundingBox" x="0" y="0" width="1" height="1"><linearGradient id="g_tl" x1="1" y1="1" x2="0" y2="0"><stop offset=".25" stop-color="#000"/><stop offset="1" stop-color="#fff"/></linearGradient><rect width="1" height="1" fill="url(#g_tl)"/></mask><mask id="m_b" maskContentUnits="objectBoundingBox" x="0" y="0" width="1" height="1"><linearGradient id="g_b" x1="0" y1="0" x2="0" y2="1"><stop offset=".25" stop-color="#000"/><stop offset="1" stop-color="#fff"/></linearGradient><rect width="1" height="1" fill="url(#g_b)"/></mask><mask id="m_tr" maskContentUnits="objectBoundingBox" x="0" y="0" width="1" height="1"><linearGradient id="g_tr" x1="0" y1="1" x2="1" y2="0"><stop offset=".25" stop-color="#000"/><stop offset="1" stop-color="#fff"/></linearGradient><rect width="1" height="1" fill="url(#g_tr)"/></mask><radialGradient id="gl15"><stop offset="0" stop-color="#FFC619" stop-opacity="0.5"/><stop offset="1" stop-color="#FFC619" stop-opacity="0"/></radialGradient><radialGradient id="gl16"><stop offset="0" stop-color="#FFC619" stop-opacity="0.5"/><stop offset="1" stop-color="#FFC619" stop-opacity="0"/></radialGradient><pattern id="h19" width="10" height="10" patternUnits="userSpaceOnUse" patternTransform="rotate(28)"><circle cx="5" cy="5" r="2.4" fill="#1b0a3c" fill-opacity="0.34"/></pattern><pattern id="h21" width="10" height="10" patternUnits="userSpaceOnUse" patternTransform="rotate(28)"><circle cx="5" cy="5" r="2.4" fill="#ffffff" fill-opacity="0.5"/></pattern><pattern id="h48" width="9" height="9" patternUnits="userSpaceOnUse" patternTransform="rotate(28)"><circle cx="4.5" cy="4.5" r="2.2" fill="#1b0a3c" fill-opacity="0.34"/></pattern><pattern id="h50" width="9" height="9" patternUnits="userSpaceOnUse" patternTransform="rotate(28)"><circle cx="4.5" cy="4.5" r="2.2" fill="#ffffff" fill-opacity="0.5"/></pattern><pattern id="h55" width="16" height="16" patternUnits="userSpaceOnUse" patternTransform="rotate(28)"><circle cx="8" cy="8" r="3.8" fill="#1b0a3c" fill-opacity="0.34"/></pattern><pattern id="h57" width="16" height="16" patternUnits="userSpaceOnUse" patternTransform="rotate(28)"><circle cx="8" cy="8" r="3.8" fill="#ffffff" fill-opacity="0.5"/></pattern><radialGradient id="v58" cx=".5" cy=".5" r=".75"><stop offset=".55" stop-color="#1b0a3c" stop-opacity="0"/><stop offset="1" stop-color="#1b0a3c" stop-opacity="0.45"/></radialGradient></defs><g class="kb"><rect x="0" y="0" width="1600" height="900" fill="url(#s1)"/><path d="M-0.1 -0.6L145 -1.3L290 1.2L436 1.3L581 0.9L726 1.5L873 0.8L1017 0.8L1163 -0.4L1310 -0.8L1455 1.5L1599 1.1L1601 149L1601 299L1600 449L1599 600L1601 749L1600 900L1453 901L1309 899L1164 899L1018 900L874 901L726 899L581 901L437 899L290 901L144 899L0.7 901L-0.8 751L0.4 599L0.5 450L1.5 299L-1.4 151Z" fill="#5d137d" class="o" stroke-width="5"/><rect x="0" y="0" width="1600" height="900" fill="url(#h2)" mask="url(#m_t)"/><path id="p3" d="M900 119L1072 120L1246 121L1421 119L1420 299L1420 479L1247 480L1074 481L899 479L899 301Z" fill="#13D6F2" class="o" stroke-width="5"/><clipPath id="c4"><use href="#p3"/></clipPath><rect clip-path="url(#c4)" x="900" y="120" width="520" height="360" fill="url(#h5)" mask="url(#m_br)"/><path d="M917 138L1080 139L1242 139L1402 137L1403 300L1401 462L1239 461L1078 462L917 461L917 300Z" fill="#ffa850" class="o" stroke-width="5"/><g class="spin" style="--t:90s;animation-delay:-0s;transform-origin:1160px 420px"><path d="M1223 413L1265 420L1223 427ZM1220 438L1257 460L1215 450ZM1209 459L1234 494L1199 469ZM1190 475L1200 517L1178 480ZM1167 483L1160 525L1153 483ZM1142 480L1120 517L1130 475ZM1121 469L1086 494L1111 459ZM1105 450L1063 460L1100 438ZM1097 427L1055 420L1097 413ZM1100 402L1063 380L1105 390ZM1111 381L1086 346L1121 371ZM1130 365L1120 323L1142 360ZM1153 357L1160 315L1167 357ZM1178 360L1200 323L1190 365ZM1199 371L1234 346L1209 381ZM1215 390L1257 380L1220 402Z" fill="#FF7A1A" class="o" stroke-width="4"/></g><path id="p6" d="M1216 406Q1221 421 1217 435Q1214 449 1202 460Q1190 471 1174 475Q1159 478 1144 475Q1129 472 1119 460Q1108 448 1105 435Q1102 423 1104 405Q1106 387 1119 378Q1132 368 1147 365Q1162 361 1176 365Q1190 368 1201 379Q1212 391 1216 406Z" fill="#FFC619" class="o" stroke-width="5"/><clipPath id="c7"><use href="#p6"/></clipPath><rect clip-path="url(#c7)" x="1100" y="360" width="120" height="120" fill="url(#h5)" mask="url(#m_br)"/><clipPath id="c8"><use href="#p6"/></clipPath><rect clip-path="url(#c8)" x="1100" y="360" width="120" height="120" fill="url(#h9)" mask="url(#m_tl)"/><path id="p10" d="M-41 941L-41 778L-39 617L-41 454L60 424L160 438L259 448L359 445L460 433L561 426L660 457L759 440L860 437L959 426L1061 456L1159 446L1259 430L1360 435L1461 444L1561 456L1586 617L1612 778L1640 941L1500 941L1361 941L1219 940L1079 939L940 939L799 939L659 939L521 940L381 939L240 939L99 941Z" fill="#7A22D6" class="o" stroke-width="5"/><clipPath id="c11"><use href="#p10"/></clipPath><rect clip-path="url(#c11)" x="-40" y="423" width="1680" height="517" fill="url(#h5)" mask="url(#m_b)"/><clipPath id="c12"><use href="#p10"/></clipPath><rect clip-path="url(#c12)" x="-40" y="423" width="1680" height="517" fill="url(#h9)" mask="url(#m_tr)"/><path d="M899 290L1073 291L1247 289L1420 289L1420 303L1247 303L1075 303L899 304Z" fill="#FFFFFF" class="o" stroke-width="5"/><path d="M1149 119L1164 121L1163 300L1164 479L1151 479L1149 300Z" fill="#FFFFFF" class="o" stroke-width="5"/><g class="pulse" style="--t:8s;animation-delay:-0s;transform-origin:560px 420px"><path id="p13" d="M865 419L739 461L866 568L697 528L761 673L646 600L638 764L559 605L485 745L476 594L364 667L418 533L283 553L372 462L220 420L378 380L284 285L423 310L339 144L483 260L481 75L559 245L639 75L646 239L766 162L698 309L854 277L734 380Z" fill="#FF7A1A" class="o" stroke-width="5"/><clipPath id="c14"><use href="#p13"/></clipPath><rect clip-path="url(#c14)" x="220" y="74" width="647" height="690" fill="url(#h9)" mask="url(#m_tl)"/></g><g class="pulse" style="--t:4s;animation-delay:-0s;transform-origin:560px 430px"><circle cx="623" cy="781" r="12.5" fill="#1b0a3c"/><circle cx="625" cy="780" r="7.8" fill="#FFFFFF"/><circle cx="625" cy="760" r="3.3" fill="#FFC619"/><circle cx="463" cy="57" r="13" fill="#1b0a3c"/><circle cx="464" cy="56" r="8.1" fill="#FFC619"/><circle cx="812" cy="595" r="13.7" fill="#1b0a3c"/><circle cx="813" cy="594" r="8.5" fill="#FFC619"/><circle cx="782" cy="602" r="3.5" fill="#FFC619"/><circle cx="670" cy="191" r="14" fill="#1b0a3c"/><circle cx="672" cy="189" r="8.7" fill="#FFFFFF"/><circle cx="897" cy="527" r="8.2" fill="#1b0a3c"/><circle cx="898" cy="526" r="5.1" fill="#FFC619"/><circle cx="924" cy="514" r="3" fill="#FFC619"/><circle cx="329" cy="159" r="12" fill="#1b0a3c"/><circle cx="330" cy="158" r="7.4" fill="#FFC619"/><circle cx="164" cy="337" r="12.7" fill="#1b0a3c"/><circle cx="165" cy="335" r="7.9" fill="#FFFFFF"/><circle cx="176" cy="329" r="3.5" fill="#FFC619"/><circle cx="500" cy="731" r="13.8" fill="#1b0a3c"/><circle cx="501" cy="730" r="8.5" fill="#FFC619"/><circle cx="256" cy="230" r="11.8" fill="#1b0a3c"/><circle cx="258" cy="228" r="7.3" fill="#FFC619"/><circle cx="279" cy="220" r="2.4" fill="#FFC619"/><circle cx="178" cy="429" r="6" fill="#1b0a3c"/><circle cx="178" cy="428" r="3.7" fill="#FFFFFF"/><circle cx="869" cy="476" r="14.5" fill="#1b0a3c"/><circle cx="871" cy="474" r="9" fill="#FFC619"/><circle cx="869" cy="478" r="2.6" fill="#FFC619"/></g><g class="pulse" style="--t:5.7s;animation-delay:-1.3s;transform-origin:560px 430px"><circle cx="306" cy="243" r="14.4" fill="#1b0a3c"/><circle cx="308" cy="241" r="9" fill="#FFC619"/><circle cx="264" cy="705" r="8.7" fill="#1b0a3c"/><circle cx="265" cy="704" r="5.4" fill="#FFFFFF"/><circle cx="307" cy="147" r="11" fill="#1b0a3c"/><circle cx="309" cy="145" r="6.8" fill="#FFC619"/><circle cx="312" cy="329" r="6" fill="#1b0a3c"/><circle cx="313" cy="328" r="3.7" fill="#FFC619"/><circle cx="570" cy="816" r="10.6" fill="#1b0a3c"/><circle cx="571" cy="815" r="6.6" fill="#FFFFFF"/><circle cx="405" cy="152" r="14.8" fill="#1b0a3c"/><circle cx="406" cy="150" r="9.2" fill="#FFC619"/><circle cx="450" cy="194" r="11" fill="#1b0a3c"/><circle cx="452" cy="193" r="6.8" fill="#FFC619"/><circle cx="511" cy="143" r="7.2" fill="#1b0a3c"/><circle cx="512" cy="142" r="4.5" fill="#FFFFFF"/><circle cx="490" cy="749" r="14.5" fill="#1b0a3c"/><circle cx="492" cy="747" r="9" fill="#FFC619"/><circle cx="832" cy="540" r="7.9" fill="#1b0a3c"/><circle cx="833" cy="539" r="4.9" fill="#FFC619"/><circle cx="339" cy="759" r="11.6" fill="#1b0a3c"/><circle cx="340" cy="757" r="7.2" fill="#FFFFFF"/></g><g transform="translate(300 240) scale(1.2 1.2)"><path d="M-5 -240L3.9 -239L5.1 -0.4L-4.2 0.1Z" fill="#160840" class="o" stroke-width="4.5"/><path d="M-26 -240L26 -241L18.2 -290L-16.8 -289Z" fill="#FFC619" class="o" stroke-width="4.5"/><g class="pulse" style="--t:4s;animation-delay:-0s;transform-origin:0px -266px"><circle cx="0" cy="-266" r="90" fill="url(#gl15)"/></g></g><g transform="translate(800 230) scale(1 1)"><path d="M-4.3 -241L6.2 -241L5.4 0.7L-4.3 1.5Z" fill="#160840" class="o" stroke-width="5"/><path d="M-27 -239L26 -241L18.3 -290L-17.5 -291Z" fill="#FFC619" class="o" stroke-width="5"/><g class="pulse" style="--t:4s;animation-delay:-0s;transform-origin:0px -266px"><circle cx="0" cy="-266" r="90" fill="url(#gl16)"/></g></g><g transform="translate(170 740) scale(2 2)"><path d="M-15.4 -60L-1.2 -61L-2.4 -0.6L-14.7 -0.2Z" fill="#2B1478" class="o" stroke-width="3.5"/><path d="M2.1 -59L15.5 -60L15.5 -1L1.7 0.4Z" fill="#2B1478" class="o" stroke-width="3.5"/><path d="M-17 -8.9L-0.7 -8.5L-2 -0.8L-17.1 -0.3Z" fill="#1b0a3c"/><path d="M1.2 -9.1L17.1 -8.2L18.9 -0.9L1.7 -0.1Z" fill="#1b0a3c"/><path d="M-25 -108L-33 -100L-14.5 -75L-5.7 -88Z" fill="#13D6F2" class="o" stroke-width="3.5"/><path d="M25 -109L33 -101L14.2 -76L7 -89Z" fill="#13D6F2" class="o" stroke-width="3.5"/><path id="p17" d="M-25 -113L26 -113L20 -52L-20 -51Z" fill="#13D6F2" class="o" stroke-width="3.5"/><clipPath id="c18"><use href="#p17"/></clipPath><rect clip-path="url(#c18)" x="-25" y="-114" width="50" height="62" fill="url(#h19)" mask="url(#m_br)"/><clipPath id="c20"><use href="#p17"/></clipPath><rect clip-path="url(#c20)" x="-25" y="-114" width="50" height="62" fill="url(#h21)" mask="url(#m_tl)"/><path d="M-22 -61L22 -59L22 -51L-23 -52Z" fill="#177097"/><path id="p22" d="M16.9 -139Q17.9 -134 16.4 -131Q15 -127 11.9 -123Q8.8 -119 4.2 -118Q-0.3 -117 -4.2 -118Q-8.1 -120 -11.9 -122Q-15.8 -125 -16.8 -130Q-17.8 -134 -16.3 -139Q-14.7 -143 -12.2 -147Q-9.8 -151 -4.7 -152Q0.3 -153 4.7 -151Q9.1 -150 12.5 -147Q15.9 -144 16.9 -139Z" fill="#F2B27D" class="o" stroke-width="3.5"/><clipPath id="c23"><use href="#p22"/></clipPath><rect clip-path="url(#c23)" x="-18" y="-153" width="36" height="36" fill="url(#h19)" mask="url(#m_br)"/><path d="M-18.2 -139L-15.1 -154L0.7 -159L15.3 -155L18.7 -138L10 -145L-10.3 -146Z" fill="#FFFFFF" class="o" stroke-width="3.5"/></g><g transform="translate(370 740) scale(2 2)"><path d="M-16 -60L-2.4 -61L-3 0.3L-14.4 0.2Z" fill="#2B1478" class="o" stroke-width="3.5"/><path d="M2.5 -60L15 -60L14.4 -0.2L1.2 0.2Z" fill="#2B1478" class="o" stroke-width="3.5"/><path d="M-17.2 -8L-0.5 -9.7L-0.8 -0.9L-18.6 0.2Z" fill="#1b0a3c"/><path d="M0.6 -9.6L17.3 -8.3L17.5 1L1.1 -1Z" fill="#1b0a3c"/><path d="M-25 -109L-33 -100L-13.9 -76L-6.9 -88Z" fill="#F2118C" class="o" stroke-width="3.5"/><path d="M25 -107L35 -100L13.4 -76L5.6 -88Z" fill="#F2118C" class="o" stroke-width="3.5"/><path id="p24" d="M-26 -113L24 -113L21 -53L-20 -51Z" fill="#F2118C" class="o" stroke-width="3.5"/><clipPath id="c25"><use href="#p24"/></clipPath><rect clip-path="url(#c25)" x="-25" y="-114" width="50" height="62" fill="url(#h19)" mask="url(#m_br)"/><clipPath id="c26"><use href="#p24"/></clipPath><rect clip-path="url(#c26)" x="-25" y="-114" width="50" height="62" fill="url(#h21)" mask="url(#m_tl)"/><path d="M-21 -61L22 -60L22 -52L-21 -51Z" fill="#860e64"/><path id="p27" d="M17 -140Q18.3 -135 16.9 -130Q15.6 -126 11.9 -122Q8.2 -119 3.9 -118Q-0.4 -116 -4.4 -118Q-8.4 -119 -11.6 -123Q-14.7 -127 -16.1 -131Q-17.5 -135 -16.1 -140Q-14.8 -144 -11.6 -147Q-8.5 -150 -4.7 -152Q-0.9 -153 3.6 -152Q8 -151 11.9 -148Q15.8 -144 17 -140Z" fill="#C98A5B" class="o" stroke-width="3.5"/><clipPath id="c28"><use href="#p27"/></clipPath><rect clip-path="url(#c28)" x="-18" y="-153" width="36" height="36" fill="url(#h19)" mask="url(#m_br)"/><path d="M-18.9 -138L-15.4 -154L1 -158L15 -154L18.8 -139L10.7 -146L-11.2 -146Z" fill="#FFFFFF" class="o" stroke-width="3.5"/></g><g transform="translate(570 740) scale(2 2)"><path d="M-14.3 -60L-2 -61L-2.6 0L-15.6 -0.3Z" fill="#2B1478" class="o" stroke-width="3.5"/><path d="M1.7 -60L14.6 -59L14.9 0.4L1.8 -0.1Z" fill="#2B1478" class="o" stroke-width="3.5"/><path d="M-17 -8.2L-1 -8.5L-0.3 0.8L-17.9 -0.2Z" fill="#1b0a3c"/><path d="M1 -8.7L18.7 -9L17.3 0.3L2 -0.6Z" fill="#1b0a3c"/><path d="M-25 -108L-34 -100L-13.9 -77L-5.8 -87Z" fill="#14C48A" class="o" stroke-width="3.5"/><path d="M24 -108L33 -100L15 -77L6.8 -89Z" fill="#14C48A" class="o" stroke-width="3.5"/><path id="p29" d="M-24 -114L25 -114L21 -53L-21 -53Z" fill="#14C48A" class="o" stroke-width="3.5"/><clipPath id="c30"><use href="#p29"/></clipPath><rect clip-path="url(#c30)" x="-25" y="-114" width="50" height="62" fill="url(#h19)" mask="url(#m_br)"/><clipPath id="c31"><use href="#p29"/></clipPath><rect clip-path="url(#c31)" x="-25" y="-114" width="50" height="62" fill="url(#h21)" mask="url(#m_tl)"/><path d="M-21 -61L23 -60L21 -52L-22 -53Z" fill="#186763"/><path id="p32" d="M16.7 -139Q17.5 -134 16.7 -130Q15.9 -125 12.4 -122Q9 -119 4.5 -118Q-0 -117 -4.6 -118Q-9.2 -119 -12.6 -123Q-16 -126 -17.4 -131Q-18.9 -135 -17.7 -139Q-16.5 -143 -12.9 -147Q-9.3 -151 -4.9 -152Q-0.5 -154 3.8 -152Q8.2 -150 12.1 -146Q15.9 -143 16.7 -139Z" fill="#F2B27D" class="o" stroke-width="3.5"/><clipPath id="c33"><use href="#p32"/></clipPath><rect clip-path="url(#c33)" x="-18" y="-153" width="36" height="36" fill="url(#h19)" mask="url(#m_br)"/><path d="M-18 -137L-14.4 -153L-0.2 -158L15.8 -153L18.3 -138L11.6 -144L-10.4 -146Z" fill="#FFFFFF" class="o" stroke-width="3.5"/></g><g transform="translate(770 740) scale(2 2)"><path d="M-14.1 -60L-2.1 -61L-1.6 -0.9L-14.6 1Z" fill="#2B1478" class="o" stroke-width="3.5"/><path d="M2.1 -59L15.6 -60L14 0.1L1.4 -0.5Z" fill="#2B1478" class="o" stroke-width="3.5"/><path d="M-17.9 -8.2L-1.6 -9.4L-0.8 -0L-18.2 0Z" fill="#1b0a3c"/><path d="M1 -10L18 -8.5L17.6 0L1.9 -0.1Z" fill="#1b0a3c"/><path d="M-24 -107L-33 -100L-14.1 -77L-5.4 -89Z" fill="#FFC619" class="o" stroke-width="3.5"/><path d="M23 -108L34 -100L14.7 -75L5.9 -89Z" fill="#FFC619" class="o" stroke-width="3.5"/><path id="p34" d="M-25 -115L24 -114L21 -53L-20 -51Z" fill="#FFC619" class="o" stroke-width="3.5"/><clipPath id="c35"><use href="#p34"/></clipPath><rect clip-path="url(#c35)" x="-25" y="-114" width="50" height="62" fill="url(#h19)" mask="url(#m_br)"/><clipPath id="c36"><use href="#p34"/></clipPath><rect clip-path="url(#c36)" x="-25" y="-114" width="50" height="62" fill="url(#h21)" mask="url(#m_tl)"/><path d="M-22 -59L21 -60L21 -52L-22 -53Z" fill="#8d682a"/><path id="p37" d="M16.5 -140Q18.3 -136 17.2 -131Q16.1 -126 12.7 -123Q9.2 -120 4.2 -118Q-0.8 -116 -4.6 -117Q-8.5 -118 -12.5 -122Q-16.4 -125 -16.8 -130Q-17.2 -134 -15.9 -139Q-14.7 -144 -11.8 -148Q-8.9 -151 -4.6 -152Q-0.3 -153 4.3 -152Q8.9 -152 11.9 -148Q14.8 -144 16.5 -140Z" fill="#F2B27D" class="o" stroke-width="3.5"/><clipPath id="c38"><use href="#p37"/></clipPath><rect clip-path="url(#c38)" x="-18" y="-153" width="36" height="36" fill="url(#h19)" mask="url(#m_br)"/><path d="M-19.1 -138L-15.4 -154L0.5 -159L14.9 -154L19 -138L12 -146L-10.6 -145Z" fill="#FFFFFF" class="o" stroke-width="3.5"/></g><g transform="translate(970 740) scale(2 2)"><path d="M-15.9 -59L-1.2 -59L-1.1 0.8L-15.4 -0.7Z" fill="#2B1478" class="o" stroke-width="3.5"/><path d="M1.9 -61L15.4 -61L14.2 0.5L1.7 -0.9Z" fill="#2B1478" class="o" stroke-width="3.5"/><path d="M-17.7 -9.3L-1 -9.6L-0.9 0.9L-17.3 0.4Z" fill="#1b0a3c"/><path d="M1 -9.5L19 -9.6L17.7 1L1.2 -0.2Z" fill="#1b0a3c"/><path d="M-23 -108L-35 -100L-13.8 -76L-6.6 -89Z" fill="#2459FF" class="o" stroke-width="3.5"/><path d="M24 -109L34 -100L13.1 -77L6.6 -87Z" fill="#2459FF" class="o" stroke-width="3.5"/><path id="p39" d="M-25 -113L25 -114L22 -53L-21 -52Z" fill="#2459FF" class="o" stroke-width="3.5"/><clipPath id="c40"><use href="#p39"/></clipPath><rect clip-path="url(#c40)" x="-25" y="-114" width="50" height="62" fill="url(#h19)" mask="url(#m_br)"/><clipPath id="c41"><use href="#p39"/></clipPath><rect clip-path="url(#c41)" x="-25" y="-114" width="50" height="62" fill="url(#h21)" mask="url(#m_tl)"/><path d="M-22 -59L22 -59L23 -52L-22 -53Z" fill="#20329e"/><path id="p42" d="M16.5 -139Q17.9 -135 16.8 -130Q15.7 -126 12.8 -123Q10 -120 4.7 -118Q-0.6 -117 -4.4 -118Q-8.1 -120 -11.5 -123Q-14.9 -125 -16.9 -130Q-18.9 -136 -16.9 -139Q-14.8 -143 -12.2 -147Q-9.6 -151 -5.3 -152Q-1 -152 4.1 -152Q9.1 -151 12.1 -147Q15.2 -143 16.5 -139Z" fill="#C98A5B" class="o" stroke-width="3.5"/><clipPath id="c43"><use href="#p42"/></clipPath><rect clip-path="url(#c43)" x="-18" y="-153" width="36" height="36" fill="url(#h19)" mask="url(#m_br)"/><path d="M-19.2 -137L-15.7 -154L-0.7 -160L14.1 -154L19.6 -138L10.8 -144L-11.7 -145Z" fill="#FFFFFF" class="o" stroke-width="3.5"/></g><path id="p44" d="M-19.4 690L130 691L278 691L426 690L575 689L724 690L875 691L1025 689L1172 691L1320 690L1472 689L1619 690L1619 939L1471 940L1320 941L1174 941L1024 941L874 940L725 941L577 940L427 941L279 939L129 941L-21 939Z" fill="#230f62" class="o" stroke-width="5"/><clipPath id="c45"><use href="#p44"/></clipPath><rect clip-path="url(#c45)" x="-20" y="690" width="1640" height="250" fill="url(#h5)" mask="url(#m_b)"/><g transform="translate(660 850) scale(1 1)"><path d="M-630 -101L-615 -101L-615 -0.2L-629 0.5Z" fill="#8e5d3e" class="o" stroke-width="5"/><path d="M615 -100L629 -99L631 0.1L615 -1.3Z" fill="#8e5d3e" class="o" stroke-width="5"/><path d="M-651 -122L-505 -122L-360 -123L-215 -122L-71 -122L71 -123L217 -121L360 -123L504 -121L649 -121L649 -98L505 -98L362 -99L217 -98L73 -97L-74 -98L-215 -97L-363 -97L-505 -97L-650 -97Z" fill="#c0803f" class="o" stroke-width="5"/></g><path d="M222 730Q226 734 222 739Q219 743 209 746Q198 749 184 750Q170 751 156 750Q142 748 132 745Q122 742 118 739Q115 735 118 731Q122 727 131 724Q141 721 155 720Q169 719 183 720Q198 721 208 724Q218 726 222 730Z" fill="#FFFFFF" class="o" stroke-width="5"/><path d="M196 732Q198 734 196 735Q194 737 189 738Q184 739 177 740Q170 741 163 740Q156 739 151 738Q145 737 144 735Q142 732 144 730Q146 729 150 727Q155 726 163 725Q170 725 177 725Q183 726 189 728Q194 730 196 732Z" fill="#FF7A1A"/><path d="M423 731Q427 735 423 739Q419 743 409 745Q398 748 384 750Q370 751 356 750Q343 748 332 746Q321 744 317 739Q313 735 317 731Q321 727 332 724Q342 721 357 720Q371 718 385 720Q399 721 409 725Q419 728 423 731Z" fill="#FFFFFF" class="o" stroke-width="5"/><path d="M396 731Q398 733 396 735Q394 737 389 738Q384 740 377 740Q370 741 363 741Q356 740 351 738Q346 737 344 735Q342 733 344 731Q346 729 351 727Q356 726 363 726Q370 725 377 726Q384 726 389 727Q394 728 396 731Z" fill="#14C48A"/><path d="M622 732Q625 735 622 739Q618 744 608 746Q598 749 584 750Q570 751 556 750Q541 748 532 746Q522 743 518 739Q515 735 518 730Q522 726 532 724Q542 721 556 720Q570 718 584 720Q598 722 609 725Q619 728 622 732Z" fill="#FFFFFF" class="o" stroke-width="5"/><path d="M596 731Q598 733 596 735Q594 737 589 738Q585 740 577 741Q570 741 563 741Q556 740 551 739Q546 737 544 735Q541 732 544 731Q546 729 551 728Q556 726 563 726Q570 725 577 726Q584 726 589 727Q595 729 596 731Z" fill="#14C48A"/><path d="M823 731Q826 736 822 740Q818 744 808 746Q799 749 785 750Q771 752 756 750Q741 748 732 745Q722 742 718 738Q714 734 718 731Q722 727 732 724Q743 721 756 720Q769 719 784 720Q799 721 809 724Q819 727 823 731Z" fill="#FFFFFF" class="o" stroke-width="5"/><path d="M796 731Q798 733 796 735Q794 737 789 738Q784 740 777 741Q770 741 763 741Q756 740 751 738Q746 737 744 735Q742 733 744 731Q745 729 751 728Q756 726 763 725Q770 725 777 726Q784 727 789 728Q795 730 796 731Z" fill="#FFC619"/><path d="M1022 731Q1026 734 1022 739Q1018 744 1008 747Q998 750 984 750Q970 751 956 750Q942 749 932 746Q921 742 918 739Q914 735 917 731Q921 727 931 724Q942 720 956 720Q970 720 984 720Q998 721 1008 724Q1019 727 1022 731Z" fill="#FFFFFF" class="o" stroke-width="5"/><path d="M996 731Q998 733 996 735Q995 737 989 739Q984 740 977 741Q970 742 963 741Q955 740 951 738Q946 737 944 735Q942 734 944 731Q945 729 951 728Q956 726 963 725Q970 725 977 725Q984 726 989 727Q995 729 996 731Z" fill="#FF7A1A"/><g transform="translate(1450 830) scale(2.4 2.4)"><path d="M-15.5 -61L-1.8 -59L-2.4 -0.4L-15.4 0.2Z" fill="#2B1478" class="o" stroke-width="3.2"/><path d="M2.7 -60L14.5 -59L15.6 0.7L2 -0.4Z" fill="#2B1478" class="o" stroke-width="3.2"/><path d="M-18.1 -8.6L-1.9 -8.7L-0.5 0.3L-18.2 0.4Z" fill="#1b0a3c"/><path d="M1.5 -9.6L18.1 -8.1L18.3 0.5L0.8 -0.1Z" fill="#1b0a3c"/><path d="M-24 -107L-34 -100L-13.6 -76L-6.9 -89Z" fill="#0FA3A3" class="o" stroke-width="3.2"/><path d="M24 -107L33 -100L14.8 -76L5.9 -88Z" fill="#0FA3A3" class="o" stroke-width="3.2"/><path id="p46" d="M-25 -115L26 -115L20 -53L-21 -52Z" fill="#0FA3A3" class="o" stroke-width="3.2"/><clipPath id="c47"><use href="#p46"/></clipPath><rect clip-path="url(#c47)" x="-25" y="-114" width="50" height="62" fill="url(#h48)" mask="url(#m_br)"/><clipPath id="c49"><use href="#p46"/></clipPath><rect clip-path="url(#c49)" x="-25" y="-114" width="50" height="62" fill="url(#h50)" mask="url(#m_tl)"/><path d="M-23 -59L22 -61L21 -53L-23 -53Z" fill="#155670"/><path id="p51" d="M16.7 -139Q18.2 -135 17.4 -130Q16.6 -125 12.7 -122Q8.8 -119 4.4 -117Q0.1 -116 -4 -118Q-8.1 -119 -12 -122Q-15.8 -125 -17.4 -130Q-19 -134 -17.3 -139Q-15.6 -144 -11.8 -148Q-8 -152 -4.4 -152Q-0.7 -153 3.7 -152Q8.1 -150 11.6 -147Q15.1 -144 16.7 -139Z" fill="#F2B27D" class="o" stroke-width="3.2"/><clipPath id="c52"><use href="#p51"/></clipPath><rect clip-path="url(#c52)" x="-18" y="-153" width="36" height="36" fill="url(#h48)" mask="url(#m_br)"/><path d="M-19.3 -139L-15.1 -154L0.7 -160L14.6 -155L18.2 -139L10.5 -144L-10.6 -145Z" fill="#160840" class="o" stroke-width="3.2"/></g><path d="M1301 619L1519 621L1521 633L1299 632Z" fill="#9A8FD8" class="o" stroke-width="5"/><path d="M1389 588Q1391 595 1388 603Q1386 612 1380 618Q1375 623 1368 625Q1360 626 1352 624Q1344 622 1339 617Q1333 611 1332 603Q1331 596 1332 588Q1333 581 1339 576Q1344 571 1352 569Q1360 567 1367 569Q1374 570 1380 576Q1386 582 1389 588Z" fill="#FFFFFF" class="o" stroke-width="5"/><path d="M1478 588Q1479 596 1478 604Q1477 612 1471 617Q1466 623 1458 624Q1451 625 1443 623Q1435 621 1429 616Q1423 611 1422 604Q1421 596 1422 589Q1423 581 1429 576Q1435 570 1443 567Q1451 565 1458 567Q1465 570 1470 575Q1476 580 1478 588Z" fill="#FFFFFF" class="o" stroke-width="5"/><g class="rise" style="--t:4.4s;--dy:-83px;animation-delay:-1.6s"><circle cx="1374" cy="560" r="3.8" fill="#FFFFFF"/></g><g class="rise" style="--t:6.9s;--dy:-106px;animation-delay:-2s"><circle cx="1458" cy="560" r="4.5" fill="#FFFFFF"/></g><g class="rise" style="--t:4.7s;--dy:-98px;animation-delay:-3.8s"><circle cx="1355" cy="560" r="4" fill="#FFFFFF"/></g><g class="rise" style="--t:6.8s;--dy:-99px;animation-delay:-3s"><circle cx="1375" cy="560" r="4.6" fill="#FFFFFF"/></g><g class="rise" style="--t:4.7s;--dy:-77px;animation-delay:-4.4s"><circle cx="1419" cy="560" r="4.4" fill="#FFFFFF"/></g><g class="rise" style="--t:4s;--dy:-70px;animation-delay:-1.4s"><circle cx="1458" cy="560" r="2.4" fill="#FFFFFF"/></g><g class="pulse" style="--t:3s;animation-delay:-0s;transform-origin:560px 230px"><g transform="translate(560 230) scale(0.9 0.9)"><path id="p53" d="M25 -25Q-1.4 -1.5 -26 -26Q-51 -50 -50 -68Q-49 -86 -38 -95Q-26 -104 -13.8 -93Q-1.4 -81 11.2 -93Q24 -105 38 -95Q51 -84 51 -66Q52 -49 25 -25Z" fill="#C8102E" class="o" stroke-width="5.3"/><clipPath id="c54"><use href="#p53"/></clipPath><rect clip-path="url(#c54)" x="-50" y="-105" width="100" height="105" fill="url(#h55)" mask="url(#m_br)"/><clipPath id="c56"><use href="#p53"/></clipPath><rect clip-path="url(#c56)" x="-50" y="-105" width="100" height="105" fill="url(#h57)" mask="url(#m_tl)"/></g></g><rect width="1600" height="900" fill="url(#v58)"/></g></svg>