<svg xmlns="http://www.w3.org/2000/svg" viewBox="0 0 1600 900" role="img"><title>A public library</title><desc>A library interior with tall shelves full of colourful books, a reading table with a glowing lamp, and a visitor reading in front of a big arched window onto the night sky.</desc><defs><style>.o{stroke:#1b0a3c;stroke-linejoin:round;stroke-linecap:round}@keyframes spin{to{transform:rotate(360deg)}}@keyframes spinr{to{transform:rotate(-360deg)}}@keyframes tw{0%,100%{opacity:.3}50%{opacity:1}}@keyframes pu{0%,100%{transform:scale(1)}50%{transform:scale(1.07)}}@keyframes bob{0%,100%{transform:translateY(0)}50%{transform:translateY(-9px)}}@keyframes sw{0%,100%{transform:rotate(-2.5deg)}50%{transform:rotate(2.5deg)}}@keyframes dr{0%{transform:translateX(-50px)}100%{transform:translateX(70px)}}@keyframes fl{0%,100%{transform:skewY(-4deg) scaleX(1)}50%{transform:skewY(4deg) scaleX(.96)}}@keyframes fk{0%,100%{transform:scale(1,1)}50%{transform:scale(.94,1.1)}}@keyframes wv{to{transform:translateX(calc(var(--dx) * -1))}}@keyframes wvr{from{transform:translateX(calc(var(--dx) * -1))}to{transform:none}}@keyframes ri{0%{transform:translateY(0);opacity:0}15%{opacity:1}100%{transform:translateY(var(--dy));opacity:0}}@keyframes dp{0%{transform:translateY(-70px);opacity:0}25%,70%{opacity:1}100%{transform:translateY(40px);opacity:0}}@keyframes fa{0%{transform:translate(0,-60px);opacity:0}20%{opacity:1}100%{transform:translate(60px,520px);opacity:0}}@keyframes kb{0%{transform:scale(1)}100%{transform:scale(1.045)}}@keyframes zg{0%,100%{transform:translateX(-26px)}50%{transform:translateX(26px)}}@keyframes fy{0%{transform:translateX(-300px)}100%{transform:translateX(300px)}}@keyframes bm{0%,100%{opacity:.35}50%{opacity:.8}}.spin{animation:spin var(--t,60s) linear infinite}.spinr{animation:spinr var(--t,60s) linear infinite}.tw{animation:tw var(--t,3s) ease-in-out infinite}.pulse{animation:pu var(--t,5s) ease-in-out infinite}.bob{animation:bob var(--t,5s) ease-in-out infinite}.sway{animation:sw var(--t,6s) ease-in-out infinite}.drift{animation:dr var(--t,40s) ease-in-out infinite alternate}.flag{animation:fl var(--t,3.5s) ease-in-out infinite}.flick{animation:fk var(--t,2.4s) ease-in-out infinite}.wv{animation:wv var(--t,9s) linear infinite}.wvr{animation:wvr var(--t,11s) linear infinite}.rise{animation:ri var(--t,4s) ease-out infinite}.drop{animation:dp var(--t,4s) ease-in-out infinite}.fall{animation:fa var(--t,7s) linear infinite}.kb{animation:kb 24s ease-in-out infinite alternate;transform-origin:800px 450px}.zig{animation:zg var(--t,8s) ease-in-out infinite}.fly{animation:fy var(--t,14s) ease-in-out infinite alternate}.beam{animation:bm var(--t,6s) ease-in-out infinite}@media (prefers-reduced-motion:reduce){*{animation:none!important}}</style><linearGradient id="s1" gradientTransform="rotate(90 .5 .5)"><stop offset="0" stop-color="#0c0426"/><stop offset="0.6" stop-color="#2B1478"/><stop offset="1" stop-color="#4a22b8"/></linearGradient><pattern id="h2" width="22" height="22" patternUnits="userSpaceOnUse" patternTransform="rotate(28)"><circle cx="11.0" cy="11.0" r="5.720000000000001" fill="#fff" fill-opacity="0.35"/></pattern><mask id="m_t" maskContentUnits="objectBoundingBox" x="0" y="0" width="1" height="1"><linearGradient id="g_t" x1="0" y1="1" x2="0" y2="0"><stop offset=".25" stop-color="#000"/><stop offset="1" stop-color="#fff"/></linearGradient><rect width="1" height="1" fill="url(#g_t)"/></mask><pattern id="h5" width="15" height="15" patternUnits="userSpaceOnUse" patternTransform="rotate(28)"><circle cx="7.5" cy="7.5" r="3.6" fill="#1b0a3c" fill-opacity="0.34"/></pattern><mask id="m_br" maskContentUnits="objectBoundingBox" x="0" y="0" width="1" height="1"><linearGradient id="g_br" x1="0" y1="0" x2="1" y2="1"><stop offset=".25" stop-color="#000"/><stop offset="1" stop-color="#fff"/></linearGradient><rect width="1" height="1" fill="url(#g_br)"/></mask><pattern id="h14" width="15" height="15" patternUnits="userSpaceOnUse" patternTransform="rotate(28)"><circle cx="7.5" cy="7.5" r="3.6" fill="#ffffff" fill-opacity="0.5"/></pattern><mask id="m_tl" maskContentUnits="objectBoundingBox" x="0" y="0" width="1" height="1"><linearGradient id="g_tl" x1="1" y1="1" x2="0" y2="0"><stop offset=".25" stop-color="#000"/><stop offset="1" stop-color="#fff"/></linearGradient><rect width="1" height="1" fill="url(#g_tl)"/></mask><radialGradient id="gl15"><stop offset="0" stop-color="#FFC619" stop-opacity="0.5"/><stop offset="1" stop-color="#FFC619" stop-opacity="0"/></radialGradient><mask id="m_b" maskContentUnits="objectBoundingBox" x="0" y="0" width="1" height="1"><linearGradient id="g_b" x1="0" y1="0" x2="0" y2="1"><stop offset=".25" stop-color="#000"/><stop offset="1" stop-color="#fff"/></linearGradient><rect width="1" height="1" fill="url(#g_b)"/></mask><pattern id="h20" width="13" height="13" patternUnits="userSpaceOnUse" patternTransform="rotate(28)"><circle cx="6.5" cy="6.5" r="3.1" fill="#1b0a3c" fill-opacity="0.34"/></pattern><pattern id="h22" width="13" height="13" patternUnits="userSpaceOnUse" patternTransform="rotate(28)"><circle cx="6.5" cy="6.5" r="3.1" fill="#ffffff" fill-opacity="0.5"/></pattern><pattern id="h25" width="9" height="9" patternUnits="userSpaceOnUse" patternTransform="rotate(28)"><circle cx="4.5" cy="4.5" r="2.2" fill="#1b0a3c" fill-opacity="0.34"/></pattern><pattern id="h27" width="9" height="9" patternUnits="userSpaceOnUse" patternTransform="rotate(28)"><circle cx="4.5" cy="4.5" r="2.2" fill="#ffffff" fill-opacity="0.5"/></pattern><pattern id="h39" width="12" height="12" patternUnits="userSpaceOnUse" patternTransform="rotate(28)"><circle cx="6" cy="6" r="2.9" fill="#ffffff" fill-opacity="0.5"/></pattern><radialGradient id="gl40"><stop offset="0" stop-color="#FFC619" stop-opacity="0.5"/><stop offset="1" stop-color="#FFC619" stop-opacity="0"/></radialGradient><radialGradient id="v41" cx=".5" cy=".5" r=".75"><stop offset=".55" stop-color="#1b0a3c" stop-opacity="0"/><stop offset="1" stop-color="#1b0a3c" stop-opacity="0.5"/></radialGradient></defs><g class="kb"><rect x="0" y="0" width="1600" height="900" fill="url(#s1)"/><path d="M0.3 -0.8L146 -1.4L291 0.5L435 -0.8L581 -1.3L726 0.6L872 0.1L1018 -1.1L1164 1.2L1308 -0.5L1454 -1L1600 0.4L1601 149L1600 299L1601 451L1600 599L1601 750L1601 901L1455 901L1308 899L1164 901L1018 900L873 900L727 901L583 901L437 900L290 901L146 899L-1.3 901L-1.4 749L-0.8 600L1.3 451L-1.4 300L1 151Z" fill="#391174" class="o" stroke-width="5"/><rect x="0" y="0" width="1600" height="900" fill="url(#h2)" mask="url(#m_t)"/><path id="p3" d="M519 89L667 90L814 90L960 91L961 231L961 371L961 510L961 650L814 651L666 649L520 651L520 510L521 369L521 230Z" fill="#2B1478" class="o" stroke-width="5"/><clipPath id="c4"><use href="#p3"/></clipPath><rect clip-path="url(#c4)" x="520" y="90" width="440" height="560" fill="url(#h5)" mask="url(#m_br)"/><path d="M540 109L741 110L941 111L939 283L939 456L941 631L741 631L540 631L539 456L540 283Z" fill="#2a1a7a" class="o" stroke-width="5"/><g class="tw" style="--t:3.2s;animation-delay:-0s"><path d="M890 585L892 591L898 593L892 595L890 602L888 595L882 593L888 591Z" fill="#FFC619"/><path d="M559 300L561 306L568 308L561 310L559 317L557 310L550 308L557 306Z" fill="#FFFFFF"/><path d="M826 472L828 480L836 482L828 484L826 492L823 484L815 482L823 480Z" fill="#FFFFFF"/><path d="M862 288L864 294L870 296L864 298L862 304L860 298L854 296L860 294Z" fill="#FFC619"/><path d="M767 417L770 426L778 428L770 431L767 439L765 431L757 428L765 426Z" fill="#FFFFFF"/><circle cx="926" cy="365" r="2.5" fill="#FFC619"/><circle cx="580" cy="583" r="1.8" fill="#13D6F2"/><circle cx="834" cy="491" r="2.3" fill="#FFFFFF"/><circle cx="689" cy="413" r="1.7" fill="#FFC619"/><circle cx="677" cy="494" r="1.4" fill="#FF6FB5"/></g><g class="tw" style="--t:4.1s;animation-delay:-1.3s"><circle cx="786" cy="279" r="2.4" fill="#FF6FB5"/><circle cx="799" cy="398" r="2.1" fill="#FF6FB5"/><circle cx="568" cy="227" r="1.4" fill="#FFFFFF"/><path d="M821 256L823 264L831 267L823 269L821 277L819 269L811 267L819 264Z" fill="#FF6FB5"/><path d="M609 364L611 372L619 374L611 376L609 384L607 376L599 374L607 372Z" fill="#FFFFFF"/><circle cx="883" cy="148" r="2.4" fill="#FFFFFF"/><circle cx="699" cy="447" r="2.6" fill="#13D6F2"/><path d="M683 483L685 490L693 492L685 495L683 502L681 495L673 492L681 490Z" fill="#13D6F2"/><path d="M733 488L735 495L742 497L735 499L733 507L731 499L724 497L731 495Z" fill="#13D6F2"/><path d="M689 376L691 385L700 387L691 389L689 398L687 389L678 387L687 385Z" fill="#FFFFFF"/></g><g class="tw" style="--t:5s;animation-delay:-2.6s"><path d="M856 515L858 523L867 526L858 528L856 537L853 528L845 526L853 523Z" fill="#FF6FB5"/><path d="M596 290L598 297L606 299L598 301L596 309L594 301L587 299L594 297Z" fill="#13D6F2"/><circle cx="593" cy="217" r="2.2" fill="#FFC619"/><circle cx="651" cy="396" r="1.6" fill="#FF6FB5"/><path d="M731 244L733 251L741 253L733 255L731 263L729 255L722 253L729 251Z" fill="#FFFFFF"/><path d="M915 375L917 382L924 384L917 386L915 393L913 386L907 384L913 382Z" fill="#FF6FB5"/><path d="M910 546L912 553L919 555L912 557L910 564L908 557L901 555L908 553Z" fill="#FF6FB5"/><path d="M612 401L614 410L623 412L614 415L612 424L610 415L601 412L610 410Z" fill="#FFC619"/><path d="M787 535L790 544L798 546L790 548L787 557L785 548L777 546L785 544Z" fill="#FF6FB5"/><path d="M652 196L653 202L659 203L653 205L652 211L650 205L644 203L650 202Z" fill="#FFC619"/></g><path id="p6" d="M872 217Q877 230 871 243Q866 256 856 267Q846 279 832 282Q818 285 805 283Q792 280 781 270Q770 259 766 244Q763 229 766 216Q770 204 781 192Q793 180 808 176Q822 172 836 177Q850 182 858 193Q867 204 872 217Z" fill="#FFF0D0" class="o" stroke-width="5"/><clipPath id="c7"><use href="#p6"/></clipPath><rect clip-path="url(#c7)" x="764" y="174" width="112" height="112" fill="url(#h5)" mask="url(#m_br)"/><path d="M812 217Q813 219 812 221Q812 224 810 226Q808 228 805 229Q803 229 801 229Q799 228 797 226Q794 224 794 221Q793 219 793 216Q794 213 796 212Q797 210 801 209Q804 208 806 209Q808 210 810 212Q812 214 812 217Z" fill="#ddceba"/><path d="M853 243Q855 246 853 250Q851 254 849 257Q846 260 843 260Q839 261 835 260Q831 260 829 257Q827 254 826 250Q824 246 826 243Q828 239 830 237Q832 235 835 234Q839 233 843 234Q847 235 850 237Q852 239 853 243Z" fill="#ddceba"/><g class="spin" style="--t:120s;animation-delay:-0s;transform-origin:740px 330px"><path d="M740 330L2440 330L2397 708ZM740 330L2272 1068L2069 1390ZM740 330L1800 1659L1478 1862ZM740 330L1118 1987L740 2030ZM740 330L362 1987L2.4 1862ZM740 330L-320 1659L-589 1390ZM740 330L-792 1068L-917 708ZM740 330L-960 330L-917 -48ZM740 330L-792 -408L-589 -730ZM740 330L-320 -999L2.4 -1202ZM740 330L362 -1327L740 -1370ZM740 330L1118 -1327L1478 -1202ZM740 330L1800 -999L2069 -730ZM740 330L2272 -408L2397 -48Z" fill="#fff" opacity="0.1"/></g><path d="M520 90L667 90L813 91L959 91L960 110L814 109L666 109L519 109Z" fill="#9A8FD8" class="o" stroke-width="5"/><path d="M521 629L666 630L814 630L959 630L961 649L813 651L668 650L520 651Z" fill="#9A8FD8" class="o" stroke-width="5"/><path d="M731 90L749 91L749 231L749 370L751 511L750 650L730 651L731 510L730 371L731 231Z" fill="#9A8FD8" class="o" stroke-width="5"/><g transform="translate(1210 700) scale(1 1)"><path id="p8" d="M-180 -559L-0.6 -560L179 -559L180 -419L179 -279L180 -141L180 0.2L-1.5 -0.1L-181 -1.1L-181 -141L-180 -281L-181 -421Z" fill="#8a5a2b" class="o" stroke-width="5"/><clipPath id="c9"><use href="#p8"/></clipPath><rect clip-path="url(#c9)" x="-180" y="-560" width="360" height="560" fill="url(#h5)" mask="url(#m_br)"/><path d="M-171 -552L1.4 -552L169 -552L170 -454L0.1 -454L-170 -454Z" fill="#583633"/><path d="M-165 -541L-153 -540L-152 -454L-166 -454Z" fill="#C8102E" class="o" stroke-width="2.5"/><path d="M-150 -528L-130 -528L-130 -454L-151 -453Z" fill="#13D6F2" class="o" stroke-width="2.5"/><path d="M-126 -541L-111 -541L-110 -455L-127 -454Z" fill="#FFC619" class="o" stroke-width="2.5"/><path d="M-109 -529L-86 -530L-87 -454L-110 -453Z" fill="#14C48A" class="o" stroke-width="2.5"/><path d="M-83 -539L-67 -540L-65 -454L-84 -453Z" fill="#F2118C" class="o" stroke-width="2.5"/><path d="M-64 -530L-40 -530L-39 -455L-63 -453Z" fill="#FF7A1A" class="o" stroke-width="2.5"/><path d="M-37 -539L-16 -539L-16.9 -454L-38 -455Z" fill="#2459FF" class="o" stroke-width="2.5"/><path d="M-15.9 -530L0.3 -529L0.8 -455L-14.7 -454Z" fill="#7A22D6" class="o" stroke-width="2.5"/><path d="M1.7 -541L23 -541L25 -453L1.1 -453Z" fill="#C8102E" class="o" stroke-width="2.5"/><path d="M26 -530L42 -528L44 -455L26 -454Z" fill="#13D6F2" class="o" stroke-width="2.5"/><path d="M46 -541L70 -539L68 -455L44 -453Z" fill="#FFC619" class="o" stroke-width="2.5"/><path d="M71 -528L90 -528L91 -453L70 -453Z" fill="#14C48A" class="o" stroke-width="2.5"/><path d="M92 -541L107 -541L107 -453L93 -454Z" fill="#F2118C" class="o" stroke-width="2.5"/><path d="M108 -529L129 -530L128 -453L107 -455Z" fill="#FF7A1A" class="o" stroke-width="2.5"/><path d="M132 -540L148 -539L148 -455L132 -453Z" fill="#2459FF" class="o" stroke-width="2.5"/><path d="M149 -530L171 -528L173 -454L148 -455Z" fill="#7A22D6" class="o" stroke-width="2.5"/><path d="M-169 -439L1 -441L169 -439L171 -342L1 -343L-169 -341Z" fill="#583633"/><path d="M-166 -429L-153 -429L-151 -342L-167 -341Z" fill="#14C48A" class="o" stroke-width="2.5"/><path d="M-150 -416L-130 -416L-130 -342L-151 -341Z" fill="#F2118C" class="o" stroke-width="2.5"/><path d="M-127 -428L-111 -427L-110 -343L-128 -342Z" fill="#FF7A1A" class="o" stroke-width="2.5"/><path d="M-110 -416L-87 -417L-87 -342L-110 -342Z" fill="#2459FF" class="o" stroke-width="2.5"/><path d="M-85 -428L-67 -428L-66 -341L-85 -341Z" fill="#7A22D6" class="o" stroke-width="2.5"/><path d="M-65 -416L-38 -418L-38 -341L-64 -342Z" fill="#C8102E" class="o" stroke-width="2.5"/><path d="M-37 -427L-18 -429L-16 -343L-37 -342Z" fill="#13D6F2" class="o" stroke-width="2.5"/><path d="M-14.6 -416L-1.2 -418L-1.5 -341L-16.3 -343Z" fill="#FFC619" class="o" stroke-width="2.5"/><path d="M2.7 -428L23 -428L23 -343L1.1 -341Z" fill="#14C48A" class="o" stroke-width="2.5"/><path d="M25 -416L44 -416L43 -342L25 -342Z" fill="#F2118C" class="o" stroke-width="2.5"/><path d="M45 -429L70 -428L70 -341L46 -342Z" fill="#FF7A1A" class="o" stroke-width="2.5"/><path d="M70 -418L91 -418L90 -343L71 -342Z" fill="#2459FF" class="o" stroke-width="2.5"/><path d="M92 -429L107 -428L107 -343L91 -342Z" fill="#7A22D6" class="o" stroke-width="2.5"/><path d="M107 -417L129 -417L129 -342L108 -343Z" fill="#C8102E" class="o" stroke-width="2.5"/><path d="M130 -429L147 -428L146 -342L132 -343Z" fill="#13D6F2" class="o" stroke-width="2.5"/><path d="M150 -417L172 -417L171 -342L148 -343Z" fill="#FFC619" class="o" stroke-width="2.5"/><path d="M-169 -329L1.3 -328L170 -329L169 -229L0.2 -229L-169 -229Z" fill="#583633"/><path d="M-167 -315L-152 -315L-153 -230L-166 -231Z" fill="#2459FF" class="o" stroke-width="2.5"/><path d="M-151 -306L-128 -304L-130 -230L-149 -229Z" fill="#7A22D6" class="o" stroke-width="2.5"/><path d="M-126 -316L-110 -315L-111 -229L-126 -229Z" fill="#C8102E" class="o" stroke-width="2.5"/><path d="M-109 -304L-85 -304L-86 -229L-108 -230Z" fill="#13D6F2" class="o" stroke-width="2.5"/><path d="M-84 -315L-67 -317L-67 -230L-84 -231Z" fill="#FFC619" class="o" stroke-width="2.5"/><path d="M-64 -304L-38 -304L-40 -231L-64 -230Z" fill="#14C48A" class="o" stroke-width="2.5"/><path d="M-37 -315L-15.7 -315L-15.9 -230L-36 -231Z" fill="#F2118C" class="o" stroke-width="2.5"/><path d="M-15.8 -306L-0 -306L1.3 -231L-16.2 -229Z" fill="#FF7A1A" class="o" stroke-width="2.5"/><path d="M1.6 -315L24 -315L24 -230L2.4 -230Z" fill="#2459FF" class="o" stroke-width="2.5"/><path d="M27 -306L42 -306L43 -231L27 -229Z" fill="#7A22D6" class="o" stroke-width="2.5"/><path d="M45 -317L70 -316L68 -231L46 -229Z" fill="#C8102E" class="o" stroke-width="2.5"/><path d="M71 -306L91 -306L90 -231L71 -231Z" fill="#13D6F2" class="o" stroke-width="2.5"/><path d="M93 -316L105 -317L107 -231L92 -230Z" fill="#FFC619" class="o" stroke-width="2.5"/><path d="M107 -306L129 -304L129 -230L109 -229Z" fill="#14C48A" class="o" stroke-width="2.5"/><path d="M130 -316L148 -316L148 -229L130 -229Z" fill="#F2118C" class="o" stroke-width="2.5"/><path d="M150 -304L173 -305L172 -231L149 -230Z" fill="#FF7A1A" class="o" stroke-width="2.5"/><path d="M-169 -217L0.9 -215L169 -217L169 -119L0 -117L-169 -117Z" fill="#583633"/><path d="M-167 -203L-152 -203L-151 -118L-165 -119Z" fill="#13D6F2" class="o" stroke-width="2.5"/><path d="M-149 -194L-128 -192L-128 -118L-150 -119Z" fill="#FFC619" class="o" stroke-width="2.5"/><path d="M-126 -204L-112 -205L-110 -118L-128 -117Z" fill="#14C48A" class="o" stroke-width="2.5"/><path d="M-109 -194L-86 -192L-85 -118L-108 -119Z" fill="#F2118C" class="o" stroke-width="2.5"/><path d="M-84 -204L-67 -204L-65 -118L-85 -119Z" fill="#FF7A1A" class="o" stroke-width="2.5"/><path d="M-65 -193L-39 -194L-38 -118L-63 -117Z" fill="#2459FF" class="o" stroke-width="2.5"/><path d="M-37 -205L-18.2 -203L-17.1 -119L-38 -119Z" fill="#7A22D6" class="o" stroke-width="2.5"/><path d="M-14.5 -192L-1.2 -193L-1.5 -118L-15.3 -117Z" fill="#C8102E" class="o" stroke-width="2.5"/><path d="M0.8 -203L25 -203L24 -119L3.3 -119Z" fill="#13D6F2" class="o" stroke-width="2.5"/><path d="M26 -193L44 -192L42 -118L26 -119Z" fill="#FFC619" class="o" stroke-width="2.5"/><path d="M46 -204L69 -203L68 -118L44 -119Z" fill="#14C48A" class="o" stroke-width="2.5"/><path d="M70 -192L91 -192L91 -118L70 -119Z" fill="#F2118C" class="o" stroke-width="2.5"/><path d="M93 -205L107 -205L106 -118L93 -118Z" fill="#FF7A1A" class="o" stroke-width="2.5"/><path d="M107 -193L128 -193L130 -118L108 -118Z" fill="#2459FF" class="o" stroke-width="2.5"/><path d="M131 -204L146 -204L148 -119L131 -117Z" fill="#7A22D6" class="o" stroke-width="2.5"/><path d="M148 -194L173 -194L173 -117L150 -117Z" fill="#C8102E" class="o" stroke-width="2.5"/><path d="M-169 -105L-0.3 -103L169 -105L170 -6.4L-0.2 -7L-171 -6.3Z" fill="#583633"/><path d="M-165 -92L-151 -91L-151 -7.3L-165 -7.4Z" fill="#F2118C" class="o" stroke-width="2.5"/><path d="M-150 -80L-129 -81L-128 -4.5L-149 -6.1Z" fill="#FF7A1A" class="o" stroke-width="2.5"/><path d="M-128 -91L-110 -91L-112 -5.2L-128 -4.6Z" fill="#2459FF" class="o" stroke-width="2.5"/><path d="M-109 -81L-87 -81L-87 -7.3L-110 -6.3Z" fill="#7A22D6" class="o" stroke-width="2.5"/><path d="M-84 -93L-66 -91L-66 -5.8L-84 -6.2Z" fill="#C8102E" class="o" stroke-width="2.5"/><path d="M-63 -82L-39 -82L-38 -6L-63 -7Z" fill="#13D6F2" class="o" stroke-width="2.5"/><path d="M-37 -91L-15.6 -91L-16.6 -5.9L-36 -5.6Z" fill="#FFC619" class="o" stroke-width="2.5"/><path d="M-14.6 -82L-0.3 -81L-0.6 -7L-14.6 -4.8Z" fill="#14C48A" class="o" stroke-width="2.5"/><path d="M1.9 -92L25 -91L23 -5.4L1.5 -6.1Z" fill="#F2118C" class="o" stroke-width="2.5"/><path d="M27 -80L42 -81L43 -5L25 -5.7Z" fill="#FF7A1A" class="o" stroke-width="2.5"/><path d="M46 -93L68 -91L68 -7L45 -4.7Z" fill="#2459FF" class="o" stroke-width="2.5"/><path d="M70 -82L91 -82L89 -7.3L70 -6.7Z" fill="#7A22D6" class="o" stroke-width="2.5"/><path d="M91 -92L106 -92L107 -5.5L91 -6.6Z" fill="#C8102E" class="o" stroke-width="2.5"/><path d="M107 -82L129 -81L130 -6.7L108 -5.8Z" fill="#13D6F2" class="o" stroke-width="2.5"/><path d="M132 -92L147 -91L146 -5.2L132 -6.1Z" fill="#FFC619" class="o" stroke-width="2.5"/><path d="M150 -81L173 -81L171 -5L148 -7Z" fill="#14C48A" class="o" stroke-width="2.5"/></g><g transform="translate(180 700) scale(1 1)"><path id="p10" d="M-149 -559L-0 -561L151 -561L151 -419L151 -280L150 -139L151 -0.5L-0.7 0.8L-149 -0.1L-151 -141L-151 -279L-150 -420Z" fill="#8a5a2b" class="o" stroke-width="5"/><clipPath id="c11"><use href="#p10"/></clipPath><rect clip-path="url(#c11)" x="-150" y="-560" width="300" height="560" fill="url(#h5)" mask="url(#m_br)"/><path d="M-141 -553L-0.9 -553L139 -551L139 -454L0.5 -455L-140 -455Z" fill="#583633"/><path d="M-135 -539L-122 -539L-121 -455L-135 -455Z" fill="#C8102E" class="o" stroke-width="2.5"/><path d="M-120 -528L-99 -530L-98 -454L-120 -453Z" fill="#13D6F2" class="o" stroke-width="2.5"/><path d="M-98 -539L-81 -540L-82 -454L-98 -455Z" fill="#FFC619" class="o" stroke-width="2.5"/><path d="M-78 -529L-57 -529L-57 -454L-79 -453Z" fill="#14C48A" class="o" stroke-width="2.5"/><path d="M-55 -541L-37 -540L-35 -455L-54 -454Z" fill="#F2118C" class="o" stroke-width="2.5"/><path d="M-33 -529L-9.7 -530L-7.8 -453L-33 -455Z" fill="#FF7A1A" class="o" stroke-width="2.5"/><path d="M-6.6 -541L11.7 -540L12.7 -453L-6.9 -453Z" fill="#2459FF" class="o" stroke-width="2.5"/><path d="M14.5 -530L30 -528L30 -453L14.7 -453Z" fill="#7A22D6" class="o" stroke-width="2.5"/><path d="M33 -540L54 -540L54 -455L33 -455Z" fill="#C8102E" class="o" stroke-width="2.5"/><path d="M56 -529L74 -528L73 -455L56 -455Z" fill="#13D6F2" class="o" stroke-width="2.5"/><path d="M75 -540L98 -540L98 -455L76 -454Z" fill="#FFC619" class="o" stroke-width="2.5"/><path d="M102 -530L121 -528L121 -455L100 -453Z" fill="#14C48A" class="o" stroke-width="2.5"/><path d="M-141 -440L0.3 -441L139 -440L140 -342L1.4 -343L-139 -341Z" fill="#583633"/><path d="M-135 -429L-123 -427L-122 -342L-135 -341Z" fill="#14C48A" class="o" stroke-width="2.5"/><path d="M-119 -416L-99 -418L-100 -341L-119 -341Z" fill="#F2118C" class="o" stroke-width="2.5"/><path d="M-97 -429L-82 -428L-81 -341L-97 -342Z" fill="#FF7A1A" class="o" stroke-width="2.5"/><path d="M-79 -416L-55 -417L-55 -341L-79 -341Z" fill="#2459FF" class="o" stroke-width="2.5"/><path d="M-55 -427L-37 -427L-35 -342L-54 -342Z" fill="#7A22D6" class="o" stroke-width="2.5"/><path d="M-34 -417L-7.9 -418L-9.5 -342L-35 -343Z" fill="#C8102E" class="o" stroke-width="2.5"/><path d="M-6.8 -428L11.7 -428L13.7 -342L-6.9 -342Z" fill="#13D6F2" class="o" stroke-width="2.5"/><path d="M14.9 -418L29 -417L29 -342L14.5 -341Z" fill="#FFC619" class="o" stroke-width="2.5"/><path d="M33 -428L55 -428L53 -342L33 -342Z" fill="#14C48A" class="o" stroke-width="2.5"/><path d="M56 -417L73 -418L72 -343L57 -343Z" fill="#F2118C" class="o" stroke-width="2.5"/><path d="M75 -427L99 -428L100 -341L76 -341Z" fill="#FF7A1A" class="o" stroke-width="2.5"/><path d="M100 -417L121 -418L121 -343L102 -342Z" fill="#2459FF" class="o" stroke-width="2.5"/><path d="M-140 -329L-1 -328L141 -328L139 -229L0.6 -231L-141 -229Z" fill="#583633"/><path d="M-135 -316L-123 -316L-122 -230L-136 -229Z" fill="#2459FF" class="o" stroke-width="2.5"/><path d="M-121 -306L-98 -306L-98 -230L-121 -229Z" fill="#7A22D6" class="o" stroke-width="2.5"/><path d="M-97 -316L-81 -315L-82 -230L-96 -231Z" fill="#C8102E" class="o" stroke-width="2.5"/><path d="M-80 -306L-55 -305L-57 -229L-80 -231Z" fill="#13D6F2" class="o" stroke-width="2.5"/><path d="M-55 -315L-35 -317L-35 -229L-55 -231Z" fill="#FFC619" class="o" stroke-width="2.5"/><path d="M-35 -306L-8.7 -304L-8.9 -231L-34 -229Z" fill="#14C48A" class="o" stroke-width="2.5"/><path d="M-7.9 -317L12.5 -315L13.9 -229L-6.2 -230Z" fill="#F2118C" class="o" stroke-width="2.5"/><path d="M16.5 -304L30 -305L31 -230L14.2 -229Z" fill="#FF7A1A" class="o" stroke-width="2.5"/><path d="M32 -315L53 -317L55 -230L31 -229Z" fill="#2459FF" class="o" stroke-width="2.5"/><path d="M55 -305L73 -305L74 -230L57 -231Z" fill="#7A22D6" class="o" stroke-width="2.5"/><path d="M76 -317L100 -317L99 -231L74 -230Z" fill="#C8102E" class="o" stroke-width="2.5"/><path d="M101 -306L119 -305L120 -230L101 -231Z" fill="#13D6F2" class="o" stroke-width="2.5"/><path d="M-140 -217L-0.3 -215L140 -217L140 -117L-1.1 -119L-139 -117Z" fill="#583633"/><path d="M-137 -205L-123 -203L-121 -117L-135 -119Z" fill="#13D6F2" class="o" stroke-width="2.5"/><path d="M-119 -194L-100 -193L-98 -119L-121 -118Z" fill="#FFC619" class="o" stroke-width="2.5"/><path d="M-96 -203L-81 -205L-80 -117L-98 -117Z" fill="#14C48A" class="o" stroke-width="2.5"/><path d="M-78 -192L-55 -192L-55 -117L-80 -118Z" fill="#F2118C" class="o" stroke-width="2.5"/><path d="M-53 -203L-37 -204L-36 -117L-54 -119Z" fill="#FF7A1A" class="o" stroke-width="2.5"/><path d="M-35 -192L-9.1 -193L-7.9 -118L-33 -118Z" fill="#2459FF" class="o" stroke-width="2.5"/><path d="M-8.1 -205L12.4 -204L13.6 -117L-7.7 -119Z" fill="#7A22D6" class="o" stroke-width="2.5"/><path d="M16.4 -194L29 -193L31 -118L13.6 -117Z" fill="#C8102E" class="o" stroke-width="2.5"/><path d="M33 -205L55 -205L55 -117L33 -118Z" fill="#13D6F2" class="o" stroke-width="2.5"/><path d="M55 -193L72 -192L74 -118L56 -117Z" fill="#FFC619" class="o" stroke-width="2.5"/><path d="M74 -204L98 -203L99 -119L75 -119Z" fill="#14C48A" class="o" stroke-width="2.5"/><path d="M101 -193L120 -192L121 -118L101 -119Z" fill="#F2118C" class="o" stroke-width="2.5"/><path d="M-140 -103L-0.9 -103L140 -104L139 -4.5L-0.5 -7.5L-140 -7.2Z" fill="#583633"/><path d="M-137 -93L-121 -93L-121 -4.6L-137 -6.4Z" fill="#F2118C" class="o" stroke-width="2.5"/><path d="M-121 -80L-98 -82L-98 -7L-121 -5Z" fill="#FF7A1A" class="o" stroke-width="2.5"/><path d="M-96 -91L-82 -91L-82 -6.2L-98 -7.3Z" fill="#2459FF" class="o" stroke-width="2.5"/><path d="M-79 -80L-56 -80L-57 -5.8L-79 -6.6Z" fill="#7A22D6" class="o" stroke-width="2.5"/><path d="M-53 -91L-37 -93L-36 -6.4L-53 -7.4Z" fill="#C8102E" class="o" stroke-width="2.5"/><path d="M-35 -81L-9.1 -80L-9.4 -6.7L-33 -6.7Z" fill="#13D6F2" class="o" stroke-width="2.5"/><path d="M-5.5 -93L12 -93L11.5 -7.5L-7.8 -6.3Z" fill="#FFC619" class="o" stroke-width="2.5"/><path d="M15 -80L31 -81L30 -6.7L14.2 -6.8Z" fill="#14C48A" class="o" stroke-width="2.5"/><path d="M31 -92L55 -91L53 -5.6L32 -5.7Z" fill="#F2118C" class="o" stroke-width="2.5"/><path d="M57 -82L72 -81L72 -6.3L56 -5.7Z" fill="#FF7A1A" class="o" stroke-width="2.5"/><path d="M75 -93L100 -92L98 -5.6L76 -5.3Z" fill="#2459FF" class="o" stroke-width="2.5"/><path d="M100 -81L120 -80L121 -7.2L102 -5.4Z" fill="#7A22D6" class="o" stroke-width="2.5"/></g><g class="pulse" style="--t:8s;animation-delay:-0s;transform-origin:740px 540px"><path id="p12" d="M996 540L885 579L942 657L849 648L868 763L775 666L741 775L703 680L615 756L636 642L540 654L602 578L495 541L611 506L522 415L642 442L628 344L700 394L741 289L778 401L868 316L847 432L937 426L871 504Z" fill="#FFC619" class="o" stroke-width="5"/><clipPath id="c13"><use href="#p12"/></clipPath><rect clip-path="url(#c13)" x="495" y="289" width="500" height="486" fill="url(#h14)" mask="url(#m_tl)"/></g><g class="pulse" style="--t:5s;animation-delay:-0s;transform-origin:740px 560px"><circle cx="740" cy="560" r="300" fill="url(#gl15)"/></g><path id="p16" d="M-20 719L130 720L278 721L426 720L577 720L727 719L875 720L1025 719L1172 721L1321 721L1471 721L1620 721L1619 959L1471 960L1323 959L1172 960L1025 961L873 959L726 959L576 960L427 959L278 960L130 961L-19.6 961Z" fill="#200e5c" class="o" stroke-width="5"/><clipPath id="c17"><use href="#p16"/></clipPath><rect clip-path="url(#c17)" x="-20" y="720" width="1640" height="240" fill="url(#h5)" mask="url(#m_b)"/><g transform="translate(740 830) scale(1.2 1.2)"><path d="M-330 -96L-314 -96L-315 0.8L-329 -1.2Z" fill="#8e5d3e" class="o" stroke-width="4.5"/><path d="M314 -94L330 -96L330 -1.2L315 -0.3Z" fill="#8e5d3e" class="o" stroke-width="4.5"/><path id="p18" d="M-349 -116L-209 -116L-71 -117L71 -116L211 -116L350 -116L349 -93L211 -94L69 -92L-71 -93L-210 -92L-350 -92Z" fill="#c0803f" class="o" stroke-width="4.5"/><clipPath id="c19"><use href="#p18"/></clipPath><rect clip-path="url(#c19)" x="-350" y="-117" width="700" height="24" fill="url(#h20)" mask="url(#m_br)"/><clipPath id="c21"><use href="#p18"/></clipPath><rect clip-path="url(#c21)" x="-350" y="-117" width="700" height="24" fill="url(#h22)" mask="url(#m_tl)"/></g><g transform="translate(520 740) scale(2.4 2.4)"><path d="M-15.1 -59L-1.7 -59L-2.1 -0.6L-14.3 0.5Z" fill="#2B1478" class="o" stroke-width="3.2"/><path d="M1.4 -59L14.6 -61L15.9 -0.1L1.3 -0.8Z" fill="#2B1478" class="o" stroke-width="3.2"/><path d="M-17.3 -9.3L-1.4 -8.3L-0.3 0.7L-18.5 0.5Z" fill="#1b0a3c"/><path d="M0.3 -8.7L18.4 -9L18.9 -0.3L0.2 -0Z" fill="#1b0a3c"/><path d="M-23 -109L-34 -100L-14.9 -75L-5.4 -89Z" fill="#13D6F2" class="o" stroke-width="3.2"/><path d="M24 -108L35 -101L14.8 -76L5.5 -88Z" fill="#13D6F2" class="o" stroke-width="3.2"/><path id="p23" d="M-25 -114L26 -114L21 -52L-22 -52Z" fill="#13D6F2" class="o" stroke-width="3.2"/><clipPath id="c24"><use href="#p23"/></clipPath><rect clip-path="url(#c24)" x="-25" y="-114" width="50" height="62" fill="url(#h25)" mask="url(#m_br)"/><clipPath id="c26"><use href="#p23"/></clipPath><rect clip-path="url(#c26)" x="-25" y="-114" width="50" height="62" fill="url(#h27)" mask="url(#m_tl)"/><path d="M-22 -60L22 -60L22 -51L-22 -51Z" fill="#177097"/><path id="p28" d="M16 -139Q17.1 -134 16.1 -131Q15.1 -127 12 -123Q8.9 -120 4 -119Q-0.9 -117 -5.4 -119Q-10 -120 -12.8 -123Q-15.6 -125 -17.1 -130Q-18.7 -135 -17.6 -139Q-16.4 -144 -12.4 -147Q-8.5 -151 -4.1 -152Q0.2 -153 4.4 -152Q8.5 -150 11.7 -147Q14.9 -143 16 -139Z" fill="#F2B27D" class="o" stroke-width="3.2"/><clipPath id="c29"><use href="#p28"/></clipPath><rect clip-path="url(#c29)" x="-18" y="-153" width="36" height="36" fill="url(#h25)" mask="url(#m_br)"/><path d="M-18.4 -139L-15.4 -155L-0.7 -159L15.5 -155L19.1 -137L11.9 -145L-11.2 -146Z" fill="#160840" class="o" stroke-width="3.2"/><path id="p30" d="M-18.8 -93L18.6 -92L18.9 -66L-18.3 -67Z" fill="#13D6F2" class="o" stroke-width="3.2"/><clipPath id="c31"><use href="#p30"/></clipPath><rect clip-path="url(#c31)" x="-18" y="-92" width="36" height="26" fill="url(#h25)" mask="url(#m_br)"/><path d="M-14 -88L13.1 -88L13.7 -83L-14.5 -84Z" fill="#FFFFFF"/></g><g transform="translate(960 740) scale(2.4 2.4)"><path d="M-14.9 -60L-2.3 -60L-2.6 -0.8L-15.5 0.2Z" fill="#2B1478" class="o" stroke-width="3.2"/><path d="M1.2 -60L15.7 -60L15.6 -0.1L1.7 0.4Z" fill="#2B1478" class="o" stroke-width="3.2"/><path d="M-17.1 -8.6L-1.3 -8.7L-1.9 0.1L-18.8 -0.8Z" fill="#1b0a3c"/><path d="M0.6 -8.6L17.7 -8.3L18 0.7L0.8 -0.4Z" fill="#1b0a3c"/><path d="M-23 -108L-35 -100L-14 -76L-5.6 -88Z" fill="#F2118C" class="o" stroke-width="3.2"/><path d="M24 -108L35 -100L13.2 -77L5.9 -87Z" fill="#F2118C" class="o" stroke-width="3.2"/><path id="p32" d="M-25 -114L24 -115L21 -52L-20 -52Z" fill="#F2118C" class="o" stroke-width="3.2"/><clipPath id="c33"><use href="#p32"/></clipPath><rect clip-path="url(#c33)" x="-25" y="-114" width="50" height="62" fill="url(#h25)" mask="url(#m_br)"/><clipPath id="c34"><use href="#p32"/></clipPath><rect clip-path="url(#c34)" x="-25" y="-114" width="50" height="62" fill="url(#h27)" mask="url(#m_tl)"/><path d="M-21 -59L23 -60L21 -53L-22 -51Z" fill="#860e64"/><path id="p35" d="M16.5 -140Q17.5 -136 16.6 -130Q15.6 -125 12.4 -123Q9.3 -120 4.6 -118Q-0 -116 -4.2 -118Q-8.3 -120 -12.4 -123Q-16.4 -126 -17.4 -130Q-18.3 -134 -17 -139Q-15.6 -143 -12.8 -147Q-10 -150 -5 -152Q-0.1 -154 4.1 -152Q8.3 -150 11.9 -147Q15.5 -144 16.5 -140Z" fill="#C98A5B" class="o" stroke-width="3.2"/><clipPath id="c36"><use href="#p35"/></clipPath><rect clip-path="url(#c36)" x="-18" y="-153" width="36" height="36" fill="url(#h25)" mask="url(#m_br)"/><path d="M-18.1 -138L-14.1 -154L-0.8 -159L15.4 -155L18.8 -138L11.9 -144L-11.9 -145Z" fill="#160840" class="o" stroke-width="3.2"/></g><g transform="translate(740 700) scale(1.4 1.4)"><path d="M-5 -241L3.9 -241L4 1L-5.3 -0.1Z" fill="#160840" class="o" stroke-width="4.1"/><path id="p37" d="M-25 -239L27 -239L18 -290L-18.3 -289Z" fill="#FFC619" class="o" stroke-width="4.1"/><clipPath id="c38"><use href="#p37"/></clipPath><rect clip-path="url(#c38)" x="-26" y="-290" width="52" height="50" fill="url(#h39)" mask="url(#m_tl)"/><g class="pulse" style="--t:4s;animation-delay:-0s;transform-origin:0px -266px"><circle cx="0" cy="-266" r="90" fill="url(#gl40)"/></g></g><g transform="translate(640 715) scale(0.6 0.6)"><path d="M-100 -106L-0.3 -132L-0.1 -12.2L-98 1.9Z" fill="#FFF0D0" class="o" stroke-width="7"/><path d="M101 -108L0.4 -131L0.5 -11L102 -1Z" fill="#fff4de" class="o" stroke-width="7"/><path d="M-107 5.8L1.9 -0L106 6.7L107 -5.5L-0.6 -8.6L-106 -4.8Z" fill="#C8102E" class="o" stroke-width="7"/><path d="M-83 -93L-17 -105" fill="none" stroke="#1b0a3c" stroke-width="3" stroke-linecap="round" stroke-linejoin="round"/><path d="M85 -92L15.7 -104" fill="none" stroke="#1b0a3c" stroke-width="3" stroke-linecap="round" stroke-linejoin="round"/><path d="M-84 -73L-17.1 -88" fill="none" stroke="#1b0a3c" stroke-width="3" stroke-linecap="round" stroke-linejoin="round"/><path d="M83 -75L17 -88" fill="none" stroke="#1b0a3c" stroke-width="3" stroke-linecap="round" stroke-linejoin="round"/><path d="M-84 -56L-15.3 -70" fill="none" stroke="#1b0a3c" stroke-width="3" stroke-linecap="round" stroke-linejoin="round"/><path d="M84 -55L17.3 -69" fill="none" stroke="#1b0a3c" stroke-width="3" stroke-linecap="round" stroke-linejoin="round"/><path d="M-83 -37L-17.1 -50" fill="none" stroke="#1b0a3c" stroke-width="3" stroke-linecap="round" stroke-linejoin="round"/><path d="M83 -36L17.1 -50" fill="none" stroke="#1b0a3c" stroke-width="3" stroke-linecap="round" stroke-linejoin="round"/></g><g transform="translate(850 715) scale(0.6 0.6)"><path d="M-99 -106L-1.1 -132L0.8 -12L-99 1.1Z" fill="#FFF0D0" class="o" stroke-width="7"/><path d="M101 -106L-0.9 -132L-1.2 -11L100 -0.1Z" fill="#fff4de" class="o" stroke-width="7"/><path d="M-109 5.1L-1.3 -1.1L107 6.4L107 -3.9L0.5 -9.2L-108 -4.5Z" fill="#2459FF" class="o" stroke-width="7"/><path d="M-85 -93L-15.2 -105" fill="none" stroke="#1b0a3c" stroke-width="3" stroke-linecap="round" stroke-linejoin="round"/><path d="M85 -93L15.7 -107" fill="none" stroke="#1b0a3c" stroke-width="3" stroke-linecap="round" stroke-linejoin="round"/><path d="M-83 -75L-15.9 -88" fill="none" stroke="#1b0a3c" stroke-width="3" stroke-linecap="round" stroke-linejoin="round"/><path d="M84 -73L15.3 -87" fill="none" stroke="#1b0a3c" stroke-width="3" stroke-linecap="round" stroke-linejoin="round"/><path d="M-85 -56L-14.8 -68" fill="none" stroke="#1b0a3c" stroke-width="3" stroke-linecap="round" stroke-linejoin="round"/><path d="M84 -56L16 -68" fill="none" stroke="#1b0a3c" stroke-width="3" stroke-linecap="round" stroke-linejoin="round"/><path d="M-83 -36L-14.8 -51" fill="none" stroke="#1b0a3c" stroke-width="3" stroke-linecap="round" stroke-linejoin="round"/><path d="M85 -38L15.6 -51" fill="none" stroke="#1b0a3c" stroke-width="3" stroke-linecap="round" stroke-linejoin="round"/></g><rect width="1600" height="900" fill="url(#v41)"/></g></svg>